<svg width="105" height="22" viewBox="0 0 105 22" fill="none" xmlns="http://www.w3.org/2000/svg">
<path d="M12 1H9C7.67392 1 6.40215 1.52678 5.46447 2.46447C4.52678 3.40215 4 4.67392 4 6V9H1V13H4V21H8V13H11L12 9H8V6C8 5.73478 8.10536 5.48043 8.29289 5.29289C8.48043 5.10536 8.73478 5 9 5H12V1Z" stroke="white" stroke-width="2" stroke-linecap="round" stroke-linejoin="round"/>
<path d="M52 1H42C39.2386 1 37 3.23858 37 6V16C37 18.7614 39.2386 21 42 21H52C54.7614 21 57 18.7614 57 16V6C57 3.23858 54.7614 1 52 1Z" stroke="white" stroke-width="2" stroke-linecap="round" stroke-linejoin="round"/>
<path d="M51 10.3698C51.1234 11.2021 50.9813 12.052 50.5938 12.7988C50.2063 13.5456 49.5932 14.1512 48.8416 14.5295C48.0901 14.9077 47.2385 15.0394 46.4078 14.9057C45.5771 14.7721 44.8098 14.3799 44.2149 13.785C43.6199 13.1901 43.2277 12.4227 43.0941 11.592C42.9604 10.7614 43.0921 9.90971 43.4703 9.15819C43.8486 8.40667 44.4542 7.79355 45.201 7.40605C45.9478 7.01856 46.7978 6.8764 47.63 6.99981C48.4789 7.1257 49.2649 7.52128 49.8717 8.12812C50.4785 8.73496 50.8741 9.52089 51 10.3698Z" stroke="white" stroke-width="2" stroke-linecap="round" stroke-linejoin="round"/>
<path d="M52.5 5.5H52.51" stroke="white" stroke-width="2" stroke-linecap="round" stroke-linejoin="round"/>
<path d="M104 3.01006C103.042 3.68553 101.982 4.20217 100.86 4.54006C100.258 3.84757 99.4573 3.35675 98.567 3.13398C97.6767 2.91122 96.7395 2.96725 95.8821 3.29451C95.0247 3.62177 94.2884 4.20446 93.773 4.96377C93.2575 5.72309 92.9877 6.62239 93 7.54006V8.54006C91.2426 8.58562 89.5013 8.19587 87.931 7.4055C86.3607 6.61513 85.0103 5.44869 84 4.01006C84 4.01006 80 13.0101 89 17.0101C86.9405 18.408 84.4872 19.109 82 19.0101C91 24.0101 102 19.0101 102 7.51006C101.999 7.23151 101.972 6.95365 101.92 6.68006C102.941 5.67355 103.661 4.40277 104 3.01006V3.01006Z" stroke="white" stroke-width="2" stroke-linecap="round" stroke-linejoin="round"/>
</svg>
