<svg width="587" height="647" viewBox="0 0 587 647" fill="none" xmlns="http://www.w3.org/2000/svg">
<path d="M102.188 102.253C81.0088 79.8992 51.966 74.3097 37.3188 89.7683C22.6717 105.227 27.9689 135.88 49.1475 158.234C56.981 166.677 66.5927 173.047 77.2002 176.827C86.2533 180.001 94.4105 185.515 100.93 192.866C101.278 193.252 101.633 193.635 101.994 194.017C117.035 209.892 136.861 214.706 146.277 204.767C155.693 194.828 151.132 173.903 136.091 158.029C135.73 157.648 135.367 157.274 135.001 156.906C128.036 150.025 122.812 141.415 119.804 131.86C116.223 120.665 110.187 110.521 102.188 102.253Z" fill="#97CC64"/>
<mask id="mask0_9_8" style="mask-type:luminance" maskUnits="userSpaceOnUse" x="29" y="81" width="123" height="129">
<path fill-rule="evenodd" clip-rule="evenodd" d="M102.188 102.253C81.0088 79.8992 51.966 74.3097 37.3188 89.7683C22.6717 105.227 27.9689 135.88 49.1475 158.234C56.981 166.677 66.5927 173.047 77.2002 176.827C86.2533 180.001 94.4105 185.515 100.93 192.866C101.278 193.252 101.633 193.635 101.994 194.017C117.035 209.892 136.861 214.706 146.277 204.767C155.693 194.828 151.132 173.903 136.091 158.029C135.73 157.648 135.367 157.274 135.001 156.906C128.036 150.025 122.812 141.415 119.804 131.86C116.223 120.665 110.187 110.521 102.188 102.253Z" fill="white"/>
</mask>
<g mask="url(#mask0_9_8)">
<path d="M52.6575 65.9331C16.3498 221.881 120.861 130.404 151.177 235.478C181.493 340.552 -9.41637 236.715 -9.41637 236.715L-16.4449 31.5108" fill="#75AA3C"/>
</g>
<path d="M69.4774 110.986C70.3254 115.515 69.6809 120.214 67.651 124.303C67.1535 125.303 68.5892 126.191 69.0877 125.188C71.3262 120.683 72.0303 115.504 71.0821 110.517C70.8722 109.41 69.2682 109.879 69.4774 110.984V110.986Z" fill="#75AA3C"/>
<rect width="25.3087" height="34.48" rx="5.23404" transform="matrix(0.666383 0.74561 -0.708663 0.705547 330.88 136.181)" fill="#589BF7"/>
<rect width="25.3087" height="34.48" rx="5.23404" transform="matrix(0.666383 0.74561 -0.708663 0.705547 302.81 164.128)" fill="#589BF7"/>
<rect width="277.179" height="518.715" rx="18.0279" transform="matrix(0.666383 0.74561 -0.708663 0.705547 402.293 74.3548)" fill="#589BF7"/>
<mask id="mask1_9_8" style="mask-type:luminance" maskUnits="userSpaceOnUse" x="41" y="82" width="539" height="558">
<rect width="277.179" height="518.715" rx="18.0279" transform="matrix(0.666383 0.74561 -0.708663 0.705547 402.293 74.3548)" fill="white"/>
</mask>
<g mask="url(#mask1_9_8)">
<path d="M-56.1976 433.362L661.21 218.371L239.083 795.552L142.418 820.471L-66.0666 581.149L-118.926 512.935" fill="#2976DF"/>
</g>
<path d="M546.834 255.095L534.744 241.569C530.776 237.21 524.211 237.071 520.081 241.259C515.951 245.446 509.387 245.307 505.419 240.949L435.441 162.65C431.55 158.215 431.802 151.291 436.003 147.183C440.205 143.076 440.456 136.151 436.565 131.716L424.475 118.19C412.293 104.808 392.14 104.382 379.46 117.237L82.0267 413.365C69.1282 425.976 68.3561 447.234 80.3021 460.85L202.661 597.756C214.842 611.137 234.995 611.564 247.675 598.708L545.109 302.582C558.009 289.971 558.781 268.711 546.834 255.095Z" fill="#EFF3FC"/>
<rect width="211.957" height="211.291" rx="9.76685" transform="matrix(0.666383 0.74561 -0.708663 0.705547 370.124 152.334)" fill="#EFF3FC"/>
<rect width="211.957" height="44.7176" rx="11.3499" transform="matrix(0.666383 0.74561 -0.708663 0.705547 204.344 317.384)" fill="#D6DCF2"/>
<rect width="211.957" height="44.7176" rx="11.3499" transform="matrix(0.666383 0.74561 -0.708663 0.705547 160.481 361.054)" fill="#D6DCF2"/>
<path d="M222.256 539.891C211.319 536.804 200.97 531.744 191.666 524.935C189.443 523.311 187.345 527.143 189.551 528.754C199.164 535.766 209.851 540.976 221.142 544.155C222.254 544.468 223.397 543.776 223.703 542.606C224.009 541.435 223.363 540.223 222.256 539.891Z" fill="#D6DCF2"/>
<path d="M467.855 101.571L457.275 101.254L456.329 101.226C439.829 100.746 423.647 96.3293 408.994 88.3081L408.865 88.2377L398.715 82.691C400.035 78.7613 401.445 74.8674 402.943 71.0092C403.048 70.7393 403.151 70.4685 403.258 70.1996C405.643 64.2542 411.595 60.8276 417.622 61.9306C417.971 61.995 418.319 62.0744 418.668 62.1688L435.694 66.8155L459.822 73.4C466.139 75.1193 470.305 81.4669 469.611 88.3125C469.533 89.0846 469.435 89.8547 469.347 90.6265C468.926 94.2878 468.429 97.9359 467.855 101.571Z" fill="#FF999A"/>
<path d="M447.798 164.709C444.643 167.05 440.675 167.81 436.942 166.789L430.449 165.017L414.317 160.614L400.006 156.709L395.876 155.582C389.549 153.856 385.381 147.489 386.091 140.633C386.218 139.41 386.379 138.19 386.524 136.969C386.89 133.875 387.311 130.789 387.784 127.71C388.69 121.82 389.789 115.967 391.081 110.151C392.382 104.289 393.876 98.4797 395.562 92.7234C396.548 89.3572 397.599 86.0134 398.715 82.692L406.262 86.8156L408.994 88.3085C410.798 89.2942 412.622 90.2243 414.466 91.0988C424.944 96.0795 436.101 99.2828 447.525 100.59C450.53 100.935 453.546 101.141 456.567 101.232L467.854 101.57C467.31 105.048 466.7 108.513 466.022 111.963C464.865 117.858 463.514 123.703 461.969 129.5C460.439 135.242 458.721 140.926 456.814 146.552C455.671 149.924 454.461 153.271 453.184 156.594C452.911 157.306 452.644 158.021 452.363 158.729C451.406 161.137 449.823 163.21 447.798 164.709Z" fill="#FE7578"/>
<mask id="mask2_9_8" style="mask-type:luminance" maskUnits="userSpaceOnUse" x="386" y="82" width="82" height="86">
<path fill-rule="evenodd" clip-rule="evenodd" d="M447.798 164.709C444.643 167.05 440.675 167.81 436.942 166.789L430.449 165.017L414.317 160.614L400.006 156.709L395.876 155.582C389.549 153.856 385.381 147.489 386.091 140.633C386.218 139.41 386.379 138.19 386.524 136.969C386.89 133.875 387.311 130.789 387.784 127.71C388.69 121.82 389.789 115.967 391.081 110.151C392.382 104.289 393.876 98.4797 395.562 92.7234C396.548 89.3572 397.599 86.0134 398.715 82.692L406.262 86.8156L408.994 88.3085C410.798 89.2942 412.622 90.2243 414.466 91.0988C424.944 96.0795 436.101 99.2828 447.525 100.59C450.53 100.935 453.546 101.141 456.567 101.232L467.854 101.57C467.31 105.048 466.7 108.513 466.022 111.963C464.865 117.858 463.514 123.703 461.969 129.5C460.439 135.242 458.721 140.926 456.814 146.552C455.671 149.924 454.461 153.271 453.184 156.594C452.911 157.306 452.644 158.021 452.363 158.729C451.406 161.137 449.823 163.21 447.798 164.709Z" fill="white"/>
</mask>
<g mask="url(#mask2_9_8)">
<path d="M383.909 148.995C453.976 165.477 453.867 147.585 461.101 133.219C468.335 118.854 467.408 165.142 467.408 165.142C467.408 165.142 449.75 179.914 448.436 180.308C447.123 180.702 386.111 165.199 386.111 165.199L380.811 163.492" fill="#E55A61"/>
<path d="M441.639 113.535C434.438 118.001 425.194 115.875 420.407 108.652C415.62 101.428 416.897 91.5347 423.341 85.9265C429.784 80.3184 439.23 80.8797 445.036 87.2159C450.843 93.552 451.06 103.534 445.534 110.145C444.413 111.484 443.098 112.628 441.639 113.535Z" fill="#E55A61"/>
</g>
<path d="M440.648 110.029C436.72 112.476 431.99 113.04 427.643 111.58C422.222 109.769 418.113 105.065 416.843 99.2151C415.572 93.3648 417.33 87.2419 421.464 83.1197C423.379 81.2118 425.707 79.8275 428.245 79.0876C435.239 77.0558 442.655 80.2294 446.333 86.8285C448.497 90.6997 449.114 95.3206 448.048 99.6726C446.982 104.025 444.32 107.75 440.648 110.029H440.648Z" fill="#FFC562"/>
<path d="M438.262 105.753C435.484 107.483 432.139 107.882 429.066 106.85C427.373 106.286 425.829 105.309 424.561 103.997C421.657 100.995 420.493 96.5842 421.511 92.4304C422.529 88.2766 425.572 85.0135 429.491 83.8741C433.419 82.7374 437.623 83.9057 440.511 86.9367C441.804 88.2992 442.768 89.9697 443.322 91.8076C444.925 97.133 442.824 102.92 438.261 105.752L438.262 105.753Z" fill="#FF9763"/>
<path d="M450.414 81.2931C450.767 81.3763 451.101 81.5302 451.399 81.7463C451.542 81.8397 451.676 81.9491 451.796 82.0727C451.938 82.2114 452.071 82.3602 452.194 82.5181C452.254 82.5943 452.181 82.4936 452.24 82.5817L452.313 82.6906C452.365 82.7712 452.415 82.8536 452.462 82.938C452.513 83.0299 452.56 83.1237 452.605 83.2194C452.639 83.2897 452.669 83.3625 452.694 83.4372C452.828 83.7898 452.899 84.1652 452.905 84.5449C452.912 84.8262 453.13 85.0505 453.397 85.0505C453.663 85.0505 453.881 84.8262 453.888 84.5449C453.819 82.536 452.515 80.8102 450.675 80.2913C450.414 80.2151 450.143 80.3775 450.071 80.6538C449.999 80.9302 450.152 81.2159 450.414 81.292V81.2931Z" fill="#FE7578"/>
<path d="M405.227 137.159C406.825 140.149 409.626 142.208 412.837 142.753C413.098 142.82 413.363 142.661 413.442 142.391C413.513 142.115 413.36 141.831 413.099 141.753C410.138 141.274 407.549 139.388 406.076 136.635C405.767 136.052 404.917 136.575 405.227 137.159Z" fill="#E55A61"/>
<ellipse cx="82.4696" cy="41.36" rx="82.4696" ry="41.36" transform="matrix(0.224211 -0.974541 0.968692 0.248266 25.6891 521.597)" fill="#FFC562"/>
<mask id="mask3_9_8" style="mask-type:luminance" maskUnits="userSpaceOnUse" x="40" y="370" width="89" height="163">
<ellipse cx="82.4696" cy="41.36" rx="82.4696" ry="41.36" transform="matrix(0.224211 -0.974541 0.968692 0.248266 25.6891 521.597)" fill="white"/>
</mask>
<g mask="url(#mask3_9_8)">
<path d="M45.0922 398.211C114.793 350.707 131.547 400.003 136.204 422.648C140.861 445.293 137.224 376.544 137.224 376.544L96.9276 336.77L80.1241 344.534" fill="#D89D35"/>
</g>
<path d="M93.0599 388.001C111.684 384.112 123.998 409.007 120.562 443.599C117.123 478.207 99.2367 509.405 80.6123 513.294C61.9811 517.185 49.6672 492.291 53.1054 457.685C56.5416 423.092 74.4284 391.891 93.0599 388.001Z" fill="#E84B23"/>
<mask id="mask4_9_8" style="mask-type:luminance" maskUnits="userSpaceOnUse" x="52" y="387" width="70" height="127">
<path fill-rule="evenodd" clip-rule="evenodd" d="M93.0599 388.001C111.684 384.112 123.998 409.007 120.562 443.599C117.123 478.207 99.2367 509.405 80.6123 513.294C61.9811 517.185 49.6672 492.291 53.1054 457.685C56.5416 423.092 74.4284 391.891 93.0599 388.001Z" fill="white"/>
</mask>
<g mask="url(#mask4_9_8)">
<path d="M83.0071 393.761C101.632 389.871 113.945 414.766 110.509 449.359C107.071 483.966 89.1839 515.165 70.5595 519.054C51.9283 522.945 39.6147 498.05 43.0529 463.444C46.4892 428.851 64.3759 397.651 83.0071 393.761Z" fill="#FF9763"/>
</g>
<path d="M29.4433 520.417C29.659 520.589 29.8718 520.769 30.0907 520.934C30.3564 521.133 30.6291 521.315 30.8993 521.501C31.1189 521.652 31.3352 521.812 31.5573 521.955C31.8385 522.135 32.1264 522.295 32.4127 522.463C32.6316 522.591 32.848 522.728 33.0701 522.848C33.378 523.014 33.6927 523.159 34.0051 523.309C34.2127 523.408 34.4168 523.518 34.6267 523.611C34.9814 523.768 35.3447 523.901 35.7071 524.038C35.8822 524.104 36.0531 524.181 36.2294 524.242C36.7706 524.43 37.3187 524.596 37.8737 524.739L65.7149 531.874C65.1591 531.732 64.6105 531.566 64.069 531.378C63.891 531.316 63.7189 531.238 63.5425 531.171C63.1821 531.035 62.8203 530.902 62.4663 530.746C62.2551 530.653 62.0501 530.542 61.8415 530.442C61.5294 530.292 61.2154 530.148 60.9087 529.983C60.6882 529.864 60.4732 529.727 60.2555 529.601C59.9676 529.433 59.6781 529.27 59.3953 529.09C59.1745 528.948 58.9598 528.79 58.7421 528.64C58.47 528.452 58.1963 528.27 57.9297 528.07C57.7104 527.906 57.4976 527.725 57.2822 527.553C57.0243 527.346 56.7645 527.144 56.5117 526.925C56.297 526.739 56.0884 526.539 55.8775 526.346C55.6315 526.12 55.3842 525.898 55.143 525.66C54.9344 525.456 54.7313 525.235 54.5266 525.02C54.2916 524.774 54.0546 524.531 53.8247 524.273C53.6235 524.049 53.4281 523.812 53.2305 523.578C53.0048 523.312 52.7791 523.048 52.5586 522.771C52.3652 522.527 52.1756 522.27 51.9854 522.018C51.7709 521.733 51.5556 521.45 51.3463 521.155C51.159 520.891 50.9772 520.617 50.794 520.344C50.5906 520.042 50.3868 519.741 50.1885 519.429C50.0096 519.147 49.8358 518.855 49.6611 518.564C49.4676 518.243 49.2742 517.922 49.0856 517.591C48.9157 517.292 48.7506 516.985 48.5852 516.678C48.4021 516.338 48.2189 515.998 48.041 515.65C47.8798 515.333 47.7234 515.009 47.5664 514.685C47.3939 514.328 47.2217 513.97 47.0544 513.605C46.9019 513.27 46.7536 512.929 46.6056 512.587C46.4444 512.215 46.2848 511.842 46.1294 511.462C45.9859 511.11 45.846 510.752 45.7067 510.392C45.5674 510.033 45.4317 509.674 45.2982 509.309C45.0551 508.645 44.822 507.967 44.595 507.281C44.517 507.042 44.4338 506.814 44.3587 506.575C44.064 505.65 43.7834 504.704 43.5169 503.739C43.4585 503.526 43.4063 503.306 43.3496 503.092C43.1451 502.324 42.9493 501.545 42.7621 500.754C42.6828 500.415 42.6074 500.073 42.5316 499.73C42.3753 499.026 42.2264 498.313 42.0847 497.591C42.0112 497.216 41.9377 496.845 41.8681 496.468C41.7662 495.91 41.6708 495.345 41.5779 494.777C41.5089 494.36 41.4386 493.943 41.3741 493.518C41.2842 492.925 41.2029 492.322 41.1223 491.718C41.0672 491.306 41.0092 490.898 40.9582 490.481C40.8789 489.828 40.8106 489.164 40.7422 488.5C40.7032 488.12 40.6587 487.745 40.6229 487.361C40.5459 486.527 40.482 485.679 40.4217 484.828C40.4059 484.605 40.3847 484.388 40.3701 484.164C40.2996 483.075 40.2434 481.972 40.2015 480.856C40.1899 480.549 40.1867 480.236 40.1773 479.928C40.1525 479.115 40.1296 478.3 40.1203 477.473C40.1154 477.047 40.1203 476.613 40.1203 476.183C40.1203 475.464 40.1183 474.744 40.1283 474.015C40.1351 473.538 40.1493 473.057 40.1606 472.578C40.1773 471.883 40.196 471.187 40.2251 470.484C40.2422 470.047 40.265 469.605 40.286 469.165C40.3341 468.175 40.3926 467.176 40.4614 466.17C40.4898 465.762 40.5156 465.353 40.5472 464.943C40.6529 463.561 40.7728 462.17 40.9186 460.762C41.0798 459.225 41.2652 457.694 41.4686 456.169C41.5331 455.681 41.6085 455.197 41.6778 454.711C41.8262 453.669 41.9803 452.63 42.1482 451.595C42.2211 451.147 42.2995 450.701 42.3762 450.254C42.7231 448.223 43.0974 446.202 43.5172 444.203C43.5424 444.082 43.5717 443.964 43.5972 443.844C44.0095 441.904 44.4609 439.983 44.9384 438.078C45.0203 437.75 45.0996 437.42 45.1834 437.092C45.6735 435.186 46.1959 433.301 46.7507 431.438C46.8609 431.064 46.9744 430.695 47.0876 430.324C47.6618 428.438 48.2586 426.571 48.8931 424.738C48.9489 424.576 49.0088 424.419 49.0653 424.257C49.6796 422.5 50.3208 420.771 50.9891 419.07C51.0994 418.788 51.2064 418.503 51.3176 418.223C52.0078 416.49 52.7244 414.789 53.4675 413.121C53.6174 412.783 53.7693 412.448 53.9214 412.112C54.6797 410.438 55.4571 408.792 56.2628 407.191C56.3518 407.014 56.4446 406.844 56.5339 406.668C57.309 405.145 58.1043 403.659 58.9198 402.211C59.0571 401.966 59.1912 401.716 59.3292 401.474C59.9824 400.332 60.6447 399.207 61.3211 398.113C61.3653 398.042 61.4111 397.977 61.4552 397.904C62.0895 396.883 62.7335 395.886 63.3871 394.914C63.6128 394.576 63.8437 394.25 64.0719 393.918C64.5536 393.218 65.0392 392.527 65.5295 391.853C65.7922 391.492 66.0561 391.135 66.3214 390.783C66.8029 390.142 67.2885 389.514 67.7784 388.899C68.056 388.55 68.3326 388.198 68.6121 387.856C68.9142 387.489 69.2186 387.132 69.5229 386.775C69.8747 386.362 70.2271 385.952 70.5824 385.552C70.8916 385.205 71.2024 384.867 71.5141 384.532C71.8688 384.146 72.2276 383.765 72.5868 383.394C72.9031 383.067 73.2213 382.747 73.5399 382.433C73.9005 382.076 74.2627 381.724 74.6264 381.38C74.9475 381.077 75.2699 380.78 75.5936 380.488C75.9696 380.149 76.3467 379.818 76.725 379.493C77.0199 379.241 77.3156 378.993 77.6122 378.749C78.004 378.429 78.3973 378.12 78.7916 377.817C79.0882 377.589 79.3845 377.36 79.6821 377.142C80.0845 376.847 80.4882 376.568 80.8937 376.292C81.1855 376.092 81.4763 375.889 81.7688 375.699C82.1947 375.422 82.6228 375.166 83.0507 374.91C83.3244 374.747 83.5988 374.575 83.8722 374.42C84.2858 374.186 84.7018 373.977 85.117 373.763C85.4252 373.604 85.7328 373.434 86.042 373.286C86.4773 373.078 86.9125 372.898 87.3507 372.712C87.6409 372.588 87.931 372.451 88.2212 372.337C88.7077 372.147 89.1955 371.988 89.6833 371.827C89.9261 371.746 90.1669 371.65 90.4104 371.576C91.1412 371.355 91.8736 371.165 92.6076 371.006C93.1931 370.881 93.7657 370.813 94.3409 370.731C94.7068 370.68 95.0766 370.611 95.4371 370.577C95.951 370.528 96.4553 370.522 96.9608 370.509C97.2929 370.5 97.6292 370.471 97.9567 370.477C98.5103 370.487 99.051 370.543 99.5936 370.595C99.8622 370.62 100.137 370.623 100.404 370.659C101.2 370.766 101.991 370.918 102.771 371.117L74.9304 363.982C74.1495 363.783 73.3587 363.63 72.5617 363.524C72.297 363.488 72.0236 363.485 71.7556 363.46C71.2127 363.408 70.6704 363.352 70.1162 363.342C69.788 363.336 69.451 363.365 69.1189 363.374C68.6131 363.387 68.1092 363.394 67.5949 363.442C67.2345 363.476 66.8659 363.544 66.5016 363.596C66.0876 363.654 65.6795 363.689 65.2607 363.77C65.0956 363.802 64.9308 363.836 64.7651 363.872C64.0319 364.029 63.2995 364.219 62.5679 364.442C62.3241 364.516 62.081 364.612 61.8376 364.694C61.3511 364.856 60.8646 365.015 60.3793 365.204C60.0892 365.318 59.799 365.455 59.5088 365.579C59.072 365.765 58.6348 365.946 58.1995 366.154C57.8913 366.301 57.5853 366.47 57.2784 366.628C56.9237 366.81 56.5691 366.978 56.2173 367.175C56.1548 367.209 56.0926 367.251 56.03 367.287C55.756 367.442 55.4835 367.613 55.2101 367.777C54.781 368.033 54.3525 368.29 53.9259 368.567C53.6358 368.755 53.3456 368.958 53.0554 369.156C52.6486 369.434 52.2423 369.715 51.838 370.011C51.5411 370.23 51.2454 370.458 50.9494 370.685C50.5558 370.988 50.1631 371.298 49.772 371.616C49.4734 371.86 49.1762 372.11 48.8802 372.365C48.6893 372.528 48.4965 372.679 48.3063 372.846C48.1161 373.013 47.9368 373.19 47.7514 373.356C47.429 373.648 47.1066 373.943 46.7861 374.246C46.4208 374.59 46.0578 374.944 45.6954 375.303C45.3778 375.618 45.0606 375.935 44.7453 376.261C44.3855 376.633 44.0286 377.014 43.672 377.399C43.3605 377.737 43.0491 378.075 42.7399 378.422C42.3852 378.821 42.0335 379.23 41.682 379.643C41.377 380.001 41.0724 380.357 40.7703 380.725C40.6574 380.862 40.542 380.991 40.4298 381.13C40.2625 381.336 40.1009 381.561 39.9346 381.77C39.4456 382.385 38.9604 383.013 38.4789 383.653C38.2145 384.005 37.9512 384.36 37.689 384.719C37.1979 385.394 36.713 386.085 36.2313 386.785C36.0021 387.119 35.7703 387.446 35.543 387.785C34.8939 388.754 34.254 389.745 33.6234 390.758C33.5753 390.834 33.5266 390.907 33.478 390.985C32.8009 392.079 32.139 393.203 31.4851 394.346C31.4345 394.436 31.3813 394.519 31.3304 394.608C31.2443 394.76 31.1656 394.924 31.0802 395.075C30.2634 396.527 29.4668 398.015 28.6905 399.539C28.6005 399.715 28.5083 399.884 28.4193 400.061C27.6133 401.662 26.836 403.309 26.0773 404.983C25.9251 405.319 25.7739 405.653 25.624 405.991C24.8827 407.661 24.1658 409.362 23.4735 411.095C23.3623 411.374 23.2562 411.659 23.146 411.94C22.4796 413.646 21.8372 415.378 21.2186 417.137C21.1638 417.295 21.1054 417.448 21.0506 417.606C20.4164 419.44 19.8193 421.308 19.2451 423.195C19.1322 423.566 19.0194 423.936 18.9078 424.31C18.3557 426.173 17.8334 428.057 17.3409 429.962C17.2565 430.29 17.1778 430.621 17.0953 430.949C16.6184 432.851 16.1674 434.769 15.7553 436.708C15.7295 436.83 15.7002 436.95 15.6747 437.072C15.2556 439.07 14.8812 441.09 14.534 443.12C14.4956 443.345 14.4447 443.566 14.4073 443.792C14.3699 444.018 14.3428 444.242 14.3054 444.466C14.1381 445.498 13.983 446.534 13.8366 447.572C13.7664 448.061 13.6912 448.548 13.6258 449.038C13.4223 450.564 13.236 452.094 13.0777 453.632C12.9316 455.039 12.8123 456.429 12.7063 457.81C12.674 458.224 12.6489 458.633 12.6202 459.044C12.5516 460.048 12.4933 461.044 12.4451 462.033C12.4332 462.283 12.4129 462.539 12.4013 462.788C12.3929 462.978 12.3916 463.164 12.3845 463.353C12.3568 464.054 12.3381 464.749 12.32 465.442C12.3084 465.924 12.2942 466.408 12.2878 466.887C12.2771 467.611 12.2781 468.326 12.2794 469.041C12.2794 469.476 12.2758 469.914 12.2813 470.345C12.2903 471.162 12.3136 471.97 12.3374 472.774C12.3471 473.091 12.3506 473.413 12.3622 473.727C12.4052 474.841 12.4613 475.941 12.5305 477.028L12.5334 477.08C12.548 477.307 12.5705 477.527 12.5866 477.752C12.6456 478.584 12.7082 479.412 12.7836 480.227C12.8197 480.617 12.8649 480.998 12.9045 481.384C12.9726 482.042 13.0403 482.7 13.1186 483.346C13.1699 483.767 13.2286 484.18 13.2843 484.596C13.3646 485.196 13.4456 485.794 13.5345 486.384C13.599 486.81 13.6699 487.229 13.7396 487.649C13.8328 488.215 13.9276 488.778 14.0298 489.333C14.0597 489.497 14.0849 489.668 14.1152 489.831C14.1555 490.044 14.2052 490.246 14.2464 490.458C14.3883 491.18 14.5371 491.892 14.693 492.595C14.7691 492.938 14.8442 493.282 14.9238 493.621C15.1108 494.417 15.3075 495.201 15.5138 495.971C15.5696 496.18 15.6212 496.395 15.6779 496.602C15.9442 497.57 16.2252 498.517 16.5207 499.443C16.5965 499.681 16.6787 499.91 16.7561 500.146C16.9818 500.833 17.2165 501.511 17.4593 502.175C17.5066 502.304 17.5482 502.441 17.596 502.569C17.684 502.805 17.7794 503.029 17.8697 503.263C18.008 503.62 18.147 503.977 18.2888 504.326C18.4449 504.708 18.6051 505.082 18.7663 505.454C18.9149 505.797 19.0633 506.139 19.2161 506.473C19.3828 506.838 19.554 507.194 19.7255 507.548C19.8831 507.874 20.0408 508.2 20.2027 508.519C20.3797 508.865 20.5612 509.203 20.7433 509.539C20.9103 509.848 21.0764 510.158 21.2476 510.46C21.4352 510.789 21.6274 511.107 21.8202 511.428C21.9956 511.719 22.1697 512.012 22.3493 512.295C22.5476 512.608 22.751 512.908 22.9544 513.211C23.1379 513.483 23.3201 513.758 23.5077 514.022C23.7157 514.315 23.9297 514.597 24.1428 514.88C24.3363 515.135 24.5246 515.393 24.7206 515.639C24.9389 515.913 25.163 516.175 25.3864 516.439C25.5856 516.674 25.7833 516.916 25.9864 517.141C26.2163 517.398 26.4526 517.641 26.6873 517.886C26.8921 518.101 27.0945 518.32 27.3031 518.525C27.5449 518.764 27.7935 518.988 28.0405 519.215C28.2507 519.409 28.4596 519.608 28.6724 519.794C28.9255 520.007 29.1857 520.21 29.4433 520.417Z" fill="#FF9763"/>
<mask id="mask5_9_8" style="mask-type:luminance" maskUnits="userSpaceOnUse" x="12" y="363" width="91" height="169">
<path fill-rule="evenodd" clip-rule="evenodd" d="M29.4433 520.417C29.659 520.589 29.8717 520.769 30.0907 520.934C30.3563 521.133 30.6291 521.315 30.8993 521.501C31.1188 521.652 31.3352 521.812 31.5573 521.955C31.8385 522.135 32.1264 522.295 32.4127 522.463C32.6316 522.591 32.8479 522.728 33.0701 522.848C33.378 523.014 33.6926 523.159 34.0051 523.309C34.2127 523.408 34.4168 523.518 34.6267 523.611C34.9813 523.768 35.3447 523.901 35.7071 524.038C35.8821 524.104 36.053 524.181 36.2294 524.242C36.7706 524.43 37.3187 524.596 37.8737 524.739L65.7149 531.874C65.1591 531.732 64.6104 531.566 64.069 531.378C63.891 531.316 63.7188 531.238 63.5425 531.171C63.182 531.035 62.8203 530.902 62.4663 530.746C62.2551 530.653 62.05 530.542 61.8414 530.442C61.5294 530.292 61.2153 530.148 60.9087 529.983C60.6882 529.864 60.4731 529.727 60.2555 529.601C59.9676 529.433 59.6781 529.27 59.3953 529.09C59.1745 528.948 58.9597 528.79 58.7421 528.64C58.47 528.452 58.1963 528.27 57.9296 528.07C57.7104 527.906 57.4976 527.725 57.2822 527.553C57.0243 527.346 56.7644 527.144 56.5117 526.925C56.2969 526.739 56.0883 526.539 55.8775 526.346C55.6315 526.12 55.3842 525.898 55.143 525.66C54.9344 525.456 54.7313 525.235 54.5266 525.02C54.2915 524.774 54.0546 524.531 53.8247 524.273C53.6235 524.049 53.4281 523.812 53.2305 523.578C53.0048 523.312 52.7791 523.048 52.5586 522.771C52.3651 522.527 52.1755 522.27 51.9853 522.018C51.7709 521.733 51.5555 521.45 51.3463 521.155C51.159 520.891 50.9771 520.617 50.794 520.344C50.5906 520.042 50.3868 519.741 50.1885 519.429C50.0096 519.147 49.8358 518.855 49.6611 518.564C49.4676 518.243 49.2742 517.922 49.0855 517.591C48.9156 517.292 48.7506 516.985 48.5852 516.678C48.402 516.338 48.2189 515.998 48.0409 515.65C47.8797 515.333 47.7234 515.009 47.5663 514.685C47.3939 514.328 47.2217 513.97 47.0544 513.605C46.9019 513.27 46.7535 512.929 46.6056 512.587C46.4444 512.215 46.2848 511.842 46.1294 511.462C45.9859 511.11 45.846 510.752 45.7067 510.392C45.5674 510.033 45.4317 509.674 45.2982 509.309C45.0551 508.645 44.822 507.967 44.595 507.281C44.517 507.042 44.4338 506.814 44.3587 506.575C44.064 505.65 43.7834 504.704 43.5169 503.739C43.4585 503.526 43.4063 503.306 43.3495 503.092C43.1451 502.324 42.9493 501.545 42.7621 500.754C42.6828 500.415 42.6073 500.073 42.5316 499.73C42.3753 499.026 42.2263 498.313 42.0847 497.591C42.0112 497.216 41.9377 496.845 41.868 496.468C41.7662 495.91 41.6707 495.345 41.5779 494.777C41.5089 494.36 41.4386 493.943 41.3741 493.518C41.2842 492.925 41.2029 492.322 41.1223 491.718C41.0672 491.306 41.0091 490.898 40.9582 490.481C40.8789 489.828 40.8105 489.164 40.7422 488.5C40.7032 488.12 40.6587 487.745 40.6229 487.361C40.5458 486.527 40.482 485.679 40.4217 484.828C40.4059 484.605 40.3846 484.388 40.3701 484.164C40.2996 483.075 40.2434 481.972 40.2015 480.856C40.1899 480.549 40.1867 480.236 40.1773 479.928C40.1525 479.115 40.1296 478.3 40.1202 477.473C40.1154 477.047 40.1202 476.613 40.1202 476.183C40.1202 475.464 40.1183 474.744 40.1283 474.015C40.1351 473.538 40.1493 473.057 40.1605 472.578C40.1773 471.883 40.196 471.187 40.225 470.484C40.2421 470.047 40.265 469.605 40.286 469.165C40.3341 468.175 40.3926 467.176 40.4614 466.17C40.4897 465.762 40.5155 465.353 40.5471 464.943C40.6529 463.561 40.7728 462.17 40.9185 460.762C41.0797 459.225 41.2651 457.694 41.4686 456.169C41.5331 455.681 41.6085 455.197 41.6778 454.711C41.8261 453.669 41.9802 452.63 42.1482 451.595C42.2211 451.147 42.2994 450.701 42.3762 450.254C42.7231 448.223 43.0974 446.202 43.5172 444.203C43.5423 444.082 43.5717 443.964 43.5971 443.844C44.0095 441.904 44.4609 439.983 44.9384 438.078C45.0203 437.75 45.0996 437.42 45.1834 437.092C45.6735 435.186 46.1959 433.301 46.7506 431.438C46.8609 431.064 46.9744 430.695 47.0876 430.324C47.6618 428.438 48.2586 426.571 48.8931 424.738C48.9488 424.576 49.0088 424.419 49.0652 424.257C49.6795 422.5 50.3208 420.771 50.9891 419.07C51.0993 418.788 51.2064 418.503 51.3176 418.223C52.0078 416.49 52.7244 414.789 53.4674 413.121C53.6174 412.783 53.7692 412.448 53.9214 412.112C54.6797 410.438 55.457 408.792 56.2628 407.191C56.3517 407.014 56.4446 406.844 56.5339 406.668C57.309 405.145 58.1043 403.659 58.9198 402.211C59.0571 401.966 59.1912 401.716 59.3292 401.474C59.9824 400.332 60.6446 399.207 61.3211 398.113C61.3652 398.042 61.411 397.977 61.4552 397.904C62.0895 396.883 62.7335 395.886 63.3871 394.914C63.6128 394.576 63.8436 394.25 64.0719 393.918C64.5536 393.218 65.0391 392.527 65.5295 391.853C65.7922 391.492 66.0561 391.135 66.3214 390.783C66.8028 390.142 67.2885 389.514 67.7783 388.899C68.0559 388.55 68.3326 388.198 68.6121 387.856C68.9142 387.489 69.2185 387.132 69.5229 386.775C69.8747 386.362 70.227 385.952 70.5823 385.552C70.8915 385.205 71.2023 384.867 71.5141 384.532C71.8688 384.146 72.2276 383.765 72.5868 383.394C72.9031 383.067 73.2213 382.747 73.5398 382.433C73.9005 382.076 74.2627 381.724 74.6264 381.38C74.9475 381.077 75.2699 380.78 75.5936 380.488C75.9695 380.149 76.3466 379.818 76.7249 379.493C77.0198 379.241 77.3156 378.993 77.6122 378.749C78.0039 378.429 78.3973 378.12 78.7916 377.817C79.0882 377.589 79.3845 377.36 79.6821 377.142C80.0845 376.847 80.4881 376.568 80.8937 376.292C81.1855 376.092 81.4763 375.889 81.7687 375.699C82.1946 375.422 82.6228 375.166 83.0507 374.91C83.3244 374.747 83.5987 374.575 83.8722 374.42C84.2858 374.186 84.7017 373.977 85.117 373.763C85.4252 373.604 85.7328 373.434 86.042 373.286C86.4772 373.078 86.9125 372.898 87.3507 372.712C87.6408 372.588 87.931 372.451 88.2212 372.337C88.7077 372.147 89.1955 371.988 89.6833 371.827C89.9261 371.746 90.1669 371.65 90.4103 371.576C91.1411 371.355 91.8736 371.165 92.6076 371.006C93.1931 370.881 93.7657 370.813 94.3409 370.731C94.7068 370.68 95.0766 370.611 95.4371 370.577C95.951 370.528 96.4552 370.522 96.9608 370.509C97.2929 370.5 97.6291 370.471 97.9567 370.477C98.5103 370.487 99.051 370.543 99.5936 370.595C99.8622 370.62 100.137 370.623 100.403 370.659C101.2 370.766 101.991 370.918 102.771 371.117L74.9304 363.982C74.1495 363.783 73.3587 363.63 72.5616 363.524C72.2969 363.488 72.0235 363.485 71.7556 363.46C71.2127 363.408 70.6704 363.352 70.1161 363.342C69.7879 363.336 69.451 363.365 69.1189 363.374C68.6131 363.387 68.1091 363.394 67.5949 363.442C67.2344 363.476 66.8659 363.544 66.5016 363.596C66.0876 363.654 65.6794 363.689 65.2606 363.77C65.0955 363.802 64.9308 363.836 64.7651 363.872C64.0319 364.029 63.2995 364.219 62.5678 364.442C62.3241 364.516 62.081 364.612 61.8376 364.694C61.3511 364.856 60.8645 365.015 60.3793 365.204C60.0891 365.318 59.799 365.455 59.5088 365.579C59.0719 365.765 58.6347 365.946 58.1995 366.154C57.8913 366.301 57.5853 366.47 57.2784 366.628C56.9237 366.81 56.569 366.978 56.2173 367.175C56.1547 367.209 56.0925 367.251 56.03 367.287C55.7559 367.442 55.4835 367.613 55.2101 367.777C54.781 368.033 54.3525 368.29 53.9259 368.567C53.6357 368.755 53.3456 368.958 53.0554 369.156C52.6485 369.434 52.2423 369.715 51.838 370.011C51.541 370.23 51.2454 370.458 50.9494 370.685C50.5557 370.988 50.163 371.298 49.772 371.616C49.4734 371.86 49.1761 372.11 48.8802 372.365C48.6893 372.528 48.4965 372.679 48.3063 372.846C48.1161 373.013 47.9368 373.19 47.7514 373.356C47.429 373.648 47.1066 373.943 46.7861 374.246C46.4208 374.59 46.0578 374.944 45.6954 375.303C45.3778 375.618 45.0606 375.935 44.7452 376.261C44.3854 376.633 44.0285 377.014 43.6719 377.399C43.3605 377.737 43.049 378.075 42.7398 378.422C42.3852 378.821 42.0334 379.23 41.682 379.643C41.377 380.001 41.0723 380.357 40.7702 380.725C40.6574 380.862 40.542 380.991 40.4298 381.13C40.2624 381.336 40.1009 381.561 39.9345 381.77C39.4455 382.385 38.9603 383.013 38.4789 383.653C38.2145 384.005 37.9512 384.36 37.6889 384.719C37.1979 385.394 36.713 386.085 36.2313 386.785C36.0021 387.119 35.7703 387.446 35.543 387.785C34.8938 388.754 34.254 389.745 33.6233 390.758C33.5753 390.834 33.5266 390.907 33.4779 390.985C32.8009 392.079 32.1389 393.203 31.4851 394.346C31.4345 394.436 31.3813 394.519 31.3303 394.608C31.2443 394.76 31.1656 394.924 31.0801 395.075C30.2634 396.527 29.4668 398.015 28.6904 399.539C28.6005 399.715 28.5083 399.884 28.4193 400.061C27.6133 401.662 26.8359 403.309 26.0773 404.983C25.9251 405.319 25.7739 405.653 25.624 405.991C24.8826 407.661 24.1658 409.362 23.4735 411.095C23.3623 411.374 23.2562 411.659 23.1459 411.94C22.4796 413.646 21.8371 415.378 21.2185 417.137C21.1637 417.295 21.1054 417.448 21.0506 417.606C20.4164 419.44 19.8193 421.308 19.2451 423.195C19.1322 423.566 19.0194 423.936 18.9078 424.31C18.3556 426.173 17.8333 428.057 17.3409 429.962C17.2564 430.29 17.1778 430.621 17.0952 430.949C16.6184 432.851 16.1673 434.769 15.7553 436.708C15.7295 436.83 15.7001 436.95 15.6747 437.072C15.2555 439.07 14.8812 441.09 14.534 443.12C14.4956 443.345 14.4447 443.566 14.4073 443.792C14.3699 444.018 14.3428 444.242 14.3054 444.466C14.1381 445.498 13.983 446.534 13.8366 447.572C13.7663 448.061 13.6912 448.548 13.6257 449.038C13.4223 450.564 13.236 452.094 13.0776 453.632C12.9316 455.039 12.8123 456.429 12.7062 457.81C12.674 458.224 12.6488 458.633 12.6201 459.044C12.5516 460.048 12.4932 461.044 12.4451 462.033C12.4331 462.283 12.4128 462.539 12.4012 462.788C12.3928 462.978 12.3916 463.164 12.3845 463.353C12.3567 464.054 12.338 464.749 12.32 465.442C12.3084 465.924 12.2942 466.408 12.2877 466.887C12.2771 467.611 12.2781 468.326 12.2794 469.041C12.2794 469.476 12.2758 469.914 12.2813 470.345C12.2903 471.162 12.3135 471.97 12.3374 472.774C12.3471 473.091 12.3506 473.413 12.3622 473.727C12.4052 474.841 12.4613 475.941 12.5305 477.028L12.5334 477.08C12.5479 477.307 12.5705 477.527 12.5866 477.752C12.6456 478.584 12.7082 479.412 12.7836 480.227C12.8197 480.617 12.8649 480.998 12.9045 481.384C12.9725 482.042 13.0402 482.7 13.1186 483.346C13.1699 483.767 13.2285 484.18 13.2843 484.596C13.3646 485.196 13.4455 485.794 13.5345 486.384C13.599 486.81 13.6699 487.229 13.7396 487.649C13.8327 488.215 13.9275 488.778 14.0297 489.333C14.0597 489.497 14.0849 489.668 14.1152 489.831C14.1555 490.044 14.2051 490.246 14.2464 490.458C14.3883 491.18 14.5371 491.892 14.6929 492.595C14.769 492.938 14.8441 493.282 14.9238 493.621C15.1108 494.417 15.3074 495.201 15.5138 495.971C15.5696 496.18 15.6212 496.395 15.6779 496.602C15.9442 497.57 16.2251 498.517 16.5207 499.443C16.5964 499.681 16.6787 499.91 16.756 500.146C16.9817 500.833 17.2164 501.511 17.4592 502.175C17.5066 502.304 17.5482 502.441 17.5959 502.569C17.6839 502.805 17.7794 503.029 17.8697 503.263C18.008 503.62 18.1469 503.977 18.2888 504.326C18.4448 504.708 18.6051 505.082 18.7663 505.454C18.9149 505.797 19.0632 506.139 19.216 506.473C19.3827 506.838 19.5539 507.194 19.7255 507.548C19.8831 507.874 20.0408 508.2 20.2026 508.519C20.3796 508.865 20.5611 509.203 20.7433 509.539C20.9103 509.848 21.0764 510.158 21.2476 510.46C21.4352 510.789 21.6274 511.107 21.8202 511.428C21.9956 511.719 22.1697 512.012 22.3492 512.295C22.5475 512.608 22.751 512.908 22.9544 513.211C23.1379 513.483 23.32 513.758 23.5077 514.022C23.7156 514.315 23.9297 514.597 24.1428 514.88C24.3363 515.135 24.5246 515.393 24.7206 515.639C24.9389 515.913 25.1629 516.175 25.3864 516.439C25.5856 516.674 25.7832 516.916 25.9864 517.141C26.2162 517.398 26.4526 517.641 26.6873 517.886C26.892 518.101 27.0945 518.32 27.3031 518.525C27.5449 518.764 27.7935 518.988 28.0405 519.215C28.2507 519.409 28.4596 519.608 28.6724 519.794C28.9255 520.007 29.1857 520.21 29.4433 520.417Z" fill="white"/>
</mask>
<g mask="url(#mask5_9_8)">
<path d="M37.6902 384.715C-31.6605 488.097 77.9014 548.126 77.9014 548.126L27.5239 544.529L-22.4254 466.047L13.3994 411.533" fill="#E84B23"/>
</g>
<path d="M99.7464 410.821L107.587 409.688L92.4212 443.938L99.9495 442.859L98.1118 453.609L87.7173 455.113L86.6565 461.306L97.1059 459.792L95.2681 470.542L84.8123 472.056L82.262 486.988L75.0787 488.019L77.6354 473.084L67.1796 474.598L69.0238 463.848L79.4732 462.334L80.5339 456.141L70.0846 457.655L71.9191 446.909L79.4571 445.816L75.5849 414.302L83.671 413.135L86.4792 442.852L99.7464 410.821Z" fill="#E84B23"/>
<path d="M67.6736 441.848C65.2082 444.555 64.1809 448.38 64.9331 452.05C65.0314 452.443 65.3219 452.749 65.6938 452.853C66.0657 452.956 66.4617 452.841 66.7307 452.551C66.9997 452.261 67.1004 451.841 66.9942 451.45C66.4295 448.564 67.2484 445.568 69.1837 443.443C70.1429 442.401 68.6331 440.804 67.6723 441.848H67.6736Z" fill="#E84B23"/>
<path d="M34.835 412.335L33.4647 413.882C33.2686 414.096 33.1567 414.381 33.1516 414.68C33.1631 414.976 33.274 415.259 33.4647 415.478C33.6656 415.688 33.9372 415.807 34.2204 415.808C34.5035 415.806 34.7746 415.687 34.9762 415.478L36.3464 413.931C36.5427 413.716 36.6546 413.431 36.6595 413.133C36.648 412.836 36.537 412.554 36.3464 412.335C36.1456 412.124 35.874 412.006 35.5907 412.005C35.3077 412.007 35.0366 412.126 34.835 412.335Z" fill="#E84B23"/>
<ellipse cx="37.741" cy="70.4211" rx="37.741" ry="70.4211" transform="matrix(0.553029 -0.833162 0.804064 0.594543 351.866 393.33)" fill="#FFC562"/>
<mask id="mask6_9_8" style="mask-type:luminance" maskUnits="userSpaceOnUse" x="368" y="351" width="122" height="106">
<ellipse cx="37.741" cy="70.4211" rx="37.741" ry="70.4211" transform="matrix(0.553029 -0.833162 0.804064 0.594543 351.866 393.33)" fill="white"/>
</mask>
<g mask="url(#mask6_9_8)">
<path d="M374.562 414.404C355.368 351.144 404.923 349.05 440.352 358.539C475.781 368.029 385.929 328.086 385.929 328.086L348.348 348.959" fill="#D89D35"/>
</g>
<path d="M382.767 375.702C385.726 358.301 409.064 355.625 434.889 369.724C460.724 383.829 479.263 409.369 476.304 426.77C473.344 444.178 450.006 446.855 424.17 432.75C398.345 418.65 379.806 393.109 382.767 375.702Z" fill="#FF9763"/>
<path d="M465.402 473.433C465.605 473.302 465.814 473.175 466.012 473.038C466.253 472.871 466.482 472.693 466.714 472.519C466.902 472.377 467.096 472.241 467.279 472.094C467.509 471.908 467.727 471.71 467.949 471.516C468.119 471.367 468.295 471.223 468.46 471.069C468.688 470.856 468.902 470.629 469.119 470.406C469.264 470.258 469.415 470.116 469.554 469.964C469.791 469.706 470.011 469.434 470.234 469.164C470.342 469.033 470.457 468.91 470.561 468.777C470.881 468.368 471.187 467.946 471.477 467.509L485.98 445.658C485.691 446.095 485.386 446.517 485.065 446.926C484.96 447.06 484.844 447.185 484.735 447.316C484.514 447.586 484.294 447.856 484.058 448.113C483.918 448.266 483.766 448.409 483.621 448.555C483.404 448.778 483.191 449.004 482.964 449.217C482.8 449.37 482.624 449.512 482.456 449.659C482.233 449.855 482.013 450.054 481.781 450.241C481.6 450.387 481.408 450.522 481.221 450.663C480.988 450.838 480.757 451.017 480.516 451.184C480.318 451.32 480.109 451.448 479.905 451.579C479.661 451.737 479.422 451.897 479.169 452.046C478.955 452.172 478.732 452.289 478.513 452.409C478.258 452.55 478.006 452.693 477.743 452.825C477.515 452.94 477.279 453.046 477.046 453.154C476.779 453.279 476.514 453.407 476.24 453.523C476.001 453.625 475.753 453.719 475.508 453.815C475.229 453.925 474.95 454.036 474.664 454.138C474.411 454.228 474.151 454.308 473.894 454.393C473.603 454.488 473.313 454.583 473.017 454.67C472.751 454.748 472.478 454.817 472.208 454.888C471.907 454.967 471.607 455.047 471.3 455.119C471.023 455.184 470.74 455.24 470.458 455.299C470.145 455.363 469.833 455.428 469.515 455.485C469.228 455.536 468.935 455.58 468.644 455.625C468.322 455.675 467.998 455.725 467.669 455.767C467.37 455.805 467.068 455.835 466.766 455.869C466.433 455.903 466.099 455.937 465.76 455.965C465.451 455.99 465.138 456.009 464.825 456.028C464.484 456.048 464.142 456.067 463.797 456.079C463.476 456.091 463.152 456.097 462.829 456.102C462.507 456.107 462.182 456.109 461.855 456.108C461.26 456.105 460.657 456.09 460.049 456.066C459.84 456.057 459.634 456.055 459.424 456.044C458.609 456.002 457.782 455.941 456.945 455.862C456.761 455.845 456.573 455.819 456.388 455.799C455.724 455.731 455.055 455.651 454.379 455.557C454.089 455.517 453.799 455.472 453.508 455.428C452.91 455.337 452.307 455.237 451.699 455.128C451.385 455.072 451.072 455.016 450.755 454.955C450.289 454.864 449.818 454.765 449.346 454.664C448.999 454.589 448.652 454.517 448.302 454.436C447.811 454.324 447.315 454.2 446.819 454.076C446.48 453.991 446.144 453.91 445.803 453.82C445.269 453.68 444.731 453.526 444.191 453.371C443.882 453.283 443.576 453.201 443.265 453.108C442.591 452.907 441.911 452.69 441.229 452.469C441.05 452.411 440.874 452.359 440.695 452.299C439.824 452.01 438.948 451.704 438.065 451.38C437.823 451.292 437.578 451.194 437.335 451.103C436.694 450.865 436.052 450.621 435.406 450.364C435.073 450.231 434.736 450.088 434.401 449.95C433.841 449.72 433.28 449.489 432.716 449.246C432.348 449.088 431.977 448.92 431.608 448.756C431.072 448.518 430.536 448.278 429.996 448.028C429.662 447.873 429.325 447.711 428.989 447.552C428.234 447.192 427.476 446.82 426.715 446.437C426.406 446.281 426.097 446.128 425.787 445.968C424.745 445.432 423.701 444.882 422.652 444.301C421.507 443.668 420.374 443.017 419.252 442.347C418.894 442.134 418.541 441.913 418.185 441.697C417.422 441.234 416.664 440.764 415.911 440.288C415.585 440.081 415.263 439.869 414.94 439.659C413.47 438.706 412.017 437.731 410.596 436.725C410.51 436.664 410.427 436.6 410.342 436.54C408.964 435.558 407.611 434.553 406.285 433.523C406.056 433.347 405.824 433.173 405.597 432.995C404.27 431.957 402.971 430.898 401.699 429.818C401.445 429.602 401.193 429.385 400.94 429.168C399.657 428.064 398.393 426.946 397.172 425.807C397.064 425.707 396.961 425.603 396.853 425.504C395.683 424.406 394.543 423.295 393.433 422.169C393.249 421.983 393.061 421.798 392.88 421.612C391.752 420.455 390.658 419.286 389.599 418.107C389.384 417.868 389.171 417.63 388.959 417.389C387.9 416.193 386.868 414.99 385.881 413.776C385.772 413.642 385.669 413.507 385.561 413.373C384.625 412.211 383.723 411.043 382.857 409.868C382.711 409.671 382.56 409.474 382.416 409.276C381.736 408.342 381.073 407.407 380.44 406.469C380.399 406.408 380.361 406.346 380.32 406.285C379.729 405.407 379.16 404.528 378.613 403.649C378.423 403.343 378.243 403.039 378.058 402.735C377.668 402.092 377.284 401.449 376.919 400.807C376.722 400.463 376.532 400.119 376.34 399.776C375.997 399.153 375.663 398.53 375.341 397.907C375.158 397.554 374.972 397.201 374.797 396.849C374.608 396.469 374.428 396.09 374.249 395.712C374.04 395.274 373.834 394.836 373.636 394.4C373.465 394.02 373.302 393.642 373.14 393.263C372.954 392.831 372.773 392.398 372.599 391.967C372.446 391.588 372.301 391.21 372.157 390.832C371.995 390.404 371.838 389.977 371.686 389.551C371.554 389.175 371.426 388.8 371.303 388.426C371.16 387.991 371.023 387.557 370.892 387.125C370.791 386.788 370.693 386.452 370.599 386.117C370.475 385.674 370.361 385.232 370.251 384.794C370.169 384.464 370.087 384.133 370.012 383.805C369.912 383.362 369.825 382.92 369.739 382.48C369.677 382.164 369.612 381.846 369.559 381.531C369.481 381.073 369.418 380.619 369.357 380.166C369.317 379.876 369.271 379.584 369.239 379.296C369.19 378.862 369.161 378.434 369.128 378.005C369.103 377.687 369.07 377.366 369.054 377.05C369.032 376.607 369.032 376.168 369.028 375.73C369.024 375.438 369.011 375.143 369.015 374.855C369.024 374.372 369.057 373.898 369.087 373.423C369.102 373.186 369.105 372.946 369.126 372.712C369.188 372.006 369.274 371.309 369.388 370.623C369.479 370.075 369.609 369.556 369.731 369.031C369.809 368.698 369.874 368.355 369.964 368.03C370.093 367.569 370.248 367.129 370.4 366.687C370.5 366.396 370.585 366.095 370.695 365.813C370.881 365.336 371.098 364.885 371.313 364.431C371.419 364.206 371.51 363.969 371.624 363.751C371.962 363.094 372.336 362.458 372.741 361.845L358.238 383.695C357.832 384.308 357.459 384.944 357.12 385.601C357.007 385.819 356.916 386.055 356.811 386.279C356.596 386.733 356.378 387.185 356.192 387.663C356.082 387.945 355.996 388.247 355.896 388.538C355.744 388.98 355.588 389.42 355.46 389.882C355.37 390.205 355.305 390.547 355.228 390.879C355.141 391.257 355.037 391.622 354.965 392.011C354.937 392.165 354.91 392.319 354.885 392.473C354.771 393.16 354.685 393.857 354.622 394.562C354.601 394.798 354.599 395.039 354.583 395.277C354.553 395.751 354.52 396.224 354.512 396.706C354.507 396.995 354.521 397.29 354.524 397.582C354.528 398.02 354.529 398.458 354.551 398.902C354.566 399.217 354.6 399.536 354.624 399.855C354.652 400.22 354.669 400.582 354.708 400.95C354.715 401.016 354.728 401.083 354.735 401.149C354.768 401.436 354.814 401.728 354.853 402.017C354.915 402.472 354.977 402.926 355.055 403.385C355.109 403.698 355.173 404.014 355.235 404.329C355.32 404.771 355.409 405.214 355.509 405.66C355.584 405.988 355.666 406.317 355.748 406.646C355.857 407.085 355.971 407.525 356.095 407.967C356.189 408.304 356.287 408.642 356.39 408.98C356.454 409.199 356.511 409.414 356.58 409.633C356.649 409.851 356.729 410.064 356.8 410.279C356.923 410.653 357.051 411.027 357.182 411.402C357.333 411.83 357.492 412.258 357.655 412.688C357.798 413.064 357.943 413.441 358.096 413.819C358.269 414.251 358.45 414.683 358.636 415.116C358.797 415.495 358.962 415.873 359.133 416.253C359.329 416.689 359.535 417.126 359.743 417.563C359.924 417.942 360.103 418.321 360.293 418.702C360.364 418.844 360.427 418.985 360.498 419.127C360.605 419.338 360.728 419.55 360.837 419.762C361.16 420.384 361.493 421.006 361.837 421.63C362.026 421.972 362.217 422.315 362.413 422.657C362.78 423.3 363.162 423.943 363.552 424.586C363.739 424.892 363.919 425.198 364.11 425.505C364.655 426.379 365.221 427.252 365.807 428.125C365.851 428.191 365.892 428.257 365.936 428.324C366.57 429.262 367.232 430.198 367.912 431.132C367.965 431.205 368.013 431.278 368.066 431.351C368.157 431.474 368.26 431.595 368.349 431.718C369.218 432.893 370.12 434.062 371.056 435.225C371.164 435.361 371.267 435.494 371.376 435.628C372.363 436.842 373.395 438.044 374.455 439.241C374.667 439.48 374.878 439.72 375.093 439.958C376.155 441.138 377.249 442.306 378.375 443.463C378.556 443.65 378.744 443.833 378.927 444.019C380.041 445.146 381.183 446.26 382.353 447.361C382.458 447.459 382.559 447.559 382.665 447.657C383.89 448.797 385.15 449.915 386.435 451.02C386.688 451.237 386.939 451.455 387.195 451.671C388.467 452.749 389.766 453.807 391.09 454.846C391.319 455.025 391.552 455.2 391.781 455.377C393.109 456.402 394.46 457.406 395.834 458.39C395.921 458.452 396.005 458.516 396.092 458.577C397.511 459.583 398.964 460.556 400.433 461.51C400.596 461.616 400.752 461.731 400.917 461.836C401.082 461.941 401.246 462.038 401.409 462.142C402.158 462.619 402.914 463.087 403.676 463.547C404.034 463.765 404.389 463.987 404.75 464.201C405.872 464.868 407.005 465.519 408.148 466.154C409.196 466.733 410.24 467.283 411.281 467.819C411.593 467.979 411.903 468.134 412.216 468.29C412.975 468.673 413.732 469.043 414.486 469.403C414.676 469.494 414.869 469.594 415.06 469.684C415.205 469.752 415.35 469.813 415.494 469.88C416.031 470.129 416.565 470.369 417.1 470.606C417.471 470.771 417.844 470.939 418.214 471.099C418.775 471.341 419.331 471.57 419.889 471.798C420.227 471.938 420.566 472.082 420.904 472.216C421.544 472.471 422.179 472.711 422.814 472.948C423.063 473.042 423.315 473.142 423.563 473.233C424.445 473.554 425.319 473.859 426.188 474.148L426.229 474.162C426.41 474.223 426.589 474.274 426.77 474.333C427.436 474.549 428.1 474.76 428.759 474.957C429.075 475.051 429.386 475.135 429.699 475.224C430.233 475.377 430.767 475.53 431.295 475.669C431.64 475.76 431.979 475.842 432.321 475.927C432.814 476.05 433.306 476.173 433.794 476.285C434.146 476.366 434.495 476.439 434.845 476.514C435.315 476.616 435.784 476.714 436.249 476.804C436.386 476.83 436.527 476.864 436.663 476.89C436.843 476.924 437.016 476.945 437.194 476.977C437.802 477.086 438.403 477.186 439 477.277C439.292 477.321 439.583 477.367 439.873 477.407C440.553 477.5 441.226 477.581 441.892 477.65C442.073 477.669 442.257 477.694 442.436 477.711C443.274 477.791 444.102 477.852 444.919 477.893C445.129 477.904 445.333 477.906 445.542 477.915C446.15 477.939 446.753 477.955 447.347 477.957C447.463 477.957 447.582 477.966 447.698 477.966C447.91 477.966 448.117 477.954 448.325 477.951C448.648 477.946 448.97 477.94 449.289 477.929C449.636 477.916 449.978 477.897 450.32 477.877C450.635 477.858 450.948 477.84 451.258 477.814C451.595 477.787 451.927 477.753 452.258 477.718C452.562 477.686 452.867 477.655 453.166 477.616C453.493 477.575 453.814 477.526 454.135 477.476C454.43 477.431 454.725 477.386 455.014 477.334C455.331 477.277 455.641 477.213 455.952 477.149C456.235 477.091 456.519 477.033 456.797 476.969C457.104 476.897 457.403 476.818 457.704 476.738C457.975 476.667 458.248 476.597 458.514 476.52C458.809 476.434 459.097 476.338 459.384 476.245C459.645 476.16 459.906 476.078 460.161 475.987C460.445 475.885 460.72 475.776 460.999 475.667C461.247 475.57 461.497 475.476 461.739 475.373C462.013 475.256 462.278 475.129 462.545 475.004C462.778 474.895 463.013 474.79 463.24 474.676C463.504 474.543 463.756 474.399 464.014 474.258C464.232 474.138 464.455 474.02 464.667 473.896C464.917 473.75 465.158 473.59 465.402 473.433Z" fill="#FF9763"/>
<mask id="mask7_9_8" style="mask-type:luminance" maskUnits="userSpaceOnUse" x="354" y="361" width="132" height="117">
<path fill-rule="evenodd" clip-rule="evenodd" d="M465.402 473.433C465.605 473.302 465.814 473.175 466.013 473.038C466.253 472.871 466.482 472.693 466.714 472.519C466.902 472.377 467.096 472.241 467.279 472.094C467.509 471.908 467.727 471.71 467.949 471.516C468.119 471.367 468.296 471.223 468.46 471.069C468.688 470.856 468.902 470.629 469.119 470.406C469.264 470.258 469.415 470.116 469.555 469.964C469.791 469.706 470.011 469.434 470.234 469.164C470.342 469.033 470.457 468.91 470.561 468.777C470.881 468.368 471.187 467.946 471.477 467.509L485.98 445.658C485.691 446.095 485.386 446.517 485.065 446.926C484.96 447.06 484.844 447.185 484.735 447.316C484.514 447.586 484.294 447.856 484.058 448.113C483.918 448.266 483.766 448.409 483.621 448.555C483.404 448.778 483.191 449.004 482.964 449.217C482.8 449.37 482.624 449.512 482.456 449.659C482.233 449.855 482.013 450.054 481.781 450.241C481.6 450.387 481.408 450.522 481.221 450.663C480.988 450.838 480.757 451.017 480.516 451.184C480.318 451.32 480.109 451.448 479.905 451.579C479.661 451.737 479.422 451.897 479.169 452.046C478.955 452.172 478.732 452.289 478.513 452.409C478.258 452.55 478.006 452.693 477.743 452.825C477.516 452.94 477.28 453.046 477.046 453.154C476.779 453.279 476.514 453.407 476.24 453.523C476.001 453.625 475.753 453.719 475.508 453.815C475.229 453.925 474.95 454.036 474.664 454.138C474.411 454.228 474.151 454.308 473.894 454.393C473.603 454.488 473.313 454.583 473.017 454.67C472.751 454.748 472.478 454.817 472.208 454.888C471.907 454.967 471.607 455.047 471.3 455.119C471.023 455.184 470.74 455.24 470.458 455.299C470.145 455.363 469.833 455.428 469.515 455.485C469.228 455.536 468.935 455.58 468.644 455.625C468.322 455.675 467.998 455.725 467.669 455.767C467.371 455.805 467.068 455.835 466.766 455.869C466.433 455.903 466.099 455.937 465.76 455.965C465.451 455.99 465.138 456.009 464.825 456.028C464.484 456.048 464.143 456.067 463.797 456.079C463.476 456.091 463.152 456.097 462.829 456.102C462.507 456.107 462.182 456.109 461.855 456.108C461.26 456.105 460.657 456.09 460.049 456.066C459.84 456.057 459.634 456.055 459.424 456.044C458.609 456.002 457.782 455.941 456.945 455.862C456.761 455.845 456.573 455.819 456.388 455.799C455.724 455.731 455.055 455.651 454.379 455.557C454.089 455.517 453.799 455.472 453.508 455.428C452.91 455.337 452.307 455.237 451.699 455.128C451.385 455.072 451.072 455.016 450.755 454.955C450.289 454.864 449.818 454.765 449.346 454.664C448.999 454.589 448.652 454.517 448.302 454.436C447.811 454.324 447.315 454.2 446.819 454.076C446.48 453.991 446.144 453.91 445.803 453.82C445.27 453.68 444.731 453.526 444.191 453.371C443.882 453.283 443.576 453.201 443.265 453.108C442.591 452.907 441.911 452.69 441.229 452.469C441.05 452.411 440.874 452.359 440.695 452.299C439.824 452.01 438.948 451.704 438.065 451.38C437.823 451.292 437.578 451.194 437.335 451.103C436.694 450.865 436.052 450.621 435.406 450.364C435.073 450.231 434.736 450.088 434.401 449.95C433.841 449.72 433.28 449.489 432.716 449.246C432.348 449.088 431.977 448.92 431.608 448.756C431.072 448.518 430.536 448.278 429.996 448.028C429.662 447.873 429.325 447.711 428.989 447.552C428.234 447.192 427.476 446.82 426.715 446.437C426.406 446.281 426.097 446.128 425.787 445.968C424.745 445.432 423.701 444.882 422.652 444.301C421.507 443.668 420.374 443.017 419.253 442.347C418.894 442.134 418.541 441.913 418.185 441.697C417.422 441.234 416.664 440.764 415.911 440.288C415.585 440.081 415.263 439.869 414.94 439.659C413.47 438.706 412.017 437.731 410.596 436.725C410.51 436.664 410.427 436.6 410.342 436.54C408.964 435.558 407.611 434.553 406.285 433.523C406.056 433.347 405.824 433.173 405.597 432.995C404.27 431.957 402.971 430.898 401.699 429.818C401.445 429.602 401.193 429.385 400.94 429.168C399.657 428.064 398.393 426.946 397.172 425.807C397.064 425.707 396.961 425.603 396.853 425.504C395.683 424.406 394.543 423.295 393.433 422.169C393.249 421.983 393.061 421.798 392.88 421.612C391.752 420.455 390.658 419.286 389.599 418.107C389.384 417.868 389.172 417.63 388.959 417.389C387.9 416.193 386.868 414.99 385.881 413.776C385.772 413.642 385.669 413.507 385.561 413.373C384.625 412.211 383.723 411.043 382.857 409.868C382.711 409.671 382.56 409.474 382.416 409.276C381.736 408.342 381.073 407.407 380.44 406.469C380.399 406.408 380.361 406.346 380.32 406.285C379.729 405.407 379.16 404.528 378.613 403.649C378.423 403.343 378.243 403.039 378.058 402.735C377.668 402.092 377.284 401.449 376.919 400.807C376.722 400.463 376.532 400.119 376.34 399.776C375.997 399.153 375.663 398.53 375.341 397.907C375.158 397.554 374.972 397.201 374.797 396.849C374.608 396.469 374.428 396.09 374.249 395.712C374.04 395.274 373.834 394.836 373.636 394.4C373.465 394.02 373.302 393.642 373.14 393.263C372.955 392.831 372.773 392.398 372.599 391.967C372.446 391.588 372.301 391.21 372.157 390.832C371.995 390.404 371.838 389.977 371.686 389.551C371.554 389.175 371.426 388.8 371.303 388.426C371.16 387.991 371.023 387.557 370.892 387.125C370.791 386.788 370.693 386.452 370.599 386.117C370.475 385.674 370.361 385.232 370.251 384.794C370.17 384.464 370.087 384.133 370.013 383.805C369.912 383.362 369.825 382.92 369.739 382.48C369.678 382.164 369.612 381.846 369.559 381.531C369.481 381.073 369.418 380.619 369.357 380.166C369.317 379.876 369.271 379.584 369.239 379.296C369.19 378.862 369.161 378.434 369.128 378.005C369.103 377.687 369.07 377.366 369.054 377.05C369.032 376.607 369.032 376.168 369.028 375.73C369.024 375.438 369.011 375.143 369.015 374.855C369.024 374.372 369.057 373.898 369.087 373.423C369.102 373.186 369.105 372.946 369.126 372.712C369.188 372.006 369.274 371.309 369.388 370.623C369.479 370.075 369.609 369.556 369.731 369.031C369.809 368.698 369.874 368.355 369.964 368.03C370.093 367.569 370.248 367.129 370.4 366.687C370.5 366.396 370.585 366.095 370.695 365.813C370.881 365.336 371.098 364.885 371.313 364.431C371.419 364.206 371.51 363.969 371.624 363.751C371.962 363.094 372.336 362.458 372.741 361.845L358.238 383.695C357.832 384.308 357.459 384.944 357.12 385.601C357.007 385.819 356.916 386.055 356.811 386.279C356.596 386.733 356.378 387.185 356.192 387.663C356.082 387.945 355.996 388.247 355.896 388.538C355.744 388.98 355.588 389.42 355.46 389.882C355.371 390.205 355.305 390.547 355.228 390.879C355.141 391.257 355.037 391.622 354.965 392.011C354.937 392.165 354.91 392.319 354.885 392.473C354.771 393.16 354.685 393.857 354.622 394.562C354.601 394.798 354.599 395.039 354.583 395.277C354.553 395.751 354.52 396.224 354.512 396.706C354.507 396.995 354.521 397.29 354.524 397.582C354.528 398.02 354.529 398.458 354.551 398.902C354.566 399.217 354.6 399.536 354.624 399.855C354.652 400.22 354.669 400.582 354.708 400.95C354.715 401.016 354.728 401.083 354.735 401.149C354.768 401.436 354.814 401.728 354.853 402.017C354.915 402.472 354.977 402.926 355.056 403.385C355.109 403.698 355.173 404.014 355.235 404.329C355.32 404.771 355.409 405.214 355.509 405.66C355.584 405.988 355.666 406.317 355.748 406.646C355.857 407.085 355.971 407.525 356.095 407.967C356.189 408.304 356.287 408.642 356.39 408.98C356.454 409.199 356.511 409.414 356.58 409.633C356.649 409.851 356.729 410.064 356.8 410.279C356.923 410.653 357.051 411.027 357.182 411.402C357.333 411.83 357.492 412.258 357.655 412.688C357.798 413.064 357.943 413.441 358.096 413.819C358.269 414.251 358.45 414.683 358.636 415.116C358.797 415.495 358.962 415.873 359.133 416.253C359.329 416.689 359.535 417.126 359.743 417.563C359.924 417.942 360.104 418.321 360.293 418.702C360.364 418.844 360.427 418.985 360.498 419.127C360.605 419.338 360.728 419.55 360.837 419.762C361.16 420.384 361.493 421.006 361.837 421.63C362.026 421.972 362.217 422.315 362.413 422.657C362.78 423.3 363.162 423.943 363.552 424.586C363.739 424.892 363.919 425.198 364.11 425.505C364.655 426.379 365.221 427.252 365.807 428.125C365.851 428.191 365.892 428.257 365.936 428.324C366.57 429.262 367.232 430.198 367.912 431.132C367.966 431.205 368.013 431.278 368.066 431.351C368.157 431.474 368.26 431.595 368.35 431.718C369.218 432.893 370.12 434.062 371.056 435.225C371.164 435.361 371.267 435.494 371.376 435.628C372.363 436.842 373.395 438.044 374.455 439.241C374.667 439.48 374.878 439.72 375.093 439.958C376.155 441.138 377.249 442.306 378.375 443.463C378.556 443.65 378.744 443.833 378.927 444.019C380.041 445.146 381.183 446.26 382.353 447.361C382.458 447.459 382.559 447.559 382.665 447.657C383.89 448.797 385.15 449.915 386.435 451.02C386.688 451.237 386.939 451.455 387.195 451.671C388.467 452.749 389.766 453.807 391.09 454.846C391.319 455.025 391.552 455.2 391.781 455.377C393.109 456.402 394.46 457.406 395.834 458.39C395.921 458.452 396.005 458.516 396.092 458.577C397.511 459.583 398.964 460.556 400.433 461.51C400.596 461.616 400.752 461.731 400.917 461.836C401.082 461.941 401.246 462.038 401.409 462.142C402.158 462.619 402.914 463.087 403.676 463.547C404.034 463.765 404.389 463.987 404.75 464.201C405.872 464.868 407.005 465.519 408.148 466.154C409.196 466.733 410.24 467.283 411.281 467.819C411.593 467.979 411.903 468.134 412.216 468.29C412.975 468.673 413.732 469.043 414.486 469.403C414.677 469.494 414.869 469.594 415.06 469.684C415.205 469.752 415.35 469.813 415.494 469.88C416.031 470.129 416.566 470.369 417.1 470.606C417.472 470.771 417.844 470.939 418.214 471.099C418.775 471.341 419.332 471.57 419.889 471.798C420.227 471.938 420.566 472.082 420.904 472.216C421.544 472.471 422.179 472.711 422.814 472.948C423.063 473.042 423.315 473.142 423.563 473.233C424.445 473.554 425.319 473.859 426.188 474.148L426.229 474.162C426.41 474.223 426.589 474.274 426.77 474.333C427.436 474.549 428.1 474.76 428.759 474.957C429.075 475.051 429.386 475.135 429.699 475.224C430.233 475.377 430.767 475.53 431.295 475.669C431.64 475.76 431.979 475.842 432.321 475.927C432.814 476.05 433.306 476.173 433.794 476.285C434.146 476.366 434.495 476.439 434.845 476.514C435.315 476.616 435.784 476.714 436.249 476.804C436.386 476.83 436.527 476.864 436.663 476.89C436.843 476.924 437.016 476.945 437.194 476.977C437.802 477.086 438.403 477.186 439 477.277C439.292 477.321 439.583 477.367 439.873 477.407C440.553 477.5 441.226 477.581 441.892 477.65C442.073 477.669 442.257 477.694 442.436 477.711C443.274 477.791 444.102 477.852 444.919 477.893C445.129 477.904 445.333 477.906 445.542 477.915C446.15 477.939 446.753 477.955 447.347 477.957C447.463 477.957 447.582 477.966 447.698 477.966C447.91 477.966 448.117 477.954 448.325 477.951C448.648 477.946 448.97 477.94 449.289 477.929C449.636 477.916 449.978 477.897 450.32 477.877C450.635 477.858 450.948 477.84 451.258 477.814C451.595 477.787 451.927 477.753 452.258 477.718C452.562 477.686 452.867 477.655 453.166 477.616C453.493 477.575 453.814 477.526 454.136 477.476C454.43 477.431 454.725 477.386 455.014 477.334C455.331 477.277 455.641 477.213 455.952 477.149C456.235 477.091 456.519 477.033 456.797 476.969C457.104 476.897 457.403 476.818 457.704 476.738C457.975 476.667 458.248 476.597 458.514 476.52C458.809 476.434 459.097 476.338 459.384 476.245C459.645 476.16 459.906 476.078 460.161 475.987C460.445 475.885 460.72 475.776 460.999 475.667C461.247 475.57 461.497 475.476 461.739 475.373C462.013 475.256 462.278 475.129 462.545 475.004C462.778 474.895 463.013 474.79 463.24 474.676C463.504 474.543 463.756 474.399 464.014 474.258C464.232 474.138 464.455 474.02 464.667 473.896C464.917 473.75 465.158 473.59 465.402 473.433Z" fill="white"/>
</mask>
<g mask="url(#mask7_9_8)">
<path d="M492.934 452.198C460.432 483.899 396.091 458.582 396.091 458.582L407.545 498.922C407.545 498.922 456.546 506.482 473.618 490.749L490.691 475.016" fill="#E84B23"/>
</g>
<path d="M439.162 388.529C441.906 393.842 444.057 399.473 445.573 405.309C445.763 405.934 446.387 406.29 446.987 406.115C447.586 405.941 447.949 405.298 447.809 404.658C446.235 398.619 444.006 392.792 441.164 387.293C440.45 385.91 438.447 387.144 439.162 388.529Z" fill="#E84B23"/>
<path d="M390.82 446.852L398.579 450.512C399.134 450.831 399.829 450.639 400.165 450.073C400.483 449.488 400.298 448.743 399.749 448.398L391.991 444.739C391.435 444.419 390.74 444.612 390.404 445.178C390.086 445.762 390.272 446.508 390.82 446.852Z" fill="#E84B23"/>
<path d="M264.605 23.1128L240.121 54.1676L260.578 76.3374L279.146 39.8584L264.605 23.1128Z" fill="#FF9763"/>
<mask id="mask8_9_8" style="mask-type:luminance" maskUnits="userSpaceOnUse" x="240" y="23" width="40" height="54">
<path fill-rule="evenodd" clip-rule="evenodd" d="M264.605 23.1128L240.121 54.1676L260.578 76.3374L279.146 39.8584L264.605 23.1128Z" fill="white"/>
</mask>
<g mask="url(#mask8_9_8)">
<path d="M272.794 76.185C250.828 57.6137 272.341 49.3266 265.738 34.4533C259.135 19.5799 285.276 41.2335 285.276 41.2335C285.276 41.2335 283.604 54.0999 283.153 54.5388C282.702 54.9778 271.363 69.4435 271.363 69.4435" fill="#E84B23"/>
</g>
<path d="M288.032 18.4271L291.165 46.2797L278.888 49.7234L268.306 34.8256L254.901 37.2723L253.218 15.9464L288.032 18.4271Z" fill="#FF9763"/>
<mask id="mask9_9_8" style="mask-type:luminance" maskUnits="userSpaceOnUse" x="253" y="15" width="39" height="35">
<path fill-rule="evenodd" clip-rule="evenodd" d="M288.032 18.4271L291.165 46.2797L278.888 49.7234L268.306 34.8256L254.901 37.2723L253.218 15.9464L288.032 18.4271Z" fill="white"/>
</mask>
<g mask="url(#mask9_9_8)">
<ellipse cx="275.82" cy="39.9078" rx="5.41232" ry="5.71243" fill="#E84B23"/>
<path d="M282.57 42.022C284.233 43.4544 286.504 43.8177 288.494 42.9701L282.57 42.022Z" fill="#FF9763"/>
<rect width="3.24422" height="6.23753" rx="0.839664" transform="matrix(0.934576 -0.355765 0.323364 0.946275 281.421 28.1577)" fill="#190000"/>
<path d="M282.456 21.7153C277.804 23.2442 277.469 25.6354 280.437 24.88C283.404 24.1245 285.496 20.7165 282.456 21.7153Z" fill="#190000"/>
</g>
<path d="M270.265 30.0091L272.421 48.4154C288.546 78.8777 304.601 53.4241 290.558 40.8776C290.558 40.8776 276.927 43.4026 276.732 39.2663C276.536 35.1301 276.732 15.946 276.732 15.946L252.434 14.085L253.218 37.0405L266.431 38.8478L263.669 29.0441L270.265 30.0091Z" fill="#F0F3FC"/>
<path d="M259.292 20.0822H276.732C301.029 19.6688 307.833 3.47612 282.283 0.642193C256.811 -2.18425 252.009 4.57151 252.498 15.946" fill="#F0F3FC"/>
<path d="M271.935 44.2655L270.167 28.2512C259.587 17.4981 260.378 36.704 271.935 44.2655Z" fill="#FF9763"/>
<path d="M242.231 46.6874C243.974 43.4474 246.714 40.9331 249.996 39.561C249.996 39.561 263.829 45.9272 267.328 70.7734L243.719 48.6066L242.231 46.6874Z" fill="#F0F3FC"/>
<path d="M318.325 115.085L328.564 110.298L347.659 101.688L372.332 98.5477C374.687 102.866 360.429 104.567 353.362 110.586C348.851 114.429 318.325 132.281 318.325 132.281V115.085Z" fill="#FF9763"/>
<mask id="mask10_9_8" style="mask-type:luminance" maskUnits="userSpaceOnUse" x="318" y="98" width="55" height="35">
<path fill-rule="evenodd" clip-rule="evenodd" d="M318.325 115.085L328.564 110.298L347.659 101.688L372.332 98.5477C374.687 102.866 360.429 104.567 353.362 110.586C348.851 114.429 318.325 132.281 318.325 132.281V115.085Z" fill="white"/>
</mask>
<g mask="url(#mask10_9_8)">
<path d="M340.2 130.731C337.562 113.85 330.341 108.888 330.341 108.888C330.341 108.888 328.658 123.408 328.823 123.937C331.876 125.523 335.014 126.92 338.221 128.12" fill="#E84B23"/>
</g>
<path d="M330.341 108.888C330.341 108.888 338.656 124.699 335.805 133.99L297.746 148.516C292.315 151.506 285.644 150.084 281.738 145.105L237.107 88.2128L270.511 74.3423L297.458 121.438L330.341 108.888Z" fill="#589BF7"/>
<mask id="mask11_9_8" style="mask-type:luminance" maskUnits="userSpaceOnUse" x="237" y="74" width="100" height="77">
<path fill-rule="evenodd" clip-rule="evenodd" d="M330.341 108.888C330.341 108.888 338.656 124.699 335.805 133.99L297.746 148.516C292.315 151.506 285.644 150.084 281.738 145.105L237.107 88.2128L270.511 74.3423L297.458 121.438L330.341 108.888Z" fill="white"/>
</mask>
<g mask="url(#mask11_9_8)">
<path d="M267.328 83.9174C255.065 108.977 285.183 154.328 292.438 157.576C299.693 160.825 248.689 113.618 248.689 113.618L242.231 99.2623L262.722 89.0516" fill="#2976DF"/>
<ellipse cx="291.166" cy="153.633" rx="20.6953" ry="16.3179" fill="#FFC562"/>
</g>
<path d="M326.945 294.129C327.493 294.997 339.554 334.633 339.554 334.633L361.758 323.061L351.341 271.851L326.945 294.129Z" fill="#FF9763"/>
<mask id="mask12_9_8" style="mask-type:luminance" maskUnits="userSpaceOnUse" x="326" y="271" width="36" height="64">
<path fill-rule="evenodd" clip-rule="evenodd" d="M326.945 294.129C327.493 294.997 339.554 334.633 339.554 334.633L361.758 323.061L351.341 271.851L326.945 294.129Z" fill="white"/>
</mask>
<g mask="url(#mask12_9_8)">
<path d="M324.867 326.163C336.401 324.302 359.908 303.242 359.908 303.242L331.463 297.623L321.24 316.766" fill="#E84B23"/>
</g>
<path d="M347.23 344.904L344.586 348.15L347.23 352.138L372.31 343.168V334.634" fill="#3A3530"/>
<path d="M337.78 328.815C336.367 336.103 339.008 343.604 344.587 348.15L411.912 325.152C414.482 306.47 371.341 331.797 362.216 312.897L337.78 328.815Z" fill="#9A7ED9"/>
<path d="M76.0466 234.239C75.0629 234.147 38.2577 219.275 38.2577 219.275L32.9137 244.773L77.2337 268.236L76.0466 234.239Z" fill="#FF9763"/>
<mask id="mask13_9_8" style="mask-type:luminance" maskUnits="userSpaceOnUse" x="32" y="219" width="46" height="50">
<path fill-rule="evenodd" clip-rule="evenodd" d="M76.0466 234.239C75.0629 234.147 38.2577 219.275 38.2577 219.275L32.9137 244.773L77.2337 268.236L76.0466 234.239Z" fill="white"/>
</mask>
<g mask="url(#mask13_9_8)">
<path d="M62.26 214.379C37.3108 244.513 64.0303 274.103 64.0303 274.103L77.2337 226.156L45.1264 212.698" fill="#E84B23"/>
</g>
<path d="M25.8755 219.163L25.1307 214.961L20.5363 214.638L11.4701 240.877L17.77 246.213" fill="#3A3530"/>
<path d="M45.1263 222.046C45.1263 222.046 36.6959 211.882 25.1313 214.962L0 284.713C12.1839 298.51 20.4706 247.192 40.1306 251.509L45.1263 222.046Z" fill="#9A7ED9"/>
<path d="M173.227 214.968L295.47 211.029L329.957 312.795C345.138 313.952 359.808 306.752 368.753 293.755L335.812 184.362C332.967 174.914 325.412 167.896 316.171 166.117L198.169 143.402L173.227 214.968Z" fill="#9A7ED9"/>
<mask id="mask14_9_8" style="mask-type:luminance" maskUnits="userSpaceOnUse" x="173" y="143" width="196" height="170">
<path fill-rule="evenodd" clip-rule="evenodd" d="M173.227 214.968L295.47 211.029L329.957 312.795C345.138 313.952 359.808 306.752 368.753 293.755L335.812 184.362C332.967 174.914 325.412 167.896 316.171 166.117L198.169 143.402L173.227 214.968Z" fill="white"/>
</mask>
<g mask="url(#mask14_9_8)">
<path d="M210.37 168.225C202.961 219.507 292.289 201.639 295.47 211.028C298.652 220.416 242.231 243.978 242.231 243.978L178.119 232.188L201.862 183.459" fill="#6F4EB9"/>
<g opacity="0.29">
<rect x="165.739" y="88.1104" width="14.6694" height="280.145" fill="#3A3530"/>
<rect x="193.715" y="88.1104" width="14.6694" height="280.145" fill="#3A3530"/>
<rect x="221.691" y="88.1104" width="14.6694" height="280.145" fill="#3A3530"/>
<rect x="249.668" y="88.1104" width="14.6694" height="280.145" fill="#3A3530"/>
<rect x="277.644" y="88.1104" width="14.6694" height="280.145" fill="#3A3530"/>
<rect x="305.62" y="88.1104" width="14.6694" height="280.145" fill="#3A3530"/>
<rect x="333.596" y="88.1104" width="14.6694" height="280.145" fill="#3A3530"/>
<rect x="361.573" y="88.1104" width="14.6694" height="280.145" fill="#3A3530"/>
</g>
<g opacity="0.27">
<rect x="403.704" y="146.622" width="15.4828" height="265.427" transform="rotate(90 403.704 146.622)" fill="#3A3530"/>
<rect x="403.704" y="176.15" width="15.4828" height="265.427" transform="rotate(90 403.704 176.15)" fill="#3A3530"/>
<rect x="403.704" y="205.677" width="15.4828" height="265.427" transform="rotate(90 403.704 205.677)" fill="#3A3530"/>
<rect x="403.704" y="235.205" width="15.4828" height="265.427" transform="rotate(90 403.704 235.205)" fill="#3A3530"/>
<rect x="403.704" y="264.733" width="15.4828" height="265.427" transform="rotate(90 403.704 264.733)" fill="#3A3530"/>
<rect x="403.704" y="294.26" width="15.4828" height="265.427" transform="rotate(90 403.704 294.26)" fill="#3A3530"/>
</g>
</g>
<path d="M224.635 148.497L153.878 139.725L146.955 256.021L62.7297 228.621C54.7986 241.388 52.4847 257.15 56.3837 271.851L155.05 300.906C170.35 305.411 186.273 296.27 191.004 280.265L224.635 148.497Z" fill="#9A7ED9"/>
<mask id="mask15_9_8" style="mask-type:luminance" maskUnits="userSpaceOnUse" x="54" y="139" width="171" height="164">
<path fill-rule="evenodd" clip-rule="evenodd" d="M224.635 148.497L153.878 139.725L146.955 256.021L62.7297 228.621C54.7986 241.388 52.4847 257.15 56.3837 271.851L155.05 300.906C170.35 305.411 186.273 296.27 191.004 280.265L224.635 148.497Z" fill="white"/>
</mask>
<g mask="url(#mask15_9_8)">
<path d="M104.25 202.256C169.545 223.835 136.568 152.573 201.862 157.576C267.156 162.578 133.27 115.414 133.27 115.414L124.037 120.115L108.867 143.402" fill="#6F4EB9"/>
<g opacity="0.29">
<rect x="62.3457" y="80.817" width="14.6694" height="280.145" fill="#3A3530"/>
<rect x="90.322" y="80.817" width="14.6694" height="280.145" fill="#3A3530"/>
<rect x="118.298" y="80.817" width="14.6694" height="280.145" fill="#3A3530"/>
<rect x="146.275" y="80.817" width="14.6694" height="280.145" fill="#3A3530"/>
<rect x="174.251" y="80.817" width="14.6694" height="280.145" fill="#3A3530"/>
<rect x="202.227" y="80.817" width="14.6694" height="280.145" fill="#3A3530"/>
</g>
<g opacity="0.27">
<rect x="272.335" y="139.329" width="15.4828" height="265.427" transform="rotate(90 272.335 139.329)" fill="#3A3530"/>
<rect x="272.335" y="168.857" width="15.4828" height="265.427" transform="rotate(90 272.335 168.857)" fill="#3A3530"/>
<rect x="272.335" y="198.384" width="15.4828" height="265.427" transform="rotate(90 272.335 198.384)" fill="#3A3530"/>
<rect x="272.335" y="227.912" width="15.4828" height="265.427" transform="rotate(90 272.335 227.912)" fill="#3A3530"/>
<rect x="272.335" y="257.439" width="15.4828" height="265.427" transform="rotate(90 272.335 257.439)" fill="#3A3530"/>
<rect x="272.335" y="286.967" width="15.4828" height="265.427" transform="rotate(90 272.335 286.967)" fill="#3A3530"/>
</g>
</g>
<path d="M271.159 75.4755C271.159 75.4755 257.628 42.0336 229.915 43.9831C193.289 46.5594 146.54 94.4187 149.978 143.402C149.978 143.402 193.464 169.604 229.171 150.762C222.067 118.893 253.4 112.72 265.736 92.9238" fill="#589BF7"/>
<mask id="mask16_9_8" style="mask-type:luminance" maskUnits="userSpaceOnUse" x="149" y="43" width="123" height="115">
<path fill-rule="evenodd" clip-rule="evenodd" d="M271.159 75.4755C271.159 75.4755 257.628 42.0336 229.915 43.9831C193.289 46.5594 146.54 94.4187 149.978 143.402C149.978 143.402 193.464 169.604 229.171 150.762C222.067 118.893 253.4 112.72 265.736 92.9238" fill="white"/>
</mask>
<g mask="url(#mask16_9_8)">
<path d="M262.722 61.2351C262.356 68.0638 260.754 74.7552 258.001 80.947L263.217 86.4917L270.511 74.3433" fill="#F0F3FC"/>
</g>
<path d="M321.323 103.119L318.325 107.547L321.323 109.473L380.582 96.7993C381.078 96.6935 381.504 96.3619 381.746 95.8934C381.988 95.4249 382.021 94.8676 381.837 94.3707L380.936 91.9414L359.762 89.0517L321.977 105.085L321.323 103.119Z" fill="#589BF7"/>
<path d="M367.232 25.5119C367.053 25.5015 366.878 25.5666 366.745 25.6928C366.612 25.8191 366.532 25.996 366.523 26.1846L364.156 85.8478L380.313 93.6364L383.382 26.2755L367.232 25.5119Z" fill="#97CC64"/>
<path d="M384.565 27.6125C384.586 26.8986 384.057 26.3008 383.381 26.2755L379.488 93.2396L381.835 94.3707L384.565 27.6125Z" fill="#589BF7"/>
<path d="M316.317 98.2997L318.325 107.545L381.834 94.3693L363.96 85.777L316.317 98.2997Z" fill="#97CC64"/>
<path d="M172.325 123.273L185.943 106.324C185.943 106.324 258.903 98.5971 266.756 67.0407L268.834 70.7734C256.114 118.102 194.126 125.76 194.126 125.76L172.325 123.273Z" fill="#FFC562"/>
<path d="M285.542 110.982C285.542 110.982 296.204 104.265 299.511 101.386C302.817 98.5069 309.677 90.7425 311.165 90.3063C312.653 89.87 322.241 86.3807 324.059 87.2532C325.878 88.1257 337.284 90.1756 337.284 90.1756C338.731 94.8866 325.382 92.1384 325.382 92.1384C325.382 92.1384 331.83 96.326 331.912 97.1982C331.993 98.0703 331.663 98.2452 331.663 98.2452L334.122 99.3342C335.858 103.26 323.336 101.363 323.336 101.363L310.835 113.205L282.484 123.935L285.542 110.982Z" fill="#FF9763"/>
<mask id="mask17_9_8" style="mask-type:luminance" maskUnits="userSpaceOnUse" x="282" y="87" width="56" height="37">
<path fill-rule="evenodd" clip-rule="evenodd" d="M285.542 110.982C285.542 110.982 296.204 104.265 299.511 101.386C302.817 98.5069 309.677 90.7425 311.165 90.3063C312.653 89.87 322.241 86.3807 324.059 87.2532C325.878 88.1257 337.284 90.1756 337.284 90.1756C338.731 94.8866 325.382 92.1384 325.382 92.1384C325.382 92.1384 331.83 96.326 331.912 97.1982C331.993 98.0703 331.663 98.2452 331.663 98.2452L334.122 99.3342C335.858 103.26 323.336 101.363 323.336 101.363L310.835 113.205L282.484 123.935L285.542 110.982Z" fill="white"/>
</mask>
<g mask="url(#mask17_9_8)">
<path d="M300.793 125.76C304.42 119.883 300.458 104.95 296.393 103.773C292.328 102.596 291.119 125.22 291.119 125.22L300.463 127.308" fill="#E84B23"/>
</g>
<path d="M242.231 64.8779L259.633 110.891L296.393 103.773C300.082 112.761 300.851 122.784 298.581 132.282L254.718 144.212C247.783 147.467 239.655 144.263 236.438 137.007L211.154 84.8566" fill="#589BF7"/>
<mask id="mask18_9_8" style="mask-type:luminance" maskUnits="userSpaceOnUse" x="211" y="64" width="89" height="82">
<path fill-rule="evenodd" clip-rule="evenodd" d="M242.231 64.8779L259.633 110.891L296.393 103.773C300.082 112.761 300.851 122.784 298.581 132.282L254.718 144.212C247.783 147.467 239.655 144.263 236.438 137.007L211.154 84.8566" fill="white"/>
</mask>
<g mask="url(#mask18_9_8)">
<ellipse cx="244.423" cy="146.148" rx="22.9051" ry="15.9572" fill="#FFC562"/>
</g>
<path d="M287.93 29.3942C294.797 31.0446 293.654 37.7595 289.28 37.7595L287.93 29.3942Z" fill="#FF9763"/>
<path d="M23.5638 256.2C22.8331 258.797 22.8229 261.56 23.5344 264.163C23.6238 264.505 23.8792 264.77 24.2045 264.86C24.5298 264.949 24.8756 264.849 25.1116 264.596C25.3476 264.343 25.438 263.977 25.3486 263.635C24.7276 261.377 24.7378 258.979 25.378 256.727C25.5161 256.198 25.2219 255.651 24.7209 255.506C24.2199 255.36 23.7019 255.67 23.5638 256.199V256.2Z" fill="#190000"/>
<path d="M27.5875 256.687L33.6637 263.1C33.8998 263.359 34.2497 263.462 34.5788 263.372C34.9079 263.281 35.165 263.009 35.251 262.662C35.3371 262.315 35.2388 261.945 34.9939 261.696L28.9178 255.283C28.5485 254.907 27.9621 254.913 27.5994 255.296C27.2367 255.679 27.2314 256.297 27.5875 256.687Z" fill="#190000"/>
<path d="M364.876 313.713C364.489 317.45 363.859 321.154 362.99 324.799C362.871 325.32 363.165 325.847 363.655 325.989C364.145 326.131 364.653 325.838 364.804 325.326C365.707 321.507 366.359 317.627 366.757 313.713C366.754 313.166 366.334 312.723 365.816 312.72C365.301 312.732 364.887 313.17 364.876 313.713Z" fill="#190000"/>
<path d="M373.459 315.962C371.735 317.819 369.64 319.246 367.326 320.139C366.834 320.296 366.545 320.833 366.669 321.36C366.811 321.886 367.326 322.195 367.826 322.054C370.452 321.063 372.832 319.461 374.79 317.366C375.639 316.454 374.31 315.048 373.46 315.962H373.459Z" fill="#190000"/>
<path d="M301.478 201.018L294.467 209.897C294.113 210.291 294.113 210.908 294.467 211.302C294.836 211.685 295.428 211.685 295.798 211.302L302.808 202.422C303.162 202.029 303.162 201.412 302.808 201.018C302.439 200.635 301.847 200.635 301.478 201.018V201.018Z" fill="#6F4EB9"/>
<path d="M147.783 255.319C148.866 258.438 150.614 261.252 152.891 263.545C153.769 264.424 155.101 263.023 154.221 262.141C152.168 260.096 150.586 257.581 149.597 254.79C149.447 254.271 148.939 253.967 148.44 254.097C147.942 254.247 147.649 254.79 147.783 255.319V255.319Z" fill="#6F4EB9"/>
<path d="M255.428 115.797L261.008 113.258C261.455 112.981 261.606 112.374 261.345 111.9C261.073 111.441 260.509 111.285 260.058 111.544L254.48 114.083C254.033 114.36 253.882 114.968 254.143 115.441C254.415 115.901 254.979 116.057 255.43 115.797H255.428Z" fill="#2976DF"/>
<path d="M175.371 84.584C175.904 86.5405 176.762 88.3816 177.905 90.0218C178.176 90.4838 178.742 90.6406 179.192 90.3781C179.636 90.0975 179.786 89.4937 179.53 89.0193C178.989 88.2502 178.513 87.4326 178.107 86.576C178.011 86.3719 177.919 86.1658 177.83 85.9577C177.816 85.9237 177.68 85.5855 177.754 85.7764C177.711 85.6641 177.668 85.5506 177.625 85.4361C177.459 84.9824 177.312 84.5217 177.185 84.0542C177.1 83.7065 176.844 83.4341 176.515 83.3417C176.187 83.2493 175.836 83.3512 175.599 83.6084C175.362 83.8656 175.274 84.2379 175.37 84.5823L175.371 84.584Z" fill="#2976DF"/>
<path d="M265.321 11.7635C267.171 12.0967 269.071 11.927 270.843 11.2705C271.34 11.1213 271.63 10.577 271.492 10.0511C271.355 9.5253 270.842 9.21469 270.343 9.35531C269.943 9.50824 269.535 9.63462 269.12 9.73371C268.942 9.77591 268.764 9.81277 268.584 9.84431C268.55 9.85043 268.191 9.9008 268.383 9.87834C268.293 9.88923 268.202 9.90011 268.112 9.90896C267.719 9.9474 267.324 9.96138 266.929 9.95082C266.717 9.94503 266.505 9.9321 266.293 9.91168C266.202 9.90318 266.112 9.89263 266.021 9.88174C265.908 9.86711 265.901 9.86609 266.001 9.87936L265.821 9.84975C265.322 9.71799 264.812 10.023 264.664 10.5429C264.532 11.0709 264.824 11.6134 265.321 11.7646V11.7635Z" fill="#D6DCF2"/>
<path d="M308.212 98.9837L311.017 100.464C311.238 100.592 311.497 100.628 311.742 100.564C312.107 100.458 312.376 100.131 312.425 99.7353C312.474 99.3393 312.294 98.9507 311.967 98.7489L309.162 97.2689C308.941 97.1401 308.682 97.1044 308.437 97.1689C308.072 97.2747 307.803 97.6011 307.754 97.9972C307.704 98.3933 307.885 98.782 308.212 98.9837Z" fill="#E84B23"/>
<path d="M341.404 114.905C341.912 114.888 342.315 114.448 342.315 113.912C342.315 113.376 341.912 112.936 341.404 112.919C340.896 112.936 340.493 113.376 340.493 113.912C340.493 114.448 340.896 114.888 341.404 114.905Z" fill="#E84B23"/>
<ellipse cx="534.742" cy="395.15" rx="12.8758" ry="14.4221" fill="#FFC562"/>
<path d="M449.462 304.745C444.201 303.102 448.034 326.343 448.034 326.343C448.034 326.343 439.563 333.012 438.957 336.651C438.351 340.289 444.528 361.083 444.528 361.083L456.969 356.744L449.462 304.745Z" fill="#FF9763"/>
<mask id="mask19_9_8" style="mask-type:luminance" maskUnits="userSpaceOnUse" x="438" y="304" width="19" height="58">
<path fill-rule="evenodd" clip-rule="evenodd" d="M449.462 304.745C444.201 303.102 448.034 326.343 448.034 326.343C448.034 326.343 439.563 333.012 438.957 336.651C438.351 340.289 444.528 361.083 444.528 361.083L456.969 356.744L449.462 304.745Z" fill="white"/>
</mask>
<g mask="url(#mask19_9_8)">
<path d="M433.113 354.794C439.672 342.486 446.3 346.58 455.48 346.432C464.66 346.285 459.929 353.806 459.929 353.806L447.942 365.524L440.649 366.634" fill="#E84B23"/>
</g>
<ellipse cx="510.81" cy="423.698" rx="27.317" ry="28.5479" fill="#FFC562"/>
<path d="M250.558 571.383L208.631 608.971L216.924 634.986L273.739 591.668L250.558 571.383Z" fill="#FF9763"/>
<mask id="mask20_9_8" style="mask-type:luminance" maskUnits="userSpaceOnUse" x="208" y="571" width="66" height="64">
<path fill-rule="evenodd" clip-rule="evenodd" d="M250.558 571.383L208.631 608.971L216.924 634.986L273.739 591.668L250.558 571.383Z" fill="white"/>
</mask>
<g mask="url(#mask20_9_8)">
<path d="M231.81 579.296C227.127 601.378 239.203 611.868 251.278 615.456C263.353 619.045 250.785 632.018 250.785 632.018L265.571 601.93L228.853 577.916" fill="#E84B23"/>
</g>
<path d="M164.287 585.011C170.612 580.01 179.562 581.24 184.463 587.784C200.457 606.037 222.002 596.985 222.002 596.985C222.002 596.985 221.292 619.593 235.296 622.602L227.343 635.673C223.025 641.345 216.082 642.191 211.885 637.559L164.287 585.011Z" fill="#3A3530"/>
<path d="M230.29 586.643C224.91 603.184 275.801 611.228 275.801 611.228L340.172 535.854L432.289 599.893L482.68 567.641L356.843 493.186C344.305 484.857 328.052 486.322 317.035 496.776L230.29 586.643Z" fill="#BB393C"/>
<mask id="mask21_9_8" style="mask-type:luminance" maskUnits="userSpaceOnUse" x="229" y="487" width="254" height="125">
<path fill-rule="evenodd" clip-rule="evenodd" d="M230.29 586.643C224.91 603.184 275.801 611.228 275.801 611.228L340.172 535.854L432.289 599.893L482.68 567.641L356.843 493.186C344.305 484.857 328.052 486.322 317.035 496.776L230.29 586.643Z" fill="white"/>
</mask>
<g mask="url(#mask21_9_8)">
<path d="M266.821 538.142C246.489 545.442 330.62 574.208 330.62 574.208L304.679 620.917L215.641 621.658L202.82 568.381" stroke="#90282A" stroke-width="0.973056" stroke-linecap="round" stroke-linejoin="round"/>
<path d="M287.966 557.519L334.125 507.199" stroke="#90282A" stroke-width="0.973056" stroke-linecap="round" stroke-linejoin="round"/>
<path d="M257.06 543.104C300.878 533.819 309.758 553.956 335.464 560.123C361.171 566.289 388.987 519.785 388.987 519.785C388.987 519.785 327.519 499.2 332.66 482.92C337.801 466.641 293.633 487.81 293.633 487.81L282.182 504.004" fill="#90282A"/>
</g>
<path d="M238.761 445.653L191.105 416.085L169.416 432.052L226.902 474.428L238.761 445.653Z" fill="#FF9763"/>
<mask id="mask22_9_8" style="mask-type:luminance" maskUnits="userSpaceOnUse" x="169" y="416" width="70" height="59">
<path fill-rule="evenodd" clip-rule="evenodd" d="M238.761 445.653L191.105 416.085L169.416 432.052L226.902 474.428L238.761 445.653Z" fill="white"/>
</mask>
<g mask="url(#mask22_9_8)">
<path d="M161.33 476.613C161.95 475.571 162.604 474.554 163.292 473.562C182.274 446.169 225.684 437.586 225.684 437.586L212.259 474.427L169.415 476.613" fill="#E84B23"/>
</g>
<path d="M199.978 365.53C203.102 367.697 205.248 371.121 205.914 375.003C206.58 378.885 205.709 382.886 203.503 386.072C191.363 407.213 203.361 421.407 203.361 421.407C203.361 421.407 185.056 431.661 186.495 446.248L171.928 442.437C165.345 439.936 162.456 433.412 165.496 427.912L199.978 365.53Z" fill="#3A3530"/>
<path d="M225.684 437.586C188.179 444.211 208.113 486.03 208.113 486.03L322.407 548.551L433.81 622.403C454.497 636.111 481.664 630.993 496.579 610.578L521.159 576.241L341.306 499.417L225.684 437.586Z" fill="#BB393C"/>
<mask id="mask23_9_8" style="mask-type:luminance" maskUnits="userSpaceOnUse" x="202" y="437" width="320" height="194">
<path fill-rule="evenodd" clip-rule="evenodd" d="M225.684 437.586C188.179 444.211 208.113 486.03 208.113 486.03L322.407 548.551L433.81 622.403C454.497 636.111 481.664 630.993 496.579 610.578L521.159 576.241L341.306 499.417L225.684 437.586Z" fill="white"/>
</mask>
<g mask="url(#mask23_9_8)">
<path d="M461.565 540.1C487.608 589.233 482.528 654.701 410.427 606.903C338.327 559.105 390.02 643.887 394.949 648.856C399.878 653.824 486.469 674.251 486.469 674.251L515.908 651.064L542.317 611.228L511.164 538.444L456.091 540.5" fill="#90282A"/>
<path d="M456.969 564.52C442.793 587.62 460.679 603.245 460.679 603.245" stroke="#90282A" stroke-width="0.973056" stroke-linecap="round" stroke-linejoin="round"/>
<path d="M280.142 451.829C224.054 453.687 259.109 529.453 259.109 529.453L164.287 501.368L196.713 431.908" stroke="#90282A" stroke-width="0.973056" stroke-linecap="round" stroke-linejoin="round"/>
<path d="M249.749 477.885L451.51 581.909" stroke="#90282A" stroke-width="0.973056" stroke-linecap="round" stroke-linejoin="round"/>
</g>
<path d="M432.744 370.565C440.647 348.834 455.48 346.432 455.48 346.432L471.394 409.126L488.613 470.072L466.696 510.643C466.696 510.643 447.846 451.661 445.68 435.484C443.513 419.308 432.744 370.565 432.744 370.565Z" fill="#589BF7"/>
<mask id="mask24_9_8" style="mask-type:luminance" maskUnits="userSpaceOnUse" x="432" y="346" width="57" height="165">
<path fill-rule="evenodd" clip-rule="evenodd" d="M432.744 370.565C440.647 348.834 455.48 346.432 455.48 346.432L471.394 409.126L488.613 470.072L466.696 510.643C466.696 510.643 447.846 451.661 445.68 435.485C443.513 419.308 432.744 370.565 432.744 370.565Z" fill="white"/>
</mask>
<g mask="url(#mask24_9_8)">
<path d="M481.835 474.759C464.966 489.283 462.652 511.828 461.565 523.658C460.478 535.488 471.768 526.286 471.768 526.286L481.835 474.759Z" fill="#E84B23"/>
<path d="M434.785 444.646C461.728 477.401 465.699 483.596 470.332 476.735C474.966 469.874 478.408 510.642 478.408 510.642L465.265 524.825L441.935 502.376L433.72 481.765" fill="#2976DF"/>
<path d="M426.318 395.151C437.186 372.079 448.403 354.19 464.878 353.806C481.353 353.421 460.671 341.213 460.671 341.213L423.514 350.832" fill="#F0F3FC"/>
</g>
<path d="M487.683 468.502L521.404 465.61C536.402 510.642 522.522 593.292 522.522 593.292C504.779 593.844 437.239 538.078 448.274 539.182C448.274 539.182 467.681 532.541 464.724 500.521C463.402 486.19 467.861 478.273 473.193 473.899" fill="#589BF7"/>
<mask id="mask25_9_8" style="mask-type:luminance" maskUnits="userSpaceOnUse" x="447" y="465" width="82" height="129">
<path fill-rule="evenodd" clip-rule="evenodd" d="M487.683 468.502L521.404 465.61C536.402 510.642 522.522 593.292 522.522 593.292C504.779 593.844 437.239 538.078 448.274 539.182C448.274 539.182 467.681 532.541 464.724 500.521C463.402 486.19 467.861 478.273 473.193 473.899" fill="white"/>
</mask>
<g mask="url(#mask25_9_8)">
<path d="M483.494 484.272C479.016 496.358 488.614 521.27 488.614 521.27L499.114 517.571C499.114 517.571 481.528 492.535 485.647 483.533L483.494 484.272Z" fill="#F0F3FC"/>
<path d="M488.613 480.819C488.597 488.958 501.189 491.749 501.189 491.749V496.111C501.189 496.111 483.764 489.205 483.493 484.272C483.223 479.339 488.613 480.819 488.613 480.819Z" fill="#F0F3FC"/>
<path d="M487.998 460.469L483.494 463.923L481.117 487.808L516.028 470.46V460.006" fill="#F0F3FC"/>
</g>
<path d="M495.445 438.803L486.47 479.883L511.163 466.489L515.909 428.417L495.445 438.803Z" fill="#FF9763"/>
<mask id="mask26_9_8" style="mask-type:luminance" maskUnits="userSpaceOnUse" x="486" y="428" width="30" height="52">
<path fill-rule="evenodd" clip-rule="evenodd" d="M495.445 438.803L486.469 479.883L511.163 466.489L515.909 428.417L495.445 438.803Z" fill="white"/>
</mask>
<g mask="url(#mask26_9_8)">
<path d="M487.683 468.502C495.3 471.032 502.575 452.081 502.575 452.081L484.079 444.211V460.221" fill="#E84B23"/>
</g>
<path d="M520.162 430.693C521.062 428.464 521.85 426.186 522.522 423.868L489.995 410.807C488.871 416.405 473.447 450.085 494.381 452.795C497.649 453.267 500.977 452.829 504.036 451.524" fill="#FF9763"/>
<mask id="mask27_9_8" style="mask-type:luminance" maskUnits="userSpaceOnUse" x="483" y="410" width="40" height="43">
<path fill-rule="evenodd" clip-rule="evenodd" d="M520.162 430.693C521.062 428.464 521.85 426.186 522.522 423.868L489.995 410.807C488.871 416.405 473.447 450.085 494.381 452.795C497.649 453.267 500.977 452.829 504.036 451.524" fill="white"/>
</mask>
<g mask="url(#mask27_9_8)">
<ellipse opacity="0.27" cx="5.71445" cy="4.45811" rx="5.71445" ry="4.45811" transform="matrix(0.984972 -0.172716 0.155496 0.987836 471.58 433.284)" fill="#E84B23"/>
<ellipse opacity="0.27" cx="501.452" cy="440.132" rx="5.70572" ry="4.46425" fill="#E84B23"/>
<rect width="3.0028" height="5.80916" rx="0.779688" transform="matrix(0.967454 0.253048 -0.228584 0.973524 487.173 425.248)" fill="#190000"/>
<path d="M498.035 427.626C498.837 427.836 499.326 428.692 499.127 429.539L498.519 432.128C498.321 432.975 497.509 433.491 496.707 433.281C496.322 433.18 495.99 432.922 495.785 432.563C495.58 432.204 495.519 431.774 495.614 431.368L496.222 428.779C496.421 427.932 497.232 427.416 498.035 427.625L498.035 427.626Z" fill="#190000"/>
<path d="M489.114 421.919C485.935 422.055 486.351 423.975 488.343 424.026C490.335 424.077 491.19 421.829 489.114 421.919Z" fill="#190000"/>
<path d="M498.826 423.869C501.576 425.557 500.614 426.976 498.83 426.039C497.046 425.103 497.029 422.766 498.826 423.869Z" fill="#190000"/>
<path d="M493.7 432.402C493.518 433.18 492.782 432.66 491.785 432.399C490.788 432.138 489.907 432.236 490.09 431.458C490.45 430.594 491.391 430.182 492.226 430.523C493.222 430.783 493.883 431.625 493.7 432.402Z" fill="#E84B23"/>
</g>
<path d="M516.029 437.565C520.666 437.415 524.312 433.331 524.179 428.436C524.179 428.273 524.143 428.12 524.136 427.96C525.747 425.396 526.603 422.386 526.595 419.31C526.692 412.982 523.007 407.275 517.393 405.055C514.906 399.936 509.94 396.689 504.49 396.619" fill="#FFC562"/>
<path d="M504.49 396.617C496.332 397.142 489.902 404.152 489.67 412.775C489.438 421.398 495.479 428.782 503.595 429.796C505.17 431.616 507.171 432.965 509.397 433.709C510.855 436.087 513.346 437.534 516.029 437.563" fill="#FFC562"/>
<path d="M507.126 435.512C508.299 433.889 509.958 432.733 511.834 432.232C513.465 431.569 515.28 431.623 516.873 432.383C518.466 433.142 519.704 434.544 520.31 436.275C520.699 440.143 518.175 443.665 514.542 444.321C513.326 444.672 512.053 444.738 510.81 444.515" fill="#FF9763"/>
<path d="M584.059 325.236C589.535 324.692 579.265 347.049 579.265 347.049C579.265 347.049 585.429 355.454 584.969 359.206C584.509 362.957 572.705 382.386 572.705 382.386L562.1 375.475L584.059 325.236Z" fill="#FF9763"/>
<mask id="mask28_9_8" style="mask-type:luminance" maskUnits="userSpaceOnUse" x="562" y="325" width="24" height="58">
<path fill-rule="evenodd" clip-rule="evenodd" d="M584.059 325.236C589.535 324.692 579.265 347.049 579.265 347.049C579.265 347.049 585.429 355.454 584.969 359.206C584.509 362.957 572.705 382.386 572.705 382.386L562.1 375.475L584.059 325.236Z" fill="white"/>
</mask>
<g mask="url(#mask28_9_8)">
<path d="M565.618 363.057C574.557 366.819 579.873 371.813 581.568 369.717C583.262 367.62 580.808 373.54 580.808 373.54L575.55 374.897L569.65 370.58L567.839 367.62" fill="#E84B23"/>
</g>
<path d="M507.769 475.331L535.858 430.24L566.609 362.23C579.186 371.275 585.667 388.333 585.667 388.333L558.229 451.02L524.178 514.323" fill="#589BF7"/>
<mask id="mask29_9_8" style="mask-type:luminance" maskUnits="userSpaceOnUse" x="507" y="362" width="79" height="153">
<path fill-rule="evenodd" clip-rule="evenodd" d="M507.769 475.331L535.858 430.24L566.609 362.23C579.186 371.275 585.667 388.333 585.667 388.333L558.229 451.02L524.178 514.323" fill="white"/>
</mask>
<g mask="url(#mask29_9_8)">
<path d="M557.07 369.825C565.95 368.098 582.309 400.163 582.309 400.163L591.19 390.297L567.469 355.272L552.747 361.685" fill="#F0F3FC"/>
</g>
<path d="M482.68 470.213C487.237 468.918 488.612 468.715 488.612 468.715L482.68 470.213Z" fill="#589BF7"/>
<ellipse cx="490.656" cy="438.683" rx="3.26958" ry="1.71267" fill="#C1525F"/>
<ellipse cx="480.038" cy="491.749" rx="1.70362" ry="1.79809" fill="black"/>
<ellipse cx="477.935" cy="501.368" rx="1.70362" ry="1.79809" fill="black"/>
<path d="M512.987 437.967L513.032 437.973L512.781 437.938C512.939 437.962 513.093 438.008 513.239 438.074L513.014 437.973C513.16 438.041 513.298 438.126 513.425 438.228L513.234 438.072C513.366 438.181 513.485 438.306 513.589 438.445L513.441 438.243C513.538 438.376 513.619 438.522 513.682 438.676L513.585 438.438C513.617 438.52 513.644 438.603 513.666 438.688C513.734 438.938 513.889 439.151 514.1 439.284C514.321 439.419 514.582 439.455 514.828 439.387C515.065 439.316 515.268 439.152 515.393 438.929C515.517 438.695 515.552 438.42 515.49 438.16C515.35 437.607 515.058 437.109 514.651 436.731C514.453 436.542 514.23 436.384 513.99 436.261C513.834 436.182 513.672 436.116 513.506 436.064C513.335 436.02 513.162 435.99 512.987 435.974C512.86 435.968 512.735 435.998 512.623 436.06C512.506 436.1 512.401 436.171 512.319 436.266C512.141 436.453 512.042 436.707 512.042 436.971C512.042 437.236 512.141 437.49 512.319 437.677L512.51 437.832C512.654 437.922 512.819 437.969 512.987 437.969V437.967Z" fill="#190000"/>
<path d="M509.942 411.856C510.396 412.426 510.951 412.898 511.576 413.245C512.262 413.622 513.012 413.856 513.783 413.932C514.034 413.932 514.274 413.827 514.451 413.64C514.628 413.453 514.728 413.199 514.728 412.934C514.728 412.67 514.628 412.416 514.451 412.229C514.267 412.053 514.031 411.95 513.783 411.937L513.634 411.919L513.886 411.953C513.474 411.894 513.071 411.778 512.687 411.611L512.912 411.713C512.568 411.56 512.241 411.365 511.938 411.134C511.809 411.034 511.944 411.164 511.99 411.179C511.947 411.151 511.908 411.118 511.874 411.08C511.804 411.018 511.735 410.953 511.669 410.887C511.53 410.748 511.4 410.601 511.278 410.445C511.1 410.259 510.86 410.154 510.609 410.153C510.359 410.155 510.12 410.26 509.941 410.445C509.765 410.632 509.665 410.886 509.665 411.15C509.677 411.412 509.774 411.661 509.941 411.856L509.942 411.856Z" fill="#190000"/>
<path d="M484.024 545.942C486.662 547.875 489.726 549.06 492.923 549.383C493.443 549.379 493.864 548.935 493.868 548.386C493.856 547.84 493.44 547.401 492.923 547.388C490.062 547.066 487.327 545.975 484.979 544.22C484.528 543.947 483.952 544.106 483.686 544.578C483.434 545.055 483.583 545.657 484.025 545.942H484.024Z" fill="#2976DF"/>
<path d="M329.007 503.739L328.306 507.439C328.21 507.784 328.297 508.159 328.536 508.417C328.774 508.675 329.126 508.778 329.456 508.685C329.787 508.592 330.044 508.318 330.129 507.969L330.83 504.269C330.968 503.738 330.673 503.189 330.17 503.042C329.666 502.896 329.146 503.208 329.007 503.739Z" fill="#90282A"/>
<path d="M268.673 576.002L278.488 578.962C278.984 579.089 279.486 578.777 279.622 578.258C279.758 577.738 279.478 577.199 278.991 577.039L269.175 574.078C268.679 573.952 268.177 574.264 268.041 574.783C267.906 575.303 268.185 575.842 268.673 576.002Z" fill="#90282A"/>
<path d="M578.307 346.803L577.605 347.543C577.25 347.938 577.25 348.558 577.605 348.953L577.797 349.109C577.941 349.199 578.106 349.246 578.274 349.245L578.525 349.211C578.682 349.165 578.826 349.077 578.942 348.955L579.643 348.215C579.998 347.819 579.998 347.2 579.643 346.805L579.451 346.649C579.307 346.559 579.142 346.512 578.975 346.513L578.723 346.547C578.566 346.593 578.422 346.681 578.307 346.803V346.803Z" fill="#E84B23"/>
<path d="M502.55 467.513L501.382 468.253C501.172 468.387 501.017 468.6 500.948 468.849C500.909 468.978 500.903 469.115 500.931 469.247C500.936 469.379 500.975 469.507 501.043 469.618C501.168 469.842 501.371 470.006 501.608 470.076C501.854 470.143 502.115 470.107 502.336 469.974L503.504 469.234C503.714 469.099 503.869 468.887 503.938 468.638C503.978 468.509 503.983 468.372 503.955 468.24C503.95 468.108 503.911 467.98 503.843 467.869C503.718 467.645 503.516 467.481 503.278 467.411C503.032 467.344 502.771 467.38 502.55 467.513Z" fill="#E84B23"/>
<path d="M205.534 431.528C204.534 432.049 203.676 432.832 203.043 433.802C202.85 434.152 202.876 434.591 203.111 434.912C203.345 435.233 203.74 435.372 204.11 435.265C204.342 435.185 204.541 435.023 204.674 434.807C204.722 434.736 204.771 434.666 204.82 434.598L204.673 434.8C204.961 434.409 205.294 434.057 205.664 433.752L205.472 433.908C205.788 433.651 206.129 433.43 206.488 433.248C206.701 433.116 206.856 432.903 206.923 432.652C206.987 432.393 206.952 432.117 206.826 431.884C206.701 431.66 206.498 431.496 206.261 431.426C206.015 431.366 205.757 431.402 205.533 431.526L205.534 431.528Z" fill="#E84B23"/>
<path d="M549.764 433.588L550.725 441.478C550.741 442.021 551.155 442.458 551.67 442.475C552.191 442.472 552.612 442.027 552.615 441.478L551.653 433.588C551.637 433.045 551.224 432.608 550.708 432.591C550.188 432.594 549.766 433.039 549.764 433.588Z" fill="#2976DF"/>
<path d="M452.069 396.224L445.993 401.158C445.556 401.447 445.408 402.045 445.654 402.523C445.919 402.995 446.495 403.155 446.946 402.88L453.023 397.946C453.459 397.657 453.607 397.06 453.362 396.582C453.096 396.109 452.52 395.949 452.069 396.224V396.224Z" fill="#2976DF"/>
</svg>
