<svg width="177" height="76" viewBox="0 0 177 76" fill="none" xmlns="http://www.w3.org/2000/svg">
<circle cx="139" cy="38" r="38" fill="black"/>
<circle cx="38" cy="38" r="37.5" stroke="black" stroke-opacity="0.4"/>
<path d="M42.0303 30.5749C42.2966 30.8475 42.3208 31.274 42.1029 31.5745L42.0303 31.6606L35.561 38.2826L42.0303 44.9047C42.2966 45.1772 42.3208 45.6037 42.1029 45.9042L42.0303 45.9903C41.7641 46.2628 41.3474 46.2876 41.0538 46.0646L40.9697 45.9903L33.9697 38.8254C33.7034 38.5529 33.6792 38.1264 33.8971 37.8259L33.9697 37.7398L40.9697 30.5749C41.2626 30.2751 41.7374 30.2751 42.0303 30.5749Z" fill="black"/>
<path d="M134.97 30.5749C134.703 30.8475 134.679 31.274 134.897 31.5745L134.97 31.6606L141.439 38.2826L134.97 44.9047C134.703 45.1772 134.679 45.6037 134.897 45.9042L134.97 45.9903C135.236 46.2628 135.653 46.2876 135.946 46.0646L136.03 45.9903L143.03 38.8254C143.297 38.5529 143.321 38.1264 143.103 37.8259L143.03 37.7398L136.03 30.5749C135.737 30.2751 135.263 30.2751 134.97 30.5749Z" fill="white"/>
</svg>
