<svg width="338" height="429" viewBox="0 0 338 429" fill="none" xmlns="http://www.w3.org/2000/svg">
<path d="M286.428 97.9205L279.777 97.0767L279.182 97.0013C268.809 95.6934 258.867 92.0543 250.1 86.3567L250.023 86.3066L243.949 82.3661C245.012 80.1005 246.128 77.862 247.299 75.6504C247.381 75.4952 247.462 75.34 247.545 75.1866C249.397 71.7829 253.35 70.1043 257.084 71.1359C257.301 71.1958 257.516 71.2649 257.73 71.3432L268.191 75.172L283.015 80.5979C286.896 82.0158 289.15 86.0648 288.311 90.1106C288.217 90.5668 288.11 91.0206 288.009 91.4755C287.53 93.6362 287.002 95.7846 286.428 97.9205Z" fill="#FF999A"/>
<path d="M270.082 134.39C267.956 135.592 265.41 135.801 263.117 134.96L259.126 133.5L249.215 129.872L240.422 126.654L237.885 125.725C233.998 124.303 231.744 120.242 232.593 116.191C232.745 115.468 232.918 114.75 233.081 114.029C233.493 112.204 233.939 110.387 234.418 108.577C235.335 105.115 236.37 101.687 237.526 98.2937C238.69 94.8731 239.972 91.496 241.373 88.1625C242.192 86.213 243.051 84.2809 243.949 82.3662L248.464 85.2961L250.099 86.3568C251.178 87.0572 252.273 87.726 253.385 88.3631C259.698 91.9865 266.544 94.5902 273.669 96.0779C275.543 96.4697 277.433 96.7798 279.332 97.0208L286.427 97.9208C285.88 99.9648 285.292 101.996 284.663 104.015C283.588 107.464 282.393 110.872 281.08 114.239C279.778 117.574 278.362 120.862 276.83 124.104C275.912 126.047 274.953 127.972 273.953 129.877C273.739 130.285 273.529 130.696 273.31 131.101C272.566 132.48 271.446 133.62 270.082 134.39Z" fill="#FE7578"/>
<mask id="mask0_9_292" style="mask-type:luminance" maskUnits="userSpaceOnUse" x="232" y="82" width="55" height="54">
<path fill-rule="evenodd" clip-rule="evenodd" d="M270.082 134.39C267.956 135.592 265.41 135.801 263.117 134.96L259.126 133.5L249.215 129.872L240.422 126.654L237.885 125.725C233.998 124.303 231.744 120.242 232.593 116.191C232.745 115.468 232.918 114.75 233.081 114.029C233.493 112.204 233.939 110.387 234.418 108.577C235.335 105.115 236.37 101.687 237.526 98.2937C238.69 94.8731 239.972 91.496 241.373 88.1625C242.192 86.213 243.051 84.2809 243.949 82.3662L248.464 85.2961L250.099 86.3568C251.178 87.0572 252.273 87.726 253.385 88.3631C259.698 91.9865 266.544 94.5902 273.669 96.0779C275.543 96.4697 277.433 96.7798 279.332 97.0208L286.427 97.9208C285.88 99.9648 285.292 101.996 284.663 104.015C283.588 107.464 282.393 110.872 281.08 114.239C279.778 117.574 278.362 120.862 276.83 124.104C275.912 126.047 274.953 127.972 273.953 129.877C273.739 130.285 273.529 130.696 273.31 131.101C272.566 132.48 271.446 133.62 270.082 134.39Z" fill="white"/>
</mask>
<g mask="url(#mask0_9_292)">
<path d="M230.729 121.05C273.932 135.231 274.911 124.537 280.314 116.405C285.717 108.273 282.418 135.861 282.418 135.861C282.418 135.861 270.421 143.592 269.57 143.746C268.719 143.9 231.166 130.864 231.166 130.864L227.926 129.516" fill="#E55A61"/>
<path d="M269.2 103.444C266.58 104.662 263.565 104.707 260.911 103.566C257.221 101.986 254.806 98.3829 254.747 94.3694C254.688 90.3558 256.996 86.6832 260.638 84.9957C261.451 84.6181 262.311 84.3492 263.195 84.1961C268.222 83.3286 273.113 86.3192 274.632 91.1886C276.151 96.058 273.828 101.299 269.2 103.444Z" fill="#E55A61"/>
</g>
<path d="M268.781 101.288C266.161 102.507 263.146 102.551 260.492 101.41C256.802 99.8302 254.387 96.2271 254.328 92.2135C254.269 88.1999 256.577 84.5274 260.219 82.8399C261.032 82.4622 261.892 82.1933 262.776 82.0402C267.803 81.1727 272.694 84.1633 274.213 89.0327C275.732 93.9021 273.409 99.1435 268.781 101.288Z" fill="#FFC562"/>
<path d="M267.527 98.5855C265.674 99.4472 263.543 99.4786 261.666 98.6718C259.324 97.6695 257.688 95.5031 257.364 92.9767C257.041 90.4504 258.078 87.9415 260.092 86.3815C262.275 84.6853 265.237 84.3906 267.711 85.6233C270.185 86.8559 271.734 89.3979 271.695 92.1621C271.656 94.9263 270.036 97.4234 267.528 98.5855H267.527Z" fill="#FF9763"/>
<path d="M276.651 84.739C277.514 85.0746 278.06 85.9315 278 86.8561C278.001 87.0271 278.139 87.1656 278.31 87.1676C278.481 87.1638 278.618 87.0264 278.621 86.8561C278.681 85.6516 277.948 84.5489 276.814 84.1384C276.649 84.0945 276.478 84.1912 276.431 84.3559C276.389 84.5212 276.485 84.6903 276.649 84.739H276.651Z" fill="#FE7578"/>
<path d="M244.875 115.327C245.714 117.209 247.365 118.606 249.359 119.122C249.523 119.161 249.687 119.063 249.732 118.902C249.776 118.74 249.685 118.572 249.525 118.522C247.688 118.045 246.172 116.752 245.412 115.013C245.325 114.866 245.135 114.816 244.987 114.902C244.842 114.992 244.793 115.179 244.876 115.328L244.875 115.327Z" fill="#E55A61"/>
<path d="M312.975 215.343L284.568 232.151L280.006 204.912L308.415 188.104L312.975 215.343Z" fill="#F0F3FC"/>
<path d="M312.975 215.343L334.371 231.595L305.961 248.406L284.568 232.151L312.975 215.343Z" fill="#97CC64"/>
<mask id="mask1_9_292" style="mask-type:luminance" maskUnits="userSpaceOnUse" x="284" y="215" width="51" height="34">
<path fill-rule="evenodd" clip-rule="evenodd" d="M312.975 215.343L334.371 231.595L305.961 248.406L284.568 232.151L312.975 215.343Z" fill="white"/>
</mask>
<g mask="url(#mask1_9_292)">
<path d="M273.018 248.605H345.92" stroke="white" stroke-width="0.6"/>
<path d="M273.018 245.816H345.92" stroke="white" stroke-width="0.6"/>
<path d="M273.018 243.028H345.92" stroke="white" stroke-width="0.6"/>
<path d="M273.018 240.239H345.92" stroke="white" stroke-width="0.6"/>
<path d="M273.018 237.451H345.92" stroke="white" stroke-width="0.6"/>
<path d="M273.018 234.662H345.92" stroke="white" stroke-width="0.6"/>
<path d="M273.018 231.874H345.92" stroke="white" stroke-width="0.6"/>
<path d="M273.018 229.085H345.92" stroke="white" stroke-width="0.6"/>
<path d="M273.018 226.297H345.92" stroke="white" stroke-width="0.6"/>
<path d="M273.018 223.508H345.92" stroke="white" stroke-width="0.6"/>
<path d="M273.018 220.72H345.92" stroke="white" stroke-width="0.6"/>
<path d="M273.018 217.931H345.92" stroke="white" stroke-width="0.6"/>
<path d="M273.018 215.143H345.92" stroke="white" stroke-width="0.6"/>
</g>
<path d="M308.415 188.104L329.808 204.356L334.371 231.595L312.975 215.343L308.415 188.104Z" fill="#589BF7"/>
<mask id="mask2_9_292" style="mask-type:luminance" maskUnits="userSpaceOnUse" x="308" y="188" width="27" height="44">
<path fill-rule="evenodd" clip-rule="evenodd" d="M308.415 188.104L329.808 204.356L334.371 231.595L312.975 215.343L308.415 188.104Z" fill="white"/>
</mask>
<g mask="url(#mask2_9_292)">
<path d="M306.29 188.104C330.011 205.564 329.545 204.159 329.71 205.444C329.875 206.728 334.37 229.427 334.37 230.511C334.37 231.595 335.013 202.183 335.013 202.183L326.053 190.983L309.468 185.581" fill="#2976DF"/>
</g>
<path d="M297.526 205.278C295.884 207.738 294.032 210.051 291.992 212.192C291.494 212.715 292.287 213.511 292.786 212.986C294.891 210.774 296.802 208.385 298.496 205.845C298.898 205.242 297.926 204.679 297.526 205.278Z" fill="#D6DCF2"/>
<rect x="272.276" y="315.45" width="65.6594" height="87.9168" rx="5.59255" fill="#589BF7"/>
<mask id="mask3_9_292" style="mask-type:luminance" maskUnits="userSpaceOnUse" x="272" y="315" width="66" height="89">
<rect x="272.276" y="315.45" width="65.6594" height="87.9168" rx="5.59255" fill="white"/>
</mask>
<g mask="url(#mask3_9_292)">
<path d="M340.912 388.339C333.998 373.035 340.967 408.267 276.621 403.367C212.275 398.467 307.826 429.612 307.826 429.612L353.504 401.192" fill="#2976DF"/>
</g>
<rect x="277.934" y="322.673" width="54.3443" height="49.2375" rx="3.33866" fill="#EFF3FC"/>
<mask id="mask4_9_292" style="mask-type:luminance" maskUnits="userSpaceOnUse" x="277" y="322" width="56" height="50">
<rect x="277.934" y="322.673" width="54.3443" height="49.2375" rx="3.33866" fill="white"/>
</mask>
<g mask="url(#mask4_9_292)">
<path d="M255.73 339.457C274.741 341.186 275.212 322.673 290.161 322.673C305.11 322.673 272.276 317.235 272.276 317.235L270.05 321.68" fill="#D6DCF2"/>
</g>
<rect x="281.953" y="380.708" width="44.7323" height="4.99334" rx="1.89202" fill="#2976DF"/>
<rect x="281.953" y="388.339" width="32.5341" height="4.99334" rx="1.89202" fill="#2976DF"/>
<path d="M292.403 337.11C290.812 345.735 290.061 354.494 290.161 363.263H295.392C295.227 358.209 295.645 353.153 296.637 348.194L297.166 348.442L296.987 354.012L300.451 354.538V355.769L296.947 355.237L296.826 359.029C299.029 360.556 301.661 361.338 304.34 361.264V333.08C303.282 333.14 302.22 333.036 301.194 332.769C303.43 331.951 305.859 331.821 308.169 332.396C307.448 332.924 306.586 333.227 305.693 333.267V361.27C308.431 361.369 311.129 360.584 313.386 359.031L313.265 355.244L309.799 355.77V354.54L313.225 354.02L313.046 348.444L313.575 348.196C314.568 353.154 314.986 358.211 314.821 363.265H320.051C320.153 354.495 319.403 345.736 317.81 337.112C315.424 335.771 312.868 334.762 310.21 334.111V332.069C306.794 331.072 303.165 331.072 299.749 332.069V334.178C297.182 334.828 294.712 335.814 292.404 337.112L292.403 337.11Z" fill="#97CC64"/>
<mask id="mask5_9_292" style="mask-type:luminance" maskUnits="userSpaceOnUse" x="290" y="331" width="31" height="33">
<path fill-rule="evenodd" clip-rule="evenodd" d="M292.403 337.11C290.812 345.735 290.061 354.494 290.161 363.263H295.392C295.227 358.209 295.645 353.153 296.637 348.194L297.166 348.442L296.987 354.012L300.451 354.538V355.769L296.947 355.237L296.826 359.029C299.029 360.556 301.661 361.338 304.34 361.264V333.08C303.282 333.14 302.22 333.036 301.194 332.769C303.43 331.951 305.859 331.821 308.169 332.396C307.448 332.924 306.586 333.227 305.693 333.267V361.27C308.431 361.369 311.129 360.584 313.386 359.031L313.265 355.244L309.799 355.77V354.54L313.225 354.02L313.046 348.444L313.575 348.196C314.568 353.154 314.986 358.211 314.821 363.265H320.051C320.153 354.495 319.403 345.736 317.81 337.112C315.424 335.771 312.868 334.762 310.21 334.111V332.069C306.794 331.072 303.165 331.072 299.749 332.069V334.178C297.182 334.828 294.712 335.814 292.404 337.112L292.403 337.11Z" fill="white"/>
</mask>
<g mask="url(#mask5_9_292)">
<path d="M281.952 343.345C292.58 348.715 292.099 336.157 298.219 334.618C304.339 333.079 291.654 331.32 291.654 331.32L290.161 334.457" fill="#75AA3C"/>
</g>
<path d="M299.973 339.857L298.862 340.597C298.775 340.651 298.71 340.735 298.681 340.833C298.638 340.988 298.694 341.153 298.821 341.251C298.948 341.349 299.122 341.36 299.26 341.279L300.372 340.538C300.459 340.484 300.523 340.4 300.553 340.302C300.596 340.147 300.54 339.982 300.413 339.884C300.286 339.786 300.112 339.775 299.973 339.857Z" fill="#75AA3C"/>
<path d="M331.041 387.356C330.21 388.341 329.22 389.181 328.112 389.841C327.924 389.951 327.861 390.193 327.971 390.381C328.081 390.57 328.323 390.633 328.512 390.523C329.679 389.83 330.722 388.949 331.6 387.914C331.749 387.758 331.749 387.512 331.6 387.356C331.445 387.203 331.197 387.203 331.042 387.356H331.041Z" fill="#2976DF"/>
<rect x="5.2724" y="315.45" width="65.6594" height="87.9168" rx="5.59255" fill="#FFC562"/>
<mask id="mask6_9_292" style="mask-type:luminance" maskUnits="userSpaceOnUse" x="5" y="315" width="66" height="89">
<rect x="5.2724" y="315.45" width="65.6594" height="87.9168" rx="5.59255" fill="white"/>
</mask>
<g mask="url(#mask6_9_292)">
<path d="M74.603 317.316C82.7071 413.542 36.3925 413.201 4.55192 409.668C-27.2887 406.135 52.5318 426.505 52.5318 426.505L75.039 422.801L88.6408 368.022" fill="#D89D35"/>
</g>
<rect x="10.9299" y="322.673" width="54.3443" height="49.2375" rx="3.33866" fill="#EFF3FC"/>
<mask id="mask7_9_292" style="mask-type:luminance" maskUnits="userSpaceOnUse" x="10" y="322" width="56" height="50">
<rect x="10.9299" y="322.673" width="54.3443" height="49.2375" rx="3.33866" fill="white"/>
</mask>
<g mask="url(#mask7_9_292)">
<path d="M0.676854 357.613C6.86798 314.652 46.0776 320.207 46.0776 320.207L-14.6865 318.238" fill="#D6DCF2"/>
</g>
<rect x="14.9489" y="380.708" width="44.7323" height="4.99334" rx="1.89202" fill="#E84B23"/>
<rect x="14.9489" y="388.339" width="32.5341" height="4.99334" rx="1.89202" fill="#E84B23"/>
<path d="M49.3237 332.862H44.2892C43.5695 335.691 41.0227 337.671 38.104 337.671C35.1854 337.671 32.6386 335.691 31.9189 332.862H26.8761V332.866L17.2617 337.672L20.4691 345.688L26.8759 342.48V361.721H49.3231V342.48L55.7341 345.688L58.9413 337.672L49.3237 332.862Z" fill="#FFC562"/>
<mask id="mask8_9_292" style="mask-type:luminance" maskUnits="userSpaceOnUse" x="17" y="332" width="42" height="30">
<path fill-rule="evenodd" clip-rule="evenodd" d="M49.3237 332.862H44.2892C43.5695 335.691 41.0227 337.671 38.104 337.671C35.1854 337.671 32.6386 335.691 31.9189 332.862H26.8761V332.866L17.2617 337.672L20.4691 345.688L26.8759 342.48V361.721H49.3231V342.48L55.7341 345.688L58.9413 337.672L49.3237 332.862Z" fill="white"/>
</mask>
<g mask="url(#mask8_9_292)">
<path d="M15.7564 345.021C17.2621 337.672 31.1891 333.582 36.5117 335.022C41.8342 336.461 29.0893 326.365 29.0893 326.365L3.90533 333.612" fill="#D89D35"/>
</g>
<path d="M37.3467 348.464L36.2325 349.573C36.1328 349.672 36.0939 349.818 36.1304 349.954C36.167 350.09 36.2734 350.197 36.4095 350.233C36.5457 350.269 36.691 350.23 36.7907 350.131L37.9049 349.022C38.059 348.868 38.059 348.618 37.9048 348.464C37.7507 348.31 37.5008 348.31 37.3467 348.464Z" fill="#D89D35"/>
<path d="M63.9311 392.042C63.8972 392.09 63.8626 392.137 63.8273 392.184C63.8508 392.153 63.8442 392.162 63.824 392.188L63.7681 392.256C63.6967 392.343 63.6221 392.426 63.5442 392.506C63.4625 392.59 63.3774 392.672 63.2891 392.75C63.2494 392.785 63.209 392.819 63.168 392.853L63.0993 392.908C63.1436 392.874 63.104 392.905 63.0811 392.922C62.9017 393.056 62.7126 393.176 62.5154 393.281C62.4167 393.334 62.3158 393.382 62.2141 393.428C62.1476 393.459 62.2363 393.421 62.1946 393.437L62.1126 393.469C62.0576 393.492 62.0017 393.51 61.9465 393.529C61.8079 393.565 61.6991 393.672 61.6621 393.81C61.6251 393.948 61.6658 394.096 61.7684 394.195C61.8709 394.295 62.0194 394.331 62.1564 394.29C63.1505 393.949 64.0105 393.302 64.6125 392.44C64.7215 392.252 64.6583 392.011 64.4709 391.9C64.282 391.796 64.0445 391.858 63.9311 392.042V392.042Z" fill="#D89D35"/>
<rect x="58.2097" y="294.95" width="96.2803" height="128.918" rx="8.20058" fill="#FE7578"/>
<mask id="mask9_9_292" style="mask-type:luminance" maskUnits="userSpaceOnUse" x="58" y="294" width="97" height="130">
<rect x="58.2097" y="294.95" width="96.2803" height="128.918" rx="8.20058" fill="white"/>
</mask>
<g mask="url(#mask9_9_292)">
<path d="M159.066 344.539C146.194 319.847 195.742 434.689 69.0311 423.868C-57.6799 413.046 169.049 463.762 169.049 463.762L185.099 373.612" fill="#E55A61"/>
</g>
<rect x="66.5056" y="305.541" width="79.6886" height="72.1999" rx="4.89569" fill="#EFF3FC"/>
<mask id="mask10_9_292" style="mask-type:luminance" maskUnits="userSpaceOnUse" x="66" y="305" width="81" height="73">
<rect x="66.5056" y="305.541" width="79.6886" height="72.1999" rx="4.89569" fill="white"/>
</mask>
<g mask="url(#mask10_9_292)">
<path d="M57.2162 356.233C58.5503 282.918 144.807 305.541 144.807 305.541L47.1564 299.037L41.4 305.54" fill="#D6DCF2"/>
</g>
<rect x="72.3992" y="390.641" width="65.594" height="7.32219" rx="2.77435" fill="#FFC562"/>
<rect x="72.3992" y="401.832" width="47.7067" height="7.32219" rx="2.77435" fill="#FFC562"/>
<path d="M128.127 365.589L122.268 323.088C122.073 322.167 121.234 321.527 120.294 321.581H92.4051C91.4649 321.527 90.6261 322.167 90.4305 323.088L84.5724 365.589C84.5463 366.114 84.7484 366.625 85.1267 366.991C85.505 367.357 86.0228 367.541 86.5472 367.498H101.893C102.866 367.558 103.725 366.869 103.876 365.906L105.919 340.159C105.968 339.938 106.164 339.78 106.39 339.78C106.616 339.78 106.812 339.938 106.861 340.159L108.827 365.901C108.976 366.866 109.837 367.559 110.812 367.497H126.153C126.677 367.541 127.195 367.356 127.573 366.991C127.951 366.625 128.153 366.114 128.127 365.589Z" fill="#FE7578"/>
<path d="M92.5825 318.732H119.99C120.804 318.732 121.464 318.072 121.464 317.257C121.464 316.443 120.804 315.783 119.99 315.783H92.5825C91.7683 315.783 91.1082 316.443 91.1082 317.257C91.1082 318.072 91.7683 318.732 92.5825 318.732Z" fill="#E55A61"/>
<path d="M101.587 331.386L95.6134 337.903C95.1109 338.452 95.9271 339.272 96.4317 338.722L102.406 332.204C102.908 331.656 102.092 330.835 101.587 331.386Z" fill="#E55A61"/>
<path d="M143.85 400.081C143.81 400.237 143.764 400.392 143.711 400.543C143.686 400.615 143.659 400.686 143.631 400.757C143.574 400.909 143.66 400.698 143.622 400.783L143.57 400.899C143.435 401.191 143.276 401.472 143.094 401.737C143.051 401.8 143.006 401.86 142.961 401.923C142.908 401.999 143.044 401.821 142.943 401.947L142.879 402.025C142.777 402.149 142.67 402.269 142.557 402.384C142.444 402.499 142.327 402.609 142.205 402.714C142.141 402.769 142.076 402.823 142.009 402.875C142.053 402.84 142.045 402.847 142.005 402.876L141.881 402.965C141.7 403.068 141.588 403.26 141.588 403.469C141.588 403.677 141.701 403.869 141.882 403.972C142.064 404.075 142.286 404.072 142.465 403.964C143.697 403.108 144.584 401.84 144.966 400.389C145.023 400.189 144.968 399.974 144.822 399.826C144.677 399.677 144.463 399.618 144.262 399.671C144.061 399.724 143.904 399.881 143.85 400.081Z" fill="#E55A61"/>
<rect x="188.718" y="294.95" width="96.2803" height="128.918" rx="8.20058" fill="#9A7ED9"/>
<mask id="mask11_9_292" style="mask-type:luminance" maskUnits="userSpaceOnUse" x="188" y="294" width="97" height="130">
<rect x="188.718" y="294.95" width="96.2803" height="128.918" rx="8.20058" fill="white"/>
</mask>
<g mask="url(#mask11_9_292)">
<path d="M284.998 365.061C279.595 351.513 288.678 430.329 229.829 423.867C170.98 417.406 300.231 446.732 300.231 446.732L310.731 397.963" fill="#6F4EB9"/>
</g>
<rect x="197.014" y="305.541" width="79.6886" height="72.1999" rx="4.89569" fill="#EFF3FC"/>
<mask id="mask12_9_292" style="mask-type:luminance" maskUnits="userSpaceOnUse" x="197" y="305" width="80" height="73">
<rect x="197.014" y="305.541" width="79.6886" height="72.1999" rx="4.89569" fill="white"/>
</mask>
<g mask="url(#mask12_9_292)">
<path d="M194.513 341.641C188.718 308.791 212.642 305.31 248.82 305.541C284.998 305.771 188.718 294.95 188.718 294.95L177.134 298.653" fill="#D6DCF2"/>
</g>
<rect x="202.907" y="390.641" width="65.594" height="7.32219" rx="2.77435" fill="#6F4EB9"/>
<rect x="202.907" y="401.832" width="47.7067" height="7.32219" rx="2.77435" fill="#6F4EB9"/>
<path d="M249.023 330.562V324.756H238.253V338.577C238.253 339.347 237.628 339.971 236.858 339.971C236.088 339.971 235.464 339.347 235.464 338.577V324.756H224.694V330.667C224.694 335.248 222.04 339.415 217.888 341.352L215.779 342.337V364.711C215.779 365.581 216.484 366.287 217.354 366.287H231.615C232.363 366.287 233.008 365.761 233.158 365.028L236.088 350.79H237.627L240.557 365.028C240.707 365.761 241.352 366.287 242.1 366.287H256.361C256.779 366.287 257.18 366.121 257.475 365.825C257.771 365.53 257.937 365.129 257.937 364.711V342.232L255.828 341.247C251.676 339.31 249.023 335.143 249.023 330.562Z" fill="#9A7ED9"/>
<path d="M251.934 324.755V330.562C251.941 334.01 253.937 337.144 257.059 338.609L257.938 339.019V324.754L251.934 324.755Z" fill="#9A7ED9"/>
<path d="M221.783 330.666V324.755H215.778V339.124L216.657 338.714C219.779 337.249 221.775 334.114 221.783 330.666Z" fill="#9A7ED9"/>
<path d="M257.748 319.085C257.747 317.932 256.812 316.996 255.659 316.996H218.058C217.504 316.996 216.972 317.216 216.58 317.608C216.189 318 215.969 318.531 215.969 319.085V322.632H257.748V319.085Z" fill="#6F4EB9"/>
<path d="M249.588 346.152L247.959 349.954C247.808 350.231 247.899 350.577 248.166 350.745C248.442 350.904 248.795 350.812 248.958 350.538L250.587 346.736C250.737 346.459 250.646 346.112 250.379 345.944C250.103 345.785 249.75 345.878 249.588 346.152Z" fill="#6F4EB9"/>
<path d="M260.042 407.46L257.313 409.615C257.088 409.841 257.088 410.207 257.313 410.433C257.543 410.65 257.902 410.65 258.132 410.433L260.86 408.278C261.085 408.052 261.085 407.686 260.86 407.46C260.63 407.243 260.271 407.243 260.042 407.46Z" fill="#6F4EB9"/>
<circle cx="35.0294" cy="193.077" r="34.1504" fill="#9A7ED9"/>
<rect x="25.9118" y="176.483" width="18.2353" height="40.6637" rx="1.76887" fill="#589BF7"/>
<path d="M30.5475 169.007H39.5124C40.6813 169.007 41.6288 169.954 41.6288 171.123V176.483H28.4319V171.122C28.4323 169.954 29.3792 169.007 30.5475 169.007Z" fill="#FFC562"/>
<mask id="mask13_9_292" style="mask-type:luminance" maskUnits="userSpaceOnUse" x="28" y="169" width="14" height="8">
<path fill-rule="evenodd" clip-rule="evenodd" d="M30.5475 169.007H39.5124C40.6813 169.007 41.6288 169.954 41.6288 171.123V176.483H28.4319V171.122C28.4323 169.954 29.3792 169.007 30.5475 169.007Z" fill="white"/>
</mask>
<g mask="url(#mask13_9_292)">
<path d="M30.6004 176.483C29.8203 175.438 41.8634 176.46 41.9121 172.122C41.9609 167.783 44.74 177.729 44.74 177.729L36.6951 179.484" fill="#D89D35"/>
</g>
<rect x="28.8657" y="185.617" width="12.3275" height="3.1205" rx="1.18238" fill="#2976DF"/>
<rect x="31.3239" y="190.915" width="7.41109" height="0.877669" rx="0.332472" fill="#2976DF"/>
<rect x="28.1588" y="209.345" width="13.7414" height="0.682583" fill="#2976DF"/>
<path d="M32.6937 172.853L32.3035 173.113C32.266 173.136 32.2382 173.172 32.2255 173.214C32.2138 173.259 32.22 173.306 32.2425 173.345C32.2652 173.384 32.3025 173.412 32.3461 173.424C32.3896 173.435 32.436 173.429 32.4749 173.406L32.8648 173.146C32.9024 173.123 32.9301 173.087 32.9428 173.045C32.9547 173.001 32.9485 172.954 32.9258 172.914C32.9031 172.875 32.8659 172.847 32.8224 172.835C32.7788 172.824 32.7325 172.83 32.6937 172.853Z" fill="#D89D35"/>
<path d="M37.191 203.415L38.3613 202.115C38.4257 202.048 38.4257 201.942 38.3613 201.875C38.2947 201.81 38.1881 201.81 38.1215 201.875L36.9509 203.175C36.8868 203.242 36.8868 203.348 36.9509 203.415C37.0176 203.481 37.1244 203.481 37.191 203.415Z" fill="#2976DF"/>
<path d="M30.6985 213.742C30.7898 213.739 30.8622 213.664 30.8622 213.572C30.8622 213.481 30.7898 213.406 30.6985 213.403C30.6071 213.406 30.5348 213.481 30.5348 213.572C30.5348 213.664 30.6071 213.739 30.6985 213.742Z" fill="#7B5CB7"/>
<circle cx="208.65" cy="279.234" r="42.8533" fill="#97CC64"/>
<path d="M204.241 296.022H213.059V306.367C213.059 306.983 212.56 307.483 211.943 307.483H205.357C205.061 307.483 204.777 307.365 204.568 307.156C204.358 306.947 204.241 306.663 204.241 306.367V296.022H204.241Z" fill="#935738"/>
<mask id="mask14_9_292" style="mask-type:luminance" maskUnits="userSpaceOnUse" x="204" y="296" width="10" height="12">
<path fill-rule="evenodd" clip-rule="evenodd" d="M204.241 296.022H213.059V306.367C213.059 306.983 212.56 307.483 211.943 307.483H205.357C205.061 307.483 204.777 307.365 204.568 307.156C204.358 306.947 204.241 306.663 204.241 306.367V296.022H204.241Z" fill="white"/>
</mask>
<g mask="url(#mask14_9_292)">
<path d="M203.576 301.754C205.203 299.117 201.63 307.072 211.944 307.484C222.257 307.895 202.316 309.614 202.316 309.614L200.253 305.682" fill="#6D3417"/>
</g>
<path d="M218.159 253.582H199.14L204.237 296.06H213.062L218.159 253.582Z" fill="#F0F3FC"/>
<mask id="mask15_9_292" style="mask-type:luminance" maskUnits="userSpaceOnUse" x="199" y="253" width="20" height="44">
<path fill-rule="evenodd" clip-rule="evenodd" d="M218.159 253.582H199.14L204.237 296.06H213.062L218.159 253.582Z" fill="white"/>
</mask>
<g mask="url(#mask15_9_292)">
<path d="M200.221 270.122C202.201 262.97 200.767 296.206 213.059 299.529C225.351 302.852 193.606 302.421 193.606 302.421L193.491 290.343" fill="#D6DCF2"/>
</g>
<rect x="199.141" y="250.984" width="19.0188" height="2.5982" fill="#D6DCF2"/>
<path d="M207.893 258.577C206.673 259.747 205.384 260.841 204.031 261.854C203.807 262.022 204.026 262.404 204.253 262.234C205.636 261.2 206.956 260.082 208.203 258.888C208.408 258.692 208.097 258.381 207.893 258.578L207.893 258.577Z" fill="#D6DCF2"/>
<path d="M212.131 279.432L211.787 279.776C211.746 279.818 211.723 279.873 211.722 279.931C211.722 280.053 211.821 280.151 211.942 280.151C212 280.15 212.056 280.127 212.097 280.087L212.441 279.743C212.482 279.701 212.505 279.646 212.506 279.588C212.505 279.53 212.482 279.474 212.441 279.433C212.4 279.392 212.344 279.369 212.286 279.368C212.228 279.369 212.173 279.392 212.131 279.433L212.131 279.432Z" fill="#D6DCF2"/>
<path d="M207.645 302.834C208.386 302.66 209.098 302.384 209.762 302.012C210.009 301.874 209.787 301.494 209.54 301.633C208.909 301.985 208.232 302.246 207.529 302.41C207.253 302.475 207.37 302.898 207.646 302.834H207.645Z" fill="#6D3417"/>
<path d="M60.3397 74.5322C58.0273 71.8344 12.5476 19.0317 11.3906 17.8754C10.2336 16.719 6.22017 -1.65747 1.88171 0.121143C-0.81515 1.22693 -0.942843 18.6464 3.68227 24.4276C8.30738 30.2089 56.0995 102.629 56.0995 102.629L60.3397 74.5322Z" fill="#FF9763"/>
<mask id="mask16_9_292" style="mask-type:luminance" maskUnits="userSpaceOnUse" x="0" y="0" width="61" height="103">
<path fill-rule="evenodd" clip-rule="evenodd" d="M60.3397 74.5322C58.0273 71.8344 12.5476 19.0317 11.3906 17.8754C10.2336 16.719 6.22017 -1.65747 1.88171 0.121143C-0.81515 1.22693 -0.942843 18.6464 3.68227 24.4276C8.30738 30.2089 56.0995 102.629 56.0995 102.629L60.3397 74.5322Z" fill="white"/>
</mask>
<g mask="url(#mask16_9_292)">
<path d="M21.6777 61.6859C42.787 84.7948 54.7046 66.5272 58.0792 67.7728C61.4537 69.0185 62.3416 79.4621 62.3416 79.4621L48.5651 94.2346L27.4559 90.5721" fill="#E84B23"/>
</g>
<path d="M39.527 92.261C41.0687 76.3304 58.0783 67.7729 58.0783 67.7729C58.0783 67.7729 83.722 92.261 102.222 92.261C114.662 92.261 105.819 110.761 105.819 110.761L91.3364 137.484L39.527 92.261Z" fill="#FFC562"/>
<mask id="mask17_9_292" style="mask-type:luminance" maskUnits="userSpaceOnUse" x="39" y="67" width="70" height="71">
<path fill-rule="evenodd" clip-rule="evenodd" d="M39.527 92.261C41.0687 76.3304 58.0783 67.7729 58.0783 67.7729C58.0783 67.7729 83.722 92.261 102.222 92.261C114.662 92.261 105.819 110.761 105.819 110.761L91.3364 137.484L39.527 92.261Z" fill="white"/>
</mask>
<g mask="url(#mask17_9_292)">
<path d="M34.9948 111.316C55.7594 106.43 56.7929 102.196 71.9179 112.428C87.0429 122.66 92.7346 106.088 99.2766 108.424C105.819 110.761 106.394 143.123 106.394 143.123L77.9235 148.016L34.9948 111.316Z" fill="#D89D35"/>
<path d="M82.8853 73.4522C54.0111 69.2938 48.3829 107.712 48.3829 107.712" stroke="white" stroke-width="3.45408" stroke-linecap="round" stroke-linejoin="round"/>
</g>
<path d="M151.094 137.484C151.932 138.321 161.403 160.722 163.443 177.12C166.094 198.441 163.085 226.029 163.376 226.901C163.89 228.443 167.802 250.514 163.398 245.985C160.026 242.517 156.785 231.302 156.785 231.302C156.785 231.302 150.956 237.467 152.839 232.297C154.066 228.93 151.362 199.997 147.312 182.228C146.047 177.337 143.821 172.748 140.763 168.727C136.653 162.921 151.094 137.484 151.094 137.484Z" fill="#FF9763"/>
<mask id="mask18_9_292" style="mask-type:luminance" maskUnits="userSpaceOnUse" x="140" y="137" width="26" height="110">
<path fill-rule="evenodd" clip-rule="evenodd" d="M151.094 137.484C151.932 138.321 161.403 160.722 163.443 177.12C166.094 198.441 163.085 226.029 163.376 226.901C163.89 228.443 167.802 250.514 163.398 245.985C160.026 242.517 156.785 231.302 156.785 231.302C156.785 231.302 150.956 237.467 152.839 232.297C154.066 228.93 151.362 199.997 147.312 182.228C146.047 177.337 143.821 172.748 140.763 168.727C136.653 162.921 151.094 137.484 151.094 137.484Z" fill="white"/>
</mask>
<g mask="url(#mask18_9_292)">
<path d="M138.556 179.601C151.888 179.675 151.335 162.404 157.278 157.374C163.221 152.344 143.888 156.344 143.888 156.344L134.308 168.727" fill="#E84B23"/>
</g>
<path d="M94.2254 401.263L96.4002 422.955H111.364L107.114 395.1L94.2254 401.263Z" fill="#FF9763"/>
<mask id="mask19_9_292" style="mask-type:luminance" maskUnits="userSpaceOnUse" x="94" y="395" width="18" height="28">
<path fill-rule="evenodd" clip-rule="evenodd" d="M94.2254 401.263L96.4002 422.955H111.364L107.114 395.1L94.2254 401.263Z" fill="white"/>
</mask>
<g mask="url(#mask19_9_292)">
<path d="M92.341 409.028C92.3375 412.876 107.997 411.551 110.054 414.38C112.111 417.209 111.362 409.028 111.362 409.028L106.779 404.432L99.5574 404.654" fill="#E84B23"/>
</g>
<path d="M62.0988 427.834C62.0988 427.834 62.0988 415.122 81.3789 418.592C91.192 420.358 95.6156 415.122 95.6156 415.122C95.6156 415.122 106.903 422.162 111.057 421.322L112.28 427.834H62.0988Z" fill="#3A3530"/>
<path d="M170.442 382.767L182.42 422.634H166.745L154.443 386.101L170.442 382.767Z" fill="#FF9763"/>
<mask id="mask20_9_292" style="mask-type:luminance" maskUnits="userSpaceOnUse" x="154" y="382" width="29" height="41">
<path fill-rule="evenodd" clip-rule="evenodd" d="M170.442 382.767L182.42 422.634H166.745L154.443 386.101L170.442 382.767Z" fill="white"/>
</mask>
<g mask="url(#mask20_9_292)">
<path d="M154.444 415.122C170.775 416.097 166.338 403.775 175.667 400.159C184.996 396.544 165.577 395.1 165.577 395.1L153.133 404.965" fill="#E84B23"/>
</g>
<path d="M213.795 428.1C213.795 428.1 218.257 413.605 197.13 419.236C188.375 421.569 179.137 411.709 179.137 411.709C179.137 411.709 170.373 420.105 165.577 419.164L168.367 428.1H213.795Z" fill="#3A3530"/>
<path d="M92.6922 411.003C110.307 413.851 115.369 407.444 115.369 407.444L105.049 281.888L118.924 173.199L74.9847 176.282C74.9847 176.282 69.2035 270.882 69.9745 279.19C70.7456 287.498 92.6922 411.003 92.6922 411.003Z" fill="#589BF7"/>
<mask id="mask21_9_292" style="mask-type:luminance" maskUnits="userSpaceOnUse" x="69" y="173" width="50" height="239">
<path fill-rule="evenodd" clip-rule="evenodd" d="M92.6922 411.003C110.307 413.851 115.369 407.444 115.369 407.444L105.049 281.888L118.924 173.199L74.9847 176.282C74.9847 176.282 69.2035 270.882 69.9745 279.19C70.7456 287.498 92.6922 411.003 92.6922 411.003Z" fill="white"/>
</mask>
<g mask="url(#mask21_9_292)">
<path d="M96.5236 202.426C101.139 237.312 94.5987 258.891 104.544 300.92C114.49 342.948 118.924 249.587 118.924 249.587L122.19 234.188" fill="#2976DF"/>
</g>
<path d="M96.3439 212.551L111.472 268.527L156.085 406.026C164.174 406.242 172.064 403.502 178.278 398.319L143.334 262.874L130.649 168.727L85.7081 173.199" fill="#589BF7"/>
<mask id="mask22_9_292" style="mask-type:luminance" maskUnits="userSpaceOnUse" x="85" y="168" width="94" height="239">
<path fill-rule="evenodd" clip-rule="evenodd" d="M96.3439 212.551L111.472 268.527L156.085 406.026C164.174 406.242 172.064 403.502 178.278 398.319L143.334 262.874L130.649 168.727L85.7081 173.199" fill="white"/>
</mask>
<g mask="url(#mask22_9_292)">
<path d="M65.0828 172.326C86.3346 231.714 120.696 156.204 140.028 213.533C159.359 270.861 130.65 168.727 130.65 168.727L83.4509 148.123L60.3406 164.121L39.5279 179.601L30.1711 192.04" fill="#2976DF"/>
</g>
<path d="M74.9856 176.283C58.3235 202.395 90.7886 199.46 122.519 184.245C154.25 169.029 92.3309 174.162 92.3309 174.162" fill="#F0F3FC"/>
<path d="M102.222 92.2609C102.222 92.2609 127.916 95.3443 137.681 108.192C137.681 108.192 137.681 150.331 132.456 182.135C132.456 182.135 80.6385 194.982 66.2495 181.679C55.9793 172.183 78.6963 130.689 92.5419 107.712" fill="#FFC562"/>
<mask id="mask23_9_292" style="mask-type:luminance" maskUnits="userSpaceOnUse" x="63" y="92" width="75" height="96">
<path fill-rule="evenodd" clip-rule="evenodd" d="M102.222 92.2609C102.222 92.2609 127.916 95.3443 137.681 108.192C137.681 108.192 137.681 150.331 132.456 182.135C132.456 182.135 80.6385 194.982 66.2495 181.679C55.9793 172.183 78.6963 130.689 92.5419 107.712" fill="white"/>
</mask>
<g mask="url(#mask23_9_292)">
<path d="M136.846 183.382C98.606 210.238 136.197 183.96 124.593 152.066C120.263 140.164 121.297 133.335 121.297 133.335L146.654 175.597L136.846 185.828" fill="#D89D35"/>
<path fill-rule="evenodd" clip-rule="evenodd" d="M82.4444 134.474C85.3587 125.701 93.758 119.943 102.991 120.387C111.61 121.251 116.386 128.961 113.657 137.604C110.743 146.377 102.343 152.135 93.1101 151.691C84.4919 150.827 79.7161 143.117 82.4444 134.474ZM85.7881 134.809C83.644 141.601 87.3958 147.658 94.168 148.337H94.1689C101.423 148.686 108.023 144.161 110.312 137.269C112.456 130.477 108.704 124.42 101.932 123.741C94.6773 123.392 88.0777 127.916 85.7881 134.809Z" fill="#D89D35"/>
<path d="M93.917 132.056C94.9063 132.104 95.8064 131.487 96.1186 130.547C96.2807 130.15 96.2429 129.699 96.0168 129.334C95.7908 128.969 95.4038 128.734 94.9758 128.702C93.9865 128.655 93.0865 129.272 92.7744 130.212C92.6123 130.609 92.6501 131.06 92.8761 131.425C93.1021 131.79 93.489 132.024 93.917 132.056Z" fill="#D89D35"/>
<path d="M105.426 129.75C104.437 129.703 103.537 130.32 103.225 131.26C103.063 131.657 103.101 132.108 103.327 132.473C103.553 132.838 103.94 133.072 104.368 133.104C105.357 133.152 106.257 132.535 106.569 131.595C106.731 131.198 106.694 130.747 106.467 130.382C106.241 130.017 105.854 129.782 105.426 129.75Z" fill="#D89D35"/>
<path d="M103.995 135.197C103.175 135.158 102.427 135.667 102.164 136.444L102.162 136.451C101.395 138.763 99.1818 140.28 96.7495 140.162C95.7227 140.089 94.7897 139.538 94.2294 138.675C93.6692 137.811 93.5467 136.735 93.8986 135.768C93.919 135.72 93.9371 135.671 93.9529 135.621C94.088 135.29 94.0564 134.914 93.8678 134.61C93.6792 134.305 93.3565 134.11 92.9996 134.084C92.1753 134.044 91.4254 134.558 91.1651 135.341H91.1547L91.1525 135.348C90.4831 136.988 90.6388 138.848 91.5712 140.354C92.5037 141.859 94.1004 142.827 95.8663 142.958C99.9448 143.155 103.656 140.613 104.945 136.739L104.946 136.735V136.734V136.732L104.949 136.725C105.081 136.394 105.047 136.021 104.859 135.719C104.67 135.418 104.349 135.224 103.995 135.197Z" fill="#D89D35"/>
<ellipse cx="118.846" cy="97.7411" rx="15.552" ry="13.2528" transform="rotate(-65.7103 118.846 97.7411)" fill="#F0F3FC"/>
</g>
<path d="M116.709 136.552L137.68 173.199C147.83 172.043 160.934 152.387 160.934 152.387C160.934 152.387 147.421 112.813 135.779 107.057" fill="#FFC562"/>
<mask id="mask24_9_292" style="mask-type:luminance" maskUnits="userSpaceOnUse" x="116" y="107" width="45" height="67">
<path fill-rule="evenodd" clip-rule="evenodd" d="M116.709 136.552L137.68 173.199C147.83 172.043 160.934 152.387 160.934 152.387C160.934 152.387 147.421 112.813 135.779 107.057" fill="white"/>
</mask>
<g mask="url(#mask24_9_292)">
<path d="M122.776 163.208C151.651 167.367 157.279 128.948 157.279 128.948" stroke="white" stroke-width="3.45408" stroke-linecap="round" stroke-linejoin="round"/>
</g>
<rect x="109.778" y="80.7572" width="16.345" height="26.9548" rx="6.19324" fill="#FF9763"/>
<mask id="mask25_9_292" style="mask-type:luminance" maskUnits="userSpaceOnUse" x="109" y="80" width="18" height="28">
<rect x="109.778" y="80.7572" width="16.345" height="26.9548" rx="6.19324" fill="white"/>
</mask>
<g mask="url(#mask25_9_292)">
<path d="M107.394 103.912C112.601 104.838 107.852 95.9346 114.471 94.0318C118.239 92.9748 120.6 89.2434 119.942 85.3859L109.778 79.0857C109.778 79.0857 102.585 95.9654 102.75 96.462" fill="#E84B23"/>
</g>
<path d="M119.197 90.8843C115.845 92.2237 112.09 92.1256 108.813 90.6129C102.201 87.5706 99.3066 79.7439 102.349 73.1316L107.123 62.7552C108.584 59.5799 111.246 57.115 114.525 55.9027C117.803 54.6905 121.429 54.8302 124.604 56.2912C131.216 59.3335 134.11 67.16 131.068 73.7723L128.43 79.5045" fill="#FF9763"/>
<mask id="mask26_9_292" style="mask-type:luminance" maskUnits="userSpaceOnUse" x="101" y="55" width="32" height="37">
<path fill-rule="evenodd" clip-rule="evenodd" d="M119.197 90.8843C115.845 92.2237 112.09 92.1256 108.813 90.6129C102.201 87.5706 99.3066 79.7439 102.349 73.1316L107.123 62.7552C108.584 59.5799 111.246 57.115 114.525 55.9027C117.803 54.6905 121.429 54.8302 124.604 56.2912C131.216 59.3335 134.11 67.16 131.068 73.7723L128.43 79.5045" fill="white"/>
</mask>
<g mask="url(#mask26_9_292)">
<ellipse opacity="0.27" cx="101.139" cy="76.9517" rx="4.48079" ry="2.7443" transform="rotate(-6.1159 101.139 76.9517)" fill="#E84B23"/>
<ellipse opacity="0.27" cx="118.017" cy="80.5775" rx="2.76624" ry="3.73148" transform="rotate(-72.765 118.017 80.5775)" fill="#E84B23"/>
<rect x="106.674" y="69.5056" width="2.67934" height="4.94191" rx="1.01522" transform="rotate(17.2356 106.674 69.5056)" fill="#190000"/>
<rect x="116.404" y="71.7368" width="2.67934" height="4.94191" rx="1.01522" transform="rotate(17.2349 116.404 71.7368)" fill="#190000"/>
<path d="M108.569 66.7882C105.721 66.7398 105.999 68.3861 107.777 68.5326C109.555 68.6792 110.43 66.8199 108.569 66.7882Z" fill="#190000"/>
<path d="M118.573 68.9934C120.948 70.5652 120.019 71.7175 118.471 70.8319C116.922 69.9462 117.022 67.9665 118.573 68.9934Z" fill="#190000"/>
<path d="M112.168 76.1844C111.999 77.0745 111.304 76.5771 110.365 76.3986C109.426 76.2201 108.596 76.4283 108.765 75.5384C108.985 74.6436 109.867 74.0775 110.773 74.2493C111.678 74.4212 112.291 75.271 112.168 76.1844Z" fill="#E84B23"/>
<path d="M105.889 79.8749C105.726 86.5138 112.314 85.122 113.264 81.1764C113.31 80.9714 113.222 80.7596 113.045 80.6463C111.023 79.4704 108.658 79.0249 106.346 79.3845C106.093 79.4114 105.898 79.6204 105.889 79.8749Z" fill="#C1525F"/>
<mask id="mask27_9_292" style="mask-type:luminance" maskUnits="userSpaceOnUse" x="105" y="79" width="9" height="6">
<path fill-rule="evenodd" clip-rule="evenodd" d="M105.889 79.8749C105.726 86.5138 112.314 85.122 113.264 81.1764C113.31 80.9714 113.222 80.7596 113.045 80.6463C111.023 79.4704 108.658 79.0249 106.346 79.3845C106.093 79.4114 105.898 79.6204 105.889 79.8749Z" fill="white"/>
</mask>
<g mask="url(#mask27_9_292)">
<ellipse cx="109.695" cy="84.3149" rx="3.32923" ry="2.97144" transform="rotate(-7.19253 109.695 84.3149)" fill="#993443"/>
<path d="M107.228 79.0826C107.129 79.4526 107.11 79.8395 107.172 80.2175C108.515 80.9948 110.083 81.2878 111.616 81.0477C111.812 80.5844 111.954 80.0998 112.037 79.6036L107.775 78.9474" fill="#F0F3FC"/>
</g>
</g>
<path d="M135.915 45.9356C132.616 44.4169 128.82 44.4059 125.512 45.9057C121.301 40.3048 113.444 38.9779 107.627 42.8855C101.81 46.793 100.068 54.5688 103.661 60.5848C107.254 66.6009 114.926 68.7539 121.125 65.4855C121.186 65.5585 121.243 65.6347 121.306 65.7059C121.13 66.0096 120.923 66.2861 120.774 66.6111C118.551 71.4304 120.049 77.1492 124.349 80.2597C128.65 83.3701 134.55 83.0026 138.431 79.3825C142.312 75.7624 143.089 69.902 140.285 65.3958C142.809 62.4029 143.788 58.4013 142.93 54.5811C142.073 50.7609 139.477 47.5619 135.915 45.9356Z" fill="#3A3530"/>
<path d="M121.267 78.2515C122.824 75.379 126.39 74.2767 129.296 75.7702C132.202 77.2637 133.381 80.8054 131.952 83.7429C130.522 86.6804 127.006 87.9369 124.039 86.5713" fill="#FF9763"/>
<path d="M115.514 51.2183C114.622 52.5487 114.427 54.2281 114.991 55.7275C115.057 55.9416 115.198 56.1249 115.388 56.2445C115.59 56.3601 115.829 56.3914 116.054 56.3316C116.512 56.2005 116.78 55.7275 116.658 55.2675C116.598 55.1164 116.547 54.9618 116.505 54.8046C116.484 54.726 116.466 54.6468 116.45 54.5669L116.428 54.447C116.413 54.3506 116.415 54.367 116.433 54.496C116.394 54.3365 116.384 54.1714 116.403 54.0083C116.403 53.8549 116.416 53.7039 116.426 53.5512C116.434 53.4845 116.43 53.5107 116.414 53.6296L116.433 53.509C116.447 53.4288 116.463 53.3491 116.482 53.2698C116.519 53.1114 116.565 52.9552 116.62 52.8021L116.664 52.6879C116.616 52.8005 116.61 52.8132 116.648 52.726C116.683 52.6527 116.717 52.5791 116.755 52.5068C116.831 52.3631 116.916 52.224 117.008 52.0902C117.247 51.6773 117.108 51.1497 116.698 50.9068C116.284 50.6781 115.763 50.8147 115.515 51.2172L115.514 51.2183Z" fill="#190000"/>
<path d="M126.548 79.8503C126.599 79.8975 126.647 79.9488 126.69 80.0037L126.555 79.8288C126.62 79.9151 126.675 80.009 126.718 80.1083L126.631 79.9017C126.679 80.0166 126.711 80.1372 126.729 80.2604L126.698 80.0303C126.714 80.1538 126.714 80.2788 126.698 80.4023L126.729 80.1724C126.712 80.2874 126.682 80.3998 126.637 80.5069L126.724 80.3003C126.692 80.3712 126.655 80.4393 126.611 80.5036C126.433 80.8073 126.457 81.1886 126.672 81.4677C126.887 81.7467 127.249 81.8678 127.588 81.7739C127.802 81.7058 127.984 81.5652 128.105 81.3764C128.233 81.1847 128.325 80.9712 128.376 80.7463C128.433 80.5162 128.451 80.2781 128.429 80.042C128.411 79.7416 128.329 79.4485 128.188 79.1825C128.085 78.9731 127.943 78.7847 127.771 78.6272C127.606 78.4688 127.388 78.3784 127.159 78.374C126.93 78.3757 126.711 78.4665 126.548 78.6272C126.386 78.7893 126.295 79.0093 126.295 79.2387C126.295 79.4681 126.386 79.6881 126.548 79.8503H126.548Z" fill="#190000"/>
<path d="M78.2507 167.715C80.8686 170.256 84.0635 172.124 87.5616 173.16C88.0222 173.287 88.4985 173.016 88.6255 172.556C88.7526 172.095 88.4822 171.619 88.0217 171.492C84.8101 170.541 81.8771 168.826 79.4744 166.492C78.6763 165.716 77.4513 166.938 78.2513 167.715H78.2507Z" fill="#D89D35"/>
<path d="M110.431 199.527C109.331 203.444 110.343 207.651 113.103 210.639C115.863 213.628 119.976 214.97 123.968 214.185C125.062 213.988 124.598 212.321 123.508 212.517C120.118 213.137 116.647 211.966 114.327 209.418C112.007 206.869 111.164 203.305 112.099 199.987C112.226 199.527 111.955 199.05 111.495 198.923C111.034 198.796 110.558 199.067 110.431 199.527Z" fill="#2976DF"/>
<path d="M88.409 412.742C89.6587 414.289 90.5117 416.118 90.8937 418.069L92.5614 417.609C91.7877 415.738 89.3629 415.302 87.5956 414.867C85.4479 414.342 83.2491 414.054 81.0387 414.007C80.5612 414.007 80.1741 414.394 80.1741 414.872C80.1741 415.349 80.5612 415.736 81.0387 415.736C82.8938 415.773 84.7407 415.995 86.5521 416.397C87.4622 416.601 88.3608 416.849 89.2478 417.141C89.7453 417.305 90.6666 417.518 90.8941 418.069C91.0211 418.529 91.4973 418.8 91.9579 418.673C92.4184 418.546 92.6888 418.069 92.5619 417.609C92.0976 415.37 91.0918 413.279 89.6325 411.518C89.2934 411.184 88.7485 411.184 88.4094 411.518C88.0821 411.86 88.0821 412.399 88.4094 412.742L88.409 412.742Z" fill="#190000"/>
<path d="M184.833 410.55C184.058 412.224 183.667 414.049 183.688 415.893C183.697 416.238 183.909 416.546 184.228 416.678C184.547 416.81 184.914 416.742 185.165 416.505C187.497 414.159 190.348 412.395 193.488 411.355C194.54 411.009 194.089 409.338 193.028 409.687C189.602 410.813 186.489 412.73 183.942 415.282L185.418 415.893C185.386 414.354 185.696 412.827 186.327 411.422C186.553 411.008 186.417 410.489 186.017 410.239C185.604 410.002 185.077 410.14 184.833 410.55L184.833 410.55Z" fill="#190000"/>
<path d="M89.5117 402.701L91.6503 411.709C91.6503 411.709 107.355 415.72 116.079 407.444L115.365 398.76C115.365 398.76 110.044 406.447 89.5117 402.701Z" fill="#FFC562"/>
<path d="M177.093 389.958L179.069 399.003C179.069 399.003 166.655 409.422 155.205 405.745L152.086 397.609C152.086 397.609 160.211 402.232 177.093 389.958Z" fill="#FFC562"/>
<path d="M9.16152 18.1942L7.23637 19.4771C7.04505 19.5949 6.90361 19.7787 6.83888 19.9939C6.77909 20.2188 6.8104 20.4583 6.926 20.6603C7.04168 20.8584 7.2314 21.0025 7.45336 21.0607C7.67533 21.1189 7.91133 21.0865 8.10938 20.9706L10.0345 19.6877C10.2259 19.57 10.3674 19.3861 10.432 19.171C10.4918 18.946 10.4605 18.7066 10.3449 18.5046C10.2292 18.3064 10.0395 18.1623 9.81754 18.1041C9.59558 18.0459 9.35957 18.0783 9.16152 18.1942Z" fill="#E84B23"/>
<path d="M159.277 230.889L160.56 227.039C160.684 226.578 160.415 226.104 159.956 225.975C159.497 225.859 159.028 226.125 158.892 226.579L157.609 230.429C157.485 230.889 157.754 231.363 158.213 231.493C158.672 231.609 159.141 231.342 159.277 230.889Z" fill="#E84B23"/>
<path d="M119.986 144.475C120.507 147.281 121.833 149.875 123.801 151.941C124.569 152.749 125.791 151.525 125.024 150.717C123.272 148.86 122.1 146.53 121.655 144.016C121.524 143.558 121.051 143.289 120.591 143.412C120.137 143.547 119.87 144.016 119.986 144.476L119.986 144.475Z" fill="#D89D35"/>
<path d="M127.927 117.158C125.217 118.436 123.475 121.15 123.444 124.146C123.444 124.624 123.831 125.011 124.309 125.011C124.786 125.011 125.173 124.624 125.173 124.146C125.176 122.98 125.525 121.841 126.176 120.874C126.313 120.651 126.471 120.441 126.646 120.246C126.846 120.017 127.061 119.8 127.289 119.599C127.493 119.413 127.715 119.247 127.952 119.104C128.223 118.934 128.506 118.783 128.798 118.653C129.208 118.41 129.346 117.883 129.108 117.47C128.86 117.067 128.339 116.931 127.925 117.159L127.927 117.158Z" fill="#D89D35"/>
<path d="M89.3247 114.392C90.504 112.736 91.6066 111.029 92.6326 109.271C92.8736 108.859 92.7347 108.329 92.3223 108.088C91.9099 107.847 91.3801 107.986 91.139 108.398C90.1139 110.154 89.0113 111.861 87.8312 113.519C87.5924 113.932 87.7309 114.46 88.1416 114.702C88.5557 114.93 89.0757 114.794 89.3247 114.392Z" fill="#D89D35"/>
<path d="M94.0625 388.597C96.8077 390.093 99.9354 390.738 103.048 390.452C103.521 390.44 103.9 390.06 103.913 389.588C103.91 389.112 103.525 388.726 103.048 388.723C100.243 389.004 97.4175 388.441 94.9346 387.105C93.9558 386.574 93.0817 388.067 94.0616 388.598L94.0625 388.597Z" fill="#2976DF"/>
<path d="M127.402 281.707L139.396 287.665C140.389 288.159 141.266 286.667 140.269 286.172L128.275 280.213C127.282 279.719 126.404 281.211 127.402 281.707H127.402Z" fill="#2976DF"/>
<rect x="165.476" y="119.315" width="55.6658" height="100.707" rx="8.37346" fill="#2976DF"/>
<mask id="mask28_9_292" style="mask-type:luminance" maskUnits="userSpaceOnUse" x="165" y="119" width="57" height="102">
<rect x="165.476" y="119.315" width="55.6658" height="100.707" rx="8.37346" fill="white"/>
</mask>
<g mask="url(#mask28_9_292)">
<path d="M185.872 183.304C200.686 210.735 195.754 229.156 195.754 229.156H221.608L225.531 181.333H176.029" fill="#1665C4"/>
</g>
<rect x="172.636" y="129.478" width="14.9813" height="18.4783" rx="2.62315" fill="#589BF7"/>
<path d="M198.705 181.333C198.705 181.333 216.753 209.05 202.603 239.886" stroke="#3A3530" stroke-width="1.86497" stroke-linecap="round" stroke-linejoin="round"/>
<rect x="187.618" y="248.894" width="11.0869" height="180.106" fill="#589BF7"/>
<mask id="mask29_9_292" style="mask-type:luminance" maskUnits="userSpaceOnUse" x="187" y="248" width="12" height="181">
<rect x="187.618" y="248.894" width="11.0869" height="180.106" fill="white"/>
</mask>
<g mask="url(#mask29_9_292)">
<path d="M184.995 313.248C187.753 289.259 201.515 287.964 201.515 287.964L202.603 274.409L179.317 277.981" fill="#2976DF"/>
</g>
<rect x="183.72" y="270.375" width="18.8824" height="18.8824" rx="3.05609" fill="#F0F3FC"/>
<path fill-rule="evenodd" clip-rule="evenodd" d="M115.854 137.336C128.806 106.068 159.317 85.6814 193.161 85.6814C239.374 85.6814 276.838 123.145 276.838 169.358C276.838 203.202 256.451 233.713 225.183 246.665C193.915 259.616 157.924 252.457 133.993 228.526C110.062 204.595 102.903 168.604 115.854 137.336ZM126.955 169.358C126.955 205.922 156.597 235.564 193.161 235.564C229.726 235.564 259.367 205.922 259.368 169.358C259.368 132.793 229.726 103.151 193.161 103.151C156.597 103.151 126.955 132.793 126.955 169.358Z" fill="#F0F3FC"/>
<mask id="mask30_9_292" style="mask-type:luminance" maskUnits="userSpaceOnUse" x="109" y="85" width="168" height="169">
<path fill-rule="evenodd" clip-rule="evenodd" d="M193.161 85.6814C159.317 85.6814 128.806 106.068 115.854 137.336C102.903 168.604 110.062 204.595 133.993 228.526C157.924 252.457 193.915 259.616 225.183 246.665C256.451 233.713 276.838 203.202 276.838 169.358C276.838 123.145 239.374 85.6814 193.161 85.6814ZM193.161 235.564C156.597 235.564 126.955 205.922 126.955 169.358C126.955 132.793 156.597 103.151 193.161 103.151C229.726 103.151 259.368 132.793 259.368 169.358C259.367 205.922 229.726 235.564 193.161 235.564Z" fill="white"/>
</mask>
<g mask="url(#mask30_9_292)">
<path d="M248.953 190.341C284.817 199.976 312.313 176.713 312.313 176.713L276.838 237.573L235.204 210.609" fill="#D6DCF2"/>
</g>
<rect x="161.319" y="166.665" width="64.2122" height="20.0951" rx="1.71461" fill="#9A7ED9"/>
<circle cx="198.705" cy="175.096" r="15.2447" fill="#6F4EB9"/>
<path d="M203.635 146.141L200.658 150.93C200.328 151.507 200.521 152.243 201.092 152.583C201.67 152.906 202.4 152.714 202.745 152.15L205.722 147.361C206.053 146.784 205.86 146.048 205.289 145.708C204.711 145.385 203.981 145.576 203.635 146.141Z" fill="#1665C4"/>
<path d="M196.693 355.13L195.498 356.326C195.044 356.805 195.044 357.556 195.498 358.035C195.725 358.261 196.032 358.389 196.352 358.39L196.674 358.347C196.875 358.291 197.059 358.184 197.207 358.036L198.402 356.841C198.856 356.361 198.856 355.611 198.402 355.132C198.175 354.905 197.868 354.778 197.548 354.777L197.227 354.82C197.025 354.876 196.841 354.983 196.693 355.131V355.13Z" fill="#2976DF"/>
</svg>
