<svg width="86" height="86" viewBox="0 0 86 86" fill="none" xmlns="http://www.w3.org/2000/svg">
<g filter="url(#filter0_d_11_782)">
<circle cx="35" cy="35" r="35" transform="matrix(-1 0 0 1 78 6)" fill="white"/>
</g>
<path d="M44.0303 33.5749C44.2966 33.8475 44.3208 34.274 44.1029 34.5745L44.0303 34.6606L37.561 41.2826L44.0303 47.9047C44.2966 48.1772 44.3208 48.6037 44.1029 48.9042L44.0303 48.9903C43.7641 49.2628 43.3474 49.2876 43.0538 49.0646L42.9697 48.9903L35.9697 41.8254C35.7034 41.5529 35.6792 41.1264 35.8971 40.8259L35.9697 40.7398L42.9697 33.5749C43.2626 33.2751 43.7374 33.2751 44.0303 33.5749Z" fill="black"/>
<defs>
<filter id="filter0_d_11_782" x="0" y="0" width="86" height="86" filterUnits="userSpaceOnUse" color-interpolation-filters="sRGB">
<feFlood flood-opacity="0" result="BackgroundImageFix"/>
<feColorMatrix in="SourceAlpha" type="matrix" values="0 0 0 0 0 0 0 0 0 0 0 0 0 0 0 0 0 0 127 0" result="hardAlpha"/>
<feOffset dy="2"/>
<feGaussianBlur stdDeviation="4"/>
<feComposite in2="hardAlpha" operator="out"/>
<feColorMatrix type="matrix" values="0 0 0 0 0 0 0 0 0 0 0 0 0 0 0 0 0 0 0.08 0"/>
<feBlend mode="normal" in2="BackgroundImageFix" result="effect1_dropShadow_11_782"/>
<feBlend mode="normal" in="SourceGraphic" in2="effect1_dropShadow_11_782" result="shape"/>
</filter>
</defs>
</svg>
