<svg width="272" height="340" viewBox="0 0 272 340" fill="none" xmlns="http://www.w3.org/2000/svg">
<rect width="272" height="340" fill="#FEC094"/>
<mask id="mask0_11_788" style="mask-type:luminance" maskUnits="userSpaceOnUse" x="18" y="69" width="235" height="177">
<rect x="18" y="69" width="235" height="176.25" fill="white"/>
</mask>
<g mask="url(#mask0_11_788)">
<path d="M101.477 95.555C93.9791 88.0569 83.6971 86.1819 78.5117 91.3673C73.3263 96.5527 75.2013 106.835 82.6994 114.333C85.4727 117.165 88.8756 119.302 92.631 120.569C95.836 121.634 98.7239 123.484 101.032 125.949C101.155 126.079 101.281 126.208 101.408 126.335C106.733 131.66 113.753 133.275 117.086 129.942C120.419 126.608 118.805 119.589 113.48 114.264C113.352 114.136 113.224 114.011 113.094 113.887C110.628 111.579 108.779 108.692 107.714 105.486C106.446 101.731 104.309 98.3283 101.477 95.555Z" fill="#97CC64"/>
<mask id="mask1_11_788" style="mask-type:luminance" maskUnits="userSpaceOnUse" x="75" y="88" width="44" height="44">
<path fill-rule="evenodd" clip-rule="evenodd" d="M101.477 95.555C93.9791 88.0569 83.6971 86.1819 78.5117 91.3673C73.3263 96.5527 75.2013 106.835 82.6994 114.333C85.4727 117.165 88.8756 119.302 92.6309 120.569C95.836 121.634 98.7238 123.484 101.032 125.949C101.155 126.079 101.281 126.208 101.408 126.335C106.733 131.66 113.753 133.275 117.086 129.942C120.419 126.608 118.805 119.589 113.48 114.264C113.352 114.136 113.223 114.011 113.094 113.887C110.628 111.579 108.779 108.692 107.714 105.486C106.446 101.731 104.309 98.3283 101.477 95.555Z" fill="white"/>
</mask>
<g mask="url(#mask1_11_788)">
<path d="M83.9419 83.3719C71.0878 135.682 108.088 104.998 118.821 140.243C129.553 175.488 61.9654 140.658 61.9654 140.658L59.4774 71.8257" fill="#75AA3C"/>
</g>
<path d="M89.8966 98.4841C90.1969 100.003 89.9687 101.579 89.25 102.951C89.0739 103.286 89.5821 103.585 89.7587 103.248C90.5512 101.738 90.8004 100 90.4647 98.3276C90.3904 97.9562 89.8225 98.1134 89.8966 98.4842V98.4841Z" fill="#75AA3C"/>
<rect x="186.581" y="124.722" width="34.9573" height="46.8072" rx="8.1863" fill="#589BF7"/>
<mask id="mask2_11_788" style="mask-type:luminance" maskUnits="userSpaceOnUse" x="186" y="124" width="36" height="48">
<rect x="186.581" y="124.722" width="34.9573" height="46.8072" rx="8.1863" fill="white"/>
</mask>
<g mask="url(#mask2_11_788)">
<path d="M223.123 163.528C219.442 155.381 223.152 174.138 188.894 171.529C154.636 168.92 205.508 185.502 205.508 185.502L229.827 170.372" fill="#2976DF"/>
</g>
<rect x="189.593" y="128.567" width="28.9332" height="26.2142" rx="4.88712" fill="#EFF3FC"/>
<mask id="mask3_11_788" style="mask-type:luminance" maskUnits="userSpaceOnUse" x="189" y="128" width="30" height="27">
<rect x="189.593" y="128.567" width="28.9332" height="26.2142" rx="4.88712" fill="white"/>
</mask>
<g mask="url(#mask3_11_788)">
<path d="M177.772 137.503C187.893 138.423 188.144 128.567 196.103 128.567C204.062 128.567 186.581 125.672 186.581 125.672L185.395 128.038" fill="#D6DCF2"/>
</g>
<rect x="191.733" y="159.465" width="23.8157" height="2.65849" rx="1.32925" fill="#2976DF"/>
<rect x="191.733" y="163.528" width="17.3213" height="2.65849" rx="1.32925" fill="#2976DF"/>
<path d="M197.297 136.254C196.449 140.846 196.05 145.509 196.103 150.178H198.888C198.96 147.306 198.922 144.285 199.551 142.155L199.833 142.287L199.737 145.253L201.582 145.533V146.188L199.716 145.905L199.652 147.924C200.824 148.736 202.226 149.153 203.652 149.114V134.108C203.089 134.14 202.524 134.084 201.977 133.943C203.167 133.507 204.461 133.437 205.691 133.743C205.307 134.025 204.848 134.186 204.373 134.208V149.116C206.027 149.071 207.635 148.674 208.468 147.924L208.403 145.907L206.558 146.188V145.533L208.382 145.256L208.287 142.287L208.569 142.155C209.197 144.285 209.16 147.306 209.232 150.178H212.016C212.071 145.509 211.671 140.846 210.823 136.254C209.553 135.54 208.192 135.003 206.777 134.656V133.569C204.958 133.039 203.026 133.039 201.207 133.569V134.692C199.84 135.038 198.525 135.563 197.296 136.254L197.297 136.254Z" fill="#97CC64"/>
<mask id="mask4_11_788" style="mask-type:luminance" maskUnits="userSpaceOnUse" x="196" y="133" width="17" height="18">
<path fill-rule="evenodd" clip-rule="evenodd" d="M197.297 136.254C196.449 140.846 196.05 145.509 196.103 150.178H198.888C198.96 147.306 198.922 144.285 199.551 142.155L199.833 142.287L199.737 145.253L201.582 145.533V146.188L199.716 145.905L199.652 147.924C200.824 148.736 202.226 149.153 203.652 149.114V134.108C203.089 134.14 202.524 134.084 201.977 133.943C203.167 133.507 204.461 133.437 205.691 133.743C205.307 134.025 204.848 134.186 204.373 134.208V149.116C206.027 149.071 207.635 148.674 208.468 147.924L208.403 145.907L206.558 146.188V145.533L208.382 145.256L208.287 142.287L208.569 142.155C209.197 144.285 209.16 147.306 209.232 150.178H212.016C212.071 145.509 211.671 140.846 210.823 136.254C209.553 135.54 208.192 135.003 206.777 134.656V133.569C204.958 133.039 203.026 133.039 201.207 133.569V134.692C199.84 135.038 198.525 135.563 197.296 136.254L197.297 136.254Z" fill="white"/>
</mask>
<g mask="url(#mask4_11_788)">
<path d="M191.733 139.573C197.391 142.432 197.135 135.747 200.394 134.927C203.652 134.108 196.898 133.171 196.898 133.171L196.103 134.841" fill="#75AA3C"/>
</g>
<path d="M201.327 137.716L200.736 138.11C200.689 138.139 200.655 138.183 200.639 138.236C200.616 138.318 200.646 138.406 200.713 138.458C200.781 138.51 200.874 138.516 200.947 138.473L201.539 138.079C201.586 138.05 201.62 138.005 201.636 137.953C201.659 137.871 201.629 137.783 201.561 137.731C201.494 137.678 201.401 137.673 201.327 137.716Z" fill="#75AA3C"/>
<path d="M217.868 163.005C217.425 163.529 216.898 163.977 216.309 164.328C216.213 164.389 216.183 164.514 216.24 164.611C216.297 164.709 216.421 164.744 216.521 164.691C217.142 164.322 217.698 163.853 218.165 163.302C218.244 163.219 218.244 163.088 218.165 163.005C218.083 162.924 217.95 162.924 217.868 163.005Z" fill="#2976DF"/>
<rect x="44.4274" y="124.722" width="34.9573" height="46.8072" rx="8.1863" fill="#FFC562"/>
<mask id="mask5_11_788" style="mask-type:luminance" maskUnits="userSpaceOnUse" x="44" y="124" width="36" height="48">
<rect x="44.4274" y="124.722" width="34.9573" height="46.8072" rx="8.1863" fill="white"/>
</mask>
<g mask="url(#mask5_11_788)">
<path d="M81.3392 125.715C85.6538 176.946 60.9959 176.764 44.0438 174.883C27.0916 173.003 69.5885 183.847 69.5885 183.847L81.5716 181.876L88.8131 152.711" fill="#D89D35"/>
</g>
<rect x="47.4395" y="128.567" width="28.9332" height="26.2142" rx="4.88712" fill="#EFF3FC"/>
<mask id="mask6_11_788" style="mask-type:luminance" maskUnits="userSpaceOnUse" x="47" y="128" width="30" height="27">
<rect x="47.4395" y="128.567" width="28.9332" height="26.2142" rx="4.88712" fill="white"/>
</mask>
<g mask="url(#mask6_11_788)">
<path d="M41.9804 147.169C45.2766 124.297 66.1519 127.254 66.1519 127.254L33.801 126.206" fill="#D6DCF2"/>
</g>
<rect x="49.5792" y="159.465" width="23.8157" height="2.65849" rx="1.32925" fill="#E84B23"/>
<rect x="49.5792" y="163.528" width="17.3213" height="2.65849" rx="1.32925" fill="#E84B23"/>
<path d="M67.8804 133.992H65.2001C64.8171 135.498 63.4611 136.553 61.907 136.553C60.353 136.553 58.997 135.498 58.614 133.992H55.9296V133.994L50.8108 136.553L52.5184 140.821L55.9296 139.113V149.356H67.8805V139.113L71.2938 140.821L73.0013 136.553L67.8804 133.992Z" fill="#FFC562"/>
<mask id="mask7_11_788" style="mask-type:luminance" maskUnits="userSpaceOnUse" x="50" y="133" width="24" height="17">
<path fill-rule="evenodd" clip-rule="evenodd" d="M67.8804 133.992H65.2001C64.8171 135.498 63.4611 136.553 61.907 136.553C60.353 136.553 58.997 135.498 58.614 133.992H55.9296V133.994L50.8108 136.553L52.5184 140.821L55.9296 139.113V149.356H67.8805V139.113L71.2938 140.821L73.0013 136.553L67.8804 133.992Z" fill="white"/>
</mask>
<g mask="url(#mask7_11_788)">
<path d="M50.0091 140.466C50.8107 136.553 58.2254 134.376 61.0593 135.142C63.8931 135.908 57.1075 130.533 57.1075 130.533L43.6993 134.391" fill="#D89D35"/>
</g>
<path d="M61.5039 142.298L60.9107 142.888C60.8308 142.971 60.8318 143.102 60.913 143.183C60.9941 143.264 61.1254 143.265 61.2078 143.186L61.801 142.596C61.8555 142.543 61.8772 142.465 61.858 142.391C61.8387 142.318 61.7814 142.261 61.7081 142.242C61.6347 142.222 61.5567 142.244 61.5039 142.298Z" fill="#D89D35"/>
<path d="M75.6575 165.499C75.6394 165.525 75.621 165.55 75.6022 165.575C75.6148 165.559 75.6112 165.564 75.6005 165.577L75.5707 165.614C75.5327 165.66 75.493 165.704 75.4516 165.747C75.408 165.792 75.3627 165.835 75.3156 165.876C75.2945 165.895 75.273 165.913 75.2511 165.931L75.2145 165.961C75.2379 165.942 75.217 165.959 75.2048 165.968C75.1094 166.039 75.0087 166.103 74.9038 166.159C74.8512 166.187 74.7975 166.213 74.7433 166.238C74.7075 166.254 74.7554 166.233 74.7329 166.242L74.6893 166.259C74.66 166.271 74.6305 166.281 74.6006 166.292C74.4887 166.323 74.423 166.438 74.4539 166.55C74.4847 166.662 74.6005 166.728 74.7123 166.697C75.2416 166.515 75.6995 166.17 76.02 165.712C76.0779 165.611 76.0443 165.483 75.9446 165.424C75.8441 165.369 75.7176 165.402 75.6572 165.5L75.6575 165.499Z" fill="#D89D35"/>
<rect x="72.6114" y="113.807" width="51.26" height="68.6363" rx="12.0041" fill="#FE7578"/>
<mask id="mask8_11_788" style="mask-type:luminance" maskUnits="userSpaceOnUse" x="72" y="113" width="52" height="70">
<rect x="72.6114" y="113.807" width="51.26" height="68.6363" rx="12.0041" fill="white"/>
</mask>
<g mask="url(#mask8_11_788)">
<path d="M126.307 140.209C119.455 127.063 145.834 188.205 78.3727 182.444C10.9114 176.683 131.622 203.684 131.622 203.684L140.168 155.687" fill="#E55A61"/>
</g>
<rect x="77.0282" y="119.446" width="42.4264" height="38.4395" rx="7.16621" fill="#EFF3FC"/>
<mask id="mask9_11_788" style="mask-type:luminance" maskUnits="userSpaceOnUse" x="77" y="119" width="43" height="39">
<rect x="77.0282" y="119.446" width="42.4264" height="38.4395" rx="7.16621" fill="white"/>
</mask>
<g mask="url(#mask9_11_788)">
<path d="M72.0825 146.435C72.7928 107.401 118.716 119.446 118.716 119.446L66.7265 115.983L63.6617 119.446" fill="#D6DCF2"/>
</g>
<rect x="80.1659" y="164.753" width="34.9225" height="3.89828" rx="1.94914" fill="#FFC562"/>
<rect x="80.1659" y="170.712" width="25.3993" height="3.89828" rx="1.94914" fill="#FFC562"/>
<path d="M109.836 151.416L106.717 128.788C106.612 128.298 106.165 127.957 105.665 127.986H90.8175C90.3171 127.957 89.8706 128.298 89.7663 128.788L86.6471 151.415C86.6333 151.695 86.7409 151.967 86.9423 152.162C87.1437 152.356 87.4193 152.455 87.6984 152.431H95.8684C96.3865 152.464 96.8441 152.097 96.9246 151.584L98.0123 137.876C98.0383 137.758 98.1427 137.675 98.2633 137.675C98.3838 137.675 98.488 137.759 98.5137 137.877L99.5606 151.582C99.64 152.096 100.098 152.464 100.617 152.432H108.784C109.063 152.455 109.339 152.357 109.541 152.162C109.742 151.967 109.85 151.695 109.836 151.416Z" fill="#FE7578"/>
<path d="M90.9116 126.469H105.503C105.934 126.464 106.28 126.114 106.28 125.684C106.28 125.254 105.934 124.904 105.503 124.899H90.9116C90.6293 124.897 90.3673 125.046 90.2254 125.289C90.0834 125.533 90.0834 125.835 90.2254 126.079C90.3673 126.323 90.6293 126.472 90.9116 126.469Z" fill="#E55A61"/>
<path d="M95.7057 133.206L92.5252 136.675C92.2577 136.967 92.6923 137.404 92.9607 137.111L96.1412 133.641C96.4087 133.349 95.9741 132.912 95.7057 133.206Z" fill="#E55A61"/>
<path d="M118.207 169.779C118.185 169.862 118.161 169.944 118.133 170.025C118.119 170.064 118.105 170.101 118.09 170.139C118.059 170.22 118.105 170.108 118.085 170.153C118.076 170.174 118.067 170.194 118.058 170.215C117.986 170.37 117.901 170.52 117.804 170.661C117.781 170.694 117.757 170.727 117.733 170.76C117.705 170.8 117.778 170.706 117.724 170.772L117.69 170.814C117.635 170.881 117.578 170.944 117.518 171.005C117.458 171.066 117.396 171.125 117.331 171.181C117.297 171.21 117.262 171.239 117.226 171.266C117.25 171.248 117.245 171.252 117.224 171.267C117.202 171.283 117.18 171.299 117.158 171.315C117.011 171.4 116.961 171.589 117.047 171.736C117.133 171.883 117.322 171.933 117.469 171.847C118.125 171.391 118.597 170.716 118.8 169.944C118.83 169.838 118.8 169.724 118.723 169.646C118.645 169.567 118.532 169.536 118.426 169.564C118.319 169.591 118.235 169.674 118.206 169.78L118.207 169.779Z" fill="#E55A61"/>
<rect x="142.094" y="113.807" width="51.26" height="68.6363" rx="12.0041" fill="#9A7ED9"/>
<mask id="mask10_11_788" style="mask-type:luminance" maskUnits="userSpaceOnUse" x="142" y="113" width="52" height="70">
<rect x="142.094" y="113.807" width="51.26" height="68.6363" rx="12.0041" fill="white"/>
</mask>
<g mask="url(#mask10_11_788)">
<path d="M193.354 151.135C190.478 143.922 195.314 185.883 163.982 182.443C132.651 179.003 201.465 194.617 201.465 194.617L207.055 168.652" fill="#6F4EB9"/>
</g>
<rect x="146.511" y="119.446" width="42.4264" height="38.4395" rx="7.16621" fill="#EFF3FC"/>
<mask id="mask11_11_788" style="mask-type:luminance" maskUnits="userSpaceOnUse" x="146" y="119" width="43" height="39">
<rect x="146.511" y="119.446" width="42.4264" height="38.4395" rx="7.16621" fill="white"/>
</mask>
<g mask="url(#mask11_11_788)">
<path d="M145.18 138.666C142.094 121.176 154.832 119.323 174.093 119.446C193.354 119.569 142.094 113.807 142.094 113.807L135.927 115.779" fill="#D6DCF2"/>
</g>
<rect x="149.649" y="164.753" width="34.9225" height="3.89828" rx="1.94914" fill="#6F4EB9"/>
<rect x="149.649" y="170.712" width="25.3993" height="3.89828" rx="1.94914" fill="#6F4EB9"/>
<path d="M174.201 132.767V129.676H168.467V137.034C168.467 137.444 168.134 137.776 167.724 137.776C167.314 137.776 166.982 137.444 166.982 137.034V129.676H161.248V132.822C161.248 135.262 159.835 137.48 157.625 138.511L156.502 139.035V150.947C156.502 151.17 156.59 151.383 156.747 151.54C156.905 151.698 157.118 151.786 157.34 151.786H164.933C165.331 151.786 165.674 151.506 165.754 151.116L167.314 143.535H168.134L169.693 151.116C169.773 151.506 170.117 151.786 170.515 151.786H178.108C178.571 151.786 178.946 151.41 178.946 150.947V138.98L177.823 138.456C175.613 137.424 174.201 135.206 174.201 132.767Z" fill="#9A7ED9"/>
<path d="M175.751 129.676V132.767C175.755 134.603 176.817 136.272 178.479 137.052L178.947 137.27V129.676H175.751Z" fill="#9A7ED9"/>
<path d="M159.698 132.823V129.676H156.501V137.325L156.97 137.107C158.631 136.327 159.694 134.658 159.698 132.823Z" fill="#9A7ED9"/>
<path d="M178.846 126.657C178.846 126.043 178.348 125.545 177.734 125.545H157.715C157.101 125.545 156.603 126.043 156.603 126.657V128.545H178.846V126.657Z" fill="#6F4EB9"/>
<path d="M174.502 141.068L173.634 143.092C173.554 143.239 173.603 143.424 173.745 143.513C173.892 143.598 174.08 143.548 174.166 143.403L175.034 141.379C175.114 141.231 175.066 141.046 174.923 140.957C174.776 140.873 174.588 140.922 174.502 141.068Z" fill="#6F4EB9"/>
<path d="M180.068 173.708L178.615 174.855C178.495 174.976 178.495 175.17 178.615 175.291C178.737 175.406 178.928 175.406 179.05 175.291L180.503 174.143C180.623 174.023 180.623 173.828 180.503 173.708C180.381 173.593 180.19 173.593 180.068 173.708Z" fill="#6F4EB9"/>
<path d="M129.575 122.671C124.175 120.966 125.137 108.734 135.716 110.173C146.296 111.612 144.435 131.037 160.966 129.918C178.135 128.755 176.985 169.825 154.155 164.21C137.436 160.098 129.575 122.671 129.575 122.671Z" fill="#3A3530"/>
<mask id="mask12_11_788" style="mask-type:luminance" maskUnits="userSpaceOnUse" x="126" y="110" width="47" height="55">
<path fill-rule="evenodd" clip-rule="evenodd" d="M129.575 122.671C124.175 120.966 125.137 108.734 135.716 110.173C146.296 111.612 144.435 131.037 160.966 129.918C178.135 128.755 176.985 169.825 154.155 164.21C137.436 160.098 129.575 122.671 129.575 122.671Z" fill="white"/>
</mask>
<g mask="url(#mask12_11_788)">
<path d="M164.743 164.287C166.351 154.384 145.521 151.286 147.07 147.081C148.619 142.876 150.176 138.139 145.558 136.252C140.939 134.366 137.543 144.601 137.543 144.601L135.89 152.83L138.756 159.152L165.104 165.836" fill="#190000"/>
</g>
<path d="M127.537 121.124C127.537 121.124 132.914 117.581 137.542 120.352L136.982 122.626L128.974 123.088L127.537 121.124Z" fill="#FE7578"/>
<path d="M96.1306 212.587C95.0118 208.079 77.5468 148.914 136.095 149.094C194.644 149.275 172.709 217.445 172.709 217.445L96.1306 212.587Z" fill="#FE7578"/>
<mask id="mask13_11_788" style="mask-type:luminance" maskUnits="userSpaceOnUse" x="92" y="149" width="85" height="69">
<path fill-rule="evenodd" clip-rule="evenodd" d="M96.1306 212.587C95.0118 208.079 77.5468 148.914 136.095 149.094C194.644 149.275 172.709 217.445 172.709 217.445L96.1306 212.587Z" fill="white"/>
</mask>
<g mask="url(#mask13_11_788)">
<ellipse cx="134.966" cy="149.828" rx="15.0606" ry="11.0208" fill="#F0F3FC"/>
<ellipse cx="134.966" cy="149.828" rx="11.2288" ry="8.21681" fill="#FF9763"/>
<mask id="mask14_11_788" style="mask-type:luminance" maskUnits="userSpaceOnUse" x="123" y="141" width="24" height="18">
<ellipse cx="134.966" cy="149.828" rx="11.2288" ry="8.21681" fill="white"/>
</mask>
<g mask="url(#mask14_11_788)">
<ellipse cx="128.455" cy="149.332" rx="13.8454" ry="6.71489" fill="#E84B23"/>
</g>
<path d="M164.202 171.85C164.112 175.423 162.434 185.742 162.434 185.742L165.182 178.42L164.202 171.85Z" fill="#FE7578"/>
<path d="M86.7777 191.308C96.6974 193.427 98.4355 195.153 98.4355 195.153L86.7777 191.308Z" fill="#FE7578"/>
<path d="M88.518 193.085C92.4312 192.732 96.2943 194.167 99.0284 196.989C99.0284 196.989 90.9544 174.11 103.485 173.588C116.015 173.066 163.752 174.597 165.182 178.419C166.611 182.242 164.221 195.154 164.221 195.154C164.221 195.154 168.517 201.579 176.985 195.154C185.453 188.729 179.877 206.828 179.877 206.828L96.9151 215.355" fill="#BA393C"/>
</g>
<path d="M134.65 157.117C134.354 164.558 120.935 167.207 118.064 151.034C118.064 151.034 126.257 146.51 126.392 148.746C126.824 155.881 134.65 157.117 134.65 157.117Z" fill="#F0F3FC"/>
<path d="M134.579 157.117C134.875 164.559 147.727 166.705 151.8 151.185C151.8 151.185 142.972 146.51 142.837 148.746C142.405 155.881 134.579 157.117 134.579 157.117Z" fill="#F0F3FC"/>
<path d="M162.91 222.858H102.169L98.468 182.242C98.1327 178.563 100.424 175.526 103.591 175.526H161.488C164.655 175.526 166.946 178.563 166.611 182.242L162.91 222.858Z" fill="#F0F3FC"/>
<mask id="mask15_11_788" style="mask-type:luminance" maskUnits="userSpaceOnUse" x="98" y="175" width="69" height="48">
<path fill-rule="evenodd" clip-rule="evenodd" d="M162.91 222.858H102.169L98.468 182.242C98.1327 178.563 100.424 175.526 103.591 175.526H161.488C164.655 175.526 166.946 178.563 166.611 182.242L162.91 222.858Z" fill="white"/>
</mask>
<g mask="url(#mask15_11_788)">
<path d="M91.3623 197.966C104.357 191.541 125.215 211.822 136.25 217.34C147.284 222.858 156.566 191.979 171.648 196.285C186.731 200.591 156.199 223.623 156.199 223.623L116.546 225.883" fill="#D6DCF2"/>
</g>
<path d="M136.909 196.719C136.731 198.481 134.95 199.788 132.919 199.751C130.888 199.715 129.158 198.345 129.048 196.578C128.929 194.67 130.716 193.044 133.047 193.086C135.379 193.128 137.101 194.818 136.909 196.719Z" fill="#FF9763"/>
<path d="M181.051 229.884L185.474 229.274C185.474 229.274 193.316 238.821 172.808 242.915L181.051 229.884Z" fill="#3A3530"/>
<path d="M175.114 228.698C178.035 228.376 180.98 228.331 183.91 228.562C189.645 229.468 184.248 240.702 172.808 242.915C172.808 242.915 180.399 232.856 175.114 228.698Z" fill="#F0F3FC"/>
<path d="M151.963 231.447C151.963 231.447 165.337 229.457 175.114 228.698C180.399 232.857 172.808 242.915 172.808 242.915C172.081 243.056 171.347 243.158 170.609 243.22C157.681 244.302 146.622 243.19 145.126 242.027C143.63 240.864 151.963 231.447 151.963 231.447Z" fill="#3A3530"/>
<path d="M143.266 224.606C150.032 228.928 154.449 231.928 154.449 231.928C156.44 234.188 156.501 237.557 154.595 239.888C153.469 241.415 151.639 242.258 149.747 242.119C146.965 241.929 144.175 241.669 141.392 241.341C142.397 236.736 143.698 229.516 143.266 224.606Z" fill="#FF9763"/>
<path d="M74.6441 195.38C81.2182 186.589 122.894 211.592 143.267 224.606C143.699 229.515 142.397 236.736 141.392 241.341C99.3841 236.4 59.0742 216.201 74.6441 195.38Z" fill="#274B69"/>
<mask id="mask16_11_788" style="mask-type:luminance" maskUnits="userSpaceOnUse" x="71" y="193" width="73" height="49">
<path fill-rule="evenodd" clip-rule="evenodd" d="M74.6441 195.38C81.2182 186.589 122.894 211.592 143.267 224.606C143.699 229.515 142.397 236.736 141.392 241.341C99.3841 236.4 59.0742 216.201 74.6441 195.38Z" fill="white"/>
</mask>
<g mask="url(#mask16_11_788)">
<path d="M76.6796 228.698C86.689 225.331 89.8458 223.211 111.785 228.407C118.308 229.953 129.659 217.403 135.75 214.897C141.84 212.391 145.725 228.407 145.725 228.407L125.852 237.638L112.025 239.321L82.7763 235.661L76.6796 228.698Z" fill="#11314B"/>
<circle cx="72.9979" cy="197.966" r="9.0482" fill="#11314B"/>
<path d="M64.0712 196.551C56.8979 205.042 117.648 238.915 134.65 240.414" stroke="#11314B" stroke-width="1.28789" stroke-linecap="round" stroke-linejoin="round" stroke-dasharray="2.58"/>
</g>
<ellipse cx="134.65" cy="138.951" rx="11.0754" ry="15.5077" fill="#FF9763"/>
<mask id="mask17_11_788" style="mask-type:luminance" maskUnits="userSpaceOnUse" x="123" y="123" width="23" height="32">
<ellipse cx="134.65" cy="138.951" rx="11.0754" ry="15.5077" fill="white"/>
</mask>
<g mask="url(#mask17_11_788)">
<ellipse opacity="0.27" cx="128.002" cy="147.695" rx="2.8179" ry="2.14576" transform="rotate(-2.5189 128.002 147.695)" fill="#E84B23"/>
<ellipse opacity="0.27" cx="141.297" cy="147.11" rx="2.8179" ry="2.14576" transform="rotate(-2.5189 141.297 147.11)" fill="#E84B23"/>
<rect x="129.816" y="140.75" width="2.00366" height="3.69568" rx="1.00183" transform="rotate(1.59305 129.816 140.75)" fill="#190000"/>
<rect x="137.518" y="140.669" width="2.00369" height="3.69573" rx="1.00184" transform="rotate(1.5948 137.518 140.669)" fill="#190000"/>
<path d="M130.627 138.428C128.567 138.967 129.099 140.097 130.409 139.844C131.719 139.59 131.974 138.075 130.627 138.428Z" fill="#190000"/>
<path d="M138.526 138.256C140.554 138.909 140.117 139.926 138.823 139.6C137.529 139.275 137.202 137.829 138.526 138.256Z" fill="#190000"/>
<path d="M135.735 145.084C135.729 145.761 135.151 145.488 134.436 145.481C133.72 145.475 133.138 145.739 133.144 145.062C133.187 144.374 133.761 143.84 134.45 143.846C135.139 143.852 135.703 144.395 135.735 145.084Z" fill="#E84B23"/>
<path d="M131.657 148.856C132.879 153.67 137.342 151.339 137.231 148.306C137.222 148.15 137.117 148.015 136.967 147.969C135.273 147.53 133.48 147.686 131.888 148.411C131.711 148.481 131.613 148.671 131.657 148.856Z" fill="#C1525F"/>
<mask id="mask18_11_788" style="mask-type:luminance" maskUnits="userSpaceOnUse" x="131" y="147" width="7" height="5">
<path fill-rule="evenodd" clip-rule="evenodd" d="M131.657 148.856C132.879 153.67 137.342 151.339 137.231 148.306C137.222 148.15 137.117 148.015 136.967 147.969C135.273 147.53 133.48 147.686 131.888 148.411C131.711 148.481 131.613 148.671 131.657 148.856Z" fill="white"/>
</mask>
<g mask="url(#mask18_11_788)">
<ellipse cx="135.315" cy="151.319" rx="2.48965" ry="2.22212" transform="rotate(-22.8319 135.315 151.319)" fill="#993443"/>
<path d="M132.462 148.016C132.465 148.302 132.529 148.585 132.651 148.844C133.21 149.289 135.699 148.856 136.018 148.546C136.066 148.173 136.07 147.795 136.03 147.421L132.828 147.808" fill="#F0F3FC"/>
</g>
</g>
<path d="M124.382 137.187C117.991 134.207 116.595 138.968 119.533 142.876C121.737 145.807 124.189 145.421 125.278 145.044" fill="#FF9763"/>
<path d="M143.77 137.187C150.162 134.207 151.558 138.968 148.619 142.876C146.734 145.382 144.668 145.463 143.429 145.198" fill="#FF9763"/>
<path d="M131.399 129.838C129.745 142.308 122.362 140.389 122.362 140.389C122.362 140.389 118.064 121.951 133.933 122.164C149.802 122.377 145.725 138.951 145.725 138.951C145.725 138.951 133.162 139.217 131.399 129.838Z" fill="#3A3530"/>
<path d="M88.6723 229.884L84.249 229.274C84.249 229.274 76.4073 238.821 96.9151 242.915L88.6723 229.884Z" fill="#3A3530"/>
<path d="M94.6089 228.698C91.6877 228.376 88.7428 228.331 85.8131 228.562C80.0782 229.468 85.4745 240.702 96.9151 242.915C96.9145 242.915 89.324 232.856 94.6089 228.698Z" fill="#F0F3FC"/>
<path d="M117.76 231.447C117.76 231.447 104.386 229.457 94.6089 228.698C89.324 232.857 96.915 242.915 96.915 242.915C97.642 243.056 98.376 243.158 99.114 243.22C112.042 244.302 123.101 243.19 124.597 242.027C126.093 240.864 117.76 231.447 117.76 231.447Z" fill="#3A3530"/>
<path d="M126.457 224.606C119.691 228.928 115.274 231.928 115.274 231.928C113.283 234.188 113.221 237.557 115.128 239.888C116.253 241.415 118.084 242.258 119.976 242.119C122.758 241.929 125.548 241.669 128.331 241.341C127.326 236.736 126.025 229.516 126.457 224.606Z" fill="#FF9763"/>
<mask id="mask19_11_788" style="mask-type:luminance" maskUnits="userSpaceOnUse" x="113" y="224" width="16" height="19">
<path fill-rule="evenodd" clip-rule="evenodd" d="M126.457 224.606C119.691 228.928 115.274 231.928 115.274 231.928C113.283 234.188 113.221 237.557 115.128 239.888C116.253 241.415 118.084 242.258 119.976 242.119C122.758 241.929 125.548 241.669 128.331 241.341C127.326 236.736 126.025 229.516 126.457 224.606Z" fill="white"/>
</mask>
<g mask="url(#mask19_11_788)">
<path d="M116.113 230.064C115.512 236.195 120.801 242.807 125.61 240.643C130.419 238.479 123.336 225.52 126.457 224.606C129.578 223.691 131.622 243.66 131.622 243.66C131.622 243.66 130.299 244.25 129.097 244.731C127.895 245.211 116.714 245.211 116.714 245.211L110.583 236.094L111.785 228.407L117.76 231.447" fill="#E84B23"/>
</g>
<path d="M195.079 195.38C188.505 186.589 146.829 211.592 126.457 224.606C126.025 229.515 127.326 236.736 128.331 241.341C170.339 236.4 210.649 216.201 195.079 195.38Z" fill="#274B69"/>
<mask id="mask20_11_788" style="mask-type:luminance" maskUnits="userSpaceOnUse" x="126" y="193" width="73" height="49">
<path fill-rule="evenodd" clip-rule="evenodd" d="M195.079 195.38C188.505 186.589 146.829 211.592 126.457 224.606C126.025 229.515 127.326 236.736 128.331 241.341C170.339 236.4 210.649 216.201 195.079 195.38Z" fill="white"/>
</mask>
<g mask="url(#mask20_11_788)">
<path d="M160.966 201.571C169.251 202.533 187.47 192.041 192.873 194.94C198.276 197.839 204.112 202.12 201.227 212.699C198.341 223.279 202.433 217.445 202.433 217.445L204.116 193.548L183.123 181.306L160.966 201.571Z" fill="#11314B"/>
<ellipse cx="200.183" cy="197.966" rx="10.0937" ry="11.0077" fill="#11314B"/>
<path d="M129.891 237.237C129.891 237.237 193.04 227.278 198.496 199.192" stroke="#11314B" stroke-width="1.28789" stroke-linecap="round" stroke-linejoin="round" stroke-dasharray="2.58"/>
<path d="M131.344 219.215C129.759 226.737 134.787 243.66 134.787 243.66L124.777 244.604L121.753 221.284" fill="#589BF7"/>
</g>
<circle cx="134.45" cy="164.146" r="0.974348" fill="#190000"/>
<circle cx="134.45" cy="169.788" r="0.974348" fill="#190000"/>
<path d="M136.825 125.916C136.78 126.85 137.01 127.777 137.488 128.582C137.618 128.802 137.901 128.875 138.121 128.746C138.342 128.617 138.417 128.335 138.289 128.114C138.235 128.022 138.183 127.93 138.136 127.835C138.114 127.791 138.092 127.746 138.072 127.701C138.06 127.676 138.048 127.65 138.037 127.624C138.056 127.67 138.055 127.668 138.035 127.618C137.963 127.433 137.902 127.245 137.854 127.053C137.83 126.957 137.81 126.86 137.793 126.763C137.79 126.745 137.765 126.57 137.778 126.677C137.773 126.635 137.768 126.593 137.764 126.55C137.745 126.339 137.741 126.127 137.753 125.916C137.751 125.66 137.545 125.453 137.289 125.452C137.035 125.457 136.831 125.662 136.825 125.916L136.825 125.916Z" fill="#190000"/>
<path d="M158.893 139.13C159.072 139.296 159.242 139.472 159.4 139.658C159.44 139.706 159.481 139.755 159.52 139.803C159.543 139.832 159.553 139.846 159.524 139.809C159.546 139.836 159.567 139.864 159.587 139.892C159.662 139.994 159.733 140.097 159.801 140.203C159.933 140.408 160.053 140.621 160.16 140.841C160.187 140.898 160.214 140.955 160.239 141.012C160.243 141.02 160.277 141.099 160.258 141.052C160.238 141.006 160.271 141.086 160.275 141.094C160.324 141.217 160.369 141.341 160.412 141.467C160.48 141.714 160.735 141.86 160.982 141.791C161.23 141.723 161.375 141.468 161.307 141.221C160.961 140.172 160.356 139.227 159.549 138.473C159.432 138.354 159.26 138.307 159.099 138.349C158.938 138.392 158.812 138.518 158.769 138.679C158.726 138.841 158.774 139.012 158.893 139.129L158.893 139.13Z" fill="#190000"/>
<path d="M111.026 191.637C112.586 193.195 114.367 194.515 116.312 195.555C116.839 195.836 117.308 195.035 116.78 194.753C114.905 193.753 113.187 192.482 111.682 190.981C111.499 190.81 111.214 190.814 111.037 190.991C110.86 191.168 110.855 191.454 111.026 191.637Z" fill="#D6DCF2"/>
<path d="M159.928 217.533L155.965 219.348C155.745 219.479 155.671 219.762 155.798 219.983C155.931 220.199 156.211 220.273 156.433 220.15L160.396 218.334C160.616 218.203 160.69 217.921 160.563 217.699C160.43 217.483 160.15 217.41 159.928 217.533Z" fill="#11314B"/>
<path d="M154.992 180.665C155.053 180.704 155.112 180.745 155.171 180.787C155.201 180.808 155.23 180.829 155.259 180.851C155.323 180.898 155.177 180.784 155.285 180.87C155.398 180.961 155.507 181.055 155.612 181.154C155.712 181.248 155.808 181.346 155.9 181.448C155.949 181.502 155.996 181.556 156.042 181.611C156.065 181.639 156.088 181.667 156.111 181.695C156.163 181.76 156.101 181.682 156.131 181.722C156.299 181.947 156.45 182.186 156.581 182.435C156.614 182.499 156.646 182.564 156.677 182.629C156.689 182.656 156.701 182.682 156.713 182.708C156.716 182.713 156.769 182.842 156.735 182.756C156.788 182.891 156.837 183.027 156.881 183.164C156.949 183.411 157.205 183.556 157.452 183.488C157.699 183.42 157.844 183.165 157.776 182.917C157.379 181.663 156.561 180.584 155.461 179.864C155.239 179.736 154.957 179.811 154.826 180.03C154.703 180.252 154.776 180.532 154.993 180.665H154.992Z" fill="#D6DCF2"/>
<path d="M94.8064 205.458C94.1418 206.274 93.7634 207.285 93.7293 208.336C93.7313 208.591 93.9378 208.798 94.1932 208.8C94.4473 208.795 94.6521 208.59 94.6571 208.336C94.6605 208.222 94.6674 208.109 94.6797 207.996C94.6827 207.968 94.686 207.94 94.6897 207.912C94.6827 207.965 94.6832 207.964 94.6913 207.909C94.7016 207.853 94.7103 207.797 94.7215 207.741C94.7637 207.532 94.8214 207.327 94.8942 207.127C94.9135 207.074 94.934 207.021 94.9555 206.968C94.9191 207.058 94.987 206.899 94.9942 206.884C95.0364 206.794 95.0816 206.706 95.13 206.619C95.1852 206.52 95.2443 206.423 95.3074 206.329C95.339 206.282 95.3715 206.235 95.405 206.189C95.4217 206.166 95.4386 206.144 95.4558 206.121C95.4268 206.159 95.429 206.157 95.4623 206.115C95.6372 205.931 95.6372 205.642 95.4623 205.459C95.28 205.28 94.9885 205.28 94.8062 205.459L94.8064 205.458Z" fill="#11314B"/>
<path d="M160.322 161.419C161.665 162.218 162.624 163.529 162.98 165.051C163.116 165.632 164.011 165.386 163.875 164.804C163.455 163.049 162.342 161.539 160.79 160.618C160.57 160.498 160.295 160.575 160.168 160.792C160.042 161.008 160.11 161.285 160.322 161.419H160.322Z" fill="#BA393C"/>
<path d="M105.382 168.18L105.149 168.644C105.116 168.695 105.097 168.755 105.094 168.816C105.072 169 105.158 169.181 105.316 169.279L105.427 169.325C105.507 169.347 105.593 169.347 105.673 169.325L105.784 169.279C105.853 169.238 105.91 169.181 105.951 169.112L106.183 168.648C106.217 168.597 106.236 168.537 106.238 168.476C106.261 168.292 106.174 168.112 106.017 168.014L105.906 167.967C105.825 167.945 105.74 167.945 105.66 167.967L105.549 168.014C105.48 168.054 105.423 168.111 105.382 168.18Z" fill="#BA393C"/>
<path d="M209.314 83.9553L205.569 83.8492L205.234 83.8397C199.393 83.6786 193.663 82.1972 188.476 79.5065L188.43 79.483L184.837 77.6226C185.305 76.3045 185.803 74.9983 186.334 73.7039C186.371 73.6134 186.407 73.5225 186.445 73.4324C187.289 71.4381 189.397 70.2886 191.53 70.6587C191.654 70.6802 191.778 70.7069 191.901 70.7387L197.929 72.2973L206.471 74.506C208.707 75.0828 210.182 77.2119 209.936 79.5082C209.909 79.7671 209.874 80.0254 209.843 80.2839C209.694 81.5122 209.518 82.736 209.314 83.9553Z" fill="#FF999A"/>
<path d="M202.214 105.134C201.097 105.919 199.692 106.174 198.37 105.831L196.072 105.237L190.36 103.76L185.294 102.45L183.832 102.072C181.592 101.493 180.116 99.3577 180.367 97.0578C180.412 96.6475 180.469 96.2383 180.521 95.8289C180.651 94.7911 180.799 93.7558 180.967 92.7231C181.288 90.7473 181.677 88.784 182.134 86.8332C182.595 84.8669 183.124 82.9183 183.721 80.9875C184.07 79.8583 184.442 78.7367 184.837 77.6226L187.509 79.0058L188.476 79.5065C189.115 79.8372 189.761 80.1494 190.414 80.4431C194.123 82.1138 198.073 83.1883 202.118 83.6268C203.182 83.7423 204.249 83.8117 205.319 83.8421L209.315 83.9549C209.122 85.1217 208.906 86.2839 208.666 87.4414C208.256 89.4185 207.778 91.3793 207.231 93.3237C206.689 95.25 206.081 97.1565 205.406 99.0435C205.001 100.175 204.573 101.297 204.121 102.412C204.024 102.651 203.93 102.891 203.83 103.128C203.491 103.936 202.931 104.631 202.214 105.134Z" fill="#FE7578"/>
<mask id="mask21_11_788" style="mask-type:luminance" maskUnits="userSpaceOnUse" x="180" y="77" width="30" height="29">
<path fill-rule="evenodd" clip-rule="evenodd" d="M202.214 105.134C201.097 105.919 199.692 106.174 198.37 105.831L196.072 105.237L190.36 103.76L185.294 102.45L183.832 102.072C181.592 101.493 180.116 99.3577 180.367 97.0578C180.412 96.6475 180.469 96.2383 180.521 95.8289C180.651 94.7911 180.799 93.7558 180.967 92.7231C181.288 90.7473 181.677 88.784 182.134 86.8332C182.595 84.8669 183.124 82.9183 183.721 80.9875C184.07 79.8583 184.442 78.7367 184.837 77.6226L187.509 79.0058L188.476 79.5065C189.115 79.8372 189.761 80.1494 190.414 80.4431C194.123 82.1138 198.073 83.1883 202.118 83.6268C203.182 83.7423 204.249 83.8117 205.319 83.8421L209.315 83.9549C209.122 85.1217 208.906 86.2839 208.666 87.4414C208.256 89.4185 207.778 91.3793 207.231 93.3237C206.689 95.25 206.081 97.1565 205.406 99.0435C205.001 100.175 204.573 101.297 204.121 102.412C204.024 102.651 203.93 102.891 203.83 103.128C203.491 103.936 202.931 104.631 202.214 105.134Z" fill="white"/>
</mask>
<g mask="url(#mask21_11_788)">
<path d="M179.595 99.8629C204.401 105.392 204.362 99.3899 206.923 94.5712C209.485 89.7526 209.156 105.279 209.156 105.279C209.156 105.279 202.905 110.234 202.44 110.366C201.974 110.499 180.374 105.298 180.374 105.298L178.498 104.725" fill="#E55A61"/>
<path d="M200.033 87.9686C198.643 88.7895 196.968 88.9788 195.429 88.4892C194.581 88.2218 193.809 87.7581 193.174 87.1359C191.72 85.7119 191.137 83.6194 191.647 81.649C192.156 79.6785 193.68 78.1306 195.642 77.59C198.391 76.8328 201.275 78.2292 202.386 80.8549C203.497 83.4806 202.491 86.5231 200.033 87.9686H200.033Z" fill="#E55A61"/>
</g>
<path d="M199.682 86.7924C197.133 88.2903 193.861 87.5771 192.166 85.1543C190.471 82.7315 190.923 79.4129 193.205 77.5319C195.486 75.6508 198.83 75.8392 200.885 77.9646C202.941 80.09 203.017 83.4384 201.061 85.6555C200.664 86.1045 200.199 86.4882 199.682 86.7924Z" fill="#FFC562"/>
<path d="M198.837 85.3578C197.854 85.9383 196.67 86.0721 195.582 85.7259C194.225 85.2963 193.196 84.1806 192.878 82.793C192.56 81.4054 193 79.9531 194.035 78.9754C194.514 78.5228 195.097 78.1945 195.733 78.019C197.123 77.6378 198.611 78.0298 199.634 79.0467C200.517 79.9247 200.943 81.1626 200.787 82.398C200.631 83.6334 199.911 84.7266 198.837 85.3578Z" fill="#FF9763"/>
<path d="M203.14 77.1533C203.265 77.1813 203.383 77.2328 203.489 77.3053C203.539 77.3367 203.586 77.3735 203.629 77.4148C203.679 77.4614 203.726 77.5113 203.77 77.5642C203.791 77.5899 203.765 77.5562 203.786 77.5857L203.812 77.6221C203.83 77.649 203.848 77.6767 203.864 77.7051C203.883 77.7359 203.899 77.7674 203.915 77.7995C203.927 77.8231 203.938 77.8475 203.947 77.8726C203.994 77.9908 204.019 78.1167 204.021 78.244C204.02 78.3071 204.053 78.366 204.107 78.3979C204.162 78.4299 204.229 78.4299 204.283 78.3979C204.338 78.366 204.371 78.3071 204.369 78.244C204.345 77.5704 203.883 76.9917 203.232 76.8178C203.172 76.7998 203.106 76.8159 203.061 76.8599C203.016 76.9038 202.998 76.9687 203.014 77.0296C203.03 77.0905 203.078 77.1378 203.139 77.1533H203.14Z" fill="#FE7578"/>
<path d="M187.142 95.8924C187.708 96.8953 188.7 97.586 189.837 97.769C189.929 97.7913 190.023 97.7381 190.051 97.6474C190.076 97.5548 190.021 97.4594 189.929 97.4334C188.881 97.2728 187.964 96.64 187.443 95.7167C187.333 95.5212 187.033 95.6965 187.142 95.8924Z" fill="#E55A61"/>
<ellipse cx="67.4364" cy="194.717" rx="10.8632" ry="5.71571" transform="rotate(-41.6109 67.4364 194.717)" fill="#FFC562"/>
<mask id="mask22_11_788" style="mask-type:luminance" maskUnits="userSpaceOnUse" x="58" y="186" width="19" height="18">
<ellipse cx="67.4364" cy="194.717" rx="10.8632" ry="5.71571" transform="rotate(-41.6109 67.4364 194.717)" fill="white"/>
</mask>
<g mask="url(#mask22_11_788)">
<path d="M66.9645 185.872C78.4603 186.251 76.6792 192.895 75.5147 195.708C74.3502 198.52 79.0818 190.812 79.0818 190.812L77.4683 183.336L74.973 182.846" fill="#D89D35"/>
</g>
<path d="M73.1928 188.56C75.6056 189.612 75.1449 193.271 72.1641 196.733C69.1822 200.197 64.8093 202.152 62.3965 201.1C59.9837 200.048 60.4434 196.388 63.4253 192.925C66.4072 189.461 70.7795 187.508 73.1928 188.56Z" fill="#E84B23"/>
<mask id="mask23_11_788" style="mask-type:luminance" maskUnits="userSpaceOnUse" x="60" y="188" width="15" height="14">
<path fill-rule="evenodd" clip-rule="evenodd" d="M73.1928 188.56C75.6056 189.612 75.1449 193.271 72.1641 196.733C69.1822 200.197 64.8093 202.152 62.3965 201.1C59.9837 200.048 60.4434 196.388 63.4253 192.925C66.4072 189.461 70.7795 187.508 73.1928 188.56Z" fill="white"/>
</mask>
<g mask="url(#mask23_11_788)">
<path d="M71.6168 188.387C74.0296 189.439 73.569 193.099 70.5881 196.561C67.6062 200.025 63.2333 201.979 60.8205 200.928C58.4078 199.876 58.8674 196.216 61.8494 192.752C64.8302 189.29 69.2032 187.336 71.6168 188.387Z" fill="#FF9763"/>
</g>
<path d="M56.0344 197.826C56.0461 197.862 56.0568 197.898 56.0695 197.933C56.0848 197.976 56.1023 198.017 56.1192 198.058C56.1328 198.092 56.1455 198.126 56.1602 198.159C56.1787 198.201 56.1994 198.241 56.2196 198.282C56.235 198.313 56.2493 198.345 56.2657 198.375C56.2883 198.417 56.3133 198.458 56.3378 198.499C56.3539 198.526 56.369 198.554 56.3861 198.581C56.4149 198.626 56.4462 198.669 56.4773 198.712C56.4922 198.733 56.506 198.755 56.5215 198.775C56.5691 198.838 56.6192 198.9 56.6718 198.959L59.3093 201.929C59.2567 201.869 59.2066 201.808 59.159 201.745C59.1434 201.724 59.1296 201.702 59.1145 201.681C59.0836 201.638 59.0524 201.595 59.0237 201.55C59.0067 201.523 58.9915 201.495 58.9754 201.468C58.9512 201.427 58.926 201.387 58.9035 201.345C58.8874 201.314 58.873 201.283 58.8576 201.252C58.8375 201.211 58.8166 201.171 58.798 201.129C58.7834 201.096 58.7708 201.062 58.7577 201.028C58.7407 200.987 58.7232 200.945 58.7078 200.903C58.6951 200.868 58.6844 200.831 58.6728 200.796C58.6588 200.753 58.6444 200.711 58.632 200.667C58.6214 200.63 58.6126 200.592 58.6031 200.554C58.592 200.51 58.5805 200.467 58.5708 200.422C58.5628 200.383 58.5558 200.343 58.5485 200.304C58.5404 200.259 58.5313 200.214 58.5243 200.168C58.5183 200.128 58.5138 200.087 58.5087 200.046C58.503 200 58.497 199.953 58.4925 199.906C58.4888 199.864 58.4864 199.821 58.4836 199.779C58.4805 199.732 58.4771 199.684 58.4755 199.636C58.474 199.592 58.4738 199.548 58.4734 199.505C58.4728 199.456 58.4721 199.407 58.4734 199.358C58.4741 199.313 58.4761 199.268 58.478 199.223C58.4799 199.173 58.4819 199.123 58.4852 199.072C58.4883 199.027 58.4925 198.98 58.4966 198.934C58.5011 198.883 58.5057 198.832 58.5116 198.78C58.5168 198.733 58.5234 198.686 58.5296 198.639C58.5367 198.587 58.5439 198.534 58.5522 198.482C58.5599 198.433 58.5683 198.385 58.5773 198.336C58.5867 198.284 58.5965 198.231 58.6072 198.177C58.6172 198.128 58.6281 198.078 58.6395 198.029C58.6508 197.979 58.6619 197.929 58.674 197.879C58.696 197.789 58.7202 197.697 58.7457 197.605C58.7545 197.573 58.7624 197.542 58.7716 197.51C58.8074 197.387 58.8462 197.263 58.888 197.138C58.8972 197.11 58.9078 197.082 58.9173 197.055C58.9516 196.956 58.9873 196.856 59.0254 196.756C59.0416 196.714 59.0588 196.671 59.0758 196.627C59.1107 196.539 59.1471 196.45 59.185 196.361C59.2046 196.315 59.2241 196.269 59.2444 196.223C59.2745 196.155 59.306 196.086 59.3378 196.018C59.3613 195.967 59.3844 195.917 59.4087 195.866C59.4429 195.795 59.4788 195.723 59.5148 195.651C59.539 195.603 59.5632 195.554 59.5887 195.505C59.6285 195.428 59.6704 195.351 59.7123 195.274C59.7365 195.23 59.7593 195.186 59.784 195.142C59.8376 195.046 59.8938 194.949 59.9507 194.853C59.9656 194.827 59.9794 194.802 59.9945 194.777C60.068 194.654 60.1441 194.53 60.223 194.406C60.2445 194.372 60.2676 194.338 60.2897 194.304C60.3477 194.215 60.4061 194.125 60.467 194.035C60.4984 193.988 60.5316 193.942 60.5638 193.895C60.6175 193.818 60.6713 193.74 60.7271 193.662C60.7634 193.611 60.8011 193.56 60.8383 193.51C60.8922 193.436 60.9465 193.362 61.0023 193.288C61.0369 193.243 61.0726 193.197 61.108 193.151C61.1875 193.048 61.2688 192.945 61.352 192.842C61.3858 192.8 61.4193 192.758 61.4537 192.716C61.5691 192.575 61.6868 192.435 61.8084 192.294C61.9417 192.141 62.0773 191.99 62.215 191.842C62.2588 191.794 62.3037 191.748 62.3479 191.701C62.4428 191.6 62.5383 191.501 62.6347 191.402C62.6765 191.359 62.7188 191.317 62.761 191.275C62.9526 191.083 63.1465 190.895 63.344 190.712L63.3799 190.68C63.5722 190.503 63.7669 190.331 63.9643 190.164C63.9981 190.135 64.0318 190.105 64.0659 190.077C64.2645 189.91 64.4651 189.748 64.6676 189.59C64.7079 189.559 64.7487 189.528 64.7894 189.497C64.9959 189.339 65.2037 189.184 65.4131 189.036C65.4315 189.023 65.4501 189.011 65.4687 188.998C65.6701 188.857 65.8726 188.721 66.0762 188.59C66.1097 188.569 66.1433 188.546 66.177 188.525C66.3853 188.392 66.5942 188.265 66.8037 188.144C66.8461 188.119 66.8885 188.095 66.9309 188.071C67.1426 187.95 67.3544 187.834 67.566 187.725C67.5894 187.713 67.6128 187.702 67.6361 187.69C67.8384 187.587 68.0403 187.489 68.2418 187.397C68.2756 187.382 68.3096 187.365 68.3435 187.35C68.5034 187.278 68.6631 187.209 68.822 187.145L68.8529 187.133C69.0015 187.073 69.1495 187.016 69.2968 186.962C69.3479 186.944 69.3985 186.927 69.4494 186.909C69.5566 186.872 69.6636 186.835 69.77 186.801C69.827 186.783 69.8837 186.766 69.9403 186.748C70.0431 186.717 70.1454 186.688 70.2472 186.66C70.305 186.644 70.3629 186.628 70.4203 186.614C70.4822 186.597 70.5435 186.583 70.605 186.569C70.6759 186.552 70.7468 186.536 70.8172 186.52C70.8784 186.507 70.9391 186.495 70.9998 186.484C71.0693 186.47 71.1384 186.457 71.2072 186.446C71.2677 186.435 71.3278 186.426 71.3877 186.417C71.4556 186.407 71.5231 186.398 71.5903 186.389C71.6494 186.382 71.7084 186.375 71.7672 186.37C71.8354 186.363 71.9031 186.357 71.9706 186.352C72.0231 186.348 72.0753 186.344 72.1273 186.341C72.1959 186.338 72.2638 186.335 72.3315 186.334C72.3823 186.333 72.4331 186.331 72.4834 186.331C72.5513 186.331 72.6183 186.333 72.6849 186.335C72.7333 186.337 72.7817 186.338 72.829 186.34C72.8982 186.344 72.966 186.35 73.034 186.356C73.0775 186.36 73.1215 186.363 73.1644 186.368C73.2289 186.376 73.292 186.386 73.3553 186.396C73.4023 186.403 73.4501 186.409 73.4963 186.417C73.5615 186.429 73.6248 186.444 73.6885 186.459C73.7308 186.468 73.774 186.476 73.8156 186.487C73.8853 186.505 73.9527 186.526 74.0205 186.547C74.0541 186.558 74.0889 186.567 74.1221 186.578C74.222 186.612 74.3197 186.649 74.415 186.69C74.4912 186.723 74.5615 186.76 74.6328 186.797C74.6782 186.82 74.7255 186.842 74.7693 186.867C74.8314 186.902 74.8894 186.942 74.948 186.98C74.9865 187.005 75.027 187.028 75.0639 187.055C75.1261 187.1 75.1836 187.149 75.2413 187.197C75.27 187.221 75.301 187.243 75.3287 187.268C75.4115 187.343 75.4901 187.422 75.5641 187.505L72.9266 184.535C72.8526 184.452 72.7739 184.373 72.6911 184.299C72.6636 184.274 72.6327 184.252 72.6041 184.228C72.5462 184.18 72.4885 184.131 72.4261 184.086C72.3892 184.059 72.3486 184.036 72.3102 184.01C72.2516 183.972 72.1936 183.933 72.1314 183.898C72.0878 183.873 72.0407 183.851 71.9953 183.828C71.9438 183.801 71.8947 183.773 71.8409 183.749C71.8197 183.739 71.7984 183.729 71.7769 183.72C71.6817 183.679 71.584 183.642 71.4839 183.608C71.4506 183.597 71.4157 183.588 71.3819 183.578C71.3143 183.557 71.247 183.535 71.1775 183.518C71.1359 183.507 71.0926 183.499 71.0503 183.489C70.9866 183.475 70.9232 183.46 70.8581 183.448C70.812 183.44 70.7645 183.434 70.7176 183.426C70.6637 183.418 70.6107 183.408 70.5559 183.401L70.5261 183.399C70.4833 183.394 70.4394 183.391 70.3961 183.387C70.328 183.381 70.26 183.374 70.1906 183.371C70.1434 183.368 70.0952 183.367 70.0474 183.366C69.9802 183.364 69.913 183.362 69.8447 183.362C69.7946 183.362 69.7438 183.363 69.693 183.364C69.6256 183.366 69.5577 183.368 69.4892 183.372C69.437 183.375 69.3844 183.378 69.3317 183.382C69.2977 183.385 69.2645 183.386 69.2303 183.389C69.1961 183.392 69.1625 183.397 69.1288 183.4C69.0702 183.406 69.0113 183.413 68.9522 183.42C68.8848 183.428 68.817 183.438 68.7488 183.448C68.6891 183.457 68.6292 183.466 68.5689 183.476C68.5001 183.488 68.4308 183.501 68.3614 183.514C68.3007 183.526 68.2399 183.538 68.1787 183.551C68.1084 183.566 68.0377 183.582 67.9668 183.599C67.9053 183.614 67.8438 183.628 67.7819 183.644C67.7588 183.65 67.736 183.655 67.7128 183.661C67.6784 183.67 67.6432 183.681 67.6086 183.691C67.5067 183.719 67.4046 183.748 67.3022 183.779C67.2457 183.796 67.1893 183.814 67.1324 183.832C67.0259 183.866 66.919 183.902 66.8117 183.94C66.7606 183.958 66.7097 183.975 66.6585 183.993C66.5121 184.046 66.365 184.103 66.2173 184.162L66.1838 184.176C66.0248 184.24 65.8652 184.309 65.7052 184.381L65.6679 184.397C65.6468 184.407 65.6255 184.418 65.6044 184.428C65.4028 184.52 65.2007 184.618 64.9981 184.721C64.9747 184.733 64.9514 184.744 64.9281 184.756C64.7165 184.865 64.5047 184.981 64.2928 185.102C64.2505 185.126 64.2082 185.15 64.1658 185.175C63.9562 185.297 63.7472 185.424 63.5389 185.556C63.5053 185.577 63.4719 185.599 63.4383 185.621C63.2346 185.752 63.0318 185.889 62.8298 186.03C62.8117 186.042 62.7936 186.054 62.7755 186.067C62.5659 186.215 62.3582 186.369 62.1515 186.528C62.1112 186.559 62.0702 186.59 62.0296 186.621C61.8273 186.779 61.6268 186.941 61.4281 187.108C61.3939 187.136 61.3601 187.166 61.3261 187.195C61.1295 187.363 60.9349 187.535 60.7424 187.711L60.706 187.744C60.5086 187.926 60.3149 188.115 60.1233 188.307C60.1021 188.328 60.0798 188.348 60.0588 188.369C60.0378 188.39 60.0176 188.412 59.9967 188.434C59.9005 188.532 59.8052 188.631 59.7109 188.732C59.6663 188.779 59.6212 188.826 59.5771 188.873C59.4397 189.022 59.3043 189.173 59.1707 189.326C59.0488 189.466 58.9312 189.607 58.816 189.747C58.7814 189.789 58.7477 189.832 58.7137 189.874C58.6308 189.977 58.5496 190.08 58.4701 190.182C58.4501 190.208 58.4284 190.234 58.4086 190.26C58.3934 190.28 58.3793 190.3 58.3643 190.32C58.3087 190.394 58.2546 190.467 58.2008 190.541C58.1633 190.592 58.1255 190.643 58.0889 190.694C58.0335 190.771 57.9801 190.848 57.9268 190.926C57.8945 190.973 57.861 191.02 57.8294 191.067C57.7691 191.155 57.7113 191.244 57.6539 191.333C57.6313 191.368 57.6076 191.403 57.5854 191.438C57.5068 191.562 57.4309 191.685 57.3575 191.808L57.3539 191.814C57.3386 191.839 57.3247 191.865 57.3096 191.89C57.2541 191.985 57.1992 192.079 57.1468 192.172C57.1217 192.217 57.0984 192.262 57.0742 192.307C57.0328 192.383 56.9912 192.46 56.9518 192.536C56.9261 192.585 56.9019 192.634 56.8771 192.684C56.8414 192.755 56.8057 192.826 56.7718 192.896C56.7476 192.948 56.724 192.998 56.7004 193.049C56.6688 193.118 56.6374 193.186 56.6074 193.254C56.5985 193.274 56.5886 193.294 56.5799 193.314C56.5685 193.34 56.559 193.366 56.5476 193.392C56.51 193.481 56.4736 193.57 56.4385 193.658C56.4215 193.701 56.4044 193.745 56.3881 193.787C56.3498 193.888 56.3136 193.988 56.2794 194.088C56.2701 194.115 56.2599 194.142 56.2508 194.169C56.2087 194.294 56.1699 194.419 56.1342 194.542C56.125 194.574 56.1172 194.605 56.1084 194.636C56.0829 194.729 56.0587 194.82 56.0366 194.911C56.0323 194.929 56.0268 194.947 56.0227 194.964C56.0151 194.997 56.0092 195.029 56.002 195.061C55.991 195.111 55.9802 195.16 55.9702 195.209C55.9594 195.263 55.9497 195.316 55.9402 195.369C55.9315 195.417 55.9228 195.466 55.9152 195.514C55.9071 195.566 55.8998 195.618 55.8928 195.67C55.8863 195.718 55.8799 195.765 55.8745 195.812C55.8686 195.864 55.8641 195.914 55.8596 195.966C55.8555 196.012 55.8516 196.059 55.8482 196.105C55.8449 196.155 55.8429 196.205 55.8409 196.255C55.8391 196.3 55.837 196.345 55.8363 196.39C55.8355 196.439 55.8363 196.488 55.8367 196.536C55.8372 196.58 55.8374 196.624 55.839 196.668C55.8407 196.716 55.8441 196.763 55.847 196.811C55.8498 196.853 55.8521 196.896 55.8561 196.938C55.8603 196.985 55.8663 197.031 55.8722 197.077C55.8773 197.118 55.8818 197.16 55.8883 197.2C55.8953 197.246 55.904 197.291 55.9125 197.336C55.9198 197.375 55.9265 197.415 55.9348 197.454C55.9445 197.499 55.9561 197.542 55.9671 197.586C55.9766 197.624 55.9853 197.662 55.9959 197.699C56.0064 197.741 56.0208 197.784 56.0344 197.826Z" fill="#FF9763"/>
<mask id="mask24_11_788" style="mask-type:luminance" maskUnits="userSpaceOnUse" x="55" y="183" width="21" height="19">
<path fill-rule="evenodd" clip-rule="evenodd" d="M56.0344 197.826C56.0461 197.862 56.0568 197.898 56.0695 197.933C56.0848 197.976 56.1023 198.017 56.1192 198.058C56.1328 198.092 56.1455 198.126 56.1602 198.159C56.1787 198.201 56.1994 198.241 56.2196 198.282C56.235 198.313 56.2493 198.345 56.2657 198.375C56.2883 198.417 56.3133 198.458 56.3378 198.499C56.3539 198.526 56.369 198.554 56.3861 198.581C56.4149 198.626 56.4462 198.669 56.4773 198.712C56.4922 198.733 56.506 198.755 56.5215 198.775C56.5691 198.838 56.6192 198.9 56.6718 198.959L59.3093 201.929C59.2567 201.869 59.2066 201.808 59.159 201.745C59.1434 201.724 59.1296 201.702 59.1145 201.681C59.0836 201.638 59.0524 201.595 59.0237 201.55C59.0067 201.523 58.9915 201.495 58.9754 201.468C58.9512 201.427 58.926 201.387 58.9035 201.345C58.8874 201.314 58.873 201.283 58.8576 201.252C58.8375 201.211 58.8166 201.171 58.798 201.129C58.7834 201.096 58.7708 201.062 58.7577 201.028C58.7407 200.987 58.7232 200.945 58.7078 200.903C58.6951 200.868 58.6844 200.831 58.6728 200.796C58.6588 200.753 58.6444 200.711 58.632 200.667C58.6214 200.63 58.6126 200.592 58.6031 200.554C58.592 200.51 58.5805 200.467 58.5708 200.422C58.5628 200.383 58.5558 200.343 58.5485 200.304C58.5404 200.259 58.5313 200.214 58.5243 200.168C58.5183 200.128 58.5138 200.087 58.5087 200.046C58.503 200 58.497 199.953 58.4925 199.906C58.4888 199.864 58.4864 199.821 58.4836 199.779C58.4805 199.732 58.4771 199.684 58.4755 199.636C58.474 199.592 58.4738 199.548 58.4734 199.505C58.4728 199.456 58.4721 199.407 58.4734 199.358C58.4741 199.313 58.4761 199.268 58.478 199.223C58.4799 199.173 58.4819 199.123 58.4852 199.072C58.4883 199.027 58.4925 198.98 58.4966 198.934C58.5011 198.883 58.5057 198.832 58.5116 198.78C58.5168 198.733 58.5234 198.686 58.5296 198.639C58.5367 198.587 58.5439 198.534 58.5522 198.482C58.5599 198.433 58.5683 198.385 58.5773 198.336C58.5867 198.284 58.5965 198.231 58.6072 198.177C58.6172 198.128 58.6281 198.078 58.6395 198.029C58.6508 197.979 58.6619 197.929 58.674 197.879C58.696 197.789 58.7202 197.697 58.7457 197.605C58.7545 197.573 58.7624 197.542 58.7716 197.51C58.8074 197.387 58.8462 197.263 58.888 197.138C58.8972 197.11 58.9078 197.082 58.9173 197.055C58.9516 196.956 58.9873 196.856 59.0254 196.756C59.0416 196.714 59.0588 196.671 59.0758 196.627C59.1107 196.539 59.1471 196.45 59.185 196.361C59.2046 196.315 59.2241 196.269 59.2444 196.223C59.2745 196.155 59.306 196.086 59.3378 196.018C59.3613 195.967 59.3844 195.917 59.4087 195.866C59.4429 195.795 59.4788 195.723 59.5148 195.651C59.539 195.603 59.5632 195.554 59.5887 195.505C59.6285 195.428 59.6704 195.351 59.7123 195.274C59.7365 195.23 59.7593 195.186 59.784 195.142C59.8376 195.046 59.8938 194.949 59.9507 194.853C59.9656 194.827 59.9794 194.802 59.9945 194.777C60.068 194.654 60.1441 194.53 60.223 194.406C60.2445 194.372 60.2676 194.338 60.2897 194.304C60.3477 194.215 60.4061 194.125 60.467 194.035C60.4984 193.988 60.5316 193.942 60.5638 193.895C60.6175 193.818 60.6713 193.74 60.7271 193.662C60.7634 193.611 60.8011 193.56 60.8383 193.51C60.8922 193.436 60.9465 193.362 61.0023 193.288C61.0369 193.243 61.0726 193.197 61.108 193.151C61.1875 193.048 61.2688 192.945 61.352 192.842C61.3858 192.8 61.4193 192.758 61.4537 192.716C61.5691 192.575 61.6868 192.435 61.8084 192.294C61.9417 192.141 62.0773 191.99 62.215 191.842C62.2588 191.794 62.3037 191.748 62.3479 191.701C62.4428 191.6 62.5383 191.501 62.6347 191.402C62.6765 191.359 62.7188 191.317 62.761 191.275C62.9526 191.083 63.1465 190.895 63.344 190.712L63.3799 190.68C63.5722 190.503 63.7669 190.331 63.9643 190.164C63.9981 190.135 64.0318 190.105 64.0659 190.077C64.2645 189.91 64.4651 189.748 64.6676 189.59C64.7079 189.559 64.7487 189.528 64.7894 189.497C64.9959 189.339 65.2037 189.184 65.4131 189.036C65.4315 189.023 65.4501 189.011 65.4687 188.998C65.6701 188.857 65.8726 188.721 66.0762 188.59C66.1097 188.569 66.1433 188.546 66.177 188.525C66.3853 188.392 66.5942 188.265 66.8037 188.144C66.8461 188.119 66.8885 188.095 66.9309 188.071C67.1426 187.95 67.3544 187.834 67.566 187.725C67.5894 187.713 67.6128 187.702 67.6361 187.69C67.8384 187.587 68.0403 187.489 68.2418 187.397C68.2756 187.382 68.3096 187.365 68.3435 187.35C68.5034 187.278 68.6631 187.209 68.822 187.145L68.8529 187.133C69.0015 187.073 69.1495 187.016 69.2968 186.962C69.3479 186.944 69.3985 186.927 69.4494 186.909C69.5566 186.872 69.6636 186.835 69.77 186.801C69.827 186.783 69.8837 186.766 69.9403 186.748C70.0431 186.717 70.1454 186.688 70.2472 186.66C70.305 186.644 70.3629 186.628 70.4203 186.614C70.4822 186.597 70.5435 186.583 70.605 186.569C70.6759 186.552 70.7468 186.536 70.8172 186.52C70.8784 186.507 70.9391 186.495 70.9998 186.484C71.0693 186.47 71.1384 186.457 71.2072 186.446C71.2677 186.435 71.3278 186.426 71.3877 186.417C71.4556 186.407 71.5231 186.398 71.5903 186.389C71.6494 186.382 71.7084 186.375 71.7672 186.37C71.8354 186.363 71.9031 186.357 71.9706 186.352C72.0231 186.348 72.0753 186.344 72.1273 186.341C72.1959 186.338 72.2638 186.335 72.3315 186.334C72.3823 186.333 72.4331 186.331 72.4834 186.331C72.5513 186.331 72.6183 186.333 72.6849 186.335C72.7333 186.337 72.7817 186.338 72.829 186.34C72.8982 186.344 72.966 186.35 73.034 186.356C73.0775 186.36 73.1215 186.363 73.1644 186.368C73.2289 186.376 73.292 186.386 73.3553 186.396C73.4023 186.403 73.4501 186.409 73.4963 186.417C73.5615 186.429 73.6248 186.444 73.6885 186.459C73.7308 186.468 73.774 186.476 73.8156 186.487C73.8853 186.505 73.9527 186.526 74.0205 186.547C74.0541 186.558 74.0889 186.567 74.1221 186.578C74.222 186.612 74.3197 186.649 74.415 186.69C74.4912 186.723 74.5615 186.76 74.6328 186.797C74.6782 186.82 74.7255 186.842 74.7693 186.867C74.8314 186.902 74.8894 186.942 74.948 186.98C74.9865 187.005 75.027 187.028 75.0639 187.055C75.1261 187.1 75.1836 187.149 75.2413 187.197C75.27 187.221 75.301 187.243 75.3287 187.268C75.4115 187.343 75.4901 187.422 75.5641 187.505L72.9266 184.535C72.8526 184.452 72.7739 184.373 72.6911 184.299C72.6636 184.274 72.6327 184.252 72.6041 184.228C72.5462 184.18 72.4885 184.131 72.4261 184.086C72.3892 184.059 72.3486 184.036 72.3102 184.01C72.2516 183.972 72.1936 183.933 72.1314 183.898C72.0878 183.873 72.0407 183.851 71.9953 183.828C71.9438 183.801 71.8947 183.773 71.8409 183.749C71.8197 183.739 71.7984 183.729 71.7769 183.72C71.6817 183.679 71.584 183.642 71.4839 183.608C71.4506 183.597 71.4157 183.588 71.3819 183.578C71.3143 183.557 71.247 183.535 71.1775 183.518C71.1359 183.507 71.0926 183.499 71.0503 183.489C70.9866 183.475 70.9232 183.46 70.8581 183.448C70.812 183.44 70.7645 183.434 70.7176 183.426C70.6637 183.418 70.6107 183.408 70.5559 183.401L70.5261 183.399C70.4833 183.394 70.4394 183.391 70.3961 183.387C70.328 183.381 70.26 183.374 70.1906 183.371C70.1434 183.368 70.0952 183.367 70.0474 183.366C69.9802 183.364 69.913 183.362 69.8447 183.362C69.7946 183.362 69.7438 183.363 69.693 183.364C69.6256 183.366 69.5577 183.368 69.4892 183.372C69.437 183.375 69.3844 183.378 69.3317 183.382C69.2977 183.385 69.2645 183.386 69.2303 183.389C69.1961 183.392 69.1625 183.397 69.1288 183.4C69.0702 183.406 69.0113 183.413 68.9522 183.42C68.8848 183.428 68.817 183.438 68.7488 183.448C68.6891 183.457 68.6292 183.466 68.5689 183.476C68.5001 183.488 68.4308 183.501 68.3614 183.514C68.3007 183.526 68.2399 183.538 68.1787 183.551C68.1084 183.566 68.0377 183.582 67.9668 183.599C67.9053 183.614 67.8438 183.628 67.7819 183.644C67.7588 183.65 67.736 183.655 67.7128 183.661C67.6784 183.67 67.6432 183.681 67.6086 183.691C67.5067 183.719 67.4046 183.748 67.3022 183.779C67.2457 183.796 67.1893 183.814 67.1324 183.832C67.0259 183.866 66.919 183.902 66.8117 183.94C66.7606 183.958 66.7097 183.975 66.6585 183.993C66.5121 184.046 66.365 184.103 66.2173 184.162L66.1838 184.176C66.0248 184.24 65.8652 184.309 65.7052 184.381L65.6679 184.397C65.6468 184.407 65.6255 184.418 65.6044 184.428C65.4028 184.52 65.2007 184.618 64.9981 184.721C64.9747 184.733 64.9514 184.744 64.9281 184.756C64.7165 184.865 64.5047 184.981 64.2928 185.102C64.2505 185.126 64.2082 185.15 64.1658 185.175C63.9562 185.297 63.7472 185.424 63.5389 185.556C63.5053 185.577 63.4719 185.599 63.4383 185.621C63.2346 185.752 63.0318 185.889 62.8298 186.03C62.8117 186.042 62.7936 186.054 62.7755 186.067C62.5659 186.215 62.3582 186.369 62.1515 186.528C62.1112 186.559 62.0702 186.59 62.0296 186.621C61.8273 186.779 61.6268 186.941 61.4281 187.108C61.3939 187.136 61.3601 187.166 61.3261 187.195C61.1295 187.363 60.9349 187.535 60.7424 187.711L60.706 187.744C60.5086 187.926 60.3149 188.115 60.1233 188.307C60.1021 188.328 60.0798 188.348 60.0588 188.369C60.0378 188.39 60.0176 188.412 59.9967 188.434C59.9005 188.532 59.8052 188.631 59.7109 188.732C59.6663 188.779 59.6212 188.826 59.5771 188.873C59.4397 189.022 59.3043 189.173 59.1707 189.326C59.0488 189.466 58.9312 189.607 58.816 189.747C58.7814 189.789 58.7477 189.832 58.7137 189.874C58.6308 189.977 58.5496 190.08 58.4701 190.182C58.4501 190.208 58.4284 190.234 58.4086 190.26C58.3934 190.28 58.3793 190.3 58.3643 190.32C58.3087 190.394 58.2546 190.467 58.2008 190.541C58.1633 190.592 58.1255 190.643 58.0889 190.694C58.0335 190.771 57.9801 190.848 57.9268 190.926C57.8945 190.973 57.861 191.02 57.8294 191.067C57.7691 191.155 57.7113 191.244 57.6539 191.333C57.6313 191.368 57.6076 191.403 57.5854 191.438C57.5068 191.562 57.4309 191.685 57.3575 191.808L57.3539 191.814C57.3386 191.839 57.3247 191.865 57.3096 191.89C57.2541 191.985 57.1992 192.079 57.1468 192.172C57.1217 192.217 57.0984 192.262 57.0742 192.307C57.0328 192.383 56.9912 192.46 56.9518 192.536C56.9261 192.585 56.9019 192.634 56.8771 192.684C56.8414 192.755 56.8057 192.826 56.7718 192.896C56.7476 192.948 56.724 192.998 56.7004 193.049C56.6688 193.118 56.6374 193.186 56.6074 193.254C56.5985 193.274 56.5886 193.294 56.5799 193.314C56.5685 193.34 56.559 193.366 56.5476 193.392C56.51 193.481 56.4736 193.57 56.4385 193.658C56.4215 193.701 56.4044 193.745 56.3881 193.787C56.3498 193.888 56.3136 193.988 56.2794 194.088C56.2701 194.115 56.2599 194.142 56.2508 194.169C56.2087 194.294 56.1699 194.419 56.1342 194.542C56.125 194.574 56.1172 194.605 56.1084 194.636C56.0829 194.729 56.0587 194.82 56.0366 194.911C56.0323 194.929 56.0268 194.947 56.0227 194.964C56.0151 194.997 56.0092 195.029 56.002 195.061C55.991 195.111 55.9802 195.16 55.9702 195.209C55.9594 195.263 55.9497 195.316 55.9402 195.369C55.9315 195.417 55.9228 195.466 55.9152 195.514C55.9071 195.566 55.8998 195.618 55.8928 195.67C55.8863 195.718 55.8799 195.765 55.8745 195.812C55.8686 195.864 55.8641 195.914 55.8596 195.966C55.8555 196.012 55.8516 196.059 55.8482 196.105C55.8449 196.155 55.8429 196.205 55.8409 196.255C55.8391 196.3 55.837 196.345 55.8363 196.39C55.8355 196.439 55.8363 196.488 55.8367 196.536C55.8372 196.58 55.8374 196.624 55.839 196.668C55.8407 196.716 55.8441 196.763 55.847 196.811C55.8498 196.853 55.8521 196.896 55.8561 196.938C55.8603 196.985 55.8663 197.031 55.8722 197.077C55.8773 197.118 55.8818 197.16 55.8883 197.2C55.8953 197.246 55.904 197.291 55.9125 197.336C55.9198 197.375 55.9265 197.415 55.9348 197.454C55.9445 197.499 55.9561 197.542 55.9671 197.586C55.9766 197.624 55.9853 197.662 55.9959 197.699C56.0064 197.741 56.0208 197.784 56.0344 197.826Z" fill="white"/>
</mask>
<g mask="url(#mask24_11_788)">
<path d="M67.1314 183.831C51.4928 189.511 59.481 204.645 59.481 204.645L54.0112 200.277L54.1954 187.86L62.3569 184.806" fill="#E84B23"/>
</g>
<path d="M72.2469 191.551L73.225 192.048L68.9338 194.547L69.8715 195.025L68.858 196.04L67.5607 195.382L66.9769 195.966L68.2807 196.628L67.2663 197.643L65.9617 196.981L64.5539 198.391L63.6589 197.934L65.0675 196.525L63.7629 195.862L64.7781 194.847L66.0811 195.51L66.6656 194.925L65.3618 194.262L66.3762 193.248L67.3163 193.725L69.2338 190.018L70.2424 190.531L68.3379 193.96L72.2469 191.551Z" fill="#E84B23"/>
<path d="M66.2577 192.369C65.776 192.47 65.3763 192.805 65.192 193.261C65.1704 193.34 65.2167 193.421 65.2955 193.443C65.374 193.462 65.454 193.417 65.4777 193.34C65.4668 193.366 65.4845 193.325 65.4851 193.324L65.5003 193.292C65.5117 193.269 65.5239 193.246 65.5367 193.223C65.5626 193.179 65.591 193.136 65.6217 193.094C65.6056 193.117 65.6325 193.081 65.6333 193.08L65.6559 193.053C65.6728 193.034 65.6902 193.015 65.7082 192.996C65.7441 192.959 65.7822 192.924 65.8222 192.891C65.8247 192.889 65.8531 192.867 65.8403 192.877C65.8276 192.886 65.8564 192.865 65.8593 192.863C65.8821 192.847 65.9055 192.831 65.9293 192.816C65.9731 192.788 66.0184 192.763 66.065 192.741L66.0973 192.726C66.1119 192.72 66.0824 192.732 66.1073 192.722C66.1322 192.713 66.1557 192.704 66.1799 192.696C66.2312 192.679 66.2836 192.666 66.3366 192.656C66.415 192.633 66.461 192.552 66.44 192.473C66.417 192.396 66.3365 192.35 66.2578 192.37L66.2577 192.369Z" fill="#E84B23"/>
<path d="M64.7258 186.59L64.4539 186.648C64.3964 186.664 64.354 186.713 64.3463 186.772C64.3386 186.831 64.367 186.889 64.4185 186.919C64.4534 186.938 64.494 186.943 64.5326 186.934L64.8045 186.876C64.862 186.86 64.9044 186.811 64.9121 186.752C64.9198 186.693 64.8914 186.635 64.8399 186.605C64.805 186.586 64.7644 186.581 64.7258 186.59Z" fill="#E84B23"/>
<ellipse cx="211.226" cy="183.542" rx="9.24962" ry="17.5797" transform="rotate(-54.9858 211.226 183.542)" fill="#FFC562"/>
<mask id="mask25_11_788" style="mask-type:luminance" maskUnits="userSpaceOnUse" x="195" y="170" width="32" height="27">
<ellipse cx="211.226" cy="183.542" rx="9.24962" ry="17.5797" transform="rotate(-54.9858 211.226 183.542)" fill="white"/>
</mask>
<g mask="url(#mask25_11_788)">
<path d="M197.292 186.107C192.412 170.867 205.012 170.363 214.021 172.649C223.03 174.935 200.182 165.312 200.182 165.312L190.627 170.34" fill="#D89D35"/>
</g>
<path d="M199.378 176.784C200.131 172.591 206.065 171.947 212.632 175.343C219.201 178.742 223.915 184.895 223.163 189.087C222.41 193.281 216.476 193.926 209.907 190.527C203.34 187.131 198.626 180.977 199.378 176.784Z" fill="#FF9763"/>
<path d="M220.391 200.329C220.442 200.297 220.495 200.267 220.546 200.234C220.607 200.193 220.665 200.15 220.724 200.108C220.772 200.074 220.821 200.042 220.868 200.006C220.927 199.961 220.982 199.914 221.038 199.867C221.082 199.831 221.126 199.796 221.168 199.759C221.226 199.708 221.281 199.653 221.336 199.6C221.373 199.564 221.411 199.53 221.447 199.493C221.507 199.431 221.563 199.365 221.619 199.3C221.647 199.269 221.676 199.239 221.703 199.207C221.784 199.108 221.862 199.007 221.935 198.902L225.623 193.637C225.55 193.743 225.472 193.844 225.391 193.943C225.364 193.975 225.334 194.005 225.307 194.037C225.25 194.101 225.194 194.167 225.135 194.229C225.099 194.266 225.06 194.3 225.023 194.336C224.968 194.389 224.914 194.444 224.856 194.495C224.815 194.532 224.77 194.566 224.727 194.602C224.671 194.649 224.614 194.697 224.556 194.742C224.509 194.777 224.461 194.81 224.413 194.844C224.354 194.886 224.295 194.929 224.234 194.969C224.183 195.002 224.13 195.033 224.079 195.065C224.016 195.102 223.955 195.141 223.891 195.177C223.837 195.207 223.78 195.236 223.725 195.264C223.66 195.298 223.596 195.333 223.529 195.365C223.471 195.392 223.411 195.418 223.351 195.444C223.283 195.474 223.216 195.505 223.146 195.533C223.085 195.557 223.022 195.58 222.96 195.603C222.889 195.629 222.818 195.656 222.745 195.681C222.681 195.703 222.615 195.722 222.549 195.742C222.476 195.765 222.402 195.788 222.326 195.809C222.259 195.828 222.189 195.845 222.121 195.862C222.044 195.881 221.968 195.9 221.89 195.917C221.82 195.933 221.748 195.947 221.676 195.961C221.596 195.976 221.517 195.992 221.436 196.005C221.363 196.018 221.289 196.028 221.215 196.039C221.132 196.051 221.05 196.063 220.966 196.073C220.891 196.082 220.814 196.09 220.737 196.097C220.652 196.106 220.567 196.114 220.481 196.121C220.402 196.127 220.323 196.131 220.243 196.136C220.156 196.141 220.069 196.145 219.981 196.148C219.9 196.151 219.818 196.152 219.735 196.154C219.652 196.155 219.57 196.155 219.487 196.155C219.336 196.154 219.183 196.151 219.028 196.145C218.975 196.143 218.923 196.142 218.869 196.14C218.662 196.13 218.452 196.115 218.239 196.096C218.192 196.092 218.144 196.086 218.097 196.081C217.928 196.064 217.759 196.045 217.586 196.022C217.513 196.013 217.439 196.002 217.365 195.991C217.213 195.969 217.059 195.945 216.905 195.919C216.825 195.905 216.746 195.892 216.665 195.877C216.546 195.855 216.427 195.831 216.307 195.807C216.218 195.789 216.13 195.771 216.041 195.752C215.916 195.725 215.79 195.695 215.664 195.665C215.578 195.645 215.493 195.625 215.406 195.604C215.271 195.57 215.134 195.533 214.997 195.496C214.918 195.474 214.84 195.455 214.761 195.432C214.59 195.384 214.417 195.331 214.244 195.278C214.198 195.264 214.153 195.252 214.108 195.238C213.886 195.168 213.664 195.095 213.439 195.017C213.378 194.996 213.315 194.972 213.254 194.95C213.091 194.892 212.928 194.834 212.763 194.772C212.678 194.74 212.593 194.706 212.508 194.672C212.365 194.617 212.222 194.561 212.079 194.503C211.985 194.465 211.891 194.425 211.797 194.385C211.661 194.328 211.525 194.27 211.388 194.21C211.303 194.172 211.217 194.133 211.132 194.095C210.94 194.008 210.747 193.919 210.554 193.826C210.475 193.789 210.396 193.752 210.318 193.713C210.053 193.584 209.787 193.452 209.52 193.312C209.229 193.16 208.941 193.003 208.656 192.841C208.565 192.79 208.475 192.737 208.385 192.685C208.191 192.573 207.998 192.461 207.806 192.345C207.724 192.295 207.642 192.244 207.559 192.194C207.186 191.964 206.816 191.729 206.455 191.487C206.433 191.472 206.412 191.457 206.39 191.442C206.04 191.206 205.696 190.964 205.359 190.716C205.301 190.673 205.241 190.631 205.184 190.588C204.846 190.338 204.516 190.083 204.193 189.823C204.128 189.771 204.064 189.719 204 189.666C203.673 189.4 203.353 189.131 203.041 188.857C203.014 188.832 202.988 188.808 202.96 188.783C202.663 188.519 202.373 188.251 202.091 187.98C202.044 187.935 201.996 187.89 201.95 187.846C201.663 187.567 201.385 187.286 201.116 187.001C201.061 186.944 201.007 186.886 200.953 186.828C200.684 186.54 200.421 186.25 200.17 185.958C200.143 185.926 200.116 185.894 200.089 185.861C199.851 185.581 199.622 185.3 199.402 185.017C199.365 184.97 199.326 184.922 199.289 184.875C199.116 184.65 198.948 184.424 198.787 184.198C198.776 184.183 198.767 184.169 198.756 184.154C198.606 183.942 198.462 183.731 198.322 183.519C198.274 183.445 198.228 183.372 198.181 183.299C198.082 183.144 197.985 182.989 197.891 182.834C197.841 182.751 197.793 182.669 197.744 182.586C197.657 182.436 197.572 182.286 197.491 182.136C197.444 182.051 197.397 181.965 197.352 181.881C197.304 181.789 197.259 181.698 197.213 181.606C197.16 181.501 197.107 181.396 197.057 181.29C197.014 181.199 196.972 181.108 196.931 181.016C196.884 180.912 196.838 180.808 196.794 180.704C196.755 180.613 196.718 180.522 196.681 180.431C196.64 180.328 196.6 180.225 196.562 180.122C196.528 180.031 196.496 179.941 196.464 179.851C196.428 179.746 196.393 179.642 196.359 179.538C196.333 179.456 196.309 179.375 196.285 179.295C196.253 179.188 196.224 179.082 196.196 178.976C196.175 178.896 196.154 178.817 196.135 178.738C196.11 178.631 196.087 178.525 196.066 178.418C196.05 178.342 196.033 178.265 196.02 178.19C196 178.079 195.984 177.97 195.968 177.861C195.958 177.791 195.947 177.721 195.938 177.651C195.926 177.546 195.919 177.444 195.91 177.34C195.904 177.264 195.895 177.186 195.891 177.11C195.886 177.003 195.886 176.898 195.885 176.792C195.884 176.722 195.88 176.651 195.882 176.581C195.884 176.465 195.892 176.351 195.9 176.236C195.904 176.179 195.904 176.122 195.91 176.065C195.926 175.895 195.947 175.727 195.976 175.562C195.999 175.43 196.033 175.305 196.064 175.178C196.083 175.098 196.1 175.015 196.123 174.937C196.155 174.826 196.195 174.72 196.234 174.614C196.259 174.543 196.281 174.471 196.309 174.403C196.356 174.288 196.411 174.179 196.466 174.07C196.493 174.016 196.516 173.959 196.545 173.906C196.631 173.748 196.726 173.594 196.829 173.446L193.141 178.71C193.038 178.858 192.943 179.012 192.857 179.17C192.828 179.223 192.805 179.279 192.778 179.333C192.723 179.443 192.668 179.552 192.621 179.667C192.593 179.735 192.571 179.807 192.546 179.878C192.507 179.984 192.467 180.09 192.435 180.201C192.412 180.279 192.395 180.362 192.376 180.442C192.354 180.533 192.327 180.621 192.309 180.714C192.302 180.751 192.295 180.788 192.288 180.826C192.26 180.991 192.237 181.159 192.222 181.329C192.216 181.385 192.216 181.444 192.212 181.501C192.204 181.615 192.196 181.729 192.194 181.845C192.193 181.915 192.196 181.986 192.197 182.056C192.198 182.162 192.198 182.267 192.204 182.374C192.208 182.45 192.216 182.527 192.222 182.604C192.229 182.691 192.234 182.779 192.244 182.867C192.245 182.884 192.249 182.9 192.25 182.915C192.258 182.984 192.271 183.055 192.28 183.125C192.297 183.234 192.312 183.344 192.332 183.454C192.345 183.53 192.362 183.606 192.377 183.682C192.399 183.788 192.422 183.895 192.447 184.002C192.466 184.081 192.487 184.161 192.508 184.24C192.536 184.346 192.564 184.452 192.596 184.558C192.62 184.64 192.645 184.721 192.671 184.802C192.688 184.855 192.702 184.907 192.72 184.96C192.737 185.012 192.758 185.063 192.776 185.115C192.807 185.205 192.839 185.296 192.873 185.386C192.911 185.489 192.951 185.592 192.993 185.696C193.029 185.786 193.066 185.877 193.105 185.968C193.149 186.072 193.195 186.176 193.242 186.281C193.284 186.372 193.325 186.463 193.369 186.555C193.419 186.66 193.471 186.765 193.524 186.87C193.57 186.962 193.616 187.053 193.664 187.144C193.682 187.179 193.698 187.213 193.716 187.247C193.743 187.298 193.774 187.349 193.802 187.4C193.884 187.55 193.969 187.7 194.056 187.85C194.104 187.932 194.153 188.015 194.202 188.097C194.296 188.252 194.393 188.407 194.492 188.562C194.54 188.636 194.585 188.71 194.634 188.783C194.773 188.994 194.916 189.204 195.065 189.415C195.077 189.431 195.087 189.447 195.098 189.462C195.26 189.688 195.428 189.914 195.601 190.139C195.615 190.157 195.627 190.174 195.64 190.192C195.663 190.221 195.689 190.251 195.712 190.28C195.933 190.563 196.162 190.845 196.4 191.125C196.428 191.158 196.454 191.19 196.482 191.222C196.733 191.515 196.995 191.804 197.265 192.093C197.319 192.151 197.372 192.208 197.427 192.266C197.697 192.55 197.975 192.831 198.261 193.11C198.308 193.155 198.355 193.199 198.402 193.244C198.685 193.515 198.975 193.784 199.273 194.049C199.299 194.073 199.325 194.097 199.352 194.121C199.663 194.395 199.984 194.664 200.311 194.931C200.375 194.983 200.439 195.035 200.504 195.087C200.828 195.347 201.158 195.602 201.495 195.853C201.553 195.896 201.612 195.938 201.67 195.98C202.008 196.227 202.351 196.469 202.701 196.706C202.723 196.721 202.744 196.736 202.766 196.751C203.128 196.994 203.497 197.228 203.87 197.458C203.912 197.483 203.951 197.511 203.993 197.536C204.035 197.562 204.077 197.585 204.118 197.61C204.309 197.725 204.501 197.837 204.695 197.948C204.786 198.001 204.876 198.054 204.968 198.106C205.253 198.267 205.541 198.423 205.832 198.576C206.098 198.716 206.364 198.848 206.628 198.978C206.708 199.016 206.787 199.053 206.866 199.091C207.059 199.183 207.251 199.273 207.443 199.359C207.491 199.381 207.54 199.405 207.589 199.427C207.626 199.443 207.662 199.458 207.699 199.474C207.836 199.534 207.972 199.592 208.108 199.649C208.202 199.689 208.297 199.73 208.391 199.768C208.533 199.826 208.675 199.881 208.817 199.936C208.903 199.97 208.989 200.005 209.075 200.037C209.237 200.098 209.399 200.156 209.56 200.213C209.624 200.236 209.688 200.26 209.751 200.282C209.975 200.359 210.197 200.433 210.418 200.502L210.429 200.506C210.475 200.52 210.52 200.533 210.566 200.547C210.735 200.599 210.904 200.65 211.072 200.697C211.152 200.72 211.231 200.74 211.311 200.762C211.446 200.799 211.582 200.835 211.717 200.869C211.804 200.891 211.891 200.911 211.977 200.931C212.103 200.961 212.228 200.99 212.352 201.017C212.441 201.037 212.53 201.054 212.619 201.072C212.739 201.097 212.858 201.121 212.976 201.142C213.011 201.149 213.047 201.157 213.082 201.163C213.127 201.171 213.171 201.176 213.216 201.184C213.371 201.21 213.524 201.234 213.676 201.256C213.75 201.267 213.824 201.278 213.898 201.288C214.071 201.31 214.242 201.33 214.412 201.346C214.457 201.351 214.504 201.357 214.55 201.361C214.763 201.38 214.974 201.395 215.181 201.405C215.234 201.407 215.286 201.408 215.339 201.41C215.494 201.416 215.647 201.42 215.799 201.42C215.828 201.42 215.859 201.422 215.888 201.422C215.942 201.422 215.994 201.419 216.048 201.419C216.13 201.417 216.212 201.416 216.293 201.413C216.381 201.41 216.468 201.406 216.555 201.401C216.635 201.396 216.715 201.392 216.794 201.386C216.879 201.379 216.964 201.371 217.048 201.363C217.125 201.355 217.203 201.347 217.279 201.338C217.362 201.328 217.444 201.316 217.525 201.304C217.6 201.293 217.675 201.283 217.749 201.27C217.829 201.256 217.908 201.241 217.987 201.226C218.059 201.211 218.131 201.198 218.202 201.182C218.28 201.165 218.356 201.146 218.433 201.127C218.502 201.109 218.571 201.093 218.639 201.074C218.714 201.053 218.787 201.03 218.86 201.008C218.927 200.987 218.993 200.967 219.058 200.946C219.13 200.921 219.2 200.895 219.271 200.868C219.333 200.845 219.397 200.822 219.459 200.798C219.528 200.769 219.596 200.739 219.663 200.709C219.723 200.683 219.783 200.657 219.84 200.63C219.907 200.597 219.972 200.563 220.037 200.529C220.093 200.5 220.149 200.472 220.203 200.442C220.267 200.405 220.329 200.367 220.391 200.329Z" fill="#FF9763"/>
<mask id="mask26_11_788" style="mask-type:luminance" maskUnits="userSpaceOnUse" x="192" y="173" width="34" height="29">
<path fill-rule="evenodd" clip-rule="evenodd" d="M220.391 200.329C220.442 200.297 220.495 200.267 220.546 200.234C220.607 200.193 220.665 200.15 220.724 200.108C220.772 200.074 220.821 200.042 220.868 200.006C220.927 199.961 220.982 199.914 221.038 199.867C221.082 199.831 221.126 199.796 221.168 199.759C221.226 199.708 221.281 199.653 221.336 199.6C221.373 199.564 221.411 199.53 221.447 199.493C221.507 199.431 221.563 199.365 221.619 199.3C221.647 199.269 221.676 199.239 221.703 199.207C221.784 199.108 221.862 199.007 221.935 198.902L225.623 193.637C225.55 193.743 225.472 193.844 225.391 193.943C225.364 193.975 225.334 194.005 225.307 194.037C225.25 194.101 225.194 194.167 225.135 194.229C225.099 194.266 225.06 194.3 225.023 194.336C224.968 194.389 224.914 194.444 224.856 194.495C224.815 194.532 224.77 194.566 224.727 194.602C224.671 194.649 224.614 194.697 224.556 194.742C224.509 194.777 224.461 194.81 224.413 194.844C224.354 194.886 224.295 194.929 224.234 194.969C224.183 195.002 224.13 195.033 224.079 195.065C224.016 195.102 223.955 195.141 223.891 195.177C223.837 195.207 223.78 195.236 223.725 195.264C223.66 195.298 223.596 195.333 223.529 195.365C223.471 195.392 223.411 195.418 223.351 195.444C223.283 195.474 223.216 195.505 223.146 195.533C223.085 195.557 223.022 195.58 222.96 195.603C222.889 195.629 222.818 195.656 222.745 195.681C222.681 195.703 222.615 195.722 222.549 195.742C222.476 195.765 222.402 195.788 222.326 195.809C222.259 195.828 222.189 195.845 222.121 195.862C222.044 195.881 221.968 195.9 221.89 195.917C221.82 195.933 221.748 195.947 221.676 195.961C221.596 195.976 221.517 195.992 221.436 196.005C221.363 196.018 221.289 196.028 221.215 196.039C221.132 196.051 221.05 196.063 220.966 196.073C220.891 196.082 220.814 196.09 220.737 196.097C220.652 196.106 220.567 196.114 220.481 196.121C220.402 196.127 220.323 196.131 220.243 196.136C220.156 196.141 220.069 196.145 219.981 196.148C219.9 196.151 219.818 196.152 219.735 196.154C219.652 196.155 219.57 196.155 219.487 196.155C219.336 196.154 219.183 196.151 219.028 196.145C218.975 196.143 218.923 196.142 218.869 196.14C218.662 196.13 218.452 196.115 218.239 196.096C218.192 196.092 218.144 196.086 218.097 196.081C217.928 196.064 217.759 196.045 217.586 196.022C217.513 196.013 217.439 196.002 217.365 195.991C217.213 195.969 217.059 195.945 216.905 195.919C216.825 195.905 216.746 195.892 216.665 195.877C216.546 195.855 216.427 195.831 216.307 195.807C216.218 195.789 216.13 195.771 216.041 195.752C215.916 195.725 215.79 195.695 215.664 195.665C215.578 195.645 215.493 195.625 215.406 195.604C215.271 195.57 215.134 195.533 214.997 195.496C214.918 195.474 214.84 195.455 214.761 195.432C214.59 195.384 214.417 195.331 214.244 195.278C214.198 195.264 214.153 195.252 214.108 195.238C213.886 195.168 213.664 195.095 213.439 195.017C213.378 194.996 213.315 194.972 213.254 194.95C213.091 194.892 212.928 194.834 212.763 194.772C212.678 194.74 212.593 194.706 212.508 194.672C212.365 194.617 212.222 194.561 212.079 194.503C211.985 194.465 211.891 194.425 211.797 194.385C211.661 194.328 211.525 194.27 211.388 194.21C211.303 194.172 211.217 194.133 211.132 194.095C210.94 194.008 210.747 193.919 210.554 193.826C210.475 193.789 210.396 193.752 210.318 193.713C210.053 193.584 209.787 193.452 209.52 193.312C209.229 193.16 208.941 193.003 208.656 192.841C208.565 192.79 208.475 192.737 208.385 192.685C208.191 192.573 207.998 192.461 207.806 192.345C207.724 192.295 207.642 192.244 207.559 192.194C207.186 191.964 206.816 191.729 206.455 191.487C206.433 191.472 206.412 191.457 206.39 191.442C206.04 191.206 205.696 190.964 205.359 190.716C205.301 190.673 205.241 190.631 205.184 190.588C204.846 190.338 204.516 190.083 204.193 189.823C204.128 189.771 204.064 189.719 204 189.666C203.673 189.4 203.353 189.131 203.041 188.857C203.014 188.832 202.988 188.808 202.96 188.783C202.663 188.519 202.373 188.251 202.091 187.98C202.044 187.935 201.996 187.89 201.95 187.846C201.663 187.567 201.385 187.286 201.116 187.001C201.061 186.944 201.007 186.886 200.953 186.828C200.684 186.54 200.421 186.25 200.17 185.958C200.143 185.926 200.116 185.894 200.089 185.861C199.851 185.581 199.622 185.3 199.402 185.017C199.365 184.97 199.326 184.922 199.289 184.875C199.116 184.65 198.948 184.424 198.787 184.198C198.776 184.183 198.767 184.169 198.756 184.154C198.606 183.942 198.462 183.731 198.322 183.519C198.274 183.445 198.228 183.372 198.181 183.299C198.082 183.144 197.985 182.989 197.891 182.834C197.841 182.751 197.793 182.669 197.744 182.586C197.657 182.436 197.572 182.286 197.491 182.136C197.444 182.051 197.397 181.965 197.352 181.881C197.304 181.789 197.259 181.698 197.213 181.606C197.16 181.501 197.107 181.396 197.057 181.29C197.014 181.199 196.972 181.108 196.931 181.016C196.884 180.912 196.838 180.808 196.794 180.704C196.755 180.613 196.718 180.522 196.681 180.431C196.64 180.328 196.6 180.225 196.562 180.122C196.528 180.031 196.496 179.941 196.464 179.851C196.428 179.746 196.393 179.642 196.359 179.538C196.333 179.456 196.309 179.375 196.285 179.295C196.253 179.188 196.224 179.082 196.196 178.976C196.175 178.896 196.154 178.817 196.135 178.738C196.11 178.631 196.087 178.525 196.066 178.418C196.05 178.342 196.033 178.265 196.02 178.19C196 178.079 195.984 177.97 195.968 177.861C195.958 177.791 195.947 177.721 195.938 177.651C195.926 177.546 195.919 177.444 195.91 177.34C195.904 177.264 195.895 177.186 195.891 177.11C195.886 177.003 195.886 176.898 195.885 176.792C195.884 176.722 195.88 176.651 195.882 176.581C195.884 176.465 195.892 176.351 195.9 176.236C195.904 176.179 195.904 176.122 195.91 176.065C195.926 175.895 195.947 175.727 195.976 175.562C195.999 175.43 196.033 175.305 196.064 175.178C196.083 175.098 196.1 175.015 196.123 174.937C196.155 174.826 196.195 174.72 196.234 174.614C196.259 174.543 196.281 174.471 196.309 174.403C196.356 174.288 196.411 174.179 196.466 174.07C196.493 174.016 196.516 173.959 196.545 173.906C196.631 173.748 196.726 173.594 196.829 173.446L193.141 178.71C193.038 178.858 192.943 179.012 192.857 179.17C192.828 179.223 192.805 179.279 192.778 179.333C192.723 179.443 192.668 179.552 192.621 179.667C192.593 179.735 192.571 179.807 192.546 179.878C192.507 179.984 192.467 180.09 192.435 180.201C192.412 180.279 192.395 180.362 192.376 180.442C192.354 180.533 192.327 180.621 192.309 180.714C192.302 180.751 192.295 180.788 192.288 180.826C192.26 180.991 192.237 181.159 192.222 181.329C192.216 181.385 192.216 181.444 192.212 181.501C192.204 181.615 192.196 181.729 192.194 181.845C192.193 181.915 192.196 181.986 192.197 182.056C192.198 182.162 192.198 182.267 192.204 182.374C192.208 182.45 192.216 182.527 192.222 182.604C192.229 182.691 192.234 182.779 192.244 182.867C192.245 182.884 192.249 182.9 192.25 182.915C192.258 182.984 192.271 183.055 192.28 183.125C192.297 183.234 192.312 183.344 192.332 183.454C192.345 183.53 192.362 183.606 192.377 183.682C192.399 183.788 192.422 183.895 192.447 184.002C192.466 184.081 192.487 184.161 192.508 184.24C192.536 184.346 192.564 184.452 192.596 184.558C192.62 184.64 192.645 184.721 192.671 184.802C192.688 184.855 192.702 184.907 192.72 184.96C192.737 185.012 192.758 185.063 192.776 185.115C192.807 185.205 192.839 185.296 192.873 185.386C192.911 185.489 192.951 185.592 192.993 185.696C193.029 185.786 193.066 185.877 193.105 185.968C193.149 186.072 193.195 186.176 193.242 186.281C193.284 186.372 193.325 186.463 193.369 186.555C193.419 186.66 193.471 186.765 193.524 186.87C193.57 186.962 193.616 187.053 193.664 187.144C193.682 187.179 193.698 187.213 193.716 187.247C193.743 187.298 193.774 187.349 193.802 187.4C193.884 187.55 193.969 187.7 194.056 187.85C194.104 187.932 194.153 188.015 194.202 188.097C194.296 188.252 194.393 188.407 194.492 188.562C194.54 188.636 194.585 188.71 194.634 188.783C194.773 188.994 194.916 189.204 195.065 189.415C195.077 189.431 195.087 189.447 195.098 189.462C195.26 189.688 195.428 189.914 195.601 190.139C195.615 190.157 195.627 190.174 195.64 190.192C195.663 190.221 195.689 190.251 195.712 190.28C195.933 190.563 196.162 190.845 196.4 191.125C196.428 191.158 196.454 191.19 196.482 191.222C196.733 191.515 196.995 191.804 197.265 192.093C197.319 192.151 197.372 192.208 197.427 192.266C197.697 192.55 197.975 192.831 198.261 193.11C198.308 193.155 198.355 193.199 198.402 193.244C198.685 193.515 198.975 193.784 199.273 194.049C199.299 194.073 199.325 194.097 199.352 194.121C199.663 194.395 199.984 194.664 200.311 194.931C200.375 194.983 200.439 195.035 200.504 195.087C200.828 195.347 201.158 195.602 201.495 195.853C201.553 195.896 201.612 195.938 201.67 195.98C202.008 196.227 202.351 196.469 202.701 196.706C202.723 196.721 202.744 196.736 202.766 196.751C203.128 196.994 203.497 197.228 203.87 197.458C203.912 197.483 203.951 197.511 203.993 197.536C204.035 197.562 204.077 197.585 204.118 197.61C204.309 197.725 204.501 197.837 204.695 197.948C204.786 198.001 204.876 198.054 204.968 198.106C205.253 198.267 205.541 198.423 205.832 198.576C206.098 198.716 206.364 198.848 206.628 198.978C206.708 199.016 206.787 199.053 206.866 199.091C207.059 199.183 207.251 199.273 207.443 199.359C207.491 199.381 207.54 199.405 207.589 199.427C207.626 199.443 207.662 199.458 207.699 199.474C207.836 199.534 207.972 199.592 208.108 199.649C208.202 199.689 208.297 199.73 208.391 199.768C208.533 199.826 208.675 199.881 208.817 199.936C208.903 199.97 208.989 200.005 209.075 200.037C209.237 200.098 209.399 200.156 209.56 200.213C209.624 200.236 209.688 200.26 209.751 200.282C209.975 200.359 210.197 200.433 210.418 200.502L210.429 200.506C210.475 200.52 210.52 200.533 210.566 200.547C210.735 200.599 210.904 200.65 211.072 200.697C211.152 200.72 211.231 200.74 211.311 200.762C211.446 200.799 211.582 200.835 211.717 200.869C211.804 200.891 211.891 200.911 211.977 200.931C212.103 200.961 212.228 200.99 212.352 201.017C212.441 201.037 212.53 201.054 212.619 201.072C212.739 201.097 212.858 201.121 212.976 201.142C213.011 201.149 213.047 201.157 213.082 201.163C213.127 201.171 213.171 201.176 213.216 201.184C213.371 201.21 213.524 201.234 213.676 201.256C213.75 201.267 213.824 201.278 213.898 201.288C214.071 201.31 214.242 201.33 214.412 201.346C214.457 201.351 214.504 201.357 214.55 201.361C214.763 201.38 214.974 201.395 215.181 201.405C215.234 201.407 215.286 201.408 215.339 201.41C215.494 201.416 215.647 201.42 215.799 201.42C215.828 201.42 215.859 201.422 215.888 201.422C215.942 201.422 215.994 201.419 216.048 201.419C216.13 201.417 216.212 201.416 216.293 201.413C216.381 201.41 216.468 201.406 216.555 201.401C216.635 201.396 216.715 201.392 216.794 201.386C216.879 201.379 216.964 201.371 217.048 201.363C217.125 201.355 217.203 201.347 217.279 201.338C217.362 201.328 217.444 201.316 217.525 201.304C217.6 201.293 217.675 201.283 217.749 201.27C217.829 201.256 217.908 201.241 217.987 201.226C218.059 201.211 218.131 201.198 218.202 201.182C218.28 201.165 218.356 201.146 218.433 201.127C218.502 201.109 218.571 201.093 218.639 201.074C218.714 201.053 218.787 201.03 218.86 201.008C218.927 200.987 218.993 200.967 219.058 200.946C219.13 200.921 219.2 200.895 219.271 200.868C219.333 200.845 219.397 200.822 219.459 200.798C219.528 200.769 219.596 200.739 219.663 200.709C219.723 200.683 219.783 200.657 219.84 200.63C219.907 200.597 219.972 200.563 220.037 200.529C220.093 200.5 220.149 200.472 220.203 200.442C220.267 200.405 220.329 200.367 220.391 200.329Z" fill="white"/>
</mask>
<g mask="url(#mask26_11_788)">
<path d="M227.391 195.213C219.127 202.85 202.767 196.751 202.767 196.751L205.679 206.47C205.679 206.47 218.139 208.291 222.48 204.501L226.821 200.71" fill="#E84B23"/>
</g>
<path d="M213.719 179.874C214.416 181.154 214.963 182.511 215.349 183.917C215.396 184.069 215.556 184.156 215.709 184.113C215.862 184.071 215.955 183.915 215.917 183.76C215.517 182.305 214.95 180.901 214.228 179.576C214.046 179.243 213.537 179.54 213.719 179.874Z" fill="#E84B23"/>
<path d="M201.426 193.925L203.399 194.807C203.54 194.883 203.717 194.837 203.802 194.701C203.883 194.56 203.836 194.381 203.696 194.298L201.724 193.416C201.583 193.339 201.406 193.385 201.321 193.522C201.24 193.662 201.287 193.842 201.426 193.925H201.426Z" fill="#E84B23"/>
</g>
</svg>
