<svg width="272" height="340" viewBox="0 0 272 340" fill="none" xmlns="http://www.w3.org/2000/svg">
<rect width="272" height="340" fill="#FEC094"/>
<mask id="mask0_11_305" style="mask-type:luminance" maskUnits="userSpaceOnUse" x="8" y="76" width="256" height="192">
<rect x="8" y="76" width="255.242" height="191.431" fill="white"/>
</mask>
<g mask="url(#mask0_11_305)">
</g>
<path d="M195.793 173.471L199.06 176.614C199.418 176.919 199.597 177.386 199.532 177.852L198.774 182.448C198.705 182.848 198.828 183.256 199.107 183.55C199.509 183.984 200.153 184.09 200.673 183.81L203.256 182.43L204.783 181.615C205.497 181.233 206.145 181.685 206.776 182.011L210.133 183.748C210.573 183.976 211.105 183.934 211.504 183.64C211.904 183.346 212.101 182.851 212.014 182.362L211.911 181.785L211.316 178.445C211.2 177.796 211.036 177.141 211.564 176.62L212.364 175.83L214.879 173.347C215.213 173.02 215.347 172.539 215.228 172.087C215.109 171.635 214.756 171.281 214.304 171.162C214.251 171.148 214.197 171.137 214.142 171.129L211.729 170.795L209.528 170.489C209.103 170.43 208.734 170.166 208.542 169.783L206.574 165.86L206.453 165.619C206.233 165.173 205.777 164.892 205.28 164.896C204.783 164.899 204.331 165.186 204.117 165.634L202.573 168.813L202.082 169.825C201.758 170.492 201.085 170.547 200.433 170.646L197.079 171.156L196.5 171.244C196.01 171.319 195.604 171.665 195.454 172.138C195.304 172.61 195.436 173.127 195.793 173.471Z" fill="#FFC562"/>
<mask id="mask1_11_305" style="mask-type:luminance" maskUnits="userSpaceOnUse" x="195" y="164" width="21" height="20">
<path fill-rule="evenodd" clip-rule="evenodd" d="M195.793 173.471L199.06 176.614C199.418 176.919 199.597 177.386 199.532 177.852L198.774 182.448C198.705 182.848 198.828 183.256 199.107 183.55C199.509 183.984 200.153 184.09 200.673 183.81L203.256 182.43L204.783 181.615C205.497 181.233 206.145 181.685 206.776 182.011L210.133 183.748C210.573 183.976 211.105 183.934 211.504 183.64C211.904 183.346 212.101 182.851 212.014 182.362L211.911 181.785L211.316 178.445C211.2 177.796 211.036 177.141 211.564 176.62L212.364 175.83L214.879 173.347C215.213 173.02 215.347 172.539 215.228 172.087C215.109 171.635 214.756 171.281 214.304 171.162C214.251 171.148 214.197 171.137 214.142 171.129L211.729 170.795L209.528 170.489C209.103 170.43 208.734 170.166 208.542 169.783L206.574 165.86L206.453 165.619C206.233 165.173 205.777 164.892 205.28 164.896C204.783 164.899 204.331 165.186 204.117 165.634L202.573 168.813L202.082 169.825C201.758 170.492 201.085 170.547 200.433 170.646L197.079 171.156L196.5 171.244C196.01 171.319 195.604 171.665 195.454 172.138C195.304 172.61 195.436 173.127 195.793 173.471Z" fill="white"/>
</mask>
<g mask="url(#mask1_11_305)">
<path d="M198.172 187.312L204.783 181.615C204.783 181.615 205.823 178.017 210.134 183.748C214.445 189.478 208.884 187.371 208.884 187.371" fill="#D89D35"/>
<path d="M195.392 170.981C203.206 170.572 205.029 171.174 204.117 165.634C203.206 160.094 195.392 165.538 195.392 165.538" fill="#D89D35"/>
</g>
<path d="M208.139 175.565L207.31 176.493C207.263 176.542 207.263 176.62 207.31 176.669C207.359 176.717 207.438 176.717 207.487 176.669L208.316 175.741C208.363 175.692 208.363 175.614 208.316 175.565C208.267 175.517 208.188 175.517 208.139 175.565Z" fill="#D89D35"/>
<path d="M193.521 148.894L190.913 147.391L190.68 147.257C186.612 144.916 183.127 141.684 180.485 137.804L180.462 137.77L178.631 135.085C179.464 134.332 180.315 133.599 181.183 132.886C181.244 132.836 181.305 132.786 181.366 132.737C182.723 131.648 184.651 131.639 186.018 132.714C186.097 132.776 186.174 132.842 186.25 132.912L189.917 136.312L195.113 141.13C196.474 142.39 196.705 144.457 195.656 145.987C195.538 146.16 195.415 146.329 195.294 146.5C194.721 147.311 194.129 148.109 193.521 148.894Z" fill="#FF999A"/>
<path d="M180.427 161.159C179.338 161.288 178.248 160.933 177.444 160.187L176.046 158.89L172.571 155.669L169.489 152.812L168.599 151.987C167.236 150.724 167.007 148.651 168.062 147.121C168.25 146.848 168.446 146.581 168.639 146.311C169.126 145.627 169.626 144.952 170.138 144.286C171.118 143.011 172.142 141.771 173.209 140.567C174.284 139.352 175.401 138.176 176.559 137.039C177.236 136.374 177.927 135.723 178.631 135.086L179.992 137.082L180.485 137.805C180.811 138.282 181.148 138.749 181.498 139.206C183.483 141.801 185.866 144.066 188.558 145.918C189.266 146.405 189.993 146.863 190.739 147.291L193.521 148.894C192.94 149.646 192.344 150.385 191.733 151.112C190.69 152.353 189.604 153.557 188.476 154.723C187.359 155.878 186.202 156.994 185.006 158.071C184.288 158.716 183.557 159.347 182.813 159.962C182.653 160.094 182.495 160.228 182.334 160.357C181.787 160.799 181.126 161.077 180.427 161.159Z" fill="#FE7578"/>
<mask id="mask2_11_305" style="mask-type:luminance" maskUnits="userSpaceOnUse" x="167" y="135" width="27" height="27">
<path fill-rule="evenodd" clip-rule="evenodd" d="M180.427 161.159C179.338 161.288 178.248 160.933 177.444 160.187L176.046 158.89L172.571 155.669L169.489 152.812L168.599 151.987C167.236 150.724 167.007 148.651 168.062 147.121C168.25 146.848 168.446 146.581 168.639 146.311C169.126 145.627 169.626 144.952 170.138 144.286C171.118 143.011 172.142 141.771 173.209 140.567C174.284 139.352 175.401 138.176 176.559 137.039C177.236 136.374 177.927 135.723 178.631 135.086L179.992 137.082L180.485 137.805C180.811 138.282 181.148 138.749 181.498 139.206C183.483 141.801 185.866 144.066 188.558 145.918C189.266 146.405 189.993 146.863 190.739 147.291L193.521 148.894C192.94 149.646 192.344 150.385 191.733 151.112C190.69 152.353 189.604 153.557 188.476 154.723C187.359 155.878 186.202 156.994 185.006 158.071C184.288 158.716 183.557 159.347 182.813 159.962C182.653 160.094 182.495 160.228 182.334 160.357C181.787 160.799 181.126 161.077 180.427 161.159Z" fill="white"/>
</mask>
<g mask="url(#mask2_11_305)">
<path d="M166.447 148.81C181.875 162.175 184.136 157.918 187.783 155.487C191.431 153.057 185.28 163.908 185.28 163.908C185.28 163.908 178.971 165.028 178.592 164.944C178.213 164.86 164.926 152.949 164.926 152.949L163.818 151.829" fill="#E55A61"/>
<path d="M185.43 148.193C183.057 148.28 181.015 146.528 180.741 144.169C180.467 141.811 182.051 139.637 184.381 139.177C186.711 138.717 189.003 140.125 189.645 142.411C190.288 144.697 189.066 147.093 186.838 147.915C186.386 148.081 185.911 148.175 185.43 148.193Z" fill="#E55A61"/>
</g>
<path d="M185.63 147.227C184.334 147.278 183.078 146.773 182.177 145.84C180.676 144.29 180.463 141.902 181.666 140.111C182.869 138.32 185.161 137.615 187.163 138.419C189.166 139.223 190.332 141.318 189.962 143.444C189.592 145.57 187.786 147.147 185.63 147.227Z" fill="#FFC562"/>
<path d="M185.58 145.891C183.902 145.953 182.458 144.714 182.264 143.046C182.07 141.378 183.191 139.841 184.838 139.516C186.486 139.19 188.107 140.186 188.561 141.802C189.016 143.419 188.151 145.114 186.576 145.695C186.256 145.812 185.92 145.879 185.58 145.891Z" fill="#FF9763"/>
<path d="M191.747 141.729C192.052 142.011 192.138 142.46 191.959 142.835C191.922 142.901 191.944 142.986 192.009 143.026C192.076 143.064 192.16 143.042 192.2 142.976C192.441 142.49 192.337 141.905 191.944 141.532C191.811 141.411 191.613 141.608 191.746 141.729H191.747Z" fill="#FE7578"/>
<path d="M173.295 148.875C173.315 149.812 173.763 150.689 174.511 151.254C174.655 151.362 174.794 151.119 174.652 151.012C173.987 150.5 173.591 149.714 173.575 148.875C173.572 148.8 173.511 148.74 173.435 148.74C173.36 148.74 173.298 148.8 173.295 148.875L173.295 148.875Z" fill="#E55A61"/>
<circle cx="185.776" cy="104.594" r="18.1308" fill="#589BF7"/>
<path d="M186.692 91.7048H187.212C187.683 91.7048 188.065 92.0867 188.065 92.5577V100.07H183.487V94.9107C183.487 93.1403 184.922 91.7052 186.692 91.7052L186.692 91.7048Z" fill="#E84B23"/>
<mask id="mask3_11_305" style="mask-type:luminance" maskUnits="userSpaceOnUse" x="183" y="91" width="6" height="10">
<path fill-rule="evenodd" clip-rule="evenodd" d="M186.692 91.7048H187.212C187.683 91.7048 188.065 92.0867 188.065 92.5577V100.07H183.487V94.9107C183.487 93.1403 184.922 91.7052 186.692 91.7052L186.692 91.7048Z" fill="white"/>
</mask>
<g mask="url(#mask3_11_305)">
<ellipse cx="184.092" cy="91.0438" rx="3.97288" ry="2.62848" fill="#FF9763"/>
</g>
<rect x="182.742" y="98.9426" width="6.06789" height="9.44792" rx="1.75594" fill="#97CC64"/>
<mask id="mask4_11_305" style="mask-type:luminance" maskUnits="userSpaceOnUse" x="182" y="98" width="7" height="11">
<rect x="182.742" y="98.9426" width="6.06789" height="9.44792" rx="1.75594" fill="white"/>
</mask>
<g mask="url(#mask4_11_305)">
<path d="M182.742 104.159C182.328 104.88 190.858 105.735 190.282 106.051C189.706 106.367 182.742 107.683 182.742 107.683L181.255 106.051" fill="#75AA3C"/>
</g>
<rect x="181.845" y="105.66" width="7.86064" height="11.824" rx="1.75594" fill="#EFF3FC"/>
<path d="M181.845 107.938H189.706V116.686C189.706 117.127 189.349 117.484 188.908 117.484H182.643C182.431 117.484 182.229 117.4 182.079 117.25C181.929 117.101 181.845 116.898 181.845 116.686V107.938H181.845Z" fill="#3A3530"/>
<mask id="mask5_11_305" style="mask-type:luminance" maskUnits="userSpaceOnUse" x="181" y="107" width="9" height="11">
<path fill-rule="evenodd" clip-rule="evenodd" d="M181.845 107.938H189.706V116.686C189.706 117.127 189.349 117.484 188.908 117.484H182.643C182.431 117.484 182.229 117.4 182.079 117.25C181.929 117.101 181.845 116.898 181.845 116.686V107.938H181.845Z" fill="white"/>
</mask>
<g mask="url(#mask5_11_305)">
<path d="M181.445 113.857C184.033 118.691 190.787 116.697 190.534 117.484C190.282 118.271 182.391 118.409 182.391 118.409L180.119 116.485" fill="#190000"/>
</g>
<path d="M186.644 101.157L186.139 101.554C186.111 101.581 186.096 101.618 186.096 101.657C186.096 101.696 186.112 101.733 186.139 101.76C186.166 101.788 186.203 101.803 186.242 101.803C186.28 101.801 186.317 101.786 186.345 101.76L186.85 101.363C186.878 101.336 186.893 101.299 186.893 101.26C186.893 101.221 186.877 101.184 186.85 101.157C186.823 101.13 186.786 101.114 186.747 101.114C186.709 101.116 186.672 101.131 186.644 101.157V101.157Z" fill="#75AA3C"/>
<path d="M185.855 94.3413L184.704 94.9691C184.538 95.0592 184.686 95.3115 184.851 95.221L186.002 94.5932C186.167 94.5031 186.02 94.2508 185.855 94.3413Z" fill="#BF290C"/>
<path d="M184.283 113.874L184.662 114.072C184.696 114.091 184.736 114.096 184.774 114.087C184.831 114.071 184.873 114.023 184.881 113.965C184.888 113.906 184.86 113.849 184.809 113.819L184.43 113.622C184.396 113.602 184.356 113.597 184.318 113.607C184.261 113.622 184.219 113.67 184.211 113.729C184.204 113.787 184.232 113.844 184.283 113.874V113.874Z" fill="#190000"/>
<circle cx="101.859" cy="111.622" r="26.3369" fill="#9A7ED9"/>
<rect x="94.8279" y="98.8245" width="14.063" height="31.3598" rx="3.96211" fill="#589BF7"/>
<path d="M98.403 93.0588H105.316C105.749 93.0588 106.164 93.2308 106.47 93.5369C106.776 93.843 106.948 94.2582 106.948 94.6911V98.8245H96.7706V94.6911C96.7706 94.2581 96.9426 93.843 97.2487 93.5369C97.5548 93.2307 97.97 93.0588 98.403 93.0588V93.0588Z" fill="#FFC562"/>
<mask id="mask6_11_305" style="mask-type:luminance" maskUnits="userSpaceOnUse" x="96" y="93" width="11" height="6">
<path fill-rule="evenodd" clip-rule="evenodd" d="M98.403 93.0588H105.316C105.749 93.0588 106.164 93.2308 106.47 93.5369C106.776 93.843 106.948 94.2582 106.948 94.6911V98.8245H96.7706V94.6911C96.7706 94.2581 96.9426 93.843 97.2487 93.5369C97.5548 93.2307 97.97 93.0588 98.403 93.0588V93.0588Z" fill="white"/>
</mask>
<g mask="url(#mask6_11_305)">
<path d="M98.4446 98.8244C97.843 98.0184 107.131 98.808 107.168 95.4615C107.205 92.115 109.349 99.7856 109.349 99.7856L103.145 101.139" fill="#D89D35"/>
</g>
<rect x="97.106" y="105.868" width="9.507" height="2.40652" rx="1.20326" fill="#2976DF"/>
<rect x="99.0017" y="109.955" width="5.71548" height="0.676814" rx="0.338407" fill="#2976DF"/>
<rect x="96.5608" y="124.168" width="10.5974" height="0.526445" fill="#2976DF"/>
<path d="M100.058 96.0253L99.7572 96.2258C99.7283 96.2436 99.7069 96.2715 99.6971 96.304C99.688 96.3381 99.6928 96.3744 99.7103 96.4049C99.7468 96.4674 99.827 96.4884 99.8894 96.4519L100.19 96.2514C100.219 96.2335 100.241 96.2057 100.25 96.1731C100.259 96.1391 100.255 96.1028 100.237 96.0722C100.201 96.0098 100.12 95.9888 100.058 96.0253Z" fill="#D89D35"/>
<path d="M103.527 119.595L104.429 118.592C104.479 118.541 104.479 118.459 104.429 118.407C104.378 118.357 104.295 118.357 104.244 118.407L103.341 119.41C103.292 119.461 103.292 119.543 103.341 119.595C103.393 119.645 103.475 119.645 103.527 119.595Z" fill="#2976DF"/>
<path d="M98.5194 127.559C98.59 127.557 98.6459 127.499 98.6459 127.428C98.6459 127.357 98.59 127.3 98.5194 127.297C98.4488 127.3 98.3929 127.357 98.3929 127.428C98.3929 127.499 98.4488 127.557 98.5194 127.559Z" fill="#7B5CB7"/>
<circle cx="48.8924" cy="161.293" r="20.1888" fill="#97CC64"/>
<path d="M46.8153 169.203H50.9696V174.076C50.9696 174.366 50.7343 174.602 50.444 174.602H47.3409C47.0506 174.602 46.8153 174.366 46.8153 174.076V169.203Z" fill="#935738"/>
<mask id="mask7_11_305" style="mask-type:luminance" maskUnits="userSpaceOnUse" x="46" y="169" width="5" height="6">
<path fill-rule="evenodd" clip-rule="evenodd" d="M46.8153 169.203H50.9696V174.076C50.9696 174.366 50.7343 174.602 50.444 174.602H47.3409C47.0506 174.602 46.8153 174.366 46.8153 174.076V169.203Z" fill="white"/>
</mask>
<g mask="url(#mask7_11_305)">
<path d="M46.502 171.902C47.2685 170.66 45.5853 174.408 50.4439 174.602C55.3025 174.796 45.908 175.606 45.908 175.606L44.9362 173.753" fill="#6D3417"/>
</g>
<path d="M53.3726 149.208H44.4123L46.8136 169.22H50.9713L53.3726 149.208Z" fill="#F0F3FC"/>
<mask id="mask8_11_305" style="mask-type:luminance" maskUnits="userSpaceOnUse" x="44" y="149" width="10" height="21">
<path fill-rule="evenodd" clip-rule="evenodd" d="M53.3726 149.208H44.4123L46.8136 169.22H50.9713L53.3726 149.208Z" fill="white"/>
</mask>
<g mask="url(#mask8_11_305)">
<path d="M44.9213 157C45.8541 153.631 45.1787 169.289 50.9695 170.854C56.7603 172.419 41.8047 172.217 41.8047 172.217L41.7507 166.526" fill="#D6DCF2"/>
</g>
<rect x="44.4124" y="147.984" width="8.96002" height="1.22402" fill="#D6DCF2"/>
<path d="M48.5356 151.562C47.961 152.113 47.3535 152.628 46.7164 153.106C46.6109 153.184 46.714 153.364 46.8209 153.284C47.4726 152.797 48.0941 152.271 48.682 151.708C48.7785 151.616 48.6319 151.469 48.5356 151.562Z" fill="#D6DCF2"/>
<path d="M50.5321 161.387L50.3701 161.549C50.3297 161.589 50.3297 161.655 50.3701 161.695C50.3896 161.714 50.4159 161.725 50.4434 161.726C50.4708 161.725 50.497 161.714 50.5166 161.695L50.6786 161.533C50.6978 161.513 50.7087 161.487 50.7091 161.46C50.7089 161.432 50.6979 161.406 50.6786 161.387C50.6592 161.367 50.6329 161.356 50.6054 161.356C50.578 161.357 50.5518 161.367 50.5321 161.387Z" fill="#D6DCF2"/>
<path d="M48.4191 172.411C48.7679 172.329 49.1035 172.199 49.4162 172.024C49.5325 171.959 49.4282 171.78 49.3116 171.845C49.0145 172.011 48.6955 172.135 48.3641 172.212C48.2343 172.242 48.2893 172.442 48.4191 172.411Z" fill="#6D3417"/>
<path d="M220.97 147.568C220.251 146.944 219.209 146.863 218.402 147.367C218.386 147.381 218.372 147.396 218.359 147.413L215.687 150.732C215.677 150.745 215.606 150.7 215.597 150.688C214.848 149.6 213.876 148.685 212.744 148.003L212.74 148.002C211.895 147.234 210.588 147.293 209.815 148.132C209.209 148.979 209.337 150.147 210.112 150.842L210.111 150.843C212.734 153.457 212.024 156.091 211.83 156.656C211.829 156.66 211.825 156.662 211.823 156.665C211.799 156.689 211.778 156.716 211.759 156.744L210.116 158.785C209.877 159.122 209.955 159.588 210.291 159.827L217.404 165.555C217.549 165.685 217.74 165.752 217.935 165.738C218.129 165.725 218.31 165.634 218.436 165.485L226.009 156.079C226.055 156.028 226.099 155.974 226.139 155.918C226.602 155.314 226.66 154.492 226.286 153.829C226.138 153.53 221.414 148.037 221.414 148.037L221.415 148.036C221.355 147.956 221.29 147.879 221.22 147.807L221.199 147.782L221.197 147.781C221.126 147.705 221.05 147.635 220.97 147.569" fill="#FFC562"/>
<mask id="mask9_11_305" style="mask-type:luminance" maskUnits="userSpaceOnUse" x="209" y="147" width="18" height="19">
<path fill-rule="evenodd" clip-rule="evenodd" d="M220.97 147.568C220.251 146.944 219.209 146.863 218.402 147.367C218.386 147.381 218.372 147.396 218.359 147.413L215.687 150.732C215.677 150.745 215.606 150.7 215.597 150.688C214.848 149.6 213.876 148.685 212.744 148.003L212.74 148.002C211.895 147.234 210.588 147.293 209.815 148.132C209.209 148.979 209.337 150.147 210.112 150.842L210.111 150.843C212.734 153.457 212.024 156.091 211.83 156.656C211.829 156.66 211.825 156.662 211.823 156.665C211.799 156.689 211.778 156.716 211.759 156.744L210.116 158.785C209.877 159.122 209.955 159.588 210.291 159.827L217.404 165.555C217.549 165.685 217.74 165.752 217.935 165.738C218.129 165.725 218.31 165.634 218.436 165.485L226.009 156.079C226.055 156.028 226.099 155.974 226.139 155.918C226.602 155.314 226.66 154.492 226.286 153.829C226.138 153.53 221.414 148.037 221.414 148.037L221.415 148.036C221.355 147.956 221.29 147.879 221.22 147.807L221.199 147.782L221.197 147.781C221.126 147.705 221.05 147.635 220.97 147.569" fill="white"/>
</mask>
<g mask="url(#mask9_11_305)">
<path d="M214.223 159.607C214.144 157.321 220.001 163.957 224.772 158.605C229.542 153.253 219.051 170.172 219.051 170.172L214.94 164.237" fill="#D89D35"/>
<path d="M213.943 148.036L215.687 150.731C216.027 151.165 216.192 151.71 216.15 152.259C216.201 153.427 218.402 147.367 218.402 147.367L216.357 147.645" fill="#D89D35"/>
</g>
<rect x="207.081" y="160.534" width="6.13147" height="12.5692" rx="1.45303" transform="rotate(-51.1592 207.081 160.534)" fill="#FE7578"/>
<mask id="mask10_11_305" style="mask-type:luminance" maskUnits="userSpaceOnUse" x="207" y="156" width="14" height="12">
<rect x="207.081" y="160.534" width="6.13147" height="12.5692" rx="1.45303" transform="rotate(-51.1592 207.081 160.534)" fill="white"/>
</mask>
<g mask="url(#mask10_11_305)">
<path d="M212.316 165.071C207.77 162.114 207.379 160.019 209.406 157.648C211.432 155.276 204.431 161.84 204.431 161.84L205.538 163.622" fill="#E55A61"/>
</g>
<circle cx="211.459" cy="160.123" r="1.02175" fill="#EFF3FC"/>
<path d="M216.023 153.063C216.607 152.215 215.411 150.434 215.411 150.434L216.023 153.063Z" fill="#FFC562"/>
<path d="M219.674 151.221C220.044 151.8 220.276 152.457 220.352 153.14C220.367 153.273 220.578 153.275 220.563 153.14C220.486 152.419 220.244 151.726 219.857 151.114C219.784 151 219.601 151.106 219.674 151.221V151.221Z" fill="#D89D35"/>
<path d="M215.683 163.159C216.138 163.683 216.782 164.005 217.474 164.054C217.61 164.064 217.609 163.853 217.474 163.843C216.838 163.794 216.248 163.494 215.832 163.01C215.744 162.906 215.595 163.056 215.683 163.159Z" fill="#E55A61"/>
<path d="M213.975 196.462C213.56 195.84 212.788 195.561 212.071 195.775C212.057 195.782 212.042 195.791 212.03 195.801L209.314 197.759C209.304 197.767 209.26 197.718 209.255 197.707C208.914 196.727 208.368 195.831 207.653 195.079L207.65 195.077C207.169 194.32 206.168 194.092 205.407 194.567C204.771 195.082 204.625 195.993 205.068 196.682L205.067 196.682C206.029 198.114 206.065 199.976 205.159 201.444L205.152 201.449C205.129 201.462 205.107 201.478 205.087 201.496L203.417 202.7C203.166 202.905 203.128 203.275 203.333 203.526L207.529 209.346C207.611 209.475 207.743 209.565 207.893 209.596C208.043 209.626 208.199 209.594 208.325 209.508L216.021 203.959C216.067 203.93 216.111 203.898 216.153 203.864C216.629 203.503 216.844 202.892 216.699 202.312C216.649 202.055 214.214 196.909 214.214 196.909L214.215 196.909C214.186 196.836 214.153 196.764 214.116 196.695L214.105 196.672L214.103 196.67C214.065 196.599 214.022 196.529 213.975 196.463" fill="#FF9763"/>
<mask id="mask11_11_305" style="mask-type:luminance" maskUnits="userSpaceOnUse" x="203" y="194" width="14" height="16">
<path fill-rule="evenodd" clip-rule="evenodd" d="M213.975 196.462C213.56 195.84 212.788 195.561 212.071 195.775C212.057 195.782 212.042 195.791 212.03 195.801L209.314 197.759C209.304 197.767 209.26 197.718 209.255 197.707C208.914 196.727 208.368 195.831 207.653 195.079L207.65 195.077C207.169 194.32 206.168 194.092 205.407 194.567C204.771 195.082 204.625 195.993 205.068 196.682L205.067 196.682C206.029 198.114 206.065 199.976 205.159 201.444L205.152 201.449C205.129 201.462 205.107 201.478 205.087 201.496L203.417 202.7C203.166 202.905 203.128 203.275 203.333 203.526L207.529 209.346C207.611 209.475 207.743 209.565 207.893 209.596C208.043 209.626 208.199 209.594 208.325 209.508L216.021 203.959C216.067 203.93 216.111 203.898 216.153 203.864C216.629 203.503 216.844 202.892 216.699 202.312C216.649 202.055 214.214 196.909 214.214 196.909L214.215 196.909C214.186 196.836 214.153 196.764 214.116 196.695L214.105 196.672L214.103 196.67C214.065 196.599 214.022 196.529 213.975 196.463" fill="white"/>
</mask>
<g mask="url(#mask11_11_305)">
<path d="M206.52 204.4C206.608 202.637 211.145 208.458 214.555 205.999C217.965 203.54 209.471 211.364 209.471 211.364L206.813 207.163" fill="#E84B23"/>
</g>
<rect x="200.754" y="203.393" width="4.81731" height="9.87513" rx="1.14156" transform="rotate(-35.7918 200.754 203.393)" fill="#589BF7"/>
<mask id="mask12_11_305" style="mask-type:luminance" maskUnits="userSpaceOnUse" x="201" y="201" width="9" height="10">
<rect x="200.754" y="203.393" width="4.81731" height="9.87513" rx="1.14156" transform="rotate(-35.7918 200.754 203.393)" fill="white"/>
</mask>
<g mask="url(#mask12_11_305)">
<path d="M203.396 207.575C200.41 202.976 203.394 201.824 204.241 200.879C205.088 199.933 199.717 201.955 199.717 201.955L199.55 203.067L200.707 205.49" fill="#2976DF"/>
</g>
<circle cx="204.156" cy="203.992" r="0.802758" fill="#EFF3FC"/>
<path d="M212.86 201.531C212.996 202.28 212.876 203.053 212.518 203.726C212.467 203.823 212.614 203.909 212.666 203.812C213.045 203.099 213.171 202.28 213.025 201.486C213.005 201.378 212.84 201.423 212.86 201.532L212.86 201.531Z" fill="#E84B23"/>
<path d="M205.079 207.627L205.361 208.018C205.386 208.058 205.437 208.072 205.478 208.049C205.519 208.025 205.532 207.973 205.509 207.932L205.226 207.54C205.202 207.501 205.15 207.487 205.109 207.51C205.069 207.534 205.055 207.586 205.079 207.627H205.079Z" fill="#2976DF"/>
<path d="M94.2194 213.516C82.8829 216.921 86.6579 226.112 86.6579 226.112C86.6579 226.112 100.201 242.969 105.45 235.552C111.682 228.467 119.771 195.981 119.771 195.981C119.771 195.981 119.585 171.203 112.827 173.639C101.859 177.592 96.805 215.304 96.805 215.304L94.2194 213.516Z" fill="#9A7ED9"/>
<mask id="mask13_11_305" style="mask-type:luminance" maskUnits="userSpaceOnUse" x="86" y="173" width="34" height="65">
<path fill-rule="evenodd" clip-rule="evenodd" d="M94.2194 213.516C82.8829 216.921 86.6579 226.112 86.6579 226.112C86.6579 226.112 100.201 242.969 105.45 235.552C111.682 228.467 119.771 195.981 119.771 195.981C119.771 195.981 119.585 171.203 112.827 173.639C101.859 177.592 96.805 215.304 96.805 215.304L94.2194 213.516Z" fill="white"/>
</mask>
<g mask="url(#mask13_11_305)">
<path d="M111.47 191.9C100.812 188.959 116.121 229.231 102.913 237.872C89.7042 246.512 121.889 241.229 121.889 241.229L122.121 205.448" fill="#6F4EB9"/>
<path d="M96.4595 195.314C96.1658 195.235 95.8527 195.276 95.5893 195.428C95.513 195.487 95.4367 195.546 95.3603 195.605C95.2366 195.734 95.1454 195.89 95.0942 196.061L95.0992 196.05C94.9796 196.314 94.832 196.565 94.659 196.798C94.4826 197.016 94.2838 197.215 94.0659 197.392C93.8647 197.611 93.7475 197.894 93.735 198.191C93.7372 198.49 93.8558 198.776 94.0659 198.99C94.2782 199.201 94.5653 199.32 94.8648 199.32C94.965 199.307 95.0651 199.294 95.1651 199.28C95.3536 199.228 95.5255 199.128 95.6637 198.99C96.3957 198.391 96.9448 197.599 97.2486 196.704C97.2955 196.559 97.3024 196.403 97.2686 196.254C97.2621 196.104 97.2159 195.96 97.1348 195.834C96.9844 195.581 96.7427 195.395 96.4595 195.314Z" fill="#6F4EB9"/>
<path d="M86.2905 186.172C86.0658 185.773 85.6161 185.558 85.1648 185.632C85.0155 185.639 84.8705 185.685 84.745 185.766C84.6687 185.825 84.5925 185.884 84.5165 185.943C84.378 186.081 84.2779 186.253 84.2259 186.441C84.2123 186.542 84.1991 186.642 84.1854 186.742C84.1852 186.942 84.2385 187.139 84.3398 187.312C84.4459 187.524 84.5519 187.736 84.6578 187.948C84.8823 188.347 85.332 188.562 85.7833 188.487C85.9327 188.481 86.0776 188.435 86.2031 188.353L86.4317 188.177C86.5701 188.039 86.6703 187.867 86.7222 187.678C86.7358 187.578 86.7493 187.478 86.7626 187.378C86.7629 187.177 86.7097 186.981 86.6084 186.808C86.5023 186.596 86.3963 186.384 86.2905 186.172Z" fill="#6F4EB9"/>
<path d="M98.0273 204.946C97.8026 204.547 97.3529 204.332 96.9016 204.406C96.7523 204.413 96.6073 204.459 96.4818 204.54L96.2532 204.717C96.1148 204.855 96.0147 205.027 95.9627 205.215C95.9491 205.316 95.9359 205.416 95.9222 205.516C95.922 205.716 95.9753 205.913 96.0765 206.086C96.1826 206.298 96.2886 206.51 96.3946 206.722C96.6191 207.121 97.0689 207.336 97.5201 207.262C97.6695 207.255 97.8144 207.209 97.9399 207.128L98.1685 206.951C98.3069 206.813 98.4071 206.641 98.459 206.452C98.4726 206.352 98.486 206.252 98.4994 206.152C98.4997 205.952 98.4465 205.755 98.3452 205.582C98.2391 205.37 98.1332 205.158 98.0273 204.946Z" fill="#6F4EB9"/>
<path d="M101.912 230.475C101.836 230.416 101.759 230.357 101.683 230.298C101.51 230.197 101.313 230.144 101.113 230.144C101.013 230.158 100.913 230.171 100.812 230.184C100.624 230.236 100.452 230.337 100.314 230.475L99.2536 231.323C98.8296 231.771 98.8296 232.473 99.2536 232.921L99.4826 233.097C99.6554 233.199 99.8522 233.252 100.053 233.252C100.153 233.238 100.253 233.225 100.353 233.211C100.542 233.159 100.713 233.059 100.851 232.921L101.912 232.073C102.336 231.625 102.336 230.923 101.912 230.475H101.912Z" fill="#6F4EB9"/>
<path d="M99.2078 221.215C99.4266 221.416 99.7097 221.533 100.007 221.545C100.107 221.532 100.207 221.519 100.307 221.505C100.496 221.453 100.667 221.353 100.806 221.215C100.864 221.138 100.923 221.062 100.982 220.986C101.083 220.813 101.137 220.616 101.137 220.415V219.885C101.12 219.268 100.624 218.772 100.007 218.756L99.7064 218.796C99.5179 218.848 99.3462 218.948 99.2079 219.086C99.1491 219.163 99.0902 219.239 99.0312 219.315C98.9299 219.488 98.8767 219.685 98.8772 219.886V220.416C98.8895 220.713 99.0067 220.996 99.2079 221.215L99.2078 221.215Z" fill="#6F4EB9"/>
<path d="M118.107 215.917C117.859 214.963 117.612 214.009 117.365 213.055C117.257 212.666 116.951 212.363 116.56 212.262C116.169 212.16 115.754 212.275 115.471 212.562C115.187 212.85 115.079 213.266 115.186 213.656C115.433 214.61 115.681 215.564 115.928 216.519C116.094 217.12 116.716 217.473 117.318 217.307C117.919 217.142 118.273 216.519 118.107 215.918V215.917Z" fill="#6F4EB9"/>
<path d="M108.291 194.162C107.937 193.688 107.634 193.178 107.389 192.64C107.24 192.386 106.998 192.199 106.714 192.121C106.42 192.043 106.107 192.084 105.844 192.235C105.59 192.384 105.404 192.626 105.325 192.91C105.311 193.01 105.298 193.11 105.284 193.21C105.284 193.411 105.337 193.607 105.439 193.78C105.955 194.916 106.702 195.932 107.632 196.764C107.847 196.97 108.132 197.088 108.431 197.095C108.73 197.093 109.017 196.974 109.23 196.764C109.442 196.552 109.561 196.265 109.561 195.965C109.561 195.665 109.442 195.378 109.23 195.166C108.89 194.858 108.576 194.522 108.291 194.162Z" fill="#6F4EB9"/>
</g>
<path d="M110.262 190.852C109.972 214.46 122.236 233.094 117.832 252.783C141.107 262.985 183.893 256.472 175.922 245.951C167.951 235.429 175.091 177.268 173.815 173.47C172.54 169.673 145.967 153.818 112.827 173.639" fill="#9A7ED9"/>
<mask id="mask14_11_305" style="mask-type:luminance" maskUnits="userSpaceOnUse" x="110" y="163" width="67" height="95">
<path fill-rule="evenodd" clip-rule="evenodd" d="M110.262 190.852C109.972 214.46 122.236 233.094 117.832 252.783C141.107 262.985 183.893 256.472 175.922 245.951C167.951 235.429 175.091 177.268 173.815 173.47C172.54 169.673 145.967 153.818 112.827 173.639" fill="white"/>
</mask>
<g mask="url(#mask14_11_305)">
<path d="M111.929 193.184C111.389 192.878 110.703 193.058 110.383 193.589C109.752 194.8 109.322 196.104 109.108 197.452C109.038 197.746 109.078 198.055 109.221 198.322C109.373 198.581 109.62 198.769 109.91 198.845C110.2 198.921 110.509 198.878 110.767 198.727C111.025 198.582 111.212 198.338 111.286 198.052C111.427 197.139 111.675 196.246 112.025 195.391C112.123 195.168 112.223 194.946 112.334 194.73C112.637 194.189 112.458 193.506 111.929 193.184Z" fill="#6F4EB9"/>
<path d="M129.897 209.599C129.357 209.293 128.672 209.473 128.351 210.004C127.721 211.214 127.29 212.518 127.076 213.866C127.006 214.16 127.047 214.47 127.19 214.736C127.341 214.995 127.589 215.183 127.879 215.259C128.169 215.335 128.477 215.293 128.736 215.142C128.993 214.996 129.18 214.752 129.255 214.466C129.396 213.554 129.644 212.66 129.993 211.806C130.091 211.583 130.191 211.361 130.302 211.144C130.605 210.604 130.426 209.921 129.897 209.599Z" fill="#6F4EB9"/>
<path d="M133.28 225.9C132.74 225.594 132.055 225.774 131.734 226.305C131.104 227.515 130.673 228.82 130.459 230.167C130.389 230.462 130.43 230.771 130.573 231.038C130.724 231.296 130.972 231.485 131.262 231.561C131.552 231.637 131.86 231.594 132.119 231.443C132.376 231.297 132.563 231.054 132.638 230.768C132.779 229.855 133.027 228.962 133.376 228.107C133.474 227.884 133.574 227.662 133.685 227.445C133.988 226.905 133.809 226.222 133.28 225.9Z" fill="#6F4EB9"/>
<path d="M126.298 183.153C126.048 182.912 125.784 182.688 125.505 182.481C125.379 182.4 125.235 182.354 125.085 182.347C124.637 182.293 124.198 182.503 123.96 182.887C123.922 182.977 123.883 183.067 123.846 183.156C123.792 183.353 123.792 183.56 123.846 183.757C123.884 183.847 123.922 183.937 123.96 184.027C124.058 184.194 124.197 184.334 124.365 184.432L124.151 184.267C124.537 184.567 124.884 184.914 125.184 185.301C125.129 185.23 125.074 185.159 125.018 185.087C125.243 185.486 125.693 185.701 126.144 185.627C126.293 185.62 126.438 185.574 126.564 185.493C126.64 185.434 126.716 185.375 126.793 185.316C126.931 185.178 127.031 185.006 127.083 184.817C127.097 184.717 127.11 184.617 127.124 184.517C127.124 184.317 127.071 184.12 126.969 183.947C126.763 183.668 126.539 183.403 126.298 183.153Z" fill="#6F4EB9"/>
<path d="M137.45 160.908C137.15 160.904 136.861 161.024 136.651 161.239C136.348 161.609 136.078 162.005 135.844 162.422C135.617 162.845 135.427 163.287 135.277 163.743C135.155 164.186 135.313 164.66 135.678 164.94C136.042 165.22 136.54 165.251 136.937 165.019C137.184 164.863 137.368 164.623 137.456 164.344C137.492 164.234 137.536 164.127 137.578 164.019C137.786 163.547 138.049 163.102 138.361 162.691C138.325 162.737 138.289 162.783 138.254 162.83C138.453 162.612 138.568 162.332 138.58 162.038C138.578 161.739 138.459 161.452 138.249 161.239C138.037 161.028 137.75 160.909 137.45 160.908Z" fill="#6F4EB9"/>
<path d="M142.905 180.832C142.611 180.753 142.298 180.794 142.035 180.946C141.958 181.005 141.882 181.064 141.806 181.123C141.682 181.252 141.591 181.408 141.54 181.579L141.545 181.568C141.319 182.095 140.964 182.557 140.511 182.91C140.31 183.128 140.193 183.411 140.18 183.708C140.183 184.008 140.301 184.294 140.511 184.507C140.724 184.719 141.011 184.837 141.31 184.838C141.41 184.825 141.51 184.811 141.61 184.798C141.799 184.746 141.971 184.646 142.109 184.507C142.841 183.909 143.39 183.117 143.694 182.222C143.741 182.076 143.748 181.921 143.714 181.772C143.708 181.622 143.661 181.477 143.58 181.351C143.43 181.098 143.188 180.913 142.905 180.832Z" fill="#6F4EB9"/>
<path d="M116.676 175.607C116.382 175.527 116.069 175.568 115.806 175.721C115.729 175.779 115.653 175.838 115.577 175.897C115.453 176.026 115.362 176.182 115.311 176.354L115.316 176.342C115.196 176.606 115.049 176.857 114.876 177.09C114.699 177.308 114.5 177.507 114.282 177.684C114.081 177.903 113.964 178.186 113.952 178.483C113.954 178.782 114.072 179.069 114.282 179.282C114.495 179.493 114.782 179.612 115.081 179.613C115.182 179.599 115.282 179.586 115.382 179.572C115.57 179.52 115.742 179.42 115.88 179.282C116.612 178.684 117.161 177.892 117.465 176.996C117.512 176.851 117.519 176.695 117.485 176.546C117.479 176.397 117.432 176.252 117.351 176.126C117.201 175.873 116.959 175.687 116.676 175.607Z" fill="#6F4EB9"/>
<path d="M161.316 170.715C161.023 170.636 160.71 170.677 160.446 170.829C160.37 170.888 160.294 170.947 160.217 171.006C160.094 171.134 160.002 171.291 159.951 171.462L159.956 171.451C159.731 171.978 159.375 172.44 158.923 172.793C158.722 173.011 158.604 173.294 158.592 173.591C158.594 173.89 158.713 174.177 158.923 174.39C159.135 174.601 159.422 174.72 159.722 174.721C159.822 174.708 159.922 174.694 160.022 174.681C160.211 174.629 160.382 174.529 160.521 174.39C161.253 173.792 161.802 173 162.105 172.105C162.152 171.959 162.159 171.804 162.125 171.654C162.119 171.505 162.073 171.36 161.992 171.235C161.841 170.981 161.6 170.795 161.316 170.715Z" fill="#6F4EB9"/>
<path d="M151.148 161.572C150.923 161.174 150.473 160.958 150.022 161.033C149.873 161.039 149.728 161.086 149.602 161.167C149.526 161.226 149.45 161.285 149.374 161.344C149.235 161.482 149.135 161.654 149.083 161.842C149.069 161.942 149.056 162.042 149.043 162.142C149.042 162.343 149.096 162.54 149.197 162.713C149.303 162.925 149.409 163.137 149.515 163.349C149.739 163.747 150.189 163.963 150.64 163.888C150.79 163.882 150.935 163.835 151.06 163.754L151.289 163.577C151.427 163.439 151.527 163.267 151.579 163.079C151.593 162.979 151.606 162.879 151.62 162.779C151.62 162.578 151.567 162.381 151.466 162.208C151.359 161.996 151.253 161.784 151.148 161.572Z" fill="#6F4EB9"/>
<path d="M162.884 180.346C162.66 179.948 162.21 179.732 161.758 179.807C161.609 179.813 161.464 179.86 161.339 179.941C161.262 180 161.186 180.059 161.11 180.118C160.971 180.256 160.871 180.427 160.819 180.616C160.806 180.716 160.792 180.816 160.779 180.916C160.778 181.117 160.832 181.314 160.933 181.487C161.039 181.699 161.145 181.911 161.251 182.123C161.476 182.521 161.925 182.737 162.377 182.662C162.526 182.656 162.671 182.609 162.796 182.528L163.025 182.351C163.163 182.213 163.264 182.041 163.315 181.853C163.329 181.753 163.343 181.653 163.356 181.553C163.356 181.352 163.303 181.155 163.202 180.982C163.096 180.77 162.99 180.558 162.884 180.346Z" fill="#6F4EB9"/>
<path d="M146.411 206.724C146.235 206.582 146.058 206.441 145.881 206.3C145.433 205.875 144.732 205.875 144.284 206.3C144.225 206.376 144.166 206.452 144.107 206.529C144.005 206.702 143.952 206.898 143.953 207.099L143.993 207.399C144.045 207.588 144.145 207.759 144.284 207.898L144.814 208.322C145.262 208.746 145.963 208.746 146.411 208.322C146.47 208.245 146.529 208.169 146.588 208.093C146.689 207.92 146.743 207.723 146.742 207.523C146.729 207.423 146.715 207.322 146.702 207.222C146.65 207.034 146.55 206.862 146.411 206.724Z" fill="#6F4EB9"/>
<path d="M166.769 205.876C166.693 205.817 166.616 205.758 166.54 205.699C166.367 205.598 166.17 205.544 165.97 205.545C165.869 205.558 165.769 205.572 165.669 205.585C165.481 205.637 165.309 205.737 165.171 205.876L164.111 206.724C163.687 207.172 163.687 207.873 164.111 208.322C164.187 208.38 164.263 208.439 164.339 208.498C164.512 208.599 164.709 208.653 164.91 208.653C165.01 208.639 165.11 208.625 165.21 208.612C165.398 208.56 165.57 208.46 165.708 208.322L166.769 207.473C167.193 207.025 167.193 206.324 166.769 205.876H166.769Z" fill="#6F4EB9"/>
<path d="M164.065 196.615C164.284 196.816 164.567 196.934 164.864 196.946C164.964 196.933 165.064 196.919 165.164 196.906C165.352 196.854 165.524 196.754 165.662 196.615C165.721 196.539 165.78 196.463 165.839 196.386C165.94 196.213 165.994 196.016 165.993 195.816V195.286C165.977 194.669 165.481 194.173 164.864 194.156L164.563 194.197C164.375 194.249 164.203 194.349 164.065 194.487C164.006 194.563 163.947 194.64 163.888 194.716C163.787 194.889 163.734 195.086 163.734 195.286V195.816C163.746 196.113 163.864 196.396 164.065 196.615L164.065 196.615Z" fill="#6F4EB9"/>
<path d="M173.148 169.563C172.794 169.089 172.491 168.578 172.246 168.04C172.097 167.786 171.855 167.6 171.571 167.521C171.277 167.443 170.964 167.484 170.701 167.635C170.447 167.785 170.261 168.027 170.182 168.31C170.168 168.411 170.155 168.511 170.141 168.611C170.141 168.811 170.194 169.008 170.295 169.181C170.812 170.317 171.559 171.333 172.489 172.165C172.704 172.371 172.989 172.489 173.288 172.495C173.587 172.493 173.874 172.375 174.087 172.165C174.299 171.953 174.418 171.665 174.418 171.366C174.418 171.066 174.299 170.779 174.087 170.567C173.747 170.259 173.433 169.923 173.148 169.563Z" fill="#6F4EB9"/>
<path d="M135.183 247.581C134.643 247.275 133.958 247.455 133.637 247.986C133.007 249.196 132.576 250.501 132.362 251.848C132.292 252.142 132.333 252.452 132.476 252.718C132.627 252.977 132.875 253.165 133.165 253.241C133.455 253.317 133.763 253.275 134.022 253.124C134.279 252.978 134.467 252.735 134.541 252.449C134.682 251.536 134.93 250.643 135.279 249.788C135.378 249.565 135.477 249.343 135.589 249.126C135.892 248.586 135.712 247.903 135.183 247.581Z" fill="#6F4EB9"/>
<path d="M149.552 237.55C149.303 237.309 149.038 237.084 148.76 236.878C148.634 236.797 148.489 236.75 148.34 236.744C147.892 236.689 147.453 236.9 147.214 237.283C147.176 237.373 147.138 237.463 147.101 237.553C147.047 237.749 147.047 237.957 147.101 238.154C147.138 238.243 147.176 238.333 147.214 238.424C147.313 238.591 147.452 238.73 147.619 238.829L147.406 238.663C147.792 238.963 148.139 239.311 148.438 239.698C148.383 239.626 148.328 239.555 148.273 239.484C148.498 239.882 148.947 240.098 149.399 240.023C149.548 240.017 149.693 239.97 149.818 239.889C149.895 239.83 149.971 239.772 150.047 239.713C150.186 239.574 150.286 239.403 150.338 239.214C150.351 239.114 150.365 239.014 150.378 238.914C150.379 238.713 150.325 238.516 150.224 238.344C150.017 238.065 149.793 237.8 149.552 237.55Z" fill="#6F4EB9"/>
<path d="M160.705 215.305C160.405 215.301 160.116 215.42 159.906 215.636C159.603 216.006 159.332 216.402 159.098 216.819C158.871 217.242 158.682 217.684 158.532 218.14C158.409 218.583 158.568 219.056 158.932 219.336C159.297 219.616 159.795 219.648 160.191 219.416C160.439 219.259 160.623 219.02 160.71 218.74C160.747 218.63 160.79 218.523 160.832 218.415C161.04 217.944 161.303 217.498 161.615 217.088C161.579 217.133 161.544 217.18 161.508 217.226C161.707 217.009 161.823 216.728 161.835 216.434C161.832 216.135 161.714 215.849 161.504 215.635C161.291 215.424 161.004 215.306 160.705 215.305Z" fill="#6F4EB9"/>
<path d="M166.159 235.229C165.866 235.15 165.553 235.191 165.289 235.343C165.213 235.402 165.137 235.461 165.06 235.519C164.937 235.648 164.845 235.805 164.794 235.976L164.799 235.965C164.574 236.492 164.218 236.954 163.766 237.306C163.565 237.525 163.447 237.808 163.435 238.105C163.437 238.404 163.556 238.691 163.766 238.904C163.978 239.115 164.265 239.234 164.565 239.235C164.665 239.222 164.765 239.208 164.865 239.195C165.054 239.143 165.225 239.042 165.364 238.904C166.096 238.306 166.645 237.514 166.949 236.619C166.995 236.473 167.002 236.318 166.969 236.168C166.962 236.019 166.916 235.874 166.835 235.749C166.684 235.495 166.443 235.309 166.159 235.229Z" fill="#6F4EB9"/>
<path d="M139.931 230.003C139.637 229.924 139.324 229.965 139.06 230.117L138.831 230.294C138.708 230.423 138.616 230.579 138.565 230.75L138.57 230.739C138.451 231.003 138.303 231.254 138.13 231.487C137.954 231.705 137.755 231.904 137.537 232.081C137.336 232.3 137.218 232.583 137.206 232.88C137.208 233.179 137.327 233.466 137.537 233.679C137.749 233.89 138.036 234.009 138.336 234.009C138.436 233.996 138.536 233.983 138.636 233.969C138.825 233.917 138.996 233.817 139.135 233.679C139.867 233.08 140.416 232.288 140.72 231.393C140.766 231.248 140.773 231.092 140.74 230.943C140.733 230.793 140.687 230.648 140.606 230.523C140.455 230.27 140.214 230.084 139.931 230.003Z" fill="#6F4EB9"/>
<path d="M174.402 215.969C174.177 215.57 173.728 215.355 173.276 215.429C173.127 215.436 172.982 215.482 172.856 215.563C172.78 215.622 172.704 215.681 172.628 215.74C172.489 215.878 172.389 216.05 172.337 216.238C172.324 216.338 172.311 216.439 172.297 216.539C172.297 216.739 172.35 216.936 172.451 217.109C172.557 217.321 172.663 217.533 172.769 217.745C172.994 218.143 173.444 218.359 173.895 218.284C174.044 218.278 174.189 218.232 174.315 218.15L174.543 217.974C174.682 217.836 174.782 217.664 174.834 217.475C174.847 217.375 174.861 217.275 174.874 217.175C174.874 216.974 174.821 216.778 174.72 216.605C174.614 216.393 174.508 216.181 174.402 215.969Z" fill="#6F4EB9"/>
<path d="M157.316 165.399C157.316 174.97 148.16 182.636 139.613 182.636C131.066 182.636 126.363 174.97 126.363 165.399C126.363 155.828 133.293 148.069 141.84 148.069C150.387 148.069 157.316 155.828 157.316 165.399Z" fill="#F0F3FC"/>
<ellipse cx="140.65" cy="161.79" rx="17.3588" ry="13.215" transform="rotate(-82.003 140.65 161.79)" fill="#FF9763"/>
<path d="M158.925 189.656C145.503 191.215 182.007 226.335 165.421 227.988C148.834 229.641 146.121 231.072 146.121 231.072C138.038 235.729 178.239 251.837 178.776 252.069C179.314 252.3 189.594 223.113 189.594 223.113L181.083 201.783" fill="#6F4EB9"/>
<path d="M127.841 223.611C108.829 222.843 133.396 244.985 114.281 252.274L110.546 250.315C131.326 247.013 103.943 220.282 127.144 222.2L127.841 223.611Z" fill="#97CC64"/>
<path d="M128.75 219.873C144.482 202.882 123.563 192.868 126.12 217.975L128.75 219.873Z" fill="#F08059"/>
<path d="M126.443 221.215C110.712 238.206 131.63 248.221 129.074 223.113L126.443 221.215Z" fill="#F08059"/>
<path d="M126.765 219.067C108.415 197.347 103.663 219.678 125.597 221.747L126.765 219.067Z" fill="#F08059"/>
<path d="M128.429 222.021C146.779 243.741 151.53 221.41 129.596 219.341L128.429 222.021Z" fill="#F08059"/>
<path d="M127.824 219.025C125.973 191.653 107.821 200.361 125.138 219.578L127.824 219.025Z" fill="#F08059"/>
<path d="M127.369 222.063C129.221 249.435 147.373 240.727 130.055 221.51L127.369 222.063Z" fill="#F08059"/>
<path d="M126.193 219.974C102.093 216.63 113.525 239.502 127.227 223.211L126.193 219.974Z" fill="#F08059"/>
<path d="M129.001 221.114C153.1 224.458 141.668 201.586 127.966 217.877L129.001 221.114Z" fill="#F08059"/>
<ellipse cx="127.459" cy="220.471" rx="6.32787" ry="8.04132" transform="rotate(-28.0666 127.459 220.471)" fill="#F0F3FC"/>
<path d="M116.459 240.706C105.341 241.63 105.079 228.628 105.079 228.628C105.079 228.628 119.267 231.545 116.459 240.706Z" fill="#97CC64"/>
<path d="M111.96 247.169C131.84 266.731 183.486 252.099 178.339 243.828C173.191 235.558 184.218 253.795 184.218 253.795L174.888 262.49L104.273 263.338" fill="#6F4EB9"/>
</g>
<path d="M174.808 231.94C170.448 230.654 165.925 230.007 161.379 230.018C161.379 230.018 158.811 231.815 162.318 233.091C162.318 233.091 162.627 233.405 160.936 233.091C154.32 231.861 149.451 229.228 148.834 229.641C148.129 230.113 147.869 230.638 148.13 230.753C147.484 230.3 146.595 230.441 146.121 231.072C145.017 232.339 155.587 237.909 159.307 238.653C164.693 239.665 170.222 239.653 175.603 238.617C182.192 237.342 174.808 231.94 174.808 231.94Z" fill="#FF9763"/>
<mask id="mask15_11_305" style="mask-type:luminance" maskUnits="userSpaceOnUse" x="146" y="229" width="33" height="11">
<path fill-rule="evenodd" clip-rule="evenodd" d="M174.808 231.94C170.448 230.654 165.925 230.007 161.379 230.018C161.379 230.018 158.811 231.815 162.318 233.091C162.318 233.091 162.627 233.405 160.936 233.091C154.32 231.861 149.451 229.228 148.834 229.641C148.129 230.113 147.869 230.638 148.13 230.753C147.484 230.3 146.595 230.441 146.121 231.072C145.017 232.339 155.587 237.909 159.307 238.653C164.693 239.665 170.222 239.653 175.603 238.617C182.192 237.342 174.808 231.94 174.808 231.94Z" fill="white"/>
</mask>
<g mask="url(#mask15_11_305)">
<path d="M171.128 231.016C165.729 231.461 173.988 236.864 166.733 240.723C159.478 244.582 174.727 243.766 174.727 243.766L177.32 234.319" fill="#E84B23"/>
</g>
<path d="M170.114 170.096C178.776 174.5 199.246 210.581 199.246 210.581L181.083 231.921L159.676 188.277" fill="#9A7ED9"/>
<mask id="mask16_11_305" style="mask-type:luminance" maskUnits="userSpaceOnUse" x="159" y="170" width="41" height="62">
<path fill-rule="evenodd" clip-rule="evenodd" d="M170.114 170.096C178.776 174.5 199.246 210.581 199.246 210.581L181.083 231.921L159.676 188.277" fill="white"/>
</mask>
<g mask="url(#mask16_11_305)">
<path d="M166.072 194.691C165.532 194.385 164.847 194.565 164.526 195.096C163.896 196.306 163.465 197.61 163.251 198.958C163.181 199.252 163.222 199.562 163.365 199.828C163.516 200.087 163.764 200.275 164.054 200.351C164.344 200.427 164.652 200.385 164.911 200.234C165.168 200.088 165.355 199.845 165.43 199.558C165.571 198.646 165.819 197.753 166.168 196.898C166.266 196.675 166.366 196.453 166.477 196.236C166.78 195.696 166.601 195.013 166.072 194.691Z" fill="#6F4EB9"/>
<path d="M184.04 211.105C183.5 210.799 182.815 210.979 182.495 211.51C181.864 212.72 181.433 214.025 181.219 215.372C181.15 215.667 181.19 215.976 181.333 216.243C181.484 216.501 181.732 216.689 182.022 216.766C182.312 216.842 182.62 216.799 182.879 216.648C183.136 216.502 183.324 216.259 183.398 215.973C183.539 215.06 183.787 214.167 184.137 213.312C184.235 213.089 184.334 212.867 184.446 212.65C184.749 212.11 184.569 211.427 184.04 211.105Z" fill="#6F4EB9"/>
<path d="M187.423 227.406C186.883 227.101 186.198 227.28 185.877 227.812C185.247 229.022 184.816 230.326 184.602 231.674C184.532 231.968 184.573 232.278 184.716 232.544C184.867 232.803 185.115 232.991 185.405 233.067C185.695 233.143 186.003 233.101 186.262 232.949C186.519 232.804 186.707 232.56 186.781 232.274C186.922 231.361 187.17 230.468 187.519 229.613C187.618 229.391 187.717 229.169 187.829 228.952C188.132 228.412 187.952 227.728 187.423 227.406Z" fill="#6F4EB9"/>
<path d="M180.441 184.66C180.192 184.419 179.927 184.194 179.648 183.988C179.523 183.906 179.378 183.86 179.229 183.854C178.78 183.799 178.341 184.01 178.103 184.393C178.065 184.483 178.027 184.573 177.989 184.663C177.935 184.859 177.935 185.067 177.989 185.263C178.027 185.353 178.065 185.443 178.103 185.533C178.201 185.701 178.341 185.84 178.508 185.938L178.294 185.773C178.681 186.073 179.028 186.421 179.327 186.807C179.272 186.736 179.217 186.665 179.162 186.594C179.386 186.992 179.836 187.208 180.287 187.133C180.437 187.127 180.582 187.08 180.707 186.999L180.936 186.822C181.074 186.684 181.175 186.512 181.227 186.324C181.24 186.224 181.253 186.124 181.267 186.024C181.267 185.823 181.214 185.626 181.113 185.453C180.906 185.175 180.682 184.909 180.441 184.66Z" fill="#6F4EB9"/>
<path d="M197.048 182.339C196.755 182.259 196.441 182.3 196.178 182.452C196.102 182.511 196.025 182.57 195.949 182.629C195.825 182.758 195.734 182.914 195.683 183.086L195.688 183.074C195.568 183.338 195.421 183.589 195.248 183.822C195.071 184.04 194.872 184.239 194.655 184.416C194.453 184.635 194.336 184.918 194.324 185.215C194.326 185.514 194.444 185.801 194.655 186.014C194.867 186.225 195.154 186.344 195.453 186.345C195.554 186.331 195.654 186.318 195.754 186.304C195.942 186.252 196.114 186.152 196.252 186.014C196.984 185.415 197.534 184.624 197.837 183.728C197.884 183.583 197.891 183.427 197.857 183.278C197.851 183.129 197.805 182.984 197.723 182.858C197.573 182.605 197.331 182.419 197.048 182.339Z" fill="#6F4EB9"/>
<path d="M170.819 177.113C170.526 177.034 170.213 177.075 169.949 177.227C169.873 177.286 169.797 177.345 169.72 177.404C169.596 177.533 169.505 177.689 169.454 177.86L169.459 177.849C169.234 178.376 168.878 178.838 168.426 179.191C168.225 179.41 168.107 179.692 168.095 179.989C168.097 180.289 168.216 180.575 168.426 180.788C168.638 181 168.925 181.118 169.225 181.119C169.325 181.106 169.425 181.092 169.525 181.079C169.714 181.027 169.885 180.927 170.024 180.788C170.756 180.19 171.305 179.398 171.608 178.503C171.655 178.357 171.662 178.202 171.628 178.053C171.622 177.903 171.576 177.758 171.495 177.633C171.344 177.38 171.103 177.194 170.819 177.113Z" fill="#6F4EB9"/>
<path d="M200.555 208.23C200.378 208.089 200.201 207.947 200.024 207.806C199.577 207.382 198.875 207.382 198.427 207.806C198.368 207.882 198.309 207.959 198.25 208.035C198.149 208.208 198.096 208.405 198.096 208.605L198.136 208.906C198.188 209.094 198.289 209.266 198.427 209.404C198.603 209.545 198.78 209.687 198.957 209.828C199.405 210.252 200.107 210.252 200.555 209.828L200.731 209.599C200.833 209.426 200.886 209.23 200.886 209.029C200.872 208.929 200.859 208.829 200.845 208.729C200.793 208.54 200.693 208.368 200.555 208.23Z" fill="#6F4EB9"/>
<path d="M193.796 199.366C194.115 206.151 189.804 205.035 189.804 205.035L187.541 222.586L182.769 198.411" fill="#6F4EB9"/>
</g>
<path d="M183.071 216.192C178.895 220.388 175.009 224.864 171.441 229.588C169.847 234.366 174.859 241.912 174.859 241.912C174.859 241.912 207.453 222.161 198.687 209.605" fill="#9A7ED9"/>
<mask id="mask17_11_305" style="mask-type:luminance" maskUnits="userSpaceOnUse" x="171" y="209" width="30" height="33">
<path fill-rule="evenodd" clip-rule="evenodd" d="M183.071 216.192C178.895 220.388 175.009 224.864 171.441 229.588C169.847 234.366 174.859 241.912 174.859 241.912C174.859 241.912 207.453 222.161 198.687 209.605" fill="white"/>
</mask>
<g mask="url(#mask17_11_305)">
<path d="M169.295 231.765C179.082 233.391 190.654 234.123 188.39 227.583C186.127 221.042 172.1 222.062 172.1 222.062" fill="#9A7ED9"/>
<path d="M171.371 205.926C171.077 205.847 170.764 205.888 170.5 206.04L170.271 206.217C170.148 206.346 170.056 206.502 170.005 206.673L170.01 206.662C169.891 206.926 169.743 207.177 169.57 207.41C169.394 207.628 169.195 207.827 168.977 208.004C168.776 208.222 168.659 208.505 168.646 208.802C168.648 209.102 168.767 209.388 168.977 209.601C169.189 209.813 169.476 209.931 169.776 209.932C169.876 209.919 169.976 209.905 170.076 209.892C170.265 209.84 170.437 209.74 170.575 209.601C171.307 209.003 171.856 208.211 172.16 207.316C172.207 207.17 172.213 207.015 172.18 206.866C172.173 206.716 172.127 206.571 172.046 206.445C171.895 206.192 171.654 206.007 171.371 205.926Z" fill="#6F4EB9"/>
<path d="M174.877 231.818C174.7 231.677 174.523 231.535 174.347 231.394C173.899 230.969 173.197 230.969 172.749 231.394C172.69 231.47 172.631 231.546 172.572 231.623C172.471 231.796 172.418 231.993 172.418 232.193L172.459 232.493C172.511 232.682 172.611 232.854 172.749 232.992C172.926 233.133 173.102 233.275 173.279 233.416C173.727 233.84 174.429 233.84 174.877 233.416L175.054 233.187C175.155 233.014 175.208 232.817 175.208 232.617C175.195 232.517 175.181 232.417 175.168 232.316C175.116 232.128 175.015 231.956 174.877 231.818Z" fill="#6F4EB9"/>
<path d="M195.234 230.97C195.158 230.911 195.082 230.852 195.006 230.793C194.833 230.692 194.636 230.638 194.436 230.639C194.336 230.652 194.235 230.665 194.136 230.679C193.947 230.731 193.775 230.831 193.637 230.97L192.577 231.818C192.153 232.266 192.153 232.967 192.577 233.416C192.653 233.474 192.729 233.533 192.806 233.592C192.978 233.693 193.175 233.747 193.376 233.747C193.476 233.733 193.576 233.719 193.676 233.706C193.864 233.654 194.036 233.554 194.175 233.416L195.235 232.567C195.659 232.119 195.659 231.418 195.235 230.97H195.234Z" fill="#6F4EB9"/>
<path d="M192.53 221.709C192.749 221.911 193.032 222.028 193.329 222.04C193.429 222.027 193.529 222.013 193.63 222C193.818 221.948 193.99 221.848 194.128 221.709C194.187 221.633 194.246 221.557 194.305 221.48C194.406 221.307 194.459 221.11 194.459 220.91V220.38C194.443 219.763 193.946 219.267 193.329 219.25L193.029 219.29C192.84 219.343 192.669 219.443 192.53 219.581C192.472 219.657 192.413 219.734 192.354 219.81C192.252 219.983 192.199 220.179 192.2 220.38V220.91C192.212 221.207 192.329 221.49 192.53 221.709V221.709Z" fill="#6F4EB9"/>
<path d="M166.969 236.168C167.289 233.189 186.952 232.561 185.656 231.497C184.36 230.433 173.651 229.054 173.651 229.054" fill="#6F4EB9"/>
</g>
<path d="M162.19 195.31H180.338C180.834 195.308 181.306 195.098 181.637 194.73C181.969 194.362 182.13 193.871 182.08 193.378C181.869 191.181 181.293 189.035 180.375 187.028C180.171 186.579 179.786 186.237 179.316 186.086C178.845 185.935 178.333 185.99 177.905 186.236L162.189 195.31H162.19Z" fill="#589BF7"/>
<path d="M162.19 195.31L177.902 186.238C178.331 185.99 178.634 185.572 178.738 185.088C178.841 184.604 178.735 184.098 178.446 183.696C177.164 181.904 175.595 180.336 173.803 179.053C173.401 178.764 172.895 178.658 172.411 178.762C171.927 178.865 171.509 179.169 171.261 179.597L162.19 195.31Z" fill="#516DDB"/>
<path d="M150.576 179.053C148.784 180.336 147.215 181.904 145.933 183.696C145.643 184.098 145.538 184.604 145.641 185.088C145.745 185.572 146.048 185.99 146.477 186.238L156.536 192.046C157.221 192.442 158.087 192.328 158.647 191.768C159.207 191.208 159.321 190.342 158.925 189.656L153.118 179.597C152.869 179.169 152.452 178.865 151.968 178.762C151.483 178.658 150.978 178.764 150.576 179.053Z" fill="#516DDB"/>
<path d="M162.189 195.31L146.473 186.236C146.045 185.99 145.533 185.935 145.063 186.086C144.593 186.237 144.208 186.579 144.003 187.028C143.086 189.035 142.51 191.181 142.299 193.378C142.249 193.871 142.41 194.362 142.742 194.73C143.073 195.098 143.545 195.308 144.04 195.31H162.189Z" fill="#589BF7"/>
<circle cx="162.189" cy="195.31" r="6.35115" fill="#589BF7"/>
<path d="M135.989 198.842H188.39V227.582C188.39 229.893 186.518 231.765 184.208 231.765H140.172C137.861 231.765 135.989 229.893 135.989 227.582V198.842V198.842Z" fill="#FFC562"/>
<mask id="mask18_11_305" style="mask-type:luminance" maskUnits="userSpaceOnUse" x="135" y="198" width="54" height="34">
<path fill-rule="evenodd" clip-rule="evenodd" d="M135.989 198.842H188.39V227.582C188.39 229.893 186.518 231.765 184.208 231.765H140.172C137.861 231.765 135.989 229.893 135.989 227.582V198.842V198.842Z" fill="white"/>
</mask>
<g mask="url(#mask18_11_305)">
<rect x="114.262" y="219" width="67.7141" height="5.54236" transform="rotate(-27.3702 114.262 219)" fill="#F0F3FC"/>
<rect x="122.493" y="226.441" width="67.7141" height="5.54236" transform="rotate(-27.3702 122.493 226.441)" fill="#F0F3FC"/>
<rect x="131.656" y="232.792" width="67.7141" height="5.54236" transform="rotate(-27.3702 131.656 232.792)" fill="#F0F3FC"/>
<rect x="141.596" y="237.854" width="67.7141" height="5.54236" transform="rotate(-27.3702 141.596 237.854)" fill="#F0F3FC"/>
<rect x="148.597" y="244.87" width="67.7141" height="5.54236" transform="rotate(-27.3702 148.597 244.87)" fill="#F0F3FC"/>
</g>
<rect x="132.127" y="192.103" width="60.1242" height="11.3078" rx="4.81774" fill="#D89D35"/>
<rect x="155.084" y="191.9" width="14.2106" height="39.8658" fill="#516DDB"/>
<path d="M92.8438 171.522C93.0339 173.254 91.297 175.002 88.8441 175.489C88.4134 175.575 87.9751 175.617 87.5359 175.615C86.8619 176.775 85.7219 177.589 84.4061 177.851C83.0903 178.112 81.7257 177.795 80.6596 176.981C80.2544 177.15 79.8332 177.279 79.4024 177.364C76.9498 177.851 74.6769 176.9 74.1904 175.226C74.137 175.238 74.0836 175.25 74.0289 175.261C73.3374 175.401 72.6274 175.423 71.9283 175.329L77.7467 204.627C77.8564 205.179 78.3926 205.538 78.9446 205.428L99.9909 201.248C100.543 201.139 100.901 200.602 100.792 200.051L94.9733 170.752C94.3635 171.107 93.6986 171.357 93.0063 171.493C92.9522 171.503 92.898 171.512 92.8438 171.522Z" fill="#BB393C"/>
<path d="M92.9818 165.953L71.9355 170.132C71.6703 170.185 71.4369 170.341 71.2867 170.565C71.1365 170.79 71.0818 171.065 71.1345 171.331L71.9284 175.329C72.6274 175.423 73.3374 175.401 74.0289 175.261C74.0834 175.25 74.1368 175.238 74.1905 175.226C74.6769 176.9 76.9498 177.851 79.4024 177.364C79.8332 177.279 80.2544 177.15 80.6596 176.981C81.7257 177.795 83.0903 178.112 84.4061 177.851C85.7219 177.589 86.8619 176.775 87.5359 175.615C87.9751 175.617 88.4134 175.575 88.8441 175.489C91.2967 175.002 93.0337 173.255 92.8438 171.522C92.898 171.512 92.9523 171.503 93.0065 171.492C93.6989 171.357 94.3637 171.107 94.9735 170.752L94.1797 166.754C94.1272 166.489 93.9714 166.255 93.7467 166.105C93.5221 165.955 93.2469 165.9 92.9818 165.953Z" fill="#72171B"/>
<path d="M83.9709 174.094C84.4059 175.782 82.9361 177.759 80.5781 178.591C80.164 178.738 79.7362 178.842 79.3013 178.903C78.7995 180.147 77.7873 181.115 76.5222 181.562C75.2571 182.008 73.8612 181.889 72.69 181.235C72.3131 181.46 71.9145 181.648 71.5002 181.793C69.1421 182.625 66.7569 182.008 66.0367 180.42C65.9853 180.44 65.9341 180.46 65.8818 180.478C65.2172 180.715 64.5177 180.839 63.8123 180.845L73.749 209.014C73.9363 209.545 74.5182 209.823 75.0489 209.636L95.2838 202.498C95.8144 202.311 96.0928 201.729 95.9056 201.198L85.9689 173.029C85.4158 173.467 84.7935 173.809 84.1276 174.042C84.0757 174.06 84.0235 174.077 83.9709 174.094Z" fill="#BB393C"/>
<mask id="mask19_11_305" style="mask-type:luminance" maskUnits="userSpaceOnUse" x="63" y="173" width="33" height="37">
<path fill-rule="evenodd" clip-rule="evenodd" d="M83.9709 174.094C84.4059 175.782 82.9361 177.759 80.5781 178.591C80.164 178.738 79.7362 178.842 79.3013 178.903C78.7995 180.147 77.7873 181.115 76.5222 181.562C75.2571 182.008 73.8612 181.889 72.69 181.235C72.3131 181.46 71.9145 181.648 71.5002 181.793C69.1421 182.625 66.7569 182.008 66.0367 180.42C65.9853 180.44 65.9341 180.46 65.8818 180.478C65.2172 180.715 64.5177 180.839 63.8123 180.845L73.749 209.014C73.9363 209.545 74.5182 209.823 75.0489 209.636L95.2838 202.498C95.8144 202.311 96.0928 201.729 95.9056 201.198L85.9689 173.029C85.4158 173.467 84.7935 173.809 84.1276 174.042C84.0757 174.06 84.0235 174.077 83.9709 174.094Z" fill="white"/>
</mask>
<g mask="url(#mask19_11_305)">
<path d="M78.8048 184.38C75.4254 182.682 78.2134 207.32 75.0489 209.636C71.8844 211.951 82.636 208.254 83.0442 208.367C83.4523 208.481 84.408 198.454 84.408 198.454" fill="#90282A"/>
</g>
<path d="M83.3136 168.562L63.0787 175.7C62.8238 175.79 62.6151 175.978 62.4985 176.221C62.3819 176.465 62.3669 176.745 62.4568 177L63.8128 180.844C64.5182 180.838 65.2177 180.714 65.8823 180.478C65.9346 180.459 65.9858 180.44 66.0372 180.42C66.7574 182.008 69.1426 182.625 71.5007 181.793C71.915 181.647 72.3136 181.46 72.6905 181.235C73.8617 181.888 75.2576 182.007 76.5227 181.561C77.7878 181.115 78.8 180.147 79.3018 178.902C79.7367 178.842 80.1645 178.737 80.5786 178.591C82.9366 177.759 84.4067 175.782 83.9714 174.094C84.0237 174.077 84.0762 174.06 84.1284 174.042C84.7943 173.809 85.4166 173.466 85.9697 173.028L84.6137 169.184C84.5238 168.929 84.3363 168.721 84.0925 168.604C83.8487 168.487 83.5685 168.472 83.3136 168.562Z" fill="#872126"/>
<path d="M99.6206 177.932C99.4696 179.668 97.4255 181.044 94.925 181.044C94.4858 181.044 94.0476 181 93.6172 180.913C92.7302 181.919 91.4535 182.496 90.112 182.496C88.7705 182.496 87.4937 181.919 86.6067 180.913C86.1763 181 85.7381 181.044 85.2989 181.044C82.7984 181.044 80.7543 179.668 80.6033 177.932C80.5483 177.933 80.4934 177.935 80.438 177.935C79.7325 177.937 79.0317 177.821 78.3644 177.592V207.462C78.3645 208.025 78.8206 208.481 79.3834 208.481H100.841C101.403 208.481 101.859 208.025 101.859 207.462V177.592C101.192 177.821 100.491 177.937 99.7859 177.935C99.7306 177.935 99.6756 177.933 99.6206 177.932Z" fill="#BB393C"/>
<mask id="mask20_11_305" style="mask-type:luminance" maskUnits="userSpaceOnUse" x="78" y="177" width="24" height="32">
<path fill-rule="evenodd" clip-rule="evenodd" d="M99.6206 177.932C99.4696 179.668 97.4255 181.044 94.925 181.044C94.4858 181.044 94.0476 181 93.6172 180.913C92.7302 181.919 91.4535 182.496 90.112 182.496C88.7705 182.496 87.4937 181.919 86.6067 180.913C86.1763 181 85.7381 181.044 85.2989 181.044C82.7984 181.044 80.7543 179.668 80.6033 177.932C80.5483 177.933 80.4934 177.935 80.438 177.935C79.7325 177.937 79.0317 177.821 78.3644 177.592V207.462C78.3645 208.025 78.8206 208.481 79.3834 208.481H100.841C101.403 208.481 101.859 208.025 101.859 207.462V177.592C101.192 177.821 100.491 177.937 99.7859 177.935C99.7306 177.935 99.6756 177.933 99.6206 177.932Z" fill="white"/>
</mask>
<g mask="url(#mask20_11_305)">
<path d="M86.8878 196.999C84.147 196.034 77.0462 210.545 74.8851 211.702C72.724 212.86 86.0546 210.884 86.0546 210.884L87.1929 206.068" fill="#90282A"/>
</g>
<path d="M100.841 172.497H79.3834C79.1131 172.497 78.8539 172.604 78.6628 172.795C78.4718 172.986 78.3644 173.245 78.3644 173.516V177.592C79.0317 177.821 79.7325 177.937 80.438 177.935C80.4934 177.935 80.5483 177.933 80.6033 177.931C80.7543 179.668 82.7984 181.044 85.2989 181.044C85.7381 181.044 86.1763 181 86.6067 180.913C87.4937 181.919 88.7705 182.496 90.112 182.496C91.4535 182.496 92.7302 181.919 93.6172 180.913C94.0476 181 94.4858 181.044 94.925 181.044C97.4255 181.044 99.4696 179.668 99.6206 177.931C99.6756 177.933 99.7306 177.935 99.7859 177.935C100.491 177.937 101.192 177.821 101.859 177.592V173.516C101.86 172.953 101.403 172.497 100.841 172.497Z" fill="#90282A"/>
<path d="M95.1342 216.928C95.1342 216.928 95.4395 222.807 88.7967 223.113C88.7967 223.113 79.634 215.019 78.9468 212.805C77.6046 208.48 86.2006 197.686 86.8878 196.999C87.575 196.312 89.1021 197.304 88.2622 199.442C88.2622 199.442 90.0183 196.159 90.5529 196.465C91.0874 196.77 92.6145 197.152 92.0036 199.061C92.0036 199.061 95.6686 198.45 93.5307 202.955C93.5307 202.955 98.3411 200.893 93.2254 212.805L95.1342 216.928Z" fill="#FF9763"/>
<mask id="mask21_11_305" style="mask-type:luminance" maskUnits="userSpaceOnUse" x="78" y="196" width="18" height="28">
<path fill-rule="evenodd" clip-rule="evenodd" d="M95.1342 216.928C95.1342 216.928 95.4395 222.807 88.7967 223.113C88.7967 223.113 79.634 215.019 78.9468 212.805C77.6046 208.48 86.2006 197.686 86.8878 196.999C87.575 196.312 89.1021 197.304 88.2622 199.442C88.2622 199.442 90.0183 196.159 90.5529 196.465C91.0874 196.77 92.6145 197.152 92.0036 199.061C92.0036 199.061 95.6686 198.45 93.5307 202.955C93.5307 202.955 98.3411 200.893 93.2254 212.805L95.1342 216.928Z" fill="white"/>
</mask>
<g mask="url(#mask21_11_305)">
<path d="M83.0441 219.421C95.6087 223.936 95.1342 216.928 95.1342 216.928L95.6087 223.936L84.3786 224.168" fill="#E84B23"/>
</g>
<ellipse cx="149.344" cy="142.116" rx="5.55427" ry="4.60267" transform="rotate(-29.3208 149.344 142.116)" fill="#FF9763"/>
<path d="M130.817 167.359L130.506 150.3H148.543L148.829 165.933" fill="#FF9763"/>
<mask id="mask22_11_305" style="mask-type:luminance" maskUnits="userSpaceOnUse" x="130" y="150" width="19" height="18">
<path fill-rule="evenodd" clip-rule="evenodd" d="M130.817 167.359L130.506 150.3H148.543L148.829 165.933" fill="white"/>
</mask>
<g mask="url(#mask22_11_305)">
<path d="M121.239 167.958C143.926 161.96 146.278 153.338 146.278 153.338L130.923 151.338L128.986 159.461L122.899 166.834" fill="#E84B23"/>
</g>
<path d="M137.251 158.249C130.286 158.249 124.64 153.148 124.64 146.856V134.933C124.64 128.641 130.286 123.54 137.251 123.54C140.534 123.512 143.711 124.701 146.169 126.877C148.493 128.913 149.837 131.844 149.863 134.933V146.856C149.863 153.148 144.217 158.249 137.251 158.249Z" fill="#FF9763"/>
<mask id="mask23_11_305" style="mask-type:luminance" maskUnits="userSpaceOnUse" x="124" y="123" width="26" height="36">
<path fill-rule="evenodd" clip-rule="evenodd" d="M137.251 158.249C130.286 158.249 124.64 153.148 124.64 146.856V134.933C124.64 128.641 130.286 123.54 137.251 123.54C140.534 123.512 143.711 124.701 146.169 126.877C148.493 128.913 149.837 131.844 149.863 134.933V146.856C149.863 153.148 144.217 158.249 137.251 158.249Z" fill="white"/>
</mask>
<g mask="url(#mask23_11_305)">
<path d="M120.093 136.655C120.607 135.662 122.869 135.746 123.301 134.933C126.351 129.204 129.06 128.78 133.2 131.257C138.107 134.192 143.704 125.925 146.784 130.429C149.863 134.933 150.45 153.148 140.038 144.802C129.626 136.456 121.047 155.003 121.047 155.003L132.119 162.09L149.863 162.488L154.996 137.715L149.863 120.427L130.066 120.229L123.466 128.773" fill="#4B4D5C"/>
</g>
<ellipse opacity="0.27" cx="127.944" cy="143.75" rx="2.41934" ry="3.17714" transform="rotate(-89.9182 127.944 143.75)" fill="#E84B23"/>
<ellipse opacity="0.27" cx="142.948" cy="143.771" rx="2.41934" ry="3.17714" transform="rotate(-89.9182 142.948 143.771)" fill="#E84B23"/>
<rect x="130.469" y="136.335" width="2.2592" height="4.1669" rx="1.1296" transform="rotate(4.1961 130.469 136.335)" fill="#190000"/>
<rect x="138.888" y="136.316" width="2.2592" height="4.1669" rx="1.1296" transform="rotate(4.1951 138.888 136.316)" fill="#190000"/>
<path d="M131.51 133.742C129.161 134.244 129.703 135.543 131.191 135.325C132.679 135.108 133.044 133.414 131.51 133.742Z" fill="#190000"/>
<path d="M140.147 133.65C142.397 134.49 141.853 135.612 140.412 135.18C138.971 134.747 138.677 133.102 140.147 133.65Z" fill="#190000"/>
<path d="M136.254 140.775C136.284 141.539 135.619 141.262 134.813 141.294C134.007 141.327 133.365 141.655 133.335 140.892C133.346 140.115 133.963 139.483 134.739 139.452C135.515 139.421 136.18 140.002 136.254 140.775V140.775Z" fill="#E84B23"/>
<path d="M132.998 147.968C135.344 148.696 137.545 146.552 137.545 146.552" stroke="#993443" stroke-width="2.48657" stroke-linecap="round" stroke-linejoin="round"/>
<path d="M151.218 141.588L151.326 141.905C151.38 142.072 151.49 142.215 151.637 142.31C151.713 142.359 151.8 142.387 151.889 142.391C151.979 142.411 152.072 142.407 152.16 142.379L152.321 142.31C152.422 142.251 152.506 142.167 152.565 142.067L152.633 141.905C152.666 141.787 152.666 141.662 152.633 141.544L152.525 141.227C152.471 141.06 152.361 140.917 152.214 140.822C152.138 140.773 152.051 140.746 151.962 140.742C151.872 140.721 151.779 140.726 151.691 140.754L151.53 140.822C151.429 140.881 151.345 140.965 151.286 141.066L151.218 141.227C151.186 141.345 151.186 141.47 151.218 141.588H151.218Z" fill="#373947"/>
<path d="M118.969 191.646L119.555 193.903C119.617 194.138 119.801 194.323 120.037 194.385C120.273 194.447 120.524 194.378 120.695 194.204C120.865 194.029 120.929 193.777 120.862 193.542L120.277 191.285C120.174 190.928 119.803 190.72 119.445 190.819C119.086 190.918 118.874 191.286 118.969 191.646Z" fill="#6F4EB9"/>
<path d="M85.2736 189.557L83.5772 191.254C83.3125 191.519 83.3125 191.948 83.5772 192.212C83.8419 192.477 84.271 192.477 84.5358 192.212L86.2323 190.516C86.4035 190.345 86.4703 190.095 86.4077 189.861C86.345 189.627 86.1623 189.445 85.9284 189.382C85.6944 189.319 85.4449 189.386 85.2736 189.557Z" fill="#90282A"/>
<rect x="93.9604" y="158.007" width="18.0001" height="32.5645" rx="7.86391" fill="#2976DF"/>
<mask id="mask24_11_305" style="mask-type:luminance" maskUnits="userSpaceOnUse" x="93" y="158" width="19" height="33">
<rect x="93.9604" y="158.007" width="18.0001" height="32.5645" rx="7.86391" fill="white"/>
</mask>
<g mask="url(#mask24_11_305)">
<path d="M100.556 178.698C105.346 187.568 103.751 193.525 103.751 193.525H112.111L113.38 178.061H97.3729" fill="#1665C4"/>
</g>
<rect x="96.2758" y="161.293" width="4.84441" height="5.97515" rx="2.4222" fill="#589BF7"/>
<path d="M104.705 178.061C104.705 178.061 110.541 187.023 105.966 196.995" stroke="#3A3530" stroke-width="1.75157" stroke-linecap="round" stroke-linejoin="round"/>
<rect x="101.12" y="199.907" width="3.58512" height="58.239" fill="#589BF7"/>
<mask id="mask25_11_305" style="mask-type:luminance" maskUnits="userSpaceOnUse" x="101" y="199" width="4" height="60">
<rect x="101.12" y="199.907" width="3.58512" height="58.239" fill="white"/>
</mask>
<g mask="url(#mask25_11_305)">
<path d="M100.272 220.716C101.164 212.959 105.614 212.54 105.614 212.54L105.966 208.157L98.436 209.312" fill="#2976DF"/>
</g>
<rect x="99.8597" y="206.854" width="6.10583" height="6.10583" rx="2.87011" fill="#F0F3FC"/>
<path fill-rule="evenodd" clip-rule="evenodd" d="M77.9147 163.834C82.1027 153.723 91.9689 147.131 102.913 147.131C117.856 147.131 129.97 159.245 129.97 174.188C129.97 185.132 123.378 194.998 113.267 199.186C103.156 203.374 91.5185 201.059 83.78 193.321C76.0416 185.583 73.7267 173.945 77.9147 163.834ZM83.1338 182.381C86.4474 190.381 94.2538 195.597 102.913 195.597C114.736 195.597 124.321 186.012 124.321 174.188C124.321 165.529 119.105 157.723 111.105 154.409C103.105 151.096 93.8973 152.927 87.7745 159.05C81.6517 165.173 79.8201 174.381 83.1338 182.381Z" fill="#F0F3FC"/>
<mask id="mask26_11_305" style="mask-type:luminance" maskUnits="userSpaceOnUse" x="75" y="147" width="55" height="55">
<path fill-rule="evenodd" clip-rule="evenodd" d="M102.913 147.131C91.9689 147.131 82.1027 153.723 77.9147 163.834C73.7267 173.945 76.0416 185.583 83.78 193.321C91.5185 201.059 103.156 203.374 113.267 199.186C123.378 194.998 129.97 185.132 129.97 174.188C129.97 159.245 117.856 147.131 102.913 147.131ZM102.913 195.597C94.2538 195.597 86.4474 190.381 83.1338 182.381C79.8201 174.381 81.6517 165.173 87.7745 159.05C93.8973 152.927 103.105 151.096 111.105 154.409C119.105 157.723 124.321 165.529 124.321 174.188C124.321 186.012 114.736 195.597 102.913 195.597Z" fill="white"/>
</mask>
<g mask="url(#mask26_11_305)">
<path d="M120.954 180.974C132.551 184.089 141.442 176.567 141.442 176.567L129.97 196.246L116.508 187.528" fill="#D6DCF2"/>
</g>
<rect x="92.616" y="173.318" width="20.7636" height="6.49801" rx="1.61028" fill="#9A7ED9"/>
<circle cx="104.705" cy="176.044" r="4.92951" fill="#6F4EB9"/>
<path d="M106.3 166.681L105.337 168.23C105.23 168.416 105.293 168.654 105.477 168.764C105.664 168.868 105.9 168.806 106.011 168.624L106.974 167.075C107.081 166.889 107.018 166.651 106.834 166.541C106.647 166.437 106.411 166.499 106.3 166.681Z" fill="#1665C4"/>
<path d="M104.055 234.26L103.668 234.646C103.521 234.801 103.521 235.044 103.668 235.199C103.742 235.272 103.841 235.313 103.945 235.313L104.048 235.299C104.114 235.281 104.173 235.247 104.221 235.199L104.607 234.812C104.754 234.657 104.754 234.415 104.607 234.26C104.534 234.187 104.435 234.146 104.331 234.145L104.227 234.159C104.162 234.177 104.103 234.212 104.055 234.26Z" fill="#2976DF"/>
</svg>
