<svg width="462" height="332" viewBox="0 0 462 332" fill="none" xmlns="http://www.w3.org/2000/svg">
<rect x="206.159" y="11.0032" width="84.4921" height="113.133" rx="9.49654" fill="#9A7ED9"/>
<mask id="mask0_11_22" style="mask-type:luminance" maskUnits="userSpaceOnUse" x="206" y="11" width="85" height="114">
<rect x="206.159" y="11.0032" width="84.4921" height="113.133" rx="9.49654" fill="white"/>
</mask>
<g mask="url(#mask0_11_22)">
<path d="M290.651 72.5304C285.909 60.6409 293.882 129.807 242.237 124.137C190.592 118.467 304.02 144.202 304.02 144.202L313.233 101.404" fill="#6F4EB9"/>
</g>
<rect x="213.439" y="20.2976" width="69.9317" height="63.36" rx="5.66933" fill="#EFF3FC"/>
<mask id="mask1_11_22" style="mask-type:luminance" maskUnits="userSpaceOnUse" x="213" y="20" width="71" height="64">
<rect x="213.439" y="20.2976" width="69.9317" height="63.36" rx="5.66933" fill="white"/>
</mask>
<g mask="url(#mask1_11_22)">
<path d="M211.244 51.9783C206.159 23.1505 227.154 20.0962 258.903 20.2983C290.652 20.5004 206.159 11.0039 206.159 11.0039L195.994 14.2542" fill="#D6DCF2"/>
</g>
<rect x="218.611" y="94.978" width="57.5628" height="6.42566" rx="3.21283" fill="#6F4EB9"/>
<rect x="218.611" y="104.799" width="41.8658" height="6.42566" rx="3.21283" fill="#6F4EB9"/>
<path d="M259.081 42.2541V37.1592H249.629V49.2888C249.634 49.7293 249.402 50.1386 249.021 50.3603C248.641 50.5821 248.17 50.5821 247.789 50.3603C247.409 50.1386 247.177 49.7293 247.182 49.2888V37.1592H237.73V42.3462C237.73 46.3667 235.401 50.0233 231.758 51.7231L229.907 52.5875V72.2223C229.907 72.9858 230.526 73.6048 231.289 73.6048H243.804C244.461 73.605 245.027 73.1436 245.159 72.5007L247.729 60.0055H249.08L251.65 72.5007C251.782 73.1436 252.348 73.6049 253.005 73.6048H265.521C265.888 73.6049 266.239 73.4592 266.499 73.2C266.758 72.9407 266.903 72.589 266.903 72.2223V52.4959L265.052 51.6319C261.409 49.9318 259.08 46.2748 259.081 42.2541Z" fill="#9A7ED9"/>
<path d="M261.635 37.1592V42.2541C261.641 45.2804 263.393 48.0314 266.132 49.3173L266.904 49.6774V37.1592L261.635 37.1592Z" fill="#9A7ED9"/>
<path d="M235.175 42.3467V37.1592H229.907V49.7688L230.679 49.4089C233.418 48.1229 235.169 45.3724 235.175 42.3467Z" fill="#9A7ED9"/>
<path d="M266.737 32.1837C266.737 31.1712 265.916 30.3504 264.904 30.3503H231.906C230.894 30.3504 230.073 31.1712 230.073 32.1837V35.2959H266.737L266.737 32.1837Z" fill="#6F4EB9"/>
<path d="M259.576 55.9367L258.146 59.2727C258.014 59.5161 258.094 59.8201 258.328 59.9675C258.571 60.107 258.88 60.0258 259.023 59.7853L260.453 56.4493C260.585 56.2059 260.505 55.9017 260.271 55.7544C260.028 55.615 259.719 55.6962 259.576 55.9367Z" fill="#6F4EB9"/>
<path d="M268.75 109.738L266.356 111.629C266.158 111.828 266.158 112.149 266.356 112.347C266.557 112.538 266.872 112.538 267.074 112.347L269.468 110.456C269.666 110.257 269.666 109.936 269.468 109.738C269.267 109.547 268.952 109.547 268.75 109.738Z" fill="#6F4EB9"/>
<rect x="371.784" y="40.9534" width="58.5932" height="78.4552" rx="6.5856" fill="#FFC562"/>
<mask id="mask2_11_22" style="mask-type:luminance" maskUnits="userSpaceOnUse" x="371" y="40" width="60" height="80">
<rect x="371.784" y="40.9534" width="58.5932" height="78.4552" rx="6.5856" fill="white"/>
</mask>
<g mask="url(#mask2_11_22)">
<path d="M433.653 42.6184C440.885 128.489 399.555 128.184 371.14 125.031C342.726 121.879 413.957 140.056 413.957 140.056L434.042 136.751L446.18 87.867" fill="#D89D35"/>
</g>
<rect x="376.833" y="47.3987" width="48.4959" height="43.9386" rx="3.93154" fill="#EFF3FC"/>
<mask id="mask3_11_22" style="mask-type:luminance" maskUnits="userSpaceOnUse" x="376" y="47" width="50" height="45">
<rect x="376.833" y="47.3987" width="48.4959" height="43.9386" rx="3.93154" fill="white"/>
</mask>
<g mask="url(#mask3_11_22)">
<path d="M367.683 78.579C373.208 40.2414 408.197 45.1985 408.197 45.1985L353.973 43.4409" fill="#D6DCF2"/>
</g>
<rect x="380.419" y="99.188" width="39.9183" height="4.45603" rx="2.22802" fill="#E84B23"/>
<rect x="380.419" y="105.998" width="29.0328" height="4.45603" rx="2.22802" fill="#E84B23"/>
<path d="M411.095 56.4917H406.602C405.96 59.0162 403.688 60.7834 401.083 60.7834C398.478 60.7834 396.205 59.0162 395.563 56.4917H391.064V56.4951L382.484 60.7833L385.346 67.937L391.064 65.0747V82.2443H411.095V65.0747L416.816 67.937L419.678 60.7833L411.095 56.4917Z" fill="#FFC562"/>
<mask id="mask4_11_22" style="mask-type:luminance" maskUnits="userSpaceOnUse" x="382" y="56" width="38" height="27">
<path fill-rule="evenodd" clip-rule="evenodd" d="M411.095 56.4917H406.602C405.96 59.0162 403.688 60.7834 401.083 60.7834C398.478 60.7834 396.205 59.0162 395.563 56.4917H391.064V56.4951L382.484 60.7833L385.346 67.937L391.064 65.0747V82.2443H411.095V65.0747L416.816 67.937L419.678 60.7833L411.095 56.4917Z" fill="white"/>
</mask>
<g mask="url(#mask4_11_22)">
<path d="M381.14 67.342C382.484 60.7833 394.911 57.134 399.661 58.4185C404.411 59.703 393.038 50.6934 393.038 50.6934L370.564 57.1605" fill="#D89D35"/>
</g>
<path d="M400.407 70.4145L399.412 71.4031C399.288 71.5428 399.295 71.7547 399.427 71.8867C399.559 72.0186 399.771 72.0249 399.91 71.9011L400.904 70.9124C401.028 70.7727 401.021 70.5613 400.889 70.4296C400.758 70.2979 400.546 70.2913 400.407 70.4145Z" fill="#D89D35"/>
<path d="M424.13 109.302C424.1 109.345 424.069 109.387 424.037 109.43C424.058 109.401 424.052 109.411 424.034 109.433L423.984 109.494C423.92 109.571 423.853 109.645 423.784 109.717C423.711 109.792 423.635 109.865 423.556 109.934C423.521 109.965 423.485 109.996 423.448 110.026L423.387 110.075C423.426 110.044 423.391 110.072 423.37 110.087C423.21 110.207 423.042 110.314 422.866 110.408C422.778 110.455 422.688 110.498 422.597 110.54C422.537 110.567 422.618 110.532 422.58 110.547L422.507 110.576C422.458 110.595 422.409 110.613 422.359 110.63C422.182 110.689 422.082 110.877 422.131 111.058C422.181 111.238 422.363 111.349 422.546 111.309C423.433 111.004 424.201 110.426 424.738 109.658C424.835 109.49 424.779 109.275 424.612 109.176C424.443 109.083 424.231 109.138 424.13 109.302H424.13Z" fill="#D89D35"/>
<path d="M71.502 54.0596C72.6076 55.0992 73.7975 56.0453 75.0596 56.8881C76.2997 57.7167 77.5958 58.4584 78.9385 59.1077C80.6128 59.9202 82.3493 60.5978 84.1314 61.1339C85.2209 61.4592 85.8813 61.5907 85.8813 61.5907L85.9078 61.5832C86.0656 61.537 86.9214 61.2808 88.2072 60.7754C90.1114 60.0258 91.9574 59.1361 93.7301 58.1138C95.0012 57.3816 96.2271 56.5738 97.4014 55.6946C98.2782 55.0371 99.1199 54.334 99.9229 53.5882C100.922 52.6613 101.849 51.659 102.695 50.5901C104.171 48.736 105.337 46.6546 106.147 44.427C106.657 43.0046 107.01 41.5308 107.199 40.0318C107.317 39.0971 107.376 38.1559 107.375 37.2137C107.375 36.5238 107.32 35.835 107.212 35.1537C106.96 33.5952 106.45 32.0898 105.701 30.6999C105.082 29.5443 104.307 28.4788 103.399 27.5333C102.732 26.8376 101.991 26.2163 101.189 25.6804C100.042 24.9089 98.7676 24.3451 97.4249 24.0147C96.584 23.8108 95.7218 23.7077 94.8565 23.7076C91.5852 23.6996 88.443 24.9826 86.1121 27.2779C86.0337 27.3549 85.9563 27.4333 85.8798 27.5131C83.5312 25.0742 80.2887 23.6998 76.9029 23.7082C76.2078 23.7082 75.5144 23.7748 74.8321 23.9071C73.5457 24.1604 72.3118 24.6306 71.1831 25.2975C70.1445 25.9104 69.1948 26.6629 68.3607 27.5339C67.4442 28.4885 66.6641 29.565 66.0423 30.7331C65.2899 32.1382 64.7808 33.6605 64.5365 35.2355C64.4362 35.8905 64.3857 36.5521 64.3853 37.2148C64.3839 38.2582 64.4446 39.3008 64.5671 40.337C64.7476 41.8795 65.0836 43.3997 65.5701 44.8745C66.3153 47.1202 67.4246 49.2281 68.8536 51.1139C69.6528 52.1679 70.5387 53.1532 71.502 54.0596Z" fill="#BB393C"/>
<mask id="mask5_11_22" style="mask-type:luminance" maskUnits="userSpaceOnUse" x="64" y="23" width="44" height="39">
<path fill-rule="evenodd" clip-rule="evenodd" d="M71.502 54.0596C72.6076 55.0992 73.7975 56.0453 75.0596 56.8881C76.2997 57.7167 77.5958 58.4584 78.9385 59.1077C80.6128 59.9202 82.3493 60.5978 84.1314 61.1339C85.2209 61.4592 85.8813 61.5907 85.8813 61.5907L85.9078 61.5832C86.0656 61.537 86.9214 61.2808 88.2072 60.7754C90.1114 60.0258 91.9574 59.1361 93.7301 58.1138C95.0012 57.3816 96.2271 56.5738 97.4014 55.6946C98.2782 55.0371 99.1199 54.334 99.9229 53.5882C100.922 52.6613 101.849 51.659 102.695 50.5901C104.171 48.736 105.337 46.6546 106.147 44.427C106.657 43.0046 107.01 41.5308 107.199 40.0318C107.317 39.0971 107.376 38.1559 107.375 37.2137C107.375 36.5238 107.32 35.835 107.212 35.1537C106.96 33.5952 106.45 32.0898 105.701 30.6999C105.082 29.5443 104.307 28.4788 103.399 27.5333C102.732 26.8376 101.991 26.2163 101.189 25.6804C100.042 24.9089 98.7676 24.3451 97.4249 24.0147C96.584 23.8108 95.7218 23.7077 94.8565 23.7076C91.5852 23.6996 88.443 24.9826 86.1121 27.2779C86.0337 27.3549 85.9563 27.4333 85.8798 27.5131C83.5312 25.0742 80.2887 23.6998 76.9029 23.7082C76.2078 23.7082 75.5144 23.7748 74.8321 23.9071C73.5457 24.1604 72.3118 24.6306 71.1831 25.2975C70.1445 25.9104 69.1948 26.6629 68.3607 27.5339C67.4442 28.4885 66.6641 29.565 66.0423 30.7331C65.2899 32.1382 64.7808 33.6605 64.5365 35.2355C64.4362 35.8905 64.3857 36.5521 64.3853 37.2148C64.3839 38.2582 64.4446 39.3008 64.5671 40.337C64.7476 41.8795 65.0836 43.3997 65.5701 44.8745C66.3153 47.1202 67.4246 49.2281 68.8536 51.1139C69.6528 52.1679 70.5387 53.1532 71.502 54.0596Z" fill="white"/>
</mask>
<g mask="url(#mask5_11_22)">
<path d="M87.6933 22.5134C110.814 20.1572 102.954 57.4887 84.1317 61.1339C65.3092 64.7792 98.296 67.8711 98.296 67.8711L125.688 23.7065H113.317" fill="#90282A"/>
</g>
<path d="M76.7473 33.1487C76.431 33.8559 76.4245 34.6631 76.7295 35.3752C76.7956 35.4867 76.9392 35.5242 77.0514 35.4592C77.1606 35.3913 77.1975 35.2498 77.1354 35.1372C76.9051 34.5749 76.9115 33.9434 77.1533 33.386C77.2149 33.2733 77.1781 33.1321 77.0693 33.0639C76.9571 32.9993 76.8137 33.0367 76.7473 33.1479V33.1487Z" fill="#90282A"/>
<path d="M93.8369 49.535C93.261 50.6989 92.2358 51.5779 90.9977 51.9695C90.7094 52.0592 90.8326 52.5138 91.1229 52.4231C92.4793 51.999 93.6054 51.0423 94.2431 49.7722C94.3775 49.5016 93.9711 49.2628 93.8367 49.5347L93.8369 49.535Z" fill="#90282A"/>
<path d="M355.69 20.1504C355.776 17.8507 354.35 15.7647 352.176 15.0096C352.126 14.9998 352.075 14.996 352.025 14.9984H341.722C341.683 14.9984 341.66 14.7983 341.669 14.7632C342.582 11.7039 342.831 8.48486 342.399 5.32157L342.396 5.31166C342.559 2.55565 340.468 0.184085 337.714 0C335.2 0.14351 333.196 2.15502 333.063 4.66939H333.06C332.114 13.572 326.076 16.2278 324.718 16.72C324.71 16.7215 324.701 16.7215 324.693 16.72C324.611 16.7123 324.528 16.7123 324.446 16.72H318.111C317.115 16.78 316.356 17.6349 316.414 18.6307V40.7091C316.387 41.1798 316.553 41.6412 316.872 41.9875C317.192 42.3338 317.639 42.5354 318.111 42.546H347.306C347.472 42.5547 347.639 42.5547 347.806 42.546C349.645 42.5024 351.281 41.3653 351.962 39.6564C352.301 38.9234 355.482 21.6972 355.482 21.6972H355.485C355.545 21.4625 355.591 21.2243 355.622 20.984L355.636 20.9058V20.9002C355.67 20.652 355.688 20.4019 355.69 20.1514" fill="#FFC562"/>
<mask id="mask6_11_22" style="mask-type:luminance" maskUnits="userSpaceOnUse" x="316" y="0" width="40" height="43">
<path fill-rule="evenodd" clip-rule="evenodd" d="M355.69 20.1504C355.776 17.8507 354.35 15.7647 352.176 15.0096C352.126 14.9998 352.075 14.996 352.025 14.9984H341.722C341.683 14.9984 341.66 14.7983 341.669 14.7632C342.582 11.7039 342.831 8.48486 342.399 5.32157L342.396 5.31166C342.559 2.55565 340.468 0.184085 337.714 0C335.2 0.14351 333.196 2.15502 333.063 4.66939H333.06C332.114 13.572 326.076 16.2278 324.718 16.72C324.71 16.7215 324.701 16.7215 324.693 16.72C324.611 16.7123 324.528 16.7123 324.446 16.72H318.111C317.115 16.78 316.356 17.6349 316.414 18.6307V40.7091C316.387 41.1798 316.553 41.6412 316.872 41.9875C317.192 42.3338 317.639 42.5354 318.111 42.546H347.306C347.472 42.5547 347.639 42.5547 347.806 42.546C349.645 42.5024 351.281 41.3653 351.962 39.6564C352.301 38.9234 355.482 21.6972 355.482 21.6972H355.485C355.545 21.4625 355.591 21.2243 355.622 20.984L355.636 20.9058V20.9002C355.67 20.652 355.688 20.4019 355.69 20.1514" fill="white"/>
</mask>
<g mask="url(#mask6_11_22)">
<path d="M322.789 25.6997C326.974 22.085 323.36 43.1754 340.672 44.0453C357.983 44.9152 310.216 50.8122 310.216 50.8122L315.158 34.071" fill="#D89D35"/>
<path d="M344.155 7.62646L341.723 14.9986C341.723 14.9986 341.67 16.3168 339.549 18.1856C337.427 20.0544 352.176 15.0104 352.176 15.0104L348.55 11.5814" fill="#D89D35"/>
</g>
<rect x="310.216" y="13.6562" width="14.824" height="30.3883" rx="1.596" fill="#FE7578"/>
<mask id="mask7_11_22" style="mask-type:luminance" maskUnits="userSpaceOnUse" x="310" y="13" width="16" height="32">
<rect x="310.216" y="13.6562" width="14.824" height="30.3883" rx="1.596" fill="white"/>
</mask>
<g mask="url(#mask7_11_22)">
<path d="M309.608 30.3925C308.285 17.3473 311.636 13.4361 319.175 13.6563C326.715 13.8766 303.736 10.6453 303.736 10.6453L302.061 15.4333" fill="#E55A61"/>
</g>
<circle cx="317.628" cy="21.2752" r="2.47027" fill="#EFF3FC"/>
<path d="M337.844 19.1663C340.324 18.9793 341.866 14.0269 341.866 14.0269L337.844 19.1663Z" fill="#FFC562"/>
<path d="M346.84 23.2718C346.306 24.8464 345.417 26.2771 344.242 27.4533C344.148 27.5538 344.15 27.7108 344.248 27.8081C344.345 27.9055 344.502 27.9081 344.602 27.814C345.838 26.5738 346.772 25.0661 347.332 23.4074C347.438 23.0958 346.946 22.962 346.84 23.2718Z" fill="#D89D35"/>
<path d="M318.323 33.7938C318.016 35.4438 318.376 37.1482 319.323 38.5334C319.508 38.8022 319.951 38.547 319.764 38.276C318.885 37.0097 318.544 35.4467 318.815 33.9294C318.874 33.6085 318.383 33.4709 318.323 33.7938Z" fill="#E55A61"/>
<mask id="mask8_11_22" style="mask-type:luminance" maskUnits="userSpaceOnUse" x="0" y="28" width="462" height="295">
<rect y="28.5896" width="461.751" height="294.277" fill="white"/>
</mask>
<g mask="url(#mask8_11_22)">
<path d="M35.3191 171.9C35.3191 171.9 36.7735 98.6827 39.9576 87.6815C39.9576 87.6815 37.2864 81.0277 35.7487 76.396C34.211 71.7642 39.5455 56.1856 45.9666 58.8368C45.9666 58.8368 51.3394 57.522 52.5791 60.2621C52.5791 60.2621 57.2069 59.0295 58.1747 60.2063C58.1747 60.2063 62.2447 59.6927 62.6196 60.3096C63.8059 62.2615 63.7931 74.8347 63.7931 74.8347C63.9051 76.796 63.5123 78.7533 62.6524 80.5195C61.345 82.3425 55.7207 88.3455 55.7207 88.3455L57.5652 159.183L56.3662 177.951L35.3191 171.9Z" fill="#FF9763"/>
<mask id="mask9_11_22" style="mask-type:luminance" maskUnits="userSpaceOnUse" x="35" y="58" width="29" height="120">
<path fill-rule="evenodd" clip-rule="evenodd" d="M35.3191 171.9C35.3191 171.9 36.7735 98.6827 39.9576 87.6815C39.9576 87.6815 37.2864 81.0277 35.7487 76.396C34.211 71.7642 39.5455 56.1856 45.9666 58.8368C45.9666 58.8368 51.3394 57.522 52.5791 60.2621C52.5791 60.2621 57.2069 59.0295 58.1747 60.2063C58.1747 60.2063 62.2447 59.6927 62.6196 60.3096C63.8059 62.2615 63.7931 74.8347 63.7931 74.8347C63.9051 76.796 63.5123 78.7533 62.6524 80.5195C61.345 82.3425 55.7207 88.3455 55.7207 88.3455L57.5652 159.183L56.3662 177.951L35.3191 171.9Z" fill="white"/>
</mask>
<g mask="url(#mask9_11_22)">
<path d="M14.264 101.613C28.8585 93.9553 57.8857 100.207 57.8857 100.207L56.9293 105.69L27.7244 107.718" fill="#E84B23"/>
</g>
<path d="M47.4956 81.2469C48.4883 78.3405 50.2243 74.5195 52.7107 73.5275L48.5404 71.4864C48.5404 71.4864 41.4172 76.95 40.6662 73.0473C40.6662 73.0473 47.8378 66.391 49.2724 66.1425C50.7069 65.8941 64.2503 69.6882 64.4584 70.4642C64.6666 71.2402 63.8798 78.9999 62.6524 80.5181C61.425 82.0363 55.7207 88.3441 55.7207 88.3441" fill="#FF9763"/>
<path d="M29.1863 109.768C29.0262 102.539 57.8857 100.207 57.8857 100.207L61.7056 160.605L137.728 157.379L149.295 204.508L47.0723 197.31C37.9516 195.36 31.3561 187.413 31.1213 178.089C30.5404 156.224 29.3115 115.422 29.1863 109.768Z" fill="#FE7578"/>
<mask id="mask10_11_22" style="mask-type:luminance" maskUnits="userSpaceOnUse" x="29" y="100" width="121" height="105">
<path fill-rule="evenodd" clip-rule="evenodd" d="M29.1863 109.768C29.0262 102.539 57.8857 100.207 57.8857 100.207L61.7056 160.605L137.728 157.379L149.295 204.508L47.0723 197.31C37.9516 195.36 31.3561 187.413 31.1213 178.089C30.5404 156.224 29.3115 115.422 29.1863 109.768Z" fill="white"/>
</mask>
<g mask="url(#mask10_11_22)">
<path d="M-1.10964 190.686C111.803 213.088 129.659 176.841 129.659 176.841L143.925 218.909L84.6031 236.691L-3.80806 202.635" fill="#BA393C"/>
<path d="M21.1893 132.214C29.3913 117.35 63.8 113.412 63.8 113.412" stroke="#BA393C" stroke-width="2.32932" stroke-linecap="round" stroke-linejoin="round"/>
<path d="M35.3191 101.748C33.2059 105.683 34.6559 121.278 34.6559 121.278" stroke="#BA393C" stroke-width="2.32932" stroke-linecap="round" stroke-linejoin="round"/>
<path d="M41.2405 98.1101C39.1272 102.045 40.5772 117.64 40.5772 117.64" stroke="#BA393C" stroke-width="2.32932" stroke-linecap="round" stroke-linejoin="round"/>
<path d="M48.4215 96.3914C46.3082 100.326 47.7582 115.921 47.7582 115.921" stroke="#BA393C" stroke-width="2.32932" stroke-linecap="round" stroke-linejoin="round"/>
<path d="M54.4721 95.197C52.3589 99.1323 53.8089 114.727 53.8089 114.727" stroke="#BA393C" stroke-width="2.32932" stroke-linecap="round" stroke-linejoin="round"/>
<ellipse cx="36.2981" cy="196.473" rx="12.8058" ry="22.938" transform="rotate(-75.6405 36.2981 196.473)" fill="#BA393C"/>
</g>
<path d="M160.749 600.439C179.166 609.347 206.019 593.63 206.019 593.63L164.92 434.162L178.406 264.65L112.288 284.255C112.288 284.255 109.768 387.5 113.198 434.104C114.847 456.488 160.749 600.439 160.749 600.439Z" fill="#274B69"/>
<mask id="mask11_11_22" style="mask-type:luminance" maskUnits="userSpaceOnUse" x="111" y="264" width="96" height="340">
<path fill-rule="evenodd" clip-rule="evenodd" d="M160.749 600.439C179.166 609.347 206.019 593.63 206.019 593.63L164.92 434.162L178.406 264.65L112.288 284.255C112.288 284.255 109.768 387.5 113.198 434.104C114.847 456.488 160.749 600.439 160.749 600.439Z" fill="white"/>
</mask>
<g mask="url(#mask11_11_22)">
<path d="M156.369 278.251C149.835 335.481 113.428 267.798 114.758 342.962C116.373 434.196 79.9473 326.455 79.9473 326.455L95.6115 275.05" fill="#11314B"/>
</g>
<path d="M145.821 336.017L176.317 427.754L270.07 608.116C270.07 608.116 305.502 607.233 312.825 595.963L226.934 418.018L194.221 264.668L128.553 284.075" fill="#274B69"/>
<path d="M201.996 286.407L202.789 299.836C202.789 299.836 172.529 321.537 111.395 297.599L109.949 283.644C144.56 297.84 201.996 286.407 201.996 286.407Z" fill="#FF9763"/>
<path d="M143.154 292.927C142.823 292.363 142.234 291.999 141.582 291.955C141.058 291.92 140.542 292.094 140.146 292.439C139.751 292.784 139.509 293.272 139.473 293.796L138.671 305.609C138.636 306.133 138.81 306.649 139.155 307.045C139.5 307.44 139.988 307.682 140.512 307.718C141.035 307.753 141.552 307.579 141.947 307.234C142.342 306.889 142.585 306.401 142.62 305.877" fill="#FFC562"/>
<path d="M177.557 299.63L179.952 303.3C180.581 304.265 180.435 305.541 179.605 306.339L176.258 309.554C175.72 310.078 174.98 310.343 174.231 310.281C168.598 309.807 144.349 307.682 139.67 305.774L141.432 293.962C141.432 293.962 165.331 298.448 174.402 298.055C175.659 297.982 176.86 298.582 177.557 299.63Z" fill="#FFC562"/>
<path d="M153.968 308.494C155.219 306.512 155.896 304.222 155.926 301.878C156.132 299.198 155.417 296.527 153.899 294.308" stroke="white" stroke-width="2.32932" stroke-linecap="round" stroke-linejoin="round"/>
<path d="M130.196 157.798C130.196 157.798 155.591 148.03 214.757 159.442C216.997 159.879 218.931 161.28 220.046 163.271C221.161 165.263 221.343 167.644 220.544 169.782C215.307 183.897 206.29 218.03 204.769 288.13C204.769 288.13 151.849 317.493 106.317 287.304C106.317 287.304 98.9478 223.347 114.405 182.382" fill="#FE7578"/>
<mask id="mask12_11_22" style="mask-type:luminance" maskUnits="userSpaceOnUse" x="104" y="153" width="118" height="148">
<path fill-rule="evenodd" clip-rule="evenodd" d="M130.196 157.798C130.196 157.798 155.591 148.03 214.757 159.442C216.997 159.879 218.931 161.28 220.046 163.271C221.161 165.263 221.343 167.644 220.544 169.782C215.307 183.897 206.29 218.03 204.769 288.13C204.769 288.13 151.849 317.493 106.317 287.304C106.317 287.304 98.9478 223.347 114.405 182.382" fill="white"/>
</mask>
<g mask="url(#mask12_11_22)">
<path d="M201.136 201.943C182.749 282.649 212.174 295.553 110.966 292.754C-1.82952 289.635 106.787 338.314 106.787 338.314C106.787 338.314 236.768 328.846 236.775 322.513C236.781 316.181 243.171 208.11 243.171 208.11L220.313 183.603L207.206 185.38" fill="#BA393C"/>
<path d="M149.924 192.688L121.451 229.845L172.051 237.449L149.924 192.688Z" fill="#FFC562"/>
<ellipse cx="147.889" cy="218.95" rx="20.2512" ry="21.7624" transform="rotate(-37.784 147.889 218.95)" stroke="#BA393C" stroke-width="2.32932" stroke-linecap="round" stroke-linejoin="round"/>
<path d="M136.074 148.829C140.211 185.63 154.547 195.711 192.587 153.906C230.626 112.101 165.411 140.323 165.411 140.323L139.595 149.744" fill="#F0F3FC"/>
</g>
<path d="M298.915 209.947C298.915 209.947 332.712 140.546 335.146 128.799C335.146 128.799 340.717 123.739 344.308 120.074C347.9 116.409 350.609 99.4057 343.613 99.0393C343.613 99.0393 339.452 95.4142 337.033 97.4357C337.033 97.4357 333.497 94.2194 332.07 94.8939C332.07 94.8939 328.687 92.6007 328.057 93.0133C326.064 94.3183 320.049 106.131 320.049 106.131C319.013 107.912 318.427 109.918 318.341 111.977C318.633 114.271 320.771 122.41 320.771 122.41L285.173 188.107L277.247 206.264L298.915 209.947Z" fill="#FF9763"/>
<mask id="mask13_11_22" style="mask-type:luminance" maskUnits="userSpaceOnUse" x="277" y="92" width="71" height="118">
<path fill-rule="evenodd" clip-rule="evenodd" d="M298.915 209.947C298.915 209.947 332.712 140.546 335.146 128.799C335.146 128.799 340.717 123.739 344.308 120.074C347.9 116.409 350.609 99.4057 343.613 99.0393C343.613 99.0393 339.452 95.4142 337.033 97.4357C337.033 97.4357 333.497 94.2194 332.07 94.8939C332.07 94.8939 328.687 92.6007 328.057 93.0133C326.064 94.3183 320.049 106.131 320.049 106.131C319.013 107.912 318.427 109.918 318.341 111.977C318.633 114.271 320.771 122.41 320.771 122.41L285.173 188.107L277.247 206.264L298.915 209.947Z" fill="white"/>
</mask>
<g mask="url(#mask13_11_22)">
<path d="M338.585 151.003C334.965 130.431 315.949 131.308 315.949 131.308L316.363 155.663L329.38 156.434" fill="#E84B23"/>
</g>
<path d="M331.895 114.875C332.022 113.093 331.551 111.319 330.557 109.835L335.254 109.773C335.254 109.773 338.987 118.073 341.528 114.743C341.528 114.743 338.323 105.301 337.163 104.43C336.003 103.559 322.107 101.096 321.55 101.732C320.992 102.368 317.974 110.004 318.341 111.976C318.708 113.948 320.771 122.409 320.771 122.409" fill="#FF9763"/>
<path d="M186.585 194.052L274.015 227.869C282.397 229.7 291.648 224.907 296.385 216.267C307.472 196.047 331.824 154.971 334.689 149.744C338.472 142.844 314.114 130.256 314.114 130.256L281.452 183.14L217.205 160.361" fill="#FE7578"/>
<mask id="mask14_11_22" style="mask-type:luminance" maskUnits="userSpaceOnUse" x="186" y="130" width="150" height="99">
<path fill-rule="evenodd" clip-rule="evenodd" d="M186.585 194.052L274.015 227.869C282.397 229.7 291.648 224.907 296.385 216.267C307.472 196.047 331.824 154.971 334.689 149.744C338.472 142.844 314.114 130.256 314.114 130.256L281.452 183.14L217.205 160.361" fill="white"/>
</mask>
<g mask="url(#mask14_11_22)">
<circle cx="294.706" cy="237.299" r="27.3517" fill="#BA393C"/>
</g>
<path d="M178.98 155.003L153.597 171.201L151.075 162.319L151.127 116.089L179.023 116.119L178.98 155.003Z" fill="#FF9763"/>
<mask id="mask15_11_22" style="mask-type:luminance" maskUnits="userSpaceOnUse" x="151" y="116" width="29" height="56">
<path fill-rule="evenodd" clip-rule="evenodd" d="M178.98 155.003L153.597 171.201L151.075 162.319L151.127 116.089L179.023 116.119L178.98 155.003Z" fill="white"/>
</mask>
<g mask="url(#mask15_11_22)">
<path d="M139.424 160.664C161.558 154.335 150.143 147.229 161.759 142.422C173.375 137.615 161.467 132.22 161.467 132.22L153.557 128.707L140.111 133.28L143.566 150.153" fill="#E84B23"/>
</g>
<path d="M179.234 117.34L184.663 91.3445L143.464 94.2173C138.219 101.576 135.221 124.793 137.887 137.531C138.974 142.731 154.858 139.587 165.709 136.793" fill="#FF9763"/>
<mask id="mask16_11_22" style="mask-type:luminance" maskUnits="userSpaceOnUse" x="136" y="91" width="49" height="50">
<path fill-rule="evenodd" clip-rule="evenodd" d="M179.234 117.34L184.663 91.3445L143.464 94.2173C138.219 101.576 135.221 124.793 137.887 137.531C138.974 142.731 154.858 139.587 165.709 136.793" fill="white"/>
</mask>
<g mask="url(#mask16_11_22)">
<ellipse opacity="0.27" cx="135.234" cy="119.613" rx="3.97135" ry="5.35265" transform="rotate(-86.4865 135.234 119.613)" fill="#E84B23"/>
<ellipse opacity="0.27" cx="160.457" cy="121.271" rx="3.97135" ry="5.35265" transform="rotate(-86.4865 160.457 121.271)" fill="#E84B23"/>
<path d="M141.215 114.774C140.721 114.713 140.272 114.458 139.968 114.065C139.663 113.672 139.529 113.173 139.594 112.68L140.04 109.579C140.202 108.553 141.161 107.849 142.189 108C142.682 108.061 143.131 108.316 143.436 108.709C143.74 109.102 143.875 109.6 143.81 110.093L143.364 113.194C143.201 114.221 142.243 114.925 141.215 114.774Z" fill="#190000"/>
<path d="M155.369 115.653C154.875 115.593 154.426 115.337 154.122 114.944C153.817 114.551 153.683 114.053 153.748 113.56L154.194 110.459C154.356 109.432 155.315 108.728 156.343 108.879C156.836 108.94 157.285 109.195 157.59 109.588C157.894 109.981 158.029 110.48 157.964 110.973L157.518 114.074C157.355 115.1 156.397 115.804 155.369 115.653Z" fill="#190000"/>
<path d="M142.341 103.609C138.337 104.177 139.103 106.364 141.629 106.168C144.156 105.971 144.956 103.238 142.341 103.609Z" fill="#190000"/>
<path d="M156.872 104.393C160.561 106.011 159.522 107.791 157.148 106.927C154.774 106.062 154.462 103.336 156.872 104.393Z" fill="#190000"/>
<path d="M149.536 115.641C149.502 116.894 148.414 116.37 147.056 116.335C145.697 116.301 144.582 116.77 144.616 115.517C144.756 114.241 145.85 113.285 147.133 113.317C148.416 113.35 149.461 114.36 149.536 115.641Z" fill="#E84B23"/>
<path d="M141.575 122.079C142.864 131.183 151.783 127.815 152.213 122.215C152.228 121.921 152.057 121.651 151.785 121.539C148.674 120.383 145.266 120.301 142.103 121.307C141.758 121.395 141.532 121.726 141.575 122.079Z" fill="#C1525F"/>
<mask id="mask17_11_22" style="mask-type:luminance" maskUnits="userSpaceOnUse" x="141" y="120" width="12" height="8">
<path fill-rule="evenodd" clip-rule="evenodd" d="M141.575 122.079C142.864 131.183 151.783 127.815 152.213 122.215C152.228 121.921 152.057 121.651 151.785 121.539C148.674 120.383 145.266 120.301 142.103 121.307C141.758 121.395 141.532 121.726 141.575 122.079Z" fill="white"/>
</mask>
<g mask="url(#mask17_11_22)">
<ellipse cx="147.959" cy="127.363" rx="4.72147" ry="4.11936" transform="rotate(-13.4431 147.959 127.363)" fill="#993443"/>
<path d="M143.271 120.7C143.217 121.227 143.278 121.761 143.452 122.262C144.415 123.196 149.206 122.91 149.873 122.406C150.042 121.73 150.129 121.037 150.133 120.34L144.007 120.393" fill="#F0F3FC"/>
</g>
</g>
<path d="M145.769 75.7933C114.302 73.6923 127.86 82.0158 133.811 84.3663C139.763 86.7168 91.8303 71.451 99.9504 84.329C108.071 97.2071 133.513 96.4652 158.679 98.2947C183.845 100.124 163.274 118.58 175.26 120.689C187.246 122.798 207.413 79.9095 145.769 75.7933Z" fill="#3A3530"/>
<path d="M142.304 154.368L150.845 147.653L153.597 171.201L148.333 176.701L142.304 154.368Z" fill="#F0F3FC"/>
<path d="M156.629 177.451L153.597 171.201L179.023 145.331L186.585 155.213L156.629 177.451Z" fill="#F0F3FC"/>
<path d="M175.826 319.789C178.449 344.274 199.145 338.152 199.145 338.152L175.826 319.789Z" fill="#274B69"/>
<path d="M175.826 319.789C178.449 344.274 199.145 338.152 199.145 338.152" stroke="#11314B" stroke-width="3.10582"/>
<ellipse cx="139.713" cy="111.744" rx="7.65173" ry="4.73676" transform="rotate(-83.1696 139.713 111.744)" stroke="#190000" stroke-width="2.32932" stroke-linecap="round" stroke-linejoin="round"/>
<ellipse cx="155.763" cy="111.882" rx="7.65173" ry="5.8963" transform="rotate(-83.1696 155.763 111.882)" stroke="#190000" stroke-width="2.32932" stroke-linecap="round" stroke-linejoin="round"/>
<path d="M149.839 112.438C149.119 111.583 148.029 111.131 146.916 111.226C145.803 111.32 144.804 111.949 144.238 112.912" stroke="#190000" stroke-width="2.32932" stroke-linecap="round" stroke-linejoin="round"/>
<path d="M161.98 111.19L171.162 111.883" stroke="#190000" stroke-width="2.32932" stroke-linecap="round" stroke-linejoin="round"/>
<path d="M166.353 116.473C172.06 106.402 191.089 105.414 177.152 126.993L166.353 116.473Z" fill="#FF9763"/>
<path d="M146.114 85.7443C146.347 86.7902 147.033 87.6785 147.986 88.169C149.018 88.6526 150.14 88.9131 151.28 88.9336C151.93 88.9309 152.456 88.4049 152.458 87.7551C152.442 87.1109 151.924 86.5926 151.28 86.5764C150.967 86.5503 150.655 86.5228 150.344 86.4831L150.658 86.5253C150.3 86.4815 149.947 86.4085 149.602 86.3069C149.511 86.2788 149.421 86.2451 149.331 86.214C149.117 86.1406 149.575 86.3326 149.307 86.2011C149.174 86.1359 149.045 86.0615 148.922 85.9786C148.826 85.9136 148.718 85.7638 148.946 86.004C148.893 85.9477 148.825 85.9015 148.769 85.8476C148.713 85.7937 148.658 85.7367 148.606 85.6777C148.58 85.6485 148.555 85.6186 148.531 85.588C148.648 85.7433 148.681 85.784 148.628 85.7102C148.549 85.5874 148.486 85.46 148.414 85.3342C148.592 85.6435 148.467 85.4608 148.435 85.3446C148.415 85.2697 148.399 85.1937 148.387 85.117C148.305 84.8206 148.111 84.5679 147.845 84.4125C147.575 84.2546 147.254 84.2104 146.951 84.2898C146.649 84.3691 146.39 84.5653 146.232 84.8354C146.088 85.115 146.046 85.4362 146.113 85.7436L146.114 85.7443Z" fill="#190000"/>
<path d="M173.79 119.388C173.904 119.283 174.018 119.179 174.141 119.084L173.902 119.269C174.022 119.175 174.153 119.097 174.292 119.035L174.011 119.154C174.099 119.118 174.192 119.093 174.286 119.079L173.973 119.121C174.036 119.114 174.101 119.113 174.164 119.12L173.851 119.078C173.904 119.086 173.955 119.101 174.004 119.121L173.723 119.002C173.778 119.027 173.831 119.058 173.879 119.095L173.64 118.91C173.693 118.953 173.74 119.001 173.782 119.054L173.597 118.816C173.632 118.863 173.661 118.914 173.685 118.968L173.566 118.687C173.585 118.733 173.598 118.781 173.605 118.83L173.563 118.517C173.567 118.552 173.567 118.588 173.563 118.624L173.605 118.31C173.6 118.346 173.591 118.38 173.578 118.413L173.697 118.131C173.684 118.159 173.669 118.186 173.651 118.211L173.836 117.972L173.798 118.016C173.581 118.24 173.458 118.538 173.453 118.85C173.455 119.162 173.579 119.461 173.798 119.683C174.02 119.903 174.319 120.027 174.631 120.028C174.943 120.025 175.242 119.901 175.465 119.683C175.557 119.587 175.638 119.482 175.708 119.369C175.717 119.354 175.725 119.338 175.733 119.321C175.786 119.217 175.831 119.109 175.866 118.998C175.871 118.981 175.874 118.964 175.877 118.946C175.9 118.831 175.916 118.714 175.923 118.597C175.922 118.459 175.906 118.32 175.875 118.185C175.868 118.149 175.859 118.113 175.846 118.078C175.802 117.947 175.747 117.821 175.681 117.7C175.61 117.587 175.53 117.48 175.442 117.38C175.414 117.345 175.385 117.313 175.353 117.283C175.017 116.964 174.577 116.778 174.114 116.758C174.014 116.758 173.914 116.767 173.815 116.785C173.711 116.795 173.608 116.812 173.506 116.837C173.368 116.882 173.233 116.936 173.101 116.999C173.049 117.022 172.997 117.047 172.948 117.075C172.761 117.189 172.585 117.318 172.419 117.46C172.316 117.542 172.219 117.632 172.123 117.722C171.662 118.182 171.662 118.928 172.123 119.388C172.344 119.609 172.644 119.733 172.956 119.734C173.267 119.725 173.564 119.602 173.789 119.388H173.79Z" fill="#190000"/>
<path d="M123.874 262.15C129.423 267.16 136.348 270.39 143.753 271.421C144.377 271.57 145.011 271.21 145.202 270.597C145.371 269.97 145.004 269.324 144.379 269.148C137.373 268.214 130.81 265.195 125.541 260.483C124.416 259.471 122.744 261.133 123.874 262.15Z" fill="#BA393C"/>
<path d="M59.4221 160.325C59.3685 160.531 59.3092 160.736 59.2413 160.937C59.2112 161.027 59.1797 161.116 59.1467 161.205C59.1261 161.26 59.1049 161.315 59.0831 161.37C59.0688 161.406 59.0018 161.564 59.0755 161.393C59.1543 161.211 59.0685 161.408 59.0506 161.448L58.9915 161.577C58.9467 161.673 58.9 161.769 58.8512 161.864C58.7542 162.053 58.6506 162.239 58.5404 162.421C58.4363 162.593 58.3264 162.761 58.2108 162.925C58.1497 163.012 58.0857 163.097 58.0227 163.183C57.9331 163.305 58.1739 162.996 58.0766 163.112C58.0386 163.157 58.0025 163.204 57.9647 163.25C57.6924 163.577 57.397 163.884 57.081 164.169C56.6252 164.631 56.6252 165.374 57.081 165.836C57.547 166.282 58.2817 166.282 58.7477 165.836C60.1817 164.527 61.2055 162.83 61.6951 160.951C61.8071 160.545 61.6939 160.11 61.3982 159.81C61.1025 159.51 60.6693 159.391 60.2617 159.497C59.8541 159.603 59.534 159.919 59.4221 160.325V160.325Z" fill="#BA393C"/>
<path d="M280.123 183.668C280.432 185.907 280.3 188.185 279.735 190.373C279.562 191.001 279.931 191.65 280.559 191.823C281.186 191.996 281.835 191.627 282.008 191C282.631 188.608 282.791 186.12 282.481 183.668C282.464 183.024 281.946 182.506 281.302 182.489C280.732 182.515 280.038 183.013 280.123 183.668Z" fill="#BA393C"/>
<path d="M53.944 87.3611H52.778C52.1344 87.3784 51.6167 87.8961 51.5993 88.5398L51.6415 88.8531C51.6955 89.0499 51.7997 89.2294 51.9439 89.3739C52.1677 89.5908 52.4657 89.7143 52.7774 89.7191H53.9433C54.587 89.702 55.1049 89.1842 55.122 88.5404L55.0798 88.2271C55.0259 88.0302 54.9217 87.8507 54.7774 87.7063C54.5536 87.4894 54.2556 87.366 53.944 87.3611V87.3611Z" fill="#E84B23"/>
<path d="M396.605 214.695C396.605 214.695 412.624 184.791 424.928 175.436C436.251 166.826 441.569 168.901 442.654 164.682C443.482 161.46 430.553 166.206 428.945 162.59C427.337 158.974 433.928 147.627 439.322 145.465C443.872 143.641 440.12 141.088 434.851 142.148C427.825 143.561 417.052 159.275 414.159 167.412C411.266 175.548 390.447 190.617 383.04 204.21C377.391 214.58 396.605 214.695 396.605 214.695Z" fill="#FF9763"/>
<mask id="mask18_11_22" style="mask-type:luminance" maskUnits="userSpaceOnUse" x="382" y="141" width="61" height="74">
<path fill-rule="evenodd" clip-rule="evenodd" d="M396.605 214.695C396.605 214.695 412.624 184.791 424.928 175.436C436.251 166.826 441.569 168.901 442.654 164.682C443.482 161.46 430.553 166.206 428.945 162.59C427.337 158.974 433.928 147.627 439.322 145.465C443.872 143.641 440.12 141.088 434.851 142.148C427.825 143.561 417.052 159.275 414.159 167.412C411.266 175.548 390.447 190.617 383.04 204.21C377.391 214.58 396.605 214.695 396.605 214.695Z" fill="white"/>
</mask>
<g mask="url(#mask18_11_22)">
<path d="M386.305 191.339C393.893 204.748 401.111 200.121 404.627 210.485C408.143 220.849 385.026 212.182 385.026 212.182L380.383 188.647" fill="#E84B23"/>
</g>
<path d="M264.658 382.633C264.755 384.864 275.804 416.799 278.842 466.367L265.59 606.036C265.59 606.036 303.914 611.761 308.623 607.102C308.623 607.102 331.334 314.382 314.411 303.094C302.81 295.354 279.852 319.415 279.852 319.415L264.658 382.633Z" fill="#274B69"/>
<path d="M306.622 309.292C306.622 309.292 271.165 258.605 254.453 278.984C240.093 296.494 235.88 441.42 235.88 441.42C226.057 484.867 172.165 584.404 172.165 584.404C169.57 583.787 193.042 611.313 205.265 603.914C205.265 603.914 249.634 542.805 278.842 466.367C278.842 466.367 289.536 390.749 299.663 347.673" fill="#274B69"/>
<path d="M388.648 194.287C387.944 196.709 399.085 206.321 400.271 208.889C400.271 208.889 386.19 233.235 371.594 240.297C356.999 247.359 303.983 236.513 303.983 236.513L286.787 192.32C286.787 192.32 363.924 213.14 370.516 210.933C376.072 209.072 382.768 201.299 384.733 198.904C384.837 198.777 388.693 194.133 388.648 194.287Z" fill="#FFC562"/>
<mask id="mask19_11_22" style="mask-type:luminance" maskUnits="userSpaceOnUse" x="286" y="192" width="115" height="51">
<path fill-rule="evenodd" clip-rule="evenodd" d="M388.648 194.287C387.944 196.709 399.085 206.321 400.271 208.889C400.271 208.889 386.19 233.235 371.594 240.297C356.999 247.359 303.983 236.513 303.983 236.513L286.787 192.32C286.787 192.32 363.924 213.14 370.516 210.933C376.072 209.072 382.768 201.299 384.733 198.904C384.837 198.777 388.693 194.133 388.648 194.287Z" fill="white"/>
</mask>
<g mask="url(#mask19_11_22)">
<path d="M382.001 235.839C325.494 252.742 327.891 226.129 309.688 212.182C296.54 202.109 301.175 247.313 301.175 247.313L370.513 252.495" fill="#D89D35"/>
</g>
<path d="M286.787 192.32L264.618 192.206C262.521 192.452 260.454 192.904 258.446 193.557C250.869 194.587 201.253 215.032 187.48 275.672C180.367 306.995 211.397 289.208 211.397 289.208C211.397 289.208 220.605 265.604 237.821 251.739C239.309 256.816 241.07 261.81 243.097 266.697C247.223 275.846 245.465 286.576 238.635 293.93C236.925 295.879 236.332 298.568 237.065 301.055C237.798 303.542 239.754 305.48 242.248 306.19C260.226 312.094 293.461 320.44 316.7 311.097C318.867 310.297 320.546 308.545 321.256 306.347C321.965 304.148 321.625 301.746 320.335 299.83C314.303 290.875 305.515 274.917 311.288 264.785C317.467 253.939 325.007 230.836 311.013 211.237" fill="#FFC562"/>
<mask id="mask20_11_22" style="mask-type:luminance" maskUnits="userSpaceOnUse" x="186" y="192" width="136" height="124">
<path fill-rule="evenodd" clip-rule="evenodd" d="M286.787 192.32L264.618 192.206C262.521 192.452 260.454 192.904 258.446 193.557C250.869 194.587 201.253 215.032 187.48 275.672C180.367 306.995 211.397 289.208 211.397 289.208C211.397 289.208 220.605 265.604 237.821 251.739C239.309 256.816 241.07 261.81 243.097 266.697C247.223 275.846 245.465 286.576 238.635 293.93C236.925 295.879 236.332 298.568 237.065 301.055C237.798 303.542 239.754 305.48 242.248 306.19C260.226 312.094 293.461 320.44 316.7 311.097C318.867 310.297 320.546 308.545 321.256 306.347C321.965 304.148 321.625 301.746 320.335 299.83C314.303 290.875 305.515 274.917 311.288 264.785C317.467 253.939 325.007 230.836 311.013 211.237" fill="white"/>
</mask>
<g mask="url(#mask20_11_22)">
<path d="M249.785 242.686C234.627 251.722 273.622 260.528 256.128 277.228C238.634 293.929 265.103 311.846 276.311 313.523C287.518 315.199 241.477 315.292 241.477 315.292L230.547 291.806L236.571 252.779L249.785 242.686Z" fill="#D89D35"/>
<path d="M291.97 233.104L274.677 269.982L315.26 266.518L291.97 233.104Z" fill="#F0F3FC"/>
<circle cx="277.7" cy="243.721" r="15.0629" fill="#935738"/>
<rect x="298.767" y="230.111" width="21.9111" height="21.9111" fill="#FE7578"/>
</g>
<path d="M290.145 170.495V195.262C290.145 195.262 303.681 212.228 293.823 212.182C284.123 212.138 266.081 200.471 266.817 195.812L266.795 158.667L290.145 170.495Z" fill="#FF9763"/>
<mask id="mask21_11_22" style="mask-type:luminance" maskUnits="userSpaceOnUse" x="266" y="158" width="32" height="55">
<path fill-rule="evenodd" clip-rule="evenodd" d="M290.145 170.495V195.262C290.145 195.262 303.681 212.228 293.823 212.182C284.123 212.138 266.081 200.471 266.817 195.812L266.795 158.667L290.145 170.495Z" fill="white"/>
</mask>
<g mask="url(#mask21_11_22)">
<path d="M303.553 192.443C279.59 192.205 286.554 175.36 281.099 175.249C275.643 175.137 292.104 169.242 292.104 169.242L304.562 183.501L303.553 192.443Z" fill="#E84B23"/>
</g>
<path d="M280.715 176.192C282.432 176.806 284.222 177.199 286.039 177.359C294.723 177.359 297.852 165.895 297.852 153.324C297.856 150.451 297.471 147.592 296.707 144.823C292.702 139.235 278.424 137.037 274.988 133.046C274.649 133.297 274.321 133.571 273.996 133.855C269.877 137.469 266.992 143.733 266.487 151.023C263.867 150.829 261.365 152.139 260.032 154.402C258.698 156.665 258.766 159.489 260.205 161.686C261.644 163.883 264.206 165.073 266.814 164.754C267.372 164.752 267.929 164.696 268.477 164.586" fill="#FF9763"/>
<mask id="mask22_11_22" style="mask-type:luminance" maskUnits="userSpaceOnUse" x="259" y="133" width="39" height="45">
<path fill-rule="evenodd" clip-rule="evenodd" d="M280.715 176.192C282.432 176.806 284.222 177.199 286.039 177.359C294.723 177.359 297.852 165.895 297.852 153.324C297.856 150.451 297.471 147.592 296.707 144.823C292.702 139.235 278.424 137.037 274.988 133.046C274.649 133.297 274.321 133.571 273.996 133.855C269.877 137.469 266.992 143.733 266.487 151.023C263.867 150.829 261.365 152.139 260.032 154.402C258.698 156.665 258.766 159.489 260.205 161.686C261.644 163.883 264.206 165.073 266.814 164.754C267.372 164.752 267.929 164.696 268.477 164.586" fill="white"/>
</mask>
<g mask="url(#mask22_11_22)">
<ellipse opacity="0.27" cx="299.79" cy="164.149" rx="5.16046" ry="6.96125" transform="rotate(-66.7758 299.79 164.149)" fill="#E84B23"/>
<ellipse opacity="0.27" cx="276.61" cy="161.035" rx="3.76992" ry="5.08553" transform="rotate(-66.7758 276.61 161.035)" fill="#E84B23"/>
<rect x="295.84" y="157.898" width="3.65165" height="6.73512" rx="1.82582" transform="rotate(179.873 295.84 157.898)" fill="#190000"/>
<rect x="282.288" y="156.881" width="3.65166" height="6.73514" rx="1.82582" transform="rotate(179.874 282.288 156.881)" fill="#190000"/>
<path d="M294.446 146.862C298.174 147.941 297.153 149.974 294.778 149.452C292.403 148.929 292.01 146.157 294.446 146.862Z" fill="#190000"/>
<path d="M280.531 145.723C276.807 146.819 277.555 148.692 279.928 148.159C282.3 147.627 282.964 145.008 280.531 145.723Z" fill="#190000"/>
<path d="M285.99 157.658C285.854 158.884 286.958 158.515 288.254 158.66C289.55 158.805 290.546 159.408 290.683 158.181C290.755 156.927 289.833 155.836 288.584 155.697C287.336 155.557 286.197 156.419 285.99 157.658Z" fill="#E84B23"/>
<path d="M292.69 164.981C290.241 173.694 282.218 169.24 282.563 163.72C282.585 163.435 282.784 163.194 283.06 163.117C286.165 162.396 289.425 162.764 292.292 164.159C292.611 164.296 292.781 164.646 292.69 164.981Z" fill="#C1525F"/>
<mask id="mask23_11_22" style="mask-type:luminance" maskUnits="userSpaceOnUse" x="282" y="162" width="11" height="8">
<path fill-rule="evenodd" clip-rule="evenodd" d="M292.69 164.981C290.241 173.694 282.218 169.24 282.563 163.72C282.585 163.435 282.784 163.194 283.06 163.117C286.165 162.396 289.425 162.764 292.292 164.159C292.611 164.296 292.781 164.646 292.69 164.981Z" fill="white"/>
</mask>
<g mask="url(#mask23_11_22)">
<ellipse cx="285.912" cy="169.299" rx="4.04964" ry="4.53734" transform="rotate(-65.7001 285.912 169.299)" fill="#993443"/>
<path d="M291.264 163.413C291.245 163.935 291.114 164.447 290.882 164.914C289.841 165.699 285.327 164.793 284.76 164.214C284.69 163.532 284.701 162.844 284.791 162.164L290.606 163.018" fill="#F0F3FC"/>
</g>
</g>
<path d="M246.719 334.388C246.719 334.388 255.609 335.773 265.049 322.964C266.667 320.769 255.329 315.111 248.286 311.57C241.973 308.395 214.914 285.392 209.37 280.656C208.678 280.064 207.798 279.739 206.887 279.74C200.339 279.498 194.297 283.251 191.611 289.228C191.221 290.111 191.588 291.145 192.448 291.584C199.769 295.486 230.073 314.284 239.239 319.612C241.353 321.815 240.615 333.187 246.719 334.388Z" fill="#FF9763"/>
<mask id="mask24_11_22" style="mask-type:luminance" maskUnits="userSpaceOnUse" x="191" y="279" width="75" height="56">
<path fill-rule="evenodd" clip-rule="evenodd" d="M246.719 334.388C246.719 334.388 255.609 335.773 265.049 322.964C266.667 320.769 255.329 315.111 248.286 311.57C241.973 308.395 214.914 285.392 209.37 280.656C208.678 280.064 207.798 279.739 206.887 279.74C200.339 279.498 194.297 283.251 191.611 289.228C191.221 290.111 191.588 291.145 192.448 291.584C199.769 295.486 230.073 314.284 239.239 319.612C241.352 321.815 240.615 333.187 246.719 334.388Z" fill="white"/>
</mask>
<g mask="url(#mask24_11_22)">
<path d="M211.788 278.867C192.911 283.309 195.41 294.598 195.41 294.598L184.861 289.879L189.395 280.81L207.253 275.536" fill="#E84B23"/>
</g>
<path d="M271.045 120.349C240.298 121.793 221.065 174.166 266.108 175.865C266.108 175.865 270.918 168.87 268.477 164.586C267.93 164.695 267.373 164.751 266.814 164.754C264.207 165.072 261.645 163.882 260.205 161.685C258.766 159.488 258.699 156.664 260.032 154.401C261.365 152.138 263.868 150.828 266.487 151.022C278.117 149.221 274.988 133.046 274.988 133.046C278.425 137.037 292.818 148.162 299.664 143.659C300.076 143.394 300.457 143.083 300.799 142.733C307.44 135.839 292.379 119.346 271.045 120.349Z" fill="#3A3530"/>
<path d="M253.059 240.309C244.751 243.078 236.571 252.778 236.571 252.778L253.059 240.309Z" fill="#FFC562"/>
<path d="M266.03 320.324C262.095 334.024 245.189 335.481 245.189 335.481" stroke="#11314B" stroke-width="2.32932" stroke-linecap="round" stroke-linejoin="round"/>
<path d="M266.548 155.187L266.504 155.174C266.448 155.163 266.374 155.156 266.329 155.15C266.277 155.143 266.209 155.13 266.15 155.127C266.136 155.126 266.121 155.126 266.106 155.127L266.094 155.128C266.019 155.136 265.853 155.159 265.778 155.171L265.753 155.175L265.711 155.187C265.602 155.226 265.494 155.272 265.39 155.324L265.351 155.346L265.332 155.359C265.248 155.42 265.159 155.489 265.079 155.555C265.054 155.575 265.032 155.597 265.011 155.621C264.945 155.702 264.879 155.789 264.817 155.873L264.803 155.892L264.778 155.934C264.749 155.992 264.723 156.051 264.7 156.112C264.677 156.168 264.644 156.233 264.625 156.295L264.614 156.338C264.591 156.456 264.575 156.575 264.567 156.695C264.566 156.712 264.566 156.729 264.568 156.745L264.569 156.758C264.581 156.854 264.596 156.982 264.612 157.077L264.617 157.101C264.653 157.214 264.698 157.323 264.752 157.427C264.759 157.444 264.768 157.46 264.778 157.476C265.013 157.891 265.482 158.116 265.953 158.038C266.108 158.032 266.26 157.983 266.391 157.899L266.629 157.714C266.774 157.569 266.878 157.39 266.932 157.193L266.974 156.88C266.974 156.671 266.919 156.465 266.813 156.285C266.802 156.269 266.793 156.252 266.785 156.234L266.904 156.516C266.894 156.493 266.888 156.468 266.884 156.444L266.926 156.757C266.923 156.728 266.923 156.699 266.926 156.67L266.884 156.983C266.889 156.948 266.899 156.913 266.913 156.88L266.794 157.161C266.81 157.125 266.83 157.091 266.854 157.06L266.669 157.299C266.693 157.268 266.721 157.24 266.752 157.216L266.514 157.401C266.541 157.38 266.57 157.363 266.601 157.349L266.32 157.468C266.347 157.457 266.375 157.449 266.404 157.445L266.09 157.487C266.117 157.483 266.144 157.483 266.171 157.487L265.858 157.445C265.879 157.448 265.9 157.454 265.92 157.461C266.073 157.51 266.235 157.518 266.391 157.482C266.547 157.476 266.698 157.427 266.829 157.343C267.086 157.178 267.277 156.929 267.371 156.638L267.413 156.325C267.413 156.116 267.358 155.91 267.252 155.73L267.067 155.492C266.923 155.347 266.743 155.243 266.546 155.189L266.548 155.187Z" fill="#190000"/>
<path d="M281.126 288.478C286.706 290.928 292.937 291.474 298.858 290.031C300.331 289.67 299.707 287.396 298.231 287.758C292.924 289.064 287.336 288.602 282.316 286.443C281.751 286.136 281.045 286.321 280.703 286.866C280.379 287.428 280.567 288.147 281.126 288.478L281.126 288.478Z" fill="#D89D35"/>
<path d="M368.565 212.753C368.161 214.441 368.364 216.218 369.138 217.772C369.469 218.331 370.188 218.52 370.751 218.195C371.299 217.856 371.485 217.146 371.174 216.582C371.137 216.507 371.103 216.431 371.067 216.355C371.017 216.251 371.173 216.623 371.076 216.372C371.02 216.228 370.969 216.081 370.925 215.933C370.836 215.636 370.77 215.332 370.726 215.025L370.768 215.339C370.694 214.795 370.692 214.243 370.761 213.698L370.719 214.012C370.749 213.799 370.789 213.588 370.839 213.379C371.012 212.752 370.643 212.102 370.016 211.929C369.388 211.756 368.739 212.125 368.566 212.753L368.565 212.753Z" fill="#D89D35"/>
<path d="M259.558 134.207C259.562 134.474 259.543 134.735 259.522 135.001C259.51 135.163 259.573 134.704 259.525 134.977C259.515 135.032 259.506 135.087 259.495 135.142C259.469 135.279 259.439 135.415 259.404 135.55C259.336 135.808 259.247 136.055 259.155 136.305C259.1 136.456 259.277 136.043 259.159 136.293C259.135 136.343 259.112 136.394 259.088 136.444C259.027 136.57 258.963 136.693 258.894 136.815C258.768 137.033 258.632 137.244 258.485 137.448C258.326 137.673 258.595 137.32 258.491 137.442C258.446 137.495 258.403 137.551 258.358 137.603C258.276 137.699 258.191 137.792 258.104 137.882C258.007 137.982 257.907 138.079 257.804 138.172C257.743 138.227 257.538 138.342 257.518 138.416C257.539 138.342 257.695 138.286 257.524 138.409C257.468 138.45 257.41 138.489 257.352 138.528C257.236 138.606 257.117 138.679 256.996 138.749C256.435 139.078 256.247 139.799 256.575 140.36C256.903 140.921 257.624 141.111 258.186 140.784C260.511 139.412 261.932 136.907 261.916 134.207C261.921 133.782 261.698 133.388 261.331 133.174C260.964 132.96 260.511 132.96 260.144 133.174C259.777 133.388 259.554 133.782 259.559 134.207L259.558 134.207Z" fill="#190000"/>
<path d="M427.886 162.078L426.574 162.733C426.158 162.968 425.933 163.437 426.011 163.908C426.018 164.064 426.066 164.215 426.151 164.346C426.307 164.611 426.559 164.805 426.855 164.887L427.169 164.93C427.378 164.93 427.583 164.874 427.764 164.769L429.075 164.114C429.491 163.879 429.716 163.41 429.638 162.939C429.631 162.783 429.583 162.632 429.498 162.501C429.342 162.236 429.09 162.042 428.794 161.959L428.48 161.917C428.271 161.917 428.066 161.972 427.886 162.078Z" fill="#E84B23"/>
<path d="M250.433 226.771C253.028 230.542 252.936 235.546 250.205 239.219C249.765 239.687 249.765 240.418 250.205 240.886C250.667 241.342 251.41 241.342 251.872 240.886C255.355 236.448 255.595 230.276 252.469 225.581C251.608 224.345 249.564 225.522 250.433 226.771V226.771Z" fill="#D89D35"/>
</g>
<rect x="374.707" y="149.792" width="30.3596" height="54.9244" rx="6.02616" fill="#2976DF"/>
<mask id="mask25_11_22" style="mask-type:luminance" maskUnits="userSpaceOnUse" x="374" y="149" width="32" height="56">
<rect x="374.707" y="149.792" width="30.3596" height="54.9244" rx="6.02616" fill="white"/>
</mask>
<g mask="url(#mask25_11_22)">
<path d="M385.831 184.691C393.91 199.652 391.221 209.699 391.221 209.699H405.321L407.46 183.616H380.463" fill="#1665C4"/>
</g>
<rect x="378.612" y="155.335" width="8.17068" height="10.0778" rx="1.88798" fill="#589BF7"/>
<path d="M392.83 183.616C392.83 183.616 402.673 198.733 394.955 215.55" stroke="#3A3530" stroke-width="1.34232" stroke-linecap="round" stroke-linejoin="round"/>
<rect x="386.783" y="220.464" width="6.04666" height="98.2279" fill="#589BF7"/>
<mask id="mask26_11_22" style="mask-type:luminance" maskUnits="userSpaceOnUse" x="386" y="220" width="7" height="99">
<rect x="386.783" y="220.464" width="6.04666" height="98.2279" fill="white"/>
</mask>
<g mask="url(#mask26_11_22)">
<path d="M385.353 255.561C386.856 242.477 394.362 241.771 394.362 241.771L394.955 234.379L382.256 236.328" fill="#2976DF"/>
</g>
<rect x="384.657" y="232.179" width="10.2984" height="10.2984" rx="2.19946" fill="#F0F3FC"/>
<path fill-rule="evenodd" clip-rule="evenodd" d="M347.644 159.621C354.707 142.568 371.348 131.449 389.806 131.449C401.91 131.449 413.517 136.257 422.076 144.816C430.634 153.374 435.442 164.982 435.442 177.085C435.442 195.543 424.324 212.184 407.271 219.248C390.217 226.311 370.588 222.407 357.537 209.355C344.485 196.303 340.58 176.674 347.644 159.621ZM356.447 190.903C362.035 204.396 375.202 213.193 389.806 213.193C409.748 213.193 425.914 197.027 425.914 177.085C425.914 162.481 417.117 149.314 403.624 143.726C390.132 138.137 374.601 141.226 364.274 151.553C353.947 161.88 350.858 177.411 356.447 190.903Z" fill="#F0F3FC"/>
<mask id="mask27_11_22" style="mask-type:luminance" maskUnits="userSpaceOnUse" x="344" y="131" width="92" height="92">
<path fill-rule="evenodd" clip-rule="evenodd" d="M389.806 131.449C371.348 131.449 354.707 142.568 347.644 159.621C340.58 176.674 344.485 196.303 357.537 209.355C370.589 222.407 390.217 226.311 407.271 219.248C424.324 212.184 435.442 195.543 435.442 177.085C435.442 164.982 430.634 153.374 422.076 144.816C413.517 136.257 401.91 131.449 389.806 131.449ZM389.806 213.193C375.202 213.193 362.035 204.396 356.447 190.903C350.858 177.411 353.947 161.88 364.274 151.553C374.601 141.226 390.132 138.137 403.624 143.726C417.117 149.314 425.914 162.481 425.914 177.085C425.914 197.027 409.748 213.193 389.806 213.193Z" fill="white"/>
</mask>
<g mask="url(#mask27_11_22)">
<path d="M420.234 188.529C439.794 193.783 454.79 181.096 454.79 181.096L435.442 214.288L412.737 199.583" fill="#D6DCF2"/>
</g>
<rect x="372.44" y="175.617" width="35.0206" height="10.9596" rx="1.23396" fill="#9A7ED9"/>
<circle cx="392.83" cy="180.215" r="8.31432" fill="#6F4EB9"/>
<path d="M395.519 164.423L393.895 167.035C393.715 167.35 393.82 167.751 394.131 167.937C394.447 168.113 394.845 168.009 395.033 167.701L396.657 165.089C396.837 164.774 396.732 164.373 396.421 164.187C396.105 164.011 395.707 164.115 395.519 164.423Z" fill="#1665C4"/>
<path d="M391.732 278.404L391.08 279.056C390.833 279.317 390.833 279.726 391.08 279.988C391.204 280.111 391.372 280.18 391.547 280.181L391.722 280.157C391.832 280.127 391.932 280.069 392.013 279.988L392.665 279.336C392.912 279.075 392.912 278.665 392.665 278.404C392.541 278.28 392.373 278.211 392.199 278.211L392.023 278.234C391.913 278.265 391.813 278.323 391.732 278.404Z" fill="#2976DF"/>
<rect x="76.9601" y="163.163" width="5.61002" height="150.53" fill="#F0F3FC"/>
<mask id="mask28_11_22" style="mask-type:luminance" maskUnits="userSpaceOnUse" x="76" y="163" width="7" height="151">
<rect x="76.9601" y="163.163" width="5.61002" height="150.53" fill="white"/>
</mask>
<g mask="url(#mask28_11_22)">
<path d="M84.606 202.911C55.4138 205.117 83.3483 233.07 84.606 234.318C85.8636 235.567 98.9742 212.059 98.9742 212.059L96.0137 201.674" fill="#D6DCF2"/>
</g>
<rect x="83.6046" y="132.94" width="5.56298" height="31.4987" transform="rotate(12.9421 83.6046 132.94)" fill="#F0F3FC"/>
<circle cx="79.3677" cy="162.164" r="6.51336" fill="#2976DF"/>
<path d="M73.3574 314.705L72.7925 314.472C77.9094 301.631 82.2742 288.503 85.8646 275.154C93.097 247.724 93.5106 228.555 87.0615 219.72C81.983 212.763 71.7498 207.063 61.8537 201.55C48.4305 194.072 35.7511 187.009 35.0374 177.057C34.567 170.502 39.4466 163.42 49.9558 155.408L50.3254 155.893C39.9934 163.771 35.1921 170.68 35.6467 177.014C36.3365 186.635 48.8756 193.621 62.1511 201.016C72.1048 206.561 82.3973 212.295 87.5547 219.36C94.2104 228.478 93.8399 247.304 86.4536 275.316C82.8563 288.689 78.4835 301.84 73.3574 314.705Z" fill="#3A3530"/>
<path d="M50.3447 157.397L61.0435 152.355C61.4126 152.18 61.6934 151.861 61.8191 151.473C61.9449 151.085 61.9045 150.662 61.7076 150.304L60.9806 148.987C60.7835 148.629 60.4473 148.369 60.0517 148.268C59.6561 148.167 59.2364 148.235 58.8922 148.454L48.9203 154.814C48.2633 155.233 48.0448 156.091 48.421 156.773C48.7977 157.456 49.6395 157.729 50.3447 157.397Z" fill="#9A7ED9"/>
<ellipse cx="65.6456" cy="147.869" rx="7.03886" ry="8.79749" transform="rotate(-28.8805 65.6456 147.869)" fill="#589BF7"/>
<rect x="119.491" y="129.836" width="55.1749" height="20.4352" rx="3.91978" transform="rotate(151.12 119.491 129.836)" fill="#9A7ED9"/>
<rect x="111.239" y="135.725" width="48.2677" height="22.7774" rx="3.91154" transform="rotate(151.12 111.239 135.725)" fill="#589BF7"/>
<mask id="mask29_11_22" style="mask-type:luminance" maskUnits="userSpaceOnUse" x="59" y="117" width="51" height="41">
<rect x="111.239" y="135.725" width="48.2677" height="22.7774" rx="3.91154" transform="rotate(151.12 111.239 135.725)" fill="white"/>
</mask>
<g mask="url(#mask29_11_22)">
<path d="M83.3364 129.95C78.6448 128.163 92.1633 146.188 81.649 155.201C71.1347 164.213 95.1675 164.213 96.6694 162.71C98.1713 161.208 99.6736 134.171 99.6736 134.171" fill="#2976DF"/>
</g>
<path d="M113.391 135.933L96.1806 145.426C94.0358 146.61 91.338 145.83 90.1549 143.685L82.258 129.368C81.0749 127.223 81.8546 124.526 83.9994 123.343L101.21 113.85C106.746 110.796 113.709 112.808 116.763 118.344L117.886 120.381C120.94 125.917 118.927 132.88 113.391 135.934L113.391 135.933Z" fill="#935738"/>
<mask id="mask30_11_22" style="mask-type:luminance" maskUnits="userSpaceOnUse" x="81" y="112" width="39" height="34">
<path fill-rule="evenodd" clip-rule="evenodd" d="M113.391 135.933L96.1806 145.426C94.0358 146.61 91.338 145.83 90.1549 143.685L82.258 129.368C81.0749 127.223 81.8546 124.526 83.9994 123.343L101.21 113.85C106.746 110.796 113.709 112.808 116.763 118.344L117.886 120.381C120.94 125.917 118.927 132.88 113.391 135.934L113.391 135.933Z" fill="white"/>
</mask>
<g mask="url(#mask30_11_22)">
<path d="M107.318 112.447C124.983 119.688 111.449 142.747 111.449 142.747L125.3 131.318L115.996 108.48L99.7135 112.181" fill="#6D3417"/>
</g>
<rect x="96.7594" y="147.201" width="4.0871" height="28.8847" rx="2.04355" transform="rotate(151.12 96.7594 147.201)" fill="#9A7ED9"/>
<path d="M98.968 125.327V127.864C98.968 128.179 99.2232 128.434 99.538 128.434C99.8528 128.434 100.108 128.179 100.108 127.864V125.327C100.108 125.012 99.8528 124.757 99.538 124.757C99.2232 124.757 98.968 125.012 98.968 125.327Z" fill="#6D3417"/>
<path d="M70.2447 144.633L69.1391 148.868C69.0616 149.169 69.24 149.477 69.5401 149.56C69.8401 149.642 70.1509 149.469 70.2384 149.17L71.3441 144.935C71.402 144.738 71.3489 144.524 71.205 144.377C71.0611 144.229 70.8489 144.171 70.6499 144.224C70.4509 144.277 70.296 144.434 70.2447 144.633Z" fill="#2976DF"/>
<path d="M80.6224 250.392L80.8972 251.24C80.9396 251.382 81.0329 251.504 81.1591 251.581C81.2226 251.622 81.2957 251.645 81.3711 251.648C81.4464 251.665 81.5248 251.662 81.5983 251.638C81.9015 251.554 82.0795 251.24 81.9964 250.937L81.7216 250.089C81.6794 249.947 81.5861 249.826 81.4597 249.748C81.3963 249.707 81.3232 249.684 81.2478 249.681C81.1725 249.664 81.094 249.668 81.0205 249.691C80.8747 249.731 80.7509 249.828 80.6762 249.959C80.6015 250.091 80.5822 250.247 80.6224 250.392V250.392Z" fill="#D6DCF2"/>
<rect x="35.0063" y="305.909" width="377.773" height="25.9859" rx="12.993" fill="#9A7ED9"/>
<mask id="mask31_11_22" style="mask-type:luminance" maskUnits="userSpaceOnUse" x="35" y="305" width="378" height="27">
<rect x="35.0063" y="305.909" width="377.773" height="25.9859" rx="12.993" fill="white"/>
</mask>
<g mask="url(#mask31_11_22)">
<path d="M41.4192 352.296C11.104 307.255 423.709 324.686 435.442 319.469C447.176 314.251 476.943 385.261 425.914 390.565C374.886 395.869 132.365 398.263 132.365 398.263" fill="#6F4EB9"/>
</g>
</svg>
